<svg xmlns="http://www.w3.org/2000/svg" xml:space="preserve" viewBox="0 0 887.3 865"><path d="M222.2 133c-58.8 0-107.6 17.2-144.1 47.5C161.4 68.5 301.4 0 448.6 0 638.5 0 816.3 113.9 876 288.5c-47.8-85.2-144.5-138.6-247-138.6-81.6 0-159.6 33.9-212.1 90.8C381.5 173 306.7 133 222.2 133M487 409.3c0 86.7 64 150 142 150s142-63.4 142-150c0-69.4-64-132.7-142-132.7s-142 63.3-142 132.7M629 686c-72.8 0-136.4-23.3-184.4-63.9v94H104.8C185.1 809.5 306 865 448.6 865c225.6 0 397.1-139 438.8-347C847.6 620.4 751.1 686 629 686M347.9 511.6l-87 81.1H415c-23.1-27.2-40.7-59.4-51.5-95.7-5 4.8-10.2 9.7-15.6 14.6M223 467c32.7-35.7 64-86.3 64-137.6 0-35.7-25.3-72.9-64-72.9-39.4 0-61 30.5-61 68.4 0 7.4.7 15.6 2.2 23.8H5.8C2 370.9 0 393.8 0 417.4c0 86.4 20.4 164.4 57 230.1z" style="fill:#fff"/></svg>