<svg xmlns="http://www.w3.org/2000/svg" width="304" height="40" fill="none"><path fill="#fff" d="M124 0c-11.3 0-20.6 8.6-20.6 19.2 0 11.9 8.6 20.5 20.6 20.5 11.9 0 20.6-8.6 20.6-20.5C144.5 8.6 135.3 0 124 0m9.3 19.2c0 5.6-4.1 9.9-9.4 9.9-5.2 0-9.4-4.4-9.4-9.9 0-4.6 4.4-8.7 9.4-8.7s9.4 4.1 9.4 8.7m-69.8 3.2c0 2-.1 3.7-1.4 4.9-1 1-2.7 1.5-4.6 1.5s-3.6-.5-4.6-1.5c-1.3-1.3-1.4-2.9-1.4-4.9V0h-11v21.6c0 5.3.3 10 4.1 13.7 3.9 3.8 9.7 4.4 12.9 4.4s9-.6 12.9-4.4c3.8-3.7 4.1-8.4 4.1-13.7V0h-11zM103.6 0H76.5v9.7h8v30h11.1v-30h8zm111 0C203.2 0 194 8.6 194 19.2c0 11.9 8.6 20.5 20.6 20.5 11.9 0 20.6-8.6 20.6-20.5C235.1 8.6 225.9 0 214.6 0m0 29.1c-5.2 0-9.4-4.4-9.4-9.9 0-4.6 4.4-8.7 9.4-8.7s9.4 4.1 9.4 8.7c-.1 5.6-4.2 9.9-9.4 9.9M262.2 0h-27.1v9.7h8v30h11.1v-30h8zm20.5 0c-11.3 0-20.6 8.6-20.6 19.2 0 11.9 8.6 20.5 20.6 20.5 11.9 0 20.6-8.6 20.6-20.5 0-10.6-9.2-19.2-20.6-19.2m9.4 19.2c0 5.6-4.1 9.9-9.4 9.9s-9.4-4.4-9.4-9.9c0-4.6 4.4-8.7 9.4-8.7s9.4 4.1 9.4 8.7M0 39.7h12.1l2.1-5.1-12.8 1.5zM27.1 0H15.3l-1.8 4.6 13.4 1.8-14.8 1.8-1.9 4.9 15.7 2.1-17.3 2.2L7 21.6l11.5 1.7 2.6-6.6 3 7.4L5 26.7l-1.2 3.2 23.6 3 2.5 6.8h12.2zM146 30.2l11 1.4.8-5.6-11.3 1.4z"/><path fill="#fff" d="m177 0-7.8 16.1-3.6-8.1-16.1 2-.6 3.5 20.3 2.6-21.2 2.6-.6 3.1 10.8 1.4.6-3.9 2.2 4.3 8.2 1.1-7.2.8 3.7 7.3 3.5.4-3.1.4 3.1 6.1L180 19.3l2.5 20.4H194L188 0zm-32 36.2-.4 2.4-.2 1.1h11.4l.7-4.9z"/><path fill="#fff" d="m151.1 0-.2 1.2-.6 3.9L165.2 7l-3.1-7z"/></svg>