<svg xmlns="http://www.w3.org/2000/svg" xml:space="preserve" id="Livello_1" x="0" y="0" version="1.1" viewBox="0 0 1286.6 1077.5"><style>.st0{fill:#fff}</style><path d="M395.6 662.5 441 456.8c134.9 0 315.1-.3 446.7.6 76.3.5 151 11.4 222 41.2 224.1 93.9 219.8 335.3 73.4 460.9-78.2 67.1-170.7 100.8-271.3 112.1-119.3 13.4-237.2 5.2-350.3-39-65-25.4-122.8-61.4-161.4-122.1-22.1-34.7-31.9-71.2-31.9-114 0-12.8.4-17.5.4-17.5 80.1.5 189.2.2 269.2.7 0 0 .6 2.4 2.2 6 24.7 54.1 89.3 71.1 125.7 76.6 45.4 6.8 124.4 9.9 182.5-19.5 14.5-7.3 28.6-16.7 40.3-27.7 39.7-37.3 34.5-91.9-10.9-122.5-37.3-25.1-80.1-29.3-123.3-29.5-143.4-.6-458.7-.6-458.7-.6M1223.4 353.3h-760L502 175.6c85.1.2 225.2.7 310.2-2.2 95.4-3.3 167.5-16.5 256.6-53.3C1127.2 96 1175 65.7 1206.1 8.2c2.7-5 3.5-8.2 3.5-8.2h14.4v12.2c0 111.5-.6 341.1-.6 341.1M381.3 304.2c0-29-21.7-53.1-49.5-56.8-1.5-.2-2.2-1.9-1.3-3.1 7.1-9.5 11.4-21.5 11.4-34.6 0-31.6-25.5-57.3-57.3-57.3-19.3 0-30.5 7.8-35.3 12.2-1.1 1.1-3 .4-3.2-1.2-3.9-26.8-27.3-46.2-55.5-46.2-28.1 0-51.1 20.5-55.4 47.2-.3 1.6-2.2 2.2-3.3 1.1-4.8-4.6-15.9-12.8-34.9-12.8-31.5 0-57.3 25.7-57.3 57.3 0 13.5 4.7 25.9 12.4 35.6 1 1.2.2 2.9-1.3 3.1C22.2 252.2 0 276.5 0 305.9s22.4 53.3 51 56.7c1.5.2 2.2 1.9 1.3 3.1-7.3 9.6-11.7 21.8-11.7 34.7 0 31.6 25.8 57.4 57.3 57.4 12.4 0 23.9-3.9 33.3-10.6 1.2-.8 2.8-.2 3 1.3 4.6 27 28 47.7 56.4 47.7 29.3 0 53.1-21.8 56.7-49.9.2-1.5 1.9-2.2 3.1-1.3 9.7 7.3 21.6 11.6 34.7 11.6 31.8 0 57.3-25.8 57.3-57.4 0-18.5-7.6-29.8-11.9-34.7-1-1.2-.3-3.1 1.2-3.3 27.9-3.9 49.6-27.9 49.6-57M191 364.5c-33.4 0-60.1-27.1-60.1-60.3s26.7-60.3 60.1-60.3 60.4 27.1 60.4 60.3-27 60.3-60.4 60.3" class="st0"/></svg>