<svg xmlns="http://www.w3.org/2000/svg" xml:space="preserve" viewBox="0 0 692.6 250"><g fill="#20BAD5"><path d="M223.2 237.8c.7 4.9-2.5 9.3-7.1 10.8-8.9 1.5-18.2 1.5-27 0-4.9-1.5-7.8-5.9-7.1-10.8V81c-.7-4.9 2.5-9.3 7.1-10.8 8.9-1.5 18.2-1.5 27 0 4.9 1.2 7.8 5.9 7.1 10.8zm0-206.9c.7 4.9-2.2 9.6-7.1 10.8-8.9 1.5-18.2 1.5-27 0-4.9-1.2-7.8-5.9-7.1-10.8v-19c-.7-4.9 2.5-9.3 7.1-10.8 8.9-1.5 18.2-1.5 27 0 4.9 1.2 7.8 5.9 7.1 10.8zM157.9 219.9c-17.4 18.6-41.9 29.2-67.5 29.7-48.5 1.6-88.9-36.7-90.4-85.2v-4.9c-.3-24.1 8.6-47.1 24.8-64.5 17.7-17.4 42.2-26.7 67-25.7H134c6.8 0 9.6 2.5 10.8 6.2 1.2 4.1 1.5 7.8 1.2 11.8.3 4.1 0 8.1-1.2 11.8-1.5 4.4-5.9 7.4-10.8 6.8H91.9c-13.3-.7-26.3 4.4-36 13.7-9.6 10.9-15.2 24.9-14.9 39.4 0 29.2 20.1 52.7 49 52.7 16.4-.3 32.2-7.1 43.7-18.6 3-3.4 8.1-4.4 12.2-2.5 3.4 2.2 5.9 4.9 8.1 7.8 2.5 3 4.9 5.9 6.2 9.6 2.2 4.5 1 9.1-2.3 11.9M336.7 69h-4.4c-48.6 1.5-86.4 41.9-84.9 90.2 0 55.5 34.8 90.2 95.2 90.2h54.9c6.8 0 9.6-2.5 10.8-6.2s1.5-7.4 1.5-11.5c0-3.7-.3-7.8-1.5-11.5-1.5-4.4-5.9-7.4-10.8-6.8h-54.9c-25.7 0-50-12.7-51.8-39h115.7v-.4h1.9c8.9-.7 15.5-8.9 14.9-18.2v-1.5c-.7-47-39.2-85.6-86.6-85.3m-46.5 73.8c3.7-22.6 23-39 45.6-38.2 22.6-1.2 41.9 15.5 44.1 38.2zM488.3 237.8c.7 4.9-2.5 9.3-7.1 10.8-8.9 1.5-18.2 1.5-27 0-4.9-1.2-7.8-5.9-7.1-10.8V12.3c-.7-4.9 2.5-9.3 7.1-10.8 8.9-1.5 18.2-1.5 27 0 4.9 1.5 7.8 5.9 7.1 10.8zM692.6 159.5c0-49.6-40.4-90.2-90.2-90.2-50 0-90.5 40.4-90.5 90.2 0 50 40.4 90.5 90.2 90.5 1.9 0 3.4 0 4.9-.3 48.4-1.2 87.1-41.6 85.6-90.2m-90.5 52.3c-28.9 0-49-23.8-49-52.7s20.1-52.7 49-52.7 49 23.8 49 52.7-20.2 52.7-49 52.7"/></g></svg>