<svg xmlns="http://www.w3.org/2000/svg" xml:space="preserve" viewBox="0 0 500 500"><linearGradient id="a" x1="250" x2="250" y1="0" y2="500" gradientUnits="userSpaceOnUse"><stop offset="0" style="stop-color:#1f2223"/><stop offset="1" style="stop-color:#2d6bb4"/></linearGradient><circle cx="250" cy="250" r="250" fill="url(#a)" fill-rule="evenodd" clip-rule="evenodd"/><path fill="#FFF" fill-rule="evenodd" d="M74.3 165.8v76.6H151v-76.6zm46.5 67h-16.2v-57.5h16.2zM74.3 74.4V151H151V74.4zm40.5 68.4c-22.6 0-31.4-14.2-31.5-29.7-.1-14.8 9.9-30.5 31.5-30.5 8.4 0 15.8 2.9 22.3 9.1l-10 9.9c-4.1-4-8.4-5-12.3-5-11 0-15.4 9-15.3 16.5s4.1 15.8 15.3 15.8c3.9 0 9.5-1.6 13.6-5.9l9.5 10.7c-6.5 6.6-14.4 9.1-23.1 9.1M74.3 257v76.7H151V257zm65.4 67.2H126l-24-30.9.3 12.5v18.4H85.7v-57.5h13.8l24.3 31.5c-.4-6.9-.4-9.5-.5-11.8v-19.7h16.3v57.5zM74.3 348.5v76.6H151v-76.6zm61.4 67.1h-46V358h44.9v13.7h-28.9v8.2h27.2v13.2h-27.2v8.7h30zM425.4 330.7V74.2h-63.7l-56.3 207.4c.2-34.4-1-50.9-29.9-50.7l-27.1-.1L305.3 117V74.2H168V117h88.3L202 230.8v33.6h19.3c41 0 41.8 2.6 41.8 37.6v57.8c0 25.6-7.3 34.4-27.2 34.4-18.3 0-25-8.8-25-34.9v-38.1h-42.8v44.3c0 44.3 21.4 63.6 68.9 63.6 22.5 0 42.8-5.7 53.9-16.7 9.3-9.4 13.3-20.5 14.3-45.3h78V425h42.3v-58.2h11.4v-36.2h-11.5zm-42.7 0h-47.6l47.6-208z" clip-rule="evenodd"/></svg>