<svg xmlns="http://www.w3.org/2000/svg" width="301" height="320" fill="none" viewBox="0 0 301 320"><path fill="#fefdfd" d="M70.56 280.254c10.898-.121 19.453 1.277 25.402 5.977 1.628 1.278 4.235 4.292 3.958 7.209H84.1c-.564-2.612-3.257-3.837-5.806-4.487-.937-.236-1.83-.138-2.9-.305-.989-.156-2.416-.121-3.336.086-4.436 1.007-7.175 3.072-8.492 7.163-.363 1.157-.932 2.883-.65 4.522.863 5.282 2.807 8.889 7.554 10.374 5.276 1.651 12.945-.357 13.63-5.052H99.96v.04c-.409 1.617-.616 2.687-1.352 3.867-5.944 9.47-26.535 11.639-39.566 7.341-3.832-1.266-7.307-3.59-9.712-6.329a19.3 19.3 0 0 1-3.343-5.402c-1.53-3.78-1.352-8.354.397-11.731 2.716-5.236 6.8-8.981 12.612-11.076 2.341-.845 4.855-1.277 7.554-1.841 1.34-.121 2.68-.241 4.01-.356M103.522 280.265h14.504c1.093 0 5.006-.219 5.627.132 4.35 5.76 8.705 11.513 13.055 17.272 1.087 1.433 2.169 2.871 3.256 4.304.351.483.8 1.524 1.358 1.76v-23.468h13.716c-.017 12.422-.029 24.843-.046 37.265h-14.683c-1.104 0-5.091.224-5.707-.132q-8.62-11.798-17.232-23.595-.093.019-.178.046v23.681h-13.664c-.006-12.422-.006-24.838-.006-37.265M159.52 280.812h24.343c8.261 0 15.643.092 21.091 2.859 1.727.875 3.418 2.117 4.189 3.953.598 1.461.299 3.682-.276 4.925-1.191 2.6-4.085 5.586-7.687 5.667v.172c1.41.046 2.819.72 3.918 1.191 4.321 1.853 7.583 5.639 5.006 11.467-.88 1.996-2.785 3.504-4.701 4.482-5.201 2.646-12.162 2.548-20.039 2.548h-25.838q-.007-18.632-.006-37.264m16.552 12.663h9.004c1.542 0 3.447.184 4.701-.178 1.174-.334 2.221-1.099 2.462-2.377.208-1.087-.598-1.795-1.139-2.192-1.95-1.444-7.571-.874-10.943-.874q-2.046.016-4.085.04zm-.138 8.739c.018 2.29.029 4.574.046 6.858h9.936c2.359 0 4.54.035 5.978-.834.84-.512 2.146-1.369 1.841-2.946-.27-1.421-1.478-2.284-2.727-2.721-1.398-.501-3.498-.357-5.362-.357zM237.087 278.389c10.903-.115 19.447 1.278 25.401 5.978 1.634 1.283 4.241 4.298 3.959 7.209h-15.822c-.564-2.606-3.251-3.831-5.805-4.482-.944-.235-1.824-.143-2.9-.305-.995-.161-2.422-.126-3.343.087-4.424 1.001-7.174 3.072-8.48 7.157-.374 1.162-.932 2.882-.662 4.528.869 5.282 2.819 8.883 7.56 10.368 5.27 1.657 12.94-.351 13.624-5.052h15.868v.046c-.414 1.611-.621 2.687-1.363 3.866-5.944 9.47-26.529 11.64-39.555 7.336-3.832-1.26-7.307-3.579-9.712-6.323a19.4 19.4 0 0 1-3.343-5.408c-1.536-3.78-1.357-8.354.392-11.731 2.721-5.23 6.8-8.976 12.611-11.07 2.342-.846 4.856-1.283 7.56-1.847q2.018-.174 4.01-.357"/><path fill="#ed1c24" d="m1.175 294.488 21.587-.15s120.24-65.405 277.342-42.8l-.017-2.295c.006 0-163.247-35.51-298.912 45.245"/><path fill="#fefdfd" d="m104.155 201.323-1.364-.075c.351-.777.806-1.858 1.042-2.618 2.174-6.962 1.91-11.984-6.818-11.984-11.904 0-29.55 21.909-32.432 35.032-2.802 12.698 6.266 14.66 7.301 14.66 11.777 0 18.986-8.337 21.869-12.071h1.266c-3.78 4.925-10.506 13.768-24.395 13.768-9.608 0-19.435-5.281-17.214-18.192 3.331-19.389 26.115-34.008 42.943-34.008 6.364 0 7.48 2.45 9.188 2.635 3.056.328 3.896-.794 4.586-2.221h1.202zM96.325 236.332l.241-1.076c3.257 0 4.942.403 7.336-3.716 0 0 20.269-38.048 21.822-42.472.84-2.422-2.617-1.738-4.712-1.83l.236-1.035 16.587.046-23.577 45.291c-1.185 2.341.23 3.716 2.209 3.716h2.791l-.225 1.076zM173.719 222.909c-3.929 10.052-9.021 14.798-13.21 14.798-1.306 0-4.464.478-6.696-2.249-.656-.817-.76-2.256-.679-3.544l-.144.063c-2.71 2.836-7.031 5.886-12.732 5.886-5.823 0-14.326-3.372-12.1-10.932 3.475-11.823 15.966-12.715 31.5-19.544 5.61-2.175 7.963-5.472 8.314-7.808.241-1.611-1.22-3.618-6.715-3.618-3.958 0-9.539 1.639-9.447 5.068.058 1.847.84 2.014.478 4.425 0 0-.506 3.135-4.24 3.135s-3.55-2.733-3.383-3.86c.109-.719 3.975-9.925 16.874-9.925 12.462 0 13.555 7.353 13.642 8.958.092 1.617-1.542 5.149-1.542 5.149-1.387 2.912-11.939 23.026-12.278 25.252-.184 1.295.99 1.151 1.271 1.128 2.894-.242 7.745-5.955 10.362-12.382zm-17.433 1.122c3.222-5.891 7.313-15.896 8.642-18.094.265-.449-1.093.915-3.406 2.169-1.438.782-4.194 2.152-4.401 2.255-15.091 7.554-18.457 14.631-19.061 18.659-.742 4.988 1.674 6.438 5.086 6.438 6.052 0 9.924-5.535 13.14-11.427M214.148 208.986l-.627.006c1.669-6.605 2.584-12.836-6.49-12.836-6.351 0-7.479 5.897-7.444 7.117.264 9.326 6.932 13.831 5.724 22.553-1.289 9.171-9.884 12.434-16.788 12.434-5.892 0-6.576-3.7-9.367-3.7-2.652 0-3.239 1.45-4.021 3.055h-.829l6.858-14.815.564-.063c-2.998 14.314 5.402 14.234 6.76 14.234 6.352 0 7.67-4.143 8.038-6.513.379-2.457-.645-5.799-2.353-9.741-2.095-4.815-4.039-9.101-3.153-14.872 1.248-8.066 8.647-11.127 15.655-11.052 7.807.08 7.37 3.653 9.752 3.653 1.616 0 2.198-1.45 3.527-3.055h.897zM249.33 209.452l-.644.012c1.697-6.536 2.635-12.704-6.628-12.704-6.478 0-7.629 5.834-7.6 7.042.27 9.235 7.082 13.693 5.851 22.324-1.312 9.078-10.086 12.306-17.139 12.306-6.013 0-6.709-3.659-9.557-3.659-2.709 0-3.308 1.427-4.113 3.021h-.835l6.997-14.666.575-.057c-3.061 14.17 5.517 14.09 6.904 14.09 6.484 0 7.83-4.108 8.204-6.45.386-2.428-.65-5.742-2.405-9.643-2.128-4.763-4.119-9.009-3.216-14.717 1.272-7.986 8.826-11.012 15.977-10.943 7.975.075 7.526 3.619 9.954 3.619 1.645 0 2.244-1.433 3.601-3.026h.921z"/><path fill="#f36f21" d="m85.284 61.256 42.253 96.623-87.17-59.686C18.493 83.706 22.94 58.892 35.045 47.96c17.145-14.487 41.373-9.464 50.239 13.296"/><path fill="#c9234a" d="m143.197 38.496-15.373 108.152L84.099 43.823C74.64 18.111 95.91 1.265 110.098.972c16.254-1.778 36.644 10.644 33.099 37.524"/><path fill="#635faa" d="m209.684 43.524-43.433 103.124-13.894-93.078c-1.18-14.182 7.686-14.476 10.926-17.14-.581-2.065-5.023-2.065-5.023-2.065h-8.268C149.1 10.13 168.012-.507 183.379.673c16.547.592 35.171 19.797 26.305 42.851"/><path fill="#0089cf" d="m254.014 97.6-87.176 59.985 41.068-95.443C220.316 32 249.279 37.91 259.618 49.44c11.23 11.225 14.487 33.973-5.604 48.161"/><path fill="#04b14b" d="M263.167 168.218H162.402l81.854-57.022c20.102-13.296 41.378-1.186 46.976 16.247 5.926 19.504-7.375 40.775-28.065 40.775"/><path fill="#fdb813" d="M2.25 126.264c7.681-20.091 28.952-27.185 47.863-15.068l81.854 57.022H32.68c-20.689 0-36.942-18.912-30.43-41.954"/></svg>