<?xml version="1.0" standalone="no"?>
<!DOCTYPE svg PUBLIC "-//W3C//DTD SVG 20010904//EN"
 "http://www.w3.org/TR/2001/REC-SVG-20010904/DTD/svg10.dtd">
<svg version="1.0" xmlns="http://www.w3.org/2000/svg"
 width="224.000000pt" height="225.000000pt" viewBox="0 0 224.000000 225.000000"
 preserveAspectRatio="xMidYMid meet">

<g transform="translate(0.000000,225.000000) scale(0.100000,-0.100000)"
fill="#000000" stroke="none">
<path d="M0 1125 l0 -1125 1120 0 1120 0 0 1125 0 1125 -1120 0 -1120 0 0
-1125z m1970 478 l0 -377 -50 -51 -50 -51 50 -49 50 -49 0 -378 0 -378 -850 0
-850 0 0 377 0 377 50 51 50 51 -50 49 -50 49 0 378 0 378 850 0 850 0 0 -377z"/>
<path d="M350 1578 l0 -313 70 -70 70 -71 -70 -69 -70 -69 0 -313 0 -313 770
0 770 0 0 313 0 313 -70 69 -70 69 70 71 70 70 0 313 0 312 -770 0 -770 0 0
-312z m617 70 l53 -52 0 -130 0 -130 -52 -53 -52 -53 -143 0 -143 0 0 235 0
235 142 0 142 0 53 -52z m573 -150 c46 -112 89 -218 97 -235 l13 -33 -45 0
c-39 0 -47 4 -57 25 -11 25 -13 25 -130 25 -117 0 -119 0 -130 -25 -9 -21 -18
-25 -55 -25 -23 0 -43 4 -43 8 0 5 36 94 79 198 43 104 86 206 94 227 15 34
19 37 55 37 l38 0 84 -202z m-550 -516 c0 -33 -14 -55 -121 -187 l-120 -150
118 -5 118 -5 3 -42 3 -43 -180 0 -181 0 0 44 c0 42 7 53 121 193 l122 148
-122 3 -121 3 0 39 0 40 180 0 180 0 0 -38z m413 -117 c59 -85 112 -157 117
-160 6 -4 10 55 10 154 l0 161 40 0 40 0 0 -235 0 -235 -47 0 -48 1 -100 146
-100 147 -3 -147 -3 -147 -44 0 -45 0 0 235 0 235 38 0 c38 0 39 -1 145 -155z"/>
<path d="M710 1460 l0 -150 82 0 c75 0 84 2 110 27 27 26 28 31 28 124 0 82
-3 100 -21 123 -19 25 -25 26 -110 26 l-89 0 0 -150z"/>
<path d="M1382 1483 c-17 -43 -34 -86 -38 -95 -5 -16 2 -18 75 -18 l80 0 -36
88 c-20 48 -39 90 -42 95 -4 4 -21 -28 -39 -70z"/>
</g>
</svg>
