<svg xmlns="http://www.w3.org/2000/svg" xml:space="preserve" fill="#fff" viewBox="0 0 600 600"><path d="M300 600c-80.1 0-155.5-31.2-212.1-87.9S0 380.1 0 300 31.2 144.5 87.9 87.9C144.5 31.2 219.9 0 300 0s155.5 31.2 212.1 87.9c56.7 56.7 87.9 132 87.9 212.1s-31.2 155.5-87.9 212.1C455.5 568.8 380.1 600 300 600m0-569.8c-72.1 0-139.8 28.1-190.8 79-51 51-79 118.7-79 190.8s28.1 139.8 79 190.8c51 51 118.7 79 190.8 79s139.8-28.1 190.8-79c50.9-51 79-118.7 79-190.8s-28.1-139.8-79-190.8c-51-50.9-118.7-79-190.8-79"/><path d="M195.4 117.8H134c-5.6 0-11.2 5.6-11.2 11.2v149.8c0 5.6 5.6 11.2 11.2 11.2h71.4c36.3 0 44-64.9 44-64.9v-37.2c-.1 0-3.7-70.2-54-70.1m-7.3 137.1h-19v-99.2h19c16.5 0 16.7 39.1 16.7 39.1V215s2.3 39.9-16.7 39.9M272 117.7h79.2c5.6 0 11.2 5.6 11.2 11.2v14.5c0 5.6-5.6 11.2-11.2 11.2h-44.1v27.3h26.8c5.6 0 11.2 5.7 11.2 11.3v14.3c0 5.6-5.7 11.2-11.2 11.2h-26.8v35h44.1c5.6 0 11.2 5.7 11.2 11.3v13.8c0 5.6-5.6 11.2-11.2 11.2H272c-5.6 0-11.2-5.6-11.2-11.2V128.9c0-5.6 5.6-11.2 11.2-11.2M387.8 117.7H467c5.6 0 11.2 5.6 11.2 11.2v14.5c0 5.6-5.6 11.2-11.2 11.2h-44.1v27.3h26.8c5.6 0 11.2 5.7 11.2 11.3v14.3c0 5.6-5.7 11.2-11.2 11.2h-26.8v35H467c5.6 0 11.2 5.7 11.2 11.3v13.8c0 5.6-5.6 11.2-11.2 11.2h-79.2c-5.6 0-11.2-5.6-11.2-11.2V128.9c0-5.6 5.6-11.2 11.2-11.2M187.2 313.1h22.6c5.6 0 11.2 5.7 11.2 11.2v148c0 5.6-5.6 11.2-11.2 11.2h-75.4c-5.4 0-11.1-5.6-11.1-11.1v-42.7c0-5.7 5.6-11.3 11.2-11.3h19.1c5.7 0 11.2 5.7 11.2 11.2v11.6s0 5.6 5.6 5.6 5.6-5.6 5.6-5.6l.1-116.9c0-5.6 5.5-11.2 11.1-11.2M333.3 324.3s-3.4-11.1-11.2-11.1h-42.7c-8.7 0-11.2 11.2-11.2 11.2L229.9 478c0 2.8 2.7 5.5 5.6 5.5h32.4c9.4 0 11.1-11.1 11.1-11.1l8.3-31.4h31.9l6.5 31.4s1.2 11.2 9.4 11.2h35.8c3.3 0 5.6-2.6 5.6-5.6zm-39.4 79.3 8.4-39 8.2 39.1zM354.7 313.1h35.7c5.6 0 10 11.2 10 11.2l13.9 30.2 13-30.2s4.6-11.2 8.9-11.2h38s5.9.1 5.9 5.6l-43.9 91.5v62.2c0 5.5-5.6 11.1-11.2 11.1h-23.8c-5.6 0-11.2-5.7-11.2-11.1l.1-62.2-43.1-91.4c0-5.7 7.7-5.7 7.7-5.7"/></svg>