<svg xmlns="http://www.w3.org/2000/svg" width="148" height="51" fill="none" viewBox="0 0 148 51"><path fill="#fff" d="M4.329 6.177 0 7.559v15.756h17.697l-.109-2.601a98 98 0 0 1-.127-3.821v-1.22h-3.965c-2.838 0-4.02-.054-4.184-.217-.163-.164-.218-1.62-.218-5.459 0-4.075-.054-5.24-.218-5.221-.127 0-2.183.636-4.547 1.4M79.483 23.315h15.46c17.351 0 15.824.146 15.023-1.419-1.073-2.128-3.292-4.457-5.42-5.73-1.964-1.165-3.674-1.602-6.602-1.711-3.656-.127-5.966.437-8.221 2.056-.473.327-.91.564-1 .51-.073-.055-.146-2.839-.146-6.187V4.757h-9.094zM129.082 14.218c-4.074.51-7.875 2.711-10.404 6.004-.873 1.147-1.727 2.566-1.727 2.875 0 .164 3.546.218 14.277.218h14.278v-.418c0-1.073-2.837-4.494-5.02-6.059-3.019-2.165-7.293-3.147-11.404-2.62M70.789 15.22a10.8 10.8 0 0 0-4.238 2c-.564.437-1.073.746-1.146.692-.055-.055-.11-.6-.11-1.183v-1.055h-9.457v7.641h19.643V19.24c0-3.548-.036-4.094-.29-4.185-.51-.2-3.22-.09-4.402.164M21.462 23.315h9.276v-7.641h-9.276zM42.56 23.315h9.277v-7.641H42.56zM0 39.508h9.494l-.127-.6c-.091-.31-.182-3.548-.218-7.187l-.073-6.586H0zM21.462 31.63c0 3.584.055 6.823.11 7.187l.127.691h5.056c3.765 0 5.075-.055 5.075-.218 0-.11-.219-.746-.492-1.401l-.49-1.201-.146-11.553h-9.24zM42.524 30.63c-.073 5.949-.145 6.404-1.146 7.714-.91 1.2-1.055 1.164 5.002 1.164h5.457V25.135h-9.24zM55.838 39.508h9.44l.054-5.24c.091-5.95.146-6.313 1.528-7.841.437-.492.8-.983.8-1.092 0-.146-1.727-.2-5.91-.2h-5.912zM79.483 39.508h5.547c3.438 0 5.548-.073 5.548-.182 0-.09-.291-.691-.637-1.31-.855-1.583-1.146-2.456-1.364-4.239-.346-2.73.2-5.64 1.364-7.369.346-.527.637-1.018.637-1.11 0-.09-2.383-.163-5.548-.163h-5.547zM100.763 25.408c0 .145.255.655.546 1.128 1.182 1.855 1.673 4.676 1.291 7.314-.291 2.02-.618 3.02-1.382 4.275-.346.583-.637 1.128-.637 1.22 0 .09 2.365.163 5.275.163h5.256l.2-.691c.746-2.602.964-8.242.437-11.335-.164-.946-.364-1.856-.455-2.038-.164-.291-.6-.31-5.347-.31-4.438 0-5.184.037-5.184.274M115.787 26.08c-.855 3.021-.983 7.606-.31 10.863.219 1.037.473 2.056.582 2.238.164.309.51.327 5.257.327 5.656 0 5.474.036 4.638-1.183-2.019-3.001-2.055-9.115-.073-12.062.291-.437.528-.855.528-.964 0-.091-2.038-.164-5.184-.164h-5.166zM136.23 25.262c0 .073.364.874.819 1.783.673 1.328.873 1.947 1.036 3.257.346 2.802-.291 6.277-1.509 8.078-.291.437-.528.855-.528.964 0 .091 2.037.164 5.184.164h5.165l.291-.964c1.019-3.384 1.092-9.188.164-12.463l-.273-.946h-5.165c-2.856 0-5.184.054-5.184.127M0 42.583c0 3.566 2.31 6.44 5.766 7.223 2.51.546 7.711.164 11.567-.855 1.274-.346 1.4-.419 1.4-.855 0-.255-.381-1.874-.836-3.62l-.855-3.148H0zM22.19 41.619c0 .582 1.255 2.892 2.128 3.948 2.582 3.093 5.456 4.385 9.785 4.385 3.401-.019 5.638-.692 7.457-2.293.418-.364.819-.619.891-.564.055.055.11.546.11 1.092v.964h9.276v-7.824H37.013c-13.641 0-14.823.019-14.823.292M55.838 49.151h9.458v-7.824h-9.458zM79.483 49.151h9.094v-1c0-1.038.145-1.22.564-.692.473.582 2.419 1.692 3.528 2.038 3.456 1.073 9.058.345 12.259-1.583.619-.382 1.583-1.074 2.11-1.547 1.109-.982 2.946-3.602 3.11-4.475l.128-.565H79.483zM117.132 41.637c0 .982 2.51 4.148 4.457 5.64 2.619 2.02 5.238 2.93 8.912 3.093 4.783.218 8.803-1.219 11.968-4.276 1.018-.982 3.037-3.93 3.037-4.439 0-.31-.582-.328-14.187-.328-13.386 0-14.187.019-14.187.31M16.62 5.52c0 .021.004.044.01.054a.1.1 0 0 1 .014.032q.004.017.01.017c.01 0 .009-.01-.006-.038a.2.2 0 0 1-.014-.052c-.003-.046-.014-.057-.015-.013m-.09-1.356c-.01 0-.022.002-.023.007q-.002.007.018.009c.01 0 .022-.004.023-.008q.002-.008-.017-.008m.012-.544c.018-.002.015-.019-.005-.033s-.021-.015-.024-.004c-.004.013.016.038.029.037m.067-.023q.002-.008-.008-.027-.011-.016-.01-.009 0 .01-.006.005c-.013-.007-.007.008.008.024q.013.011.016.007m.494.49q.005-.014-.005-.026c-.006-.01-.008-.015-.005-.024q.004-.014-.01-.012c-.02 0-.035.027-.03.055.005.017.009.021.035.03q.021.006.015-.003a.03.03 0 0 1 0-.02m-.427 1.254q.01-.012.007-.016-.004-.004-.013.008t-.007.017q.004.003.014-.009m.331-1.12q0-.007-.006-.008-.008 0-.01-.015 0-.013.009-.011a.02.02 0 0 0 .015-.001q.007-.003-.008-.022c-.013-.016-.016-.017-.022-.01q-.01.016-.008-.006 0-.016-.006-.017a.2.2 0 0 1-.027-.03c-.013-.017-.02-.03-.016-.03q.006 0 .01-.01t.012-.008q.015.002.01-.029c-.006-.025-.036-.025-.064 0-.03.027-.036.041-.02.067l.011.025c0 .003.012.022.026.041l.025.035-.004.026a.1.1 0 0 0 .001.04c.011.029.068.055.088.04.007-.005-.001-.056-.01-.064a.02.02 0 0 1-.006-.013m-.37.004q-.006 0-.002.008.003.008.007.009.002-.002.001-.009-.001-.008-.007-.008m.025-.55a.04.04 0 0 0-.011-.016q-.012-.01-.009.001c.005.018.023.032.02.015m.185.11q.006-.012.003-.016-.002-.003-.008.01c-.004.015.004.044.01.036q.004-.005-.003-.012c-.007-.007-.007-.01-.002-.019m.02.472q0 .001.003.012.006.012.01.013.006 0-.002-.012zm.063-.571q.003-.001.002-.008 0-.008-.003-.008t-.003.008q0 .006.004.008m-.108.554q-.01 0-.002.005.006.003.01 0 .002-.006-.008-.005m-.116-.173q-.023-.016-.026-.024 0-.005.008-.001c.006.003.014-.02.008-.028q-.001-.004.01-.013l.01-.01-.012-.002a.04.04 0 0 0-.023.007l-.03.015c-.019.009-.02.01-.01.02.005.007.016.01.022.007q.013-.004.01.006-.004.007-.013.008a.04.04 0 0 0-.02.008q-.01.01-.022-.009c-.012-.016-.013-.017-.005-.024q.011-.009-.009-.01-.017-.001-.018-.008c-.003-.025-.037.003-.042.034q-.003.013-.007.01c-.006-.008-.025.067-.02.081.009.024.06.032.09.012.02-.013.04-.012.068.005.026.016.088.024.1.013.03-.039-.044-.08-.069-.097m.918-.571-.002-.006q-.004-.007-.006-.007l.002.006zm-.05.45q-.004-.005.001.009.005.012.004.005zm-.086.007q-.003 0 0 .008.002.006.008.008.004 0 0-.007-.004-.008-.008-.009m.894 1.52v-.005l-.003.007v.005zm-.011.023q-.003 0-.004.007-.001.012.005-.001zm-.018-.146v.009l.001-.005zm-.003.016q0-.002-.002-.004 0-.001-.003.004 0 .004.002.004zm-.014-.062q-.001-.01-.002-.005c-.002.01 0 .027 0 .022zm-.008-.035q0-.002-.002.003v.008q.002.003.002-.003zm-.01.022a.03.03 0 0 1-.013.018l-.008.005.004.005q.003.005.007.001a.1.1 0 0 0 .015-.036q.002-.012-.006.007m-.028.32q-.004-.034-.003.001 0 .016.002.017c.001-.001.002-.01.001-.019m-.01-.203.007.003q.003.003.001-.014 0-.014-.003-.012v-.021q-.004-.021.004-.03.003-.004-.002-.012-.005-.007-.005-.015.004-.016-.017-.036l-.019-.017c-.002-.005-.005-.002-.016.019-.012.023-.013.024-.015.014l.001-.026.002-.018c-.001-.007-.013-.004-.02.004l-.008.01.005.003q.004.004.005.011 0 .007.006.009.006 0-.003.004-.01.002-.005.008v.014q0 .009.001.008.002 0 .003-.006.002-.004.011.006t.012.01c.002 0 .005.033.003.043l-.004.008q-.003.002-.007.012-.004.013.005.003.01-.008.01.005c.003.013.017.009.02-.007q.002-.009.008-.018.01-.017.014.02c0 .008.003.017.006.018m-.082-.044q.01-.023.006-.022-.003 0-.004.006l-.005.018q-.004.015.003-.002m-.02.152-.003.007q-.002.005 0 .006l.003-.008q.002-.006 0-.005m.055-.044q.006-.048-.001-.027c-.004.008-.012.038-.024.081l-.016.05q-.012.026-.013.013l-.006-.018c-.012-.02-.012-.022-.004-.044l.015-.035q.003-.01-.006-.008a.02.02 0 0 1-.014-.006q-.01-.011-.008 0c.003.005-.003.018-.009.02a.03.03 0 0 0-.015.018q-.001.005-.007.017l-.007.019a.02.02 0 0 1-.01.012q-.007.006-.005-.002v-.013c-.003-.006-.013.002-.015.01l-.004.006a.1.1 0 0 0-.02.035q0 .007-.006.009-.005 0-.007.01 0 .009-.003.01-.003 0-.002-.007c.002-.01-.008.006-.014.022a.2.2 0 0 1-.024.047l-.03.024a.2.2 0 0 0-.043.043q-.004.001-.006.008-.003.006-.005.005c-.005-.004-.025.054-.026.073 0 .012-.002.015-.006.02-.005.006-.007.013-.01.04l-.013.069a.2.2 0 0 1-.02.052q-.014.01-.003.021c.008.01.012.008.032-.012a.1.1 0 0 1 .033-.023q.018-.006.022-.016c.008-.017.024-.03.067-.06q.016-.009.018-.006t.008.003c.005-.001.006.032 0 .046q-.008.019.018-.02.026-.041.003.004c-.011.022-.014.032-.003.013.008-.015.008-.007 0 .01q-.007.013 0 .006.008-.007-.001.02-.01.025.002.025.005.002.007.005.002.005.011-.009.012-.016.01-.004c0 .01 0 .01.014-.008l.019-.02q.005-.003.01-.016a2 2 0 0 1 .066-.139l.015-.038.011-.037.009-.03a.1.1 0 0 0 .005-.038c0-.01 0-.024.002-.028v-.01c-.002 0-.002-.01 0-.022a.1.1 0 0 0-.001-.031.1.1 0 0 1 0-.027l.003-.027.006-.026q.003-.017 0-.02c-.003-.004-.003-.011 0-.039m-.001.459q0-.003-.005.003-.006.007-.005-.003.001-.008-.001-.006t.002-.014l.004-.022q0-.011-.005.008l-.002.014a.2.2 0 0 1-.022.062c-.003.002-.005.011-.004.015s0 .007-.004.018l-.006.014a.2.2 0 0 0 .027-.048l.005-.01a.1.1 0 0 0 .016-.031m-.053.086q-.002.002-.002-.003 0-.006-.014.022l-.029.048a.4.4 0 0 0-.037.058q-.002.007.004.006.012 0 .03-.038c.008-.017.02-.036.019-.03l.002-.005.014-.026q.018-.034.013-.032m-.12.062-.014.007-.005.021q-.01.04.004.02.005-.01.006-.008.001.001.008-.013c.015-.031.014-.033 0-.027M18.03 6q-.005.002-.004.004.002 0 .006-.002.003-.005-.002-.002m-.129-2.071-.005-.008v.006l.006.008zm.126-.038q0-.005-.003-.006v.005q0 .005.003.007zm-1.636-.226q.009-.009-.003-.008-.011 0-.012.008 0 .015.015 0m-.078.03q.007-.001.008-.008-.001-.008-.005-.008-.006 0-.008.008-.003.007.005.008m-.127.057c.007.004.02-.008.02-.02 0-.006-.002-.007-.017 0-.01.004-.012.015-.003.02m-.02-.01q-.006.001-.005.008.003.008.008.004.011-.011-.003-.012m.474.609q.014-.001.017-.008.002-.008-.012-.009t-.017.008q0 .008.012.009m-.172-.015a.04.04 0 0 0 .022 0q.006-.003-.011-.004-.02-.001-.01.004m-.254-.067.027.014q.004.001.007-.019c.003-.02.002-.021-.027-.02-.017 0-.03.003-.031.006q.002.007.024.019m-.092-.125q.005-.002.006-.017-.001-.026-.013-.012c-.005.007 0 .029.007.029m-.02.046c0 .016.001.029.004.029q.022-.001.025-.034c.001-.026-.003-.031-.017-.027q-.01.002-.011.032m-.118.014q.004.007.01.004.012-.012-.004-.013-.007 0-.006.009m1.842.684.023.059c.01.02.015.041.024.085a.4.4 0 0 0 .015.059c.004 0 .032.05.036.066.008.039.021.095.037.093.004 0 .004-.003.003-.02 0-.01 0-.03.003-.042.004-.025-.028-.06-.044-.068q-.008-.004-.012-.02a.1.1 0 0 0-.014-.03c-.012-.018-.014-.024-.018-.074-.003-.04 0-.058.006-.035q.003.011.007.012a.1.1 0 0 1 .025.026c.01.015.021.028.025.03q.006.005.01.023l.007.018c.004-.001.01-.029.009-.036q-.002-.008.003-.009.006-.002.01-.017c.005-.015.004-.022-.003-.05a.25.25 0 0 0-.049-.1c-.028-.041-.033-.059-.027-.09.006-.028.023-.035.029-.012l.01.022q.006.01 0 .01c-.011 0-.01.03.001.038q.012.009.012-.018 0-.016-.006-.023-.019-.029 0-.046.014-.012.01-.024-.003-.013.001-.003c.007.013.024 0 .03-.024a.2.2 0 0 0 .006-.054l-.003-.012v-.027q.002-.065-.016-.069h-.005q0-.004.003-.007.007-.014-.021-.065a.2.2 0 0 0-.03-.047c-.007-.006-.002-.046.006-.05q.012-.01-.01-.021-.011-.006-.013.003c0 .011-.008.006-.013-.008a.03.03 0 0 0-.01-.013c-.01-.004-.017-.025-.01-.025q.006-.002.01-.023.006-.022.011-.017c.006.005.007.007.007.02 0 .019.007.029.012.017q.005-.01.015-.004c.01.005.01.007.014.022.004.02.008.026.016.027.006.001.015.014.014.022 0 .004.01.04.018.06q.002.002.011-.004c.008-.007.008-.009.001-.033a.2.2 0 0 0-.028-.057.2.2 0 0 1-.018-.034.06.06 0 0 0 .004-.039.1.1 0 0 1 0-.027q.002-.02.011-.008c.013.013.017-.002.013-.07a.2.2 0 0 0-.014-.089l-.011-.038c-.005-.031-.043-.085-.045-.063q0 .013-.006.002-.007-.02-.005-.01.002.014-.003-.001-.006-.013-.014-.016l-.008-.004.004-.01.005-.027c.005-.057-.016-.067.014-.053q.014.006.015.003c-.001-.008.02.006.022.015q.001.006.01.006h.011q.007.001-.002-.006c-.005-.005-.006-.009-.005-.026q-.002-.023.01-.015.01.003.012.012.01.024.012.008.002-.009.004-.005.002.005-.002-.009-.005-.012-.002-.011c.007.003.015.031.013.048l-.001.024q0 .01-.003.016c-.005.006 0 .03.011.056l.025.055.021.042c.006.012.006-.011 0-.025q-.002-.008 0-.012l-.002-.015q-.004-.012 0-.014.005-.001-.002-.014c-.007-.013-.008-.025-.001-.018q.002.002 0-.003l-.005-.008-.007-.013q-.005-.014-.008-.014c-.005-.002-.007-.007-.01-.029q-.004-.018 0-.017.005.002.006 0 0-.003.004.003.003.006.004 0 .001-.012.014.004.003.005.005.002a2 2 0 0 0-.154-.222l-.001-.002-.006-.007-.002-.002q-.005-.002-.007-.01h-.001l-.014-.018-.027-.016c-.029-.014-.014-.009-.026-.025-.01-.014-.034-.026-.03-.015q.003.007-.002-.002c-.004-.008-.008-.012-.02-.017l-.019-.01q-.004-.003-.01-.004c-.005-.001-.005 0 .002.012q.01.017 0 .007-.007-.004-.006 0 .001.006-.005 0l-.025-.014q-.02-.008-.019.002.001.015-.029-.019-.012-.013-.005-.01c.006.002-.004-.012-.011-.015q-.008-.001-.003-.006.004-.002-.006-.009l-.028-.016c-.018-.009-.02-.009-.016 0q.008.011-.012.004a.1.1 0 0 1-.028-.015.1.1 0 0 0-.038-.02l-.044-.019q-.02-.01-.013-.001.004.007-.008.007c-.015 0-.026-.007-.015-.01l.016-.008.02-.007c.007-.004.007-.008-.001-.021l-.008-.008-.016-.01a.1.1 0 0 0-.026-.013c-.018-.003-.04-.015-.04-.021-.003-.011-.028-.022-.039-.016q-.006.003-.006.01 0 .005-.005.004-.008-.002-.005.002.001.006-.017 0c-.038-.01-.098-.006-.105.006l-.005.007.01.007q.01.007-.026.004l-.038-.002c-.006.001.015.03.027.036q.015.008.008.01-.007 0-.022-.009c-.009-.004-.023-.013-.032-.016q-.02-.012-.004.006.016.017-.003.005-.025-.009-.001.011.013.01-.003.004c-.01-.003-.014-.006-.018-.02l-.01-.02q-.004-.005 0 .006.003.011-.002.01-.006 0-.009.006c-.003.005-.001.007.008.018.008.01.01.012.01.021q-.003.026.027.03c.02.003.036.017.037.034q.001.014-.004-.003c-.005-.013-.02-.025-.031-.023q-.01 0-.002.017c.005.013.004.02-.004.03-.011.014-.04.015-.05 0q-.003-.008.011-.002c.013.006.017.003.021-.014.005-.019.004-.022-.004-.031a.1.1 0 0 1-.016-.035.1.1 0 0 0-.013-.03q-.006-.006-.005-.017-.001-.023-.02-.028-.012-.002-.009-.008.005-.007-.004-.008-.008 0-.006.006.002.007-.004.006-.005 0-.006.013a.04.04 0 0 1-.008.022q-.007.009-.003.01.004.003.008.013.002.01-.001.01-.003.002.016.017c.031.028.023.034-.014.012a.4.4 0 0 0-.062-.03l-.04-.015q-.013-.007.004.007.03.022.018.036-.006.007-.011-.002c-.004-.007-.012-.008-.037-.005q-.034.005-.037-.005-.006-.007-.01-.004l-.018.007c-.022.003-.047.017-.048.026 0 .01-.02.011-.032.003-.01-.007-.008-.019.003-.018.009.001.007-.01-.003-.018s-.038-.008-.03 0a.03.03 0 0 1 .006.018q0 .01.005.017c.01.01.002.026-.012.019q-.012-.005-.027.003c-.019.012-.02.013-.01.028.008.012.007.013-.011.008l-.03-.01q-.012-.007-.01.002.001.01.01.014c.01.005.015.019.006.018a.1.1 0 0 1-.045-.03.1.1 0 0 1-.006-.023q0-.01-.012-.016c-.024-.012-.007-.012.036 0 .037.01.045.009.057 0q.012-.011.01-.021a.342.342 0 0 0-.157-.074c-.022-.006-.024-.008-.016-.013.01-.006.01-.006-.006-.013q-.014-.006-.02-.004-.004.002-.005-.005t-.008-.003l-.016.007a.03.03 0 0 0-.015.01q-.005.008-.006.004 0-.006.006-.016.01-.012-.01-.002a.1.1 0 0 0-.02.014q-.006.006-.015.003c-.005-.002-.015 0-.021.006q-.01.008-.02.003-.018-.013-.013 0 .002.006-.004.006h-.016q-.012 0-.004.009c.01.011-.006.018-.018.007q-.012-.01-.006 0 .003.01-.007.004-.012-.007-.004.003.006.007.014.004c.017-.01.006.01-.019.03a.1.1 0 0 0-.035.043q-.009.021-.016.023-.005 0-.006.009-.001.006-.005.003-.005-.002-.017.012t-.02.012q-.005-.004-.007.007-.001.01-.008.011a.1.1 0 0 0-.03.014c-.022.015-.03.039-.018.059.004.009.004.012-.003.02q-.012.014.004.006.017-.009.002.007c-.01.013-.009.017.015.025.013.003.023 0 .04-.012.01-.01.02-.02.02-.025q.002-.01.008 0a.04.04 0 0 1 .007.021q0 .01.004.011.005.001.005.01 0 .012.009.026t.007.018q-.001.005.002.018c.005.014.026.014.026-.001q.001-.006.013-.007.034-.001.03-.04c-.001-.02 0-.025.013-.033a.1.1 0 0 0 .021-.021c.007-.01.006-.012-.002-.021q-.009-.01-.016-.011-.006-.002-.007-.015a.07.07 0 0 1 .038-.06q.038-.022.03-.034c-.006-.014.02-.03.041-.028q.037.007.016.028c-.051.044-.057.05-.053.062.002.007.003.02.003.03 0 .025.024.037.061.032l.044-.008c.015-.002.031.01.026.018-.002.004-.018.007-.037.007-.043.002-.058.007-.057.018q0 .008.01.013.01.003.008.02-.004.031-.021.01c-.02-.02-.036-.003-.034.04 0 .021-.001.026-.01.026q-.01 0-.01.008c0 .01-.023.01-.03 0q-.006-.008-.042.007c-.02.009-.04.013-.043.01a.1.1 0 0 0-.036-.006c-.031 0-.047-.014-.04-.032a.03.03 0 0 1 .012-.016q.013-.005.006-.016-.006-.012-.002-.02c.006-.013-.01-.01-.02.005q-.008.01-.014.006-.006-.007-.004.026c.003.058.003.063-.011.064-.04.002-.043.004-.047.021q-.005.018-.008.006-.002-.011-.019.016a.1.1 0 0 1-.032.03q-.016.007-.02.018a.1.1 0 0 1-.023.025c-.015.01-.021.01-.029.003q-.01-.012-.012.009c-.001.014-.005.017-.016.017q-.039-.006-.04.013 0 .01.01.012c.023 0 .047.037.043.068a.2.2 0 0 1-.01.04c-.007.02-.009.02-.058.018a.3.3 0 0 1-.055-.005q-.007-.003-.02.005c-.012.009-.014.014-.017.046a.3.3 0 0 1-.014.062c-.008.02-.01.029-.006.036a.1.1 0 0 1 .001.03c-.003.018-.001.02.016.014.014-.004.02-.001.027.011.009.015.014.016.027.008a.1.1 0 0 1 .039-.009q.022 0 .027-.013c.002-.006.008-.013.012-.013.01 0 .028-.033.028-.05s.03-.053.053-.064c.014-.007.02-.014.023-.031.005-.027.026-.04.045-.026.01.007.02.004.043-.01a.2.2 0 0 1 .036-.021c.003-.001.018.016.032.035s.043.05.064.063c.04.026.051.043.043.077-.004.018-.003.017.014-.004.015-.02.017-.025.008-.031q-.01-.007-.001-.019c.006-.008.01-.008.02 0q.013.011.018.007c.004-.005-.037-.038-.047-.038a.01.01 0 0 1-.008-.009q-.001-.008-.01-.008c-.005 0-.02-.015-.033-.033a.1.1 0 0 0-.029-.033q-.005-.002-.005-.02c0-.023.023-.036.028-.016q.004.01.013.007.01-.004.019.02c.005.012.017.025.026.029a.2.2 0 0 1 .04.026c.019.015.025.026.026.043q0 .022.025.054c.013.018.022.034.019.035-.008.004.02.04.031.04q.009 0 .005-.012t.012-.02c.024-.013.015-.033-.013-.027q-.004 0-.002-.01.002-.014-.003-.018c-.011-.01-.007-.023.005-.017q.01.004.018-.008c.014-.024.057-.008.051.019q-.002.011.005.012.008 0 .006.02 0 .02.004.022.005.001.006.013c0 .007.008.017.018.022l.031.019q.015.011.024-.005c.008-.012.012-.012.027 0 .02.014.044.017.048.006 0-.004.01-.01.021-.01l.02-.003v.034a.4.4 0 0 1-.009.08q-.017.078-.058.048c-.014-.01-.02-.01-.035-.001-.022.012-.036.012-.067 0l-.06-.02c-.021-.006-.039-.013-.039-.018q-.001-.006-.017-.011c-.023-.008-.052.01-.051.034a.1.1 0 0 1-.008.03c-.008.012-.011.011-.037-.004a.1.1 0 0 0-.044-.016.03.03 0 0 1-.022-.015c-.007-.015-.052-.038-.06-.03-.006.003-.064-.028-.064-.035a.1.1 0 0 1 .015-.02c.013-.013.014-.017.007-.03-.007-.01-.006-.015 0-.027.009-.013.009-.013 0-.008q-.011.004-.012-.003 0-.01-.023-.005l-.09.01c-.047.005-.109.014-.14.048-.008.008-.07.004-.077-.007-.006-.013-.01-.009-.022.019a.1.1 0 0 1-.034.04c-.027.018-.057.065-.056.09 0 .022-.02.05-.056.072a.3.3 0 0 0-.07.09.1.1 0 0 1-.016.027 1 1 0 0 0-.032.054c-.018.033-.02.037-.014.05.007.015.007.031 0 .081a.3.3 0 0 1-.034.09q-.007.004-.001.022c.003.01.003.029 0 .042-.004.018-.002.023.01.028q.012.005.012.013c0 .003.008.022.02.04a.2.2 0 0 1 .018.052c.002.037.055.078.085.107.015.016.02.016.082 0a.1.1 0 0 1 .059 0c.021.006.035.004.07-.013s.09-.04.127-.017c.01.008.018.02.018.025q-.003.033.048.024c.03-.005.034-.003.054.016.013.012.02.026.018.034a.2.2 0 0 0-.006.052.1.1 0 0 1-.008.049q-.015.018.047.083a.33.33 0 0 1 .077.153l.01.056c.005.023.004.032-.008.045a.2.2 0 0 0-.03.11c.006.04.037.083.062.117.007.01.015.037.019.062q.011.072.036.092c.015.012.055.088.05.096-.006.01.01.038.026.044q.014.007.028 0a.1.1 0 0 1 .05-.012.2.2 0 0 0 .152-.08l.038-.045a.1.1 0 0 0 .023-.053c.005-.03.005-.032.033-.046.028-.015.029-.017.032-.042a.2.2 0 0 0-.002-.054c-.004-.025-.003-.028.011-.04a.3.3 0 0 0 .033-.032.1.1 0 0 1 .038-.03.1.1 0 0 0 .036-.028c.016-.017.017-.024.023-.082.005-.048.004-.066-.003-.072-.005-.005-.008-.023-.008-.044s0-.044-.004-.053c-.005-.013-.001-.024.016-.057a.4.4 0 0 1 .04-.063l.056-.066a.3.3 0 0 1 .053-.055.24.24 0 0 0 .08-.142l.015-.06a.2.2 0 0 0 .002-.05c-.002-.036-.003-.039-.013-.032a2.016 2.016 0 0 1-.129.042l-.017-.021q-.018-.02-.012-.025c.009-.005-.036-.06-.07-.086a.1.1 0 0 1-.038-.054.14.14 0 0 0-.027-.05q-.018-.016-.027-.057a.14.14 0 0 0-.027-.062.1.1 0 0 1-.02-.036.2.2 0 0 0-.02-.046l-.03-.06-.027-.054c-.008-.014-.013-.027-.01-.027s.011.013.02.027c.018.035.032.04.03.014q-.002-.019.002-.006l.034.056a.3.3 0 0 1 .03.053c0 .005.008.015.016.023a.13.13 0 0 1 .039.077q.002.02.026.043a.1.1 0 0 1 .026.032c0 .006.011.025.024.044a.2.2 0 0 1 .026.051.3.3 0 0 0 .035.098q.008.003.023-.008a.1.1 0 0 1 .022-.012.1.1 0 0 0 .021-.008q.012-.007.016-.006c.002 0 .01-.005.016-.013a.1.1 0 0 1 .034-.024.1.1 0 0 0 .03-.03.05.05 0 0 1 .03-.026q.02-.006.02-.016-.002-.011.008-.012t.01-.008q-.002-.009.01-.018.009-.009.007-.016c-.006-.009-.003-.032.004-.032.003 0 .008-.012.012-.026l.006-.027-.014-.019a.1.1 0 0 0-.03-.023c-.02-.006-.028-.018-.036-.047l-.006-.023-.014.027c-.023.046-.07.045-.07-.001 0-.024-.014-.033-.015-.01-.001.018-.003.017-.015-.013a.1.1 0 0 0-.02-.036.1.1 0 0 1-.025-.037c-.016-.032-.016-.032-.007-.041.017-.016.03-.01.048.024.018.03.059.079.096.07q.008-.006.012-.002.004.002.003-.004c-.004-.018.008-.011.017.01.005.01.01.021.014.024a.24.24 0 0 0 .147.01c.001-.002.012.009.024.024.028.035.052.057.057.051q.004-.002.005.003.001.009-.008.01c-.01-.001-.01 0 .01.024.023.028.038.026.037-.003 0-.017 0-.017.01.004a.1.1 0 0 1 .01.032c.009.05.03.103.052.149.01.02.02.04.021.045.002.006.01.025.02.043s.023.045.03.062c.016.041.024.042.036.005a.25.25 0 0 0-.008-.137c-.008-.031-.008-.038-.002-.042q.007-.004.007-.011-.001-.006.002-.007.009-.002.027-.07c.004-.013.01-.025.012-.025.007 0 .01-.016.007-.032q-.003-.013.001-.015l.017-.004.017-.004q.005-.002.003-.015c-.003-.021.01-.008.025.024a.1.1 0 0 0 .025.037.03.03 0 0 1 .012.02q0 .01.004.011c.007 0 .022.04.022.058q0 .018.007.02c.012.008.016.005.021-.014l.005-.019.012.031m-.173.212q-.024-.045-.022-.016c0 .018.011.066.018.078.006.009.008.01.015.001.012-.012.009-.026-.011-.063m-.292 1.745q.004 0 .006-.003.003-.003-.002-.001-.007.002-.004.004m-.208-1.837q.004.008.01.004Q17.172 5 17.157 5q-.007.001-.003.008m-.027.898q.005 0 .004-.007-.001-.006-.004-.006-.002 0-.004.007 0 .007.004.006m-.016.738c-.003.01.007.01.018 0q.008-.007-.004-.008-.012 0-.014.008m-.202-.73c-.013.02-.015.029-.016.054q-.003.065.036.05a.1.1 0 0 0 .025-.011c.03-.045.054-.118.075-.179l.008-.02a.04.04 0 0 0 .005-.022q-.002-.015.008-.01c.007.003.008 0 .008-.024.001-.025-.006-.066-.01-.066l-.006.006c-.003.002-.006.01-.007.016a.1.1 0 0 1-.013.024L17 5.76a.1.1 0 0 1-.033.026q-.05.02-.044.076c.002.027 0 .032-.013.052m-.846 1.353q.005 0 .003-.008l-.003-.008-.003.008q-.002.008.003.008m-.207.041q.001.005.005.007.003 0 0-.006l-.004-.006zm1.648-.311c-.014.006-.018.007-.021.005q-.004-.001-.013.002-.01.003-.008 0 .003-.007-.005.001l-.01.007q-.007.004-.006.002.002-.003-.004-.002-.02.004-.017-.003.003-.005 0-.002l-.034.009-.024.005q-.006.003.002-.008.007-.01.004-.008l-.01.01c-.005.008-.007.01-.02.015a.1.1 0 0 0-.024.014c-.01.01-.02.014-.02.007q-.002-.004-.006 0a.3.3 0 0 1-.065.027c-.014.004-.027.003-.03-.002s-.022.004-.033.015c-.008.008-.011.009-.038.01-.025 0-.03 0-.044.009l-.008.006-.002.001a.1.1 0 0 1-.016.012.2.2 0 0 0-.069.028.1.1 0 0 0-.026.016l-.04.024a.1.1 0 0 0-.03.017q-.008.006-.01.005 0-.002-.01.01c-.013.016-.035.03-.042.027s.002-.016.009-.018l.012-.01q.01-.01.002-.004-.015.006-.009-.005l.009-.005a.1.1 0 0 0 .028-.03q0-.003-.028-.002a.3.3 0 0 1-.09-.003q0-.004-.005-.01c-.01-.009-.063.004-.066.018q-.002.007-.012.006t-.011.005-.012.005a.1.1 0 0 0-.024.004l-.023.008a.13.13 0 0 0-.052.025c-.008.01-.024.014-.024.008q0-.005-.007-.002t-.015-.007c-.008-.01-.01-.01-.017-.005-.016.014-.029.019-.072.028a.3.3 0 0 1-.076.004.3.3 0 0 0-.101.001q-.006.005-.015.002a.3.3 0 0 0-.097-.002.1.1 0 0 1-.067.006c-.02-.002-.034-.007-.033-.01.003-.009-.011-.005-.02.005s-.009.01-.016 0c-.006-.008-.009-.009-.018-.005-.006.004-.015.004-.018.002q-.009-.006 0 .005c.007.009.007.01-.001.014l-.015.004q-.006 0-.008.003-.004.004-.014.006-.011 0-.013.007-.001.008.014.006.018-.004-.008.008-.02.01-.022.016c0 .003-.01.004-.021.003-.041-.006-.171-.004-.176.02-.001.001.042.024.047.022l.024.001c.02.001.02.001.012.007l-.007.006.01.002.012.006q-.003.004-.01.005a2.18 2.18 0 0 0 1.723-.41m-1.868-.23a.04.04 0 0 0-.016-.01q-.018-.006-.001.005c.014.011.023.014.017.005m-.027.58-.01-.015c-.002-.012-.038-.025-.058-.022a.02.02 0 0 0-.015.012q-.001.012-.02.011h-.009q.045.015.092.028h.02c.007-.003.007-.004 0-.014m-.118-3.754q.01-.002.01.002-.002.006.003.007.006 0 .005.006 0 .006.009.008c.01 0 .016-.006.028-.027a.1.1 0 0 0 .016-.034c0-.004.008-.014.02-.021q.03-.021.018-.03-.003-.003.004-.004.01 0 .007-.012c-.002-.009.001-.011.017-.016a.1.1 0 0 0 .031-.019q.014-.016.004.002-.008.017.004.006l.028-.014a.1.1 0 0 0 .037-.024c.01-.01-.062-.017-.06-.017a.4.4 0 0 0 .09-.013q0-.014.006-.004c.008.01.062-.002.11-.024.028-.014.03-.017.023-.022a.1.1 0 0 0-.026-.007q-.015-.003-.006-.006.01-.003.01-.015t.009-.006q.007.006.01.013c0 .009.034.013.036.005.002-.012-.011-.035-.024-.04s-.022-.027-.01-.027q.006 0 .005.007c-.002.008.02.023.026.018q.012-.011-.009-.024-.013-.01-.012-.014.004-.003.015.005c.013.008.04.002.042-.01q0-.008.013-.012l.012-.005-.012-.001c-.015-.001-.015-.016 0-.016q.009 0 .01-.004c.002-.012-.008-.026-.018-.026-.02 0-.018-.01.002-.013q0 .004.003.004t.006-.005q.017 0 .017.007 0 .008.006-.002.015-.018-.007-.019-.011 0-.013-.01-.001-.007-.01-.003l-.01.005q.005-.008.011-.015.01-.014.017-.015.006-.001.01-.011.005-.01.013-.011a.03.03 0 0 0 .017-.007.2.2 0 0 1 .052-.03l.024-.009-.024-.007a.06.06 0 0 0-.041.003.1.1 0 0 1-.03.005c-.006-.002-.019 0-.029.006-.01.005-.02.008-.02.006q0-.003.003-.004.004-.001.013-.011.017-.014-.014-.007-.023.003-.02-.003.005-.006.022-.007t.02-.008q.004-.007-.012-.007A.345.345 0 0 0 15.817 3c-.014.002-.026.007-.027.01 0 .003-.023.007-.048.008q-.045 0-.036.006c.011.004.016.012.008.013q-.003 0-.004.007c-.001.009-.002.008-.032 0-.033-.01-.038-.01-.038.004q0 .018-.018.006-.009-.006-.014.002t-.008 0c-.005-.01-.087.012-.092.024q-.002.01-.02.011a.2.2 0 0 0-.064.03q-.004.006.008.004c.007 0 .013 0 .01.005-.003.007-.012.012-.04.021-.05.017-.063.023-.065.028-.004.006.031.015.038.008q.005-.002.002.003c-.002.004-.012.009-.022.01q-.02.005-.01.007.008.004.011.01.003.007.045-.002c.044-.01.074-.004.075.013q.001.007.005.007c.003 0 .007.012.008.026.003.023.002.029-.005.037q-.025.026.002.018.017-.005.028.005c.008.011.008.03 0 .021q-.005-.003-.018-.003t-.008-.006-.002-.003q-.008.004-.008.011-.001.006-.004.007-.004.001-.009.01c-.005.013.006.02.02.013l.012-.005-.005-.01q-.009-.012.006-.005c.006.001.01.007.01.01q0 .006.007-.001.01-.013-.003.01-.012.019-.02.02-.01.002-.026.018c-.014.015-.016.018-.013.026q.003.008-.004.012-.007.005-.001.02a.1.1 0 0 1 0 .027c-.005.013-.005.013.013.002q.02-.014.001.007c-.013.016-.013.017-.006.05.008.037.017.046.036.04m-.072 3.714-.002-.006c-.006-.006-.016-.008-.016-.003l-.002.001zm-.074-.285q-.005 0-.004.004.003.005.008.006.004.002.003-.003a.01.01 0 0 0-.007-.007m.034.164-.012-.01q-.01-.008-.01-.012 0-.003-.003-.004-.004-.001-.007-.013-.002-.012-.011-.017-.008-.004-.008-.01c0-.005-.03-.033-.038-.034q-.007 0-.014-.012l-.005-.012q.014-.02.02-.013.007.003.008-.005c0-.01.015-.02.028-.017q.008.002.007-.003 0-.005.009-.007.005 0 .01-.002l-.012-.003q-.01-.003-.012 0 0 .002-.012.003a.1.1 0 0 0-.043.015l-.017.012q-.011.007-.011.013.002.006.006.005.003-.001.008.014.005.018-.006.012c-.011-.003-.012-.005.016.034l.014.021q.005.013-.04.005c-.032-.005-.035-.006-.042-.016q-.01-.013-.014-.007-.005.003 0 .005l.006.007q.002.006-.012-.002l-.022-.012-.02-.01q-.01-.007-.011 0c-.002.005-.006.004-.026-.005l-.027-.015c-.001-.003-.01-.006-.018-.009l-.018-.01q-.004-.003-.013-.004a.6.6 0 0 1-.136-.055q-.01-.008-.008-.002.002.005.02.012.016.008.02.012 0 .003-.015-.004t-.01-.003c.005.002.01.008.013.01l.009.008.007.005q.13.09.272.162.008.002.006-.001a.1.1 0 0 0-.023-.013q-.014-.005-.02-.012-.005-.006.01.002a.3.3 0 0 0 .076.03q.003-.003-.016-.012c-.023-.01-.053-.033-.049-.037q.005 0 .028.012a.2.2 0 0 0 .074.026l.037.002q.024.002.026-.004 0-.006.006-.002.004.003.01-.006t0-.012l-.007-.005q0-.005.01 0zm-.084.061q-.011 0-.014.004l.017.007.014-.001q.018-.008-.017-.01m-.378-.235-.019-.007q.01.006.01.009.003.003.008.005l.024.008c.029.01.007-.003-.023-.015m.005-.553q-.004 0-.003.006.002.005.006.007.005 0 .003-.006t-.006-.007m.09.6-.005-.006s-.002 0 0 .004l.005.006q.003 0 0-.004m.031-.386q-.005 0-.006.007 0 .012.007.005.013-.009 0-.012m.027.005q-.009-.001-.013.007-.006.011.007.006c.014-.003.018-.011.006-.013m.082.425q-.01-.002-.006.003l.01.007q.005.001.006-.002 0-.004-.01-.008m.084-.05q.004-.003.003-.007-.004-.012-.01-.002-.002.014.007.01m-.065.02q.005.004.006.002 0-.002-.005-.004-.006-.001-.001.002m-.005.013q.001.004.014.006.025.003 0-.006-.012-.003-.013 0m.062.04q-.019.002.01.008c.037.009.038-.002.003-.042-.02-.024-.024-.027-.034-.025q-.005 0 .001.011.005.01.003.014-.003.003.007.006.018.007-.004.006l-.018-.002-.01-.001q-.005-.002 0 .006.007.007.019.006.012 0 .019.005.009.006.004.007m.044-.113q-.006.004.002.006.005 0 .004-.004-.002-.009-.006-.002m-.621-2.191c-.002.007.04.019.048.013a.1.1 0 0 1 .025-.005l.02-.004q.002-.003-.01-.02c-.012-.02-.055-.03-.051-.012s-.005.032-.018.027q-.01-.004-.014.001m.005-.172q.005-.001.007-.008.003-.008-.001-.008t-.007.008.001.008m-.041.176c-.005-.011-.023-.013-.024-.002q.002.007.014.01.014 0 .01-.008m.01-.06q-.009.012.014.013c.022.002.037-.01.026-.02l-.02-.022c-.039-.054-.05-.061-.075-.052a.1.1 0 0 0-.024.019q-.015.014 0 .007a.1.1 0 0 0 .02-.012c.008-.009.02-.007.017.002q-.002.007.007.01.009 0 .01.008 0 .007.008.009t.008.012q0 .012.007.013.01 0 .002.013m.15.066q-.011 0-.015.007-.001.007.01.01.01-.001.014-.008.001-.007-.01-.009m.022.229q-.005 0-.008.007 0 .007.003.01.005-.002.008-.008.001-.008-.003-.01m.325-1.022-.013-.012q-.003-.003 0 .007.004.012.012.012.012.001 0-.007m.045-.083c-.004-.013-.02-.018-.019-.005q.002.006.011.012.014.008.008-.007m.12-.002q-.016.006-.018-.007-.002-.01-.009-.006c-.008.006.002-.01.02-.031.02-.024 0-.017-.021.007a.2.2 0 0 0-.027.036q-.008.014-.013.015t-.008.012q-.005.01-.01.012-.004 0-.007.008-.002.006.03.005c.028 0 .033 0 .026.009-.017.02-.001.01.024-.014q.02-.022.016-.02-.009.008.002-.012c.01-.016.009-.017-.005-.014m.003.046q.01-.017-.012.008c-.012.014-.013.015-.007.02q.006.003.012-.005.008-.01.005-.013T15.29 4m-.339-.142q-.005 0-.007.003 0 .003.002.007.003.003.007-.003.002-.007-.002-.007m.066-.084q-.006 0-.01.007-.002.006.005.003l.009-.008q0-.002-.005-.002m.043-.166a.02.02 0 0 0-.014.008q-.006.006.002.007a.03.03 0 0 0 .015-.009q.005-.007-.003-.006m.03.01q-.004 0-.01.009-.005.006 0 .006.004-.001.01-.007.006-.008 0-.007m.007-.034q.002-.007-.003-.007-.007 0-.004-.006c.004-.006-.007-.018-.02-.021q-.004-.001.001-.01l.004-.007-.01.005a.1.1 0 0 0-.018.023l-.023.029q-.015.014-.001.005.01-.004.01.003-.002.011.019-.006c.015-.011.019-.013.025-.007q.012.012.02-.001m.029.004q-.006.001-.005.005.004.002.007-.001.004-.005-.002-.004m.066-.145q-.01.01-.008.01l.013-.011q.018-.021-.005 0m.034.03h.008q.006-.004-.002-.004t-.006.004m.001-.017-.015.007c-.019.007-.034.03-.02.03q.017-.002.03-.026zm-.82.48.01-.017q.01-.018.004-.016a.02.02 0 0 0-.009.007c-.002.005-.008.026-.006.026m-.045-.092q.009-.008.004-.006l-.008.007-.012.012c-.012.007-.017.018-.007.011.008-.005.022-.018.018-.017zm.519 2.835q0-.016.006-.015.008.002.005.01-.004.009.005.01.01 0 .003.01-.004.008-.007.009-.004 0-.005.003 0 .003.012.007.013.003.014.009 0 .005.01.008.013.002.006-.006-.007-.01.004 0a.04.04 0 0 0 .026.01c.02 0 .026-.008.009-.012a.12.12 0 0 1-.05-.04q-.002-.006-.013-.014-.014-.007-.005-.006c.006.001.006-.001-.002-.016q-.015-.027-.001-.025.006 0 .006-.013 0-.014.01-.02c.012-.007.01-.027-.003-.029-.023-.005-.035-.041-.014-.044q.01-.002.01-.01a.1.1 0 0 0 0-.038q-.002-.005.003-.004.006.001 0-.005a.1.1 0 0 1-.014-.02c-.007-.015-.006-.015.015-.008.02.008.022.007.022-.008a.1.1 0 0 0-.003-.025q-.006-.008.014-.005.047.007.059-.016c.008-.016.007-.032-.001-.033q-.006-.002-.008-.015a.1.1 0 0 0-.015-.02.04.04 0 0 1-.013-.017q-.002-.007.007.001a.1.1 0 0 0 .036.018c.025.007.03.007.04-.009a.1.1 0 0 0 .014-.04c.004-.027.012-.047.017-.04q.005.003.002.013-.002.006.002-.004l.016-.032a.1.1 0 0 0 .005-.053.1.1 0 0 1 .003-.044c.01-.018.064-.046.085-.045.017.002.038-.013.036-.026 0-.003.003-.018.009-.033.005-.014.008-.028.007-.03a.1.1 0 0 1 .001-.03.4.4 0 0 0 0-.074c-.005-.035-.004-.05.003-.06.023-.037.051-.077.062-.12a.2.2 0 0 0-.008-.054c-.008-.026-.013-.034-.025-.035a.2.2 0 0 1-.05-.039c-.03-.03-.042-.037-.063-.04a.1.1 0 0 1-.039-.013q-.012-.01-.025-.004c-.011.006-.013.004-.015-.01 0-.015-.009-.023-.036-.04l-.035-.021-.011.023q-.01.02-.017.017-.003-.008.007-.022.019-.026-.013-.039-.015-.008-.023.015-.009.028-.01.005a.1.1 0 0 1 .01-.04c.012-.022.012-.025.002-.036a.1.1 0 0 1-.018-.04c-.004-.015-.017-.041-.024-.058-.013-.025-.02-.03-.05-.038-.034-.008-.037-.01-.05-.047q-.014-.039-.027-.04-.014 0-.005-.018.009-.016-.004-.022-.01-.006-.012-.02c0-.011-.004-.012-.024-.004q-.023.01-.029-.001-.006-.008-.02-.008-.015.003-.019-.015-.003-.016-.01-.018a.01.01 0 0 1-.006-.008q0-.003-.002.004-.001.01-.01.01-.007 0-.016.008c-.012.013-.012-.002 0-.02q.023-.034-.01-.008-.016.013-.024.014a.02.02 0 0 0-.011.004q-.006.006-.01.006l-.009.001q-.004 0-.008.012a.2.2 0 0 1-.021.034c-.02.023-.019.022-.024.006q-.008-.037-.036-.018c-.015.01-.018.01-.024 0a.1.1 0 0 1-.008-.034c-.001-.02 0-.027.02-.074s.021-.053.018-.067c-.002-.01-.008-.015-.029-.016-.037-.003-.037-.003-.028-.014a.2.2 0 0 0 .019-.037q.009-.025.011-.024c.001.003.007-.006.012-.017l.019-.035c.016-.026.015-.03-.006-.028-.024.004-.035.013-.044.038-.007.018-.029.045-.032.037q-.002-.003-.016.002-.032.016-.026-.053a.2.2 0 0 1 .022-.086.3.3 0 0 1 .023-.051.1.1 0 0 0 .012-.027c.009-.026.031-.06.04-.06q.007-.001.018-.013c.014-.014.038-.015.06-.001.012.006.012.006.018-.01.005-.018.007-.019.028-.018.012 0 .024.006.025.012q.002.01.013.003c.013-.009.019.022.008.044a.1.1 0 0 0-.008.033l-.002.025c-.003.008 0 .028.005.028q.004-.001.014-.019c.01-.019.015-.04.025-.097l.008-.034c.006-.015.028-.048.033-.048a.1.1 0 0 0 .022-.019c.01-.01.02-.02.023-.02q.005-.001.014-.011t.018-.012q.007 0 .01-.013t.005-.007q.003.004.008-.003t0-.008q-.004 0 .005-.01.009-.012.008-.019a.14.14 0 0 1 .02-.057q.008-.01-.001.016-.011.033.002.012a.1.1 0 0 0 .013-.026q.002-.012.01-.011.008 0 .019-.02.01-.021.021-.02.011 0 .009-.007-.003-.007.02-.012c.02-.004.024-.008.024-.015 0-.02.023-.05.047-.06.011-.007.027-.015.033-.02l.017-.01.02-.006q.02-.01.001.007l-.017.012c-.005 0-.013.023-.01.029 0 .002.01-.001.02-.01l.025-.016c.018-.005.048-.025.052-.036q.004-.012.004 0 0 .01.008.002.01-.008.005-.008-.005-.001 0-.014.008-.018-.013.006c-.013.016-.02.02-.03.018-.019-.003-.027-.022-.018-.042q.007-.016-.002-.017-.012 0 .005-.006a.04.04 0 0 0 .02-.017q.006-.012-.017-.011-.033.002-.078.047-.02.019.006-.01a.3.3 0 0 1 .072-.062c.013-.01.024-.011.056-.008.034.004.042.002.06-.012a.2.2 0 0 1 .042-.024c.019-.007.023-.011.03-.03.008-.02.008-.024-.003-.032q-.013-.01-.005-.018.009-.006.004-.007-.01-.002-.012-.007l-.01-.002q-.008-.003-.008-.01l-.005-.015a.03.03 0 0 1 .002-.02.2.2 0 0 0 .002-.055l-.002-.043-.02.024c-.024.027-.046.038-.049.025q-.001-.008-.01-.005c-.006.003-.006 0 .005-.024.013-.027.013-.028.002-.032q-.01-.004-.01-.01c.005-.01-.008-.022-.022-.02-.006.001-.018 0-.025-.002q-.011-.002-.017.003l-.017.037a.1.1 0 0 1-.025.046c-.013.014-.013.015-.008.023s-.002.035-.015.055a.1.1 0 0 1-.032.027l-.023.016-.008.028c-.012.04-.016.047-.03.057-.012.007-.014.005-.017-.015a.1.1 0 0 1 .002-.032c.025-.05.025-.051.004-.05q-.017 0-.017-.005 0-.007-.006-.007c-.003 0-.01-.006-.013-.015q-.006-.013-.024-.013c-.014 0-.016-.002-.011-.018q.004-.017-.002-.02c-.01-.005-.003-.018.025-.052.023-.028.054-.056.064-.057q.007-.001.009-.007c.002-.01.021-.023.032-.025.011-.001.066-.057.063-.063q-.001-.003.009 0 .01.002.011.008 0 .007.004-.002a.02.02 0 0 1 .014-.013.1.1 0 0 0 .023-.012l.012-.009-.001-.01c-.003-.01.002-.022.007-.02q.003 0 .008-.006.004-.007-.004-.015l-.011-.009a.1.1 0 0 1 .029-.004c.025-.002.033-.005.035-.012q.004-.015.013 0 .005.01.001.016-.003.004.006 0 .009 0 .007.003-.002.007.009.013c.019.012.01.038-.02.054q-.01.006-.011.015.001.01-.016.014c-.009.004-.019.005-.022.003-.006-.004-.022.009-.029.022-.002.004.01.004.027 0q.03-.006.031.005.003.008.008.008.006 0 .002.006c-.007.009.002.025.01.019q.006-.006.008.001t.011.012q.01.003.017.007c.01.007.01-.012 0-.027-.013-.018-.006-.024.01-.007.014.011.016.012.025 0 .008-.01.01-.015.01-.03q-.001-.013-.005-.015-.005-.001-.01-.011c-.003-.01-.002-.012.01-.022.012-.011.016-.008.022.014.002.014.014.017.02.004q.004-.01.006-.007c0 .002.01-.004.02-.014l.017-.018c-.006 0-.008-.001-.014-.003q-.012-.003-.012-.01 0-.009-.012-.01c-.027-.006-.034-.028-.01-.032q.009 0 0-.006-.01-.005 0-.006a.01.01 0 0 0 .01-.009q.002-.006-.009-.002-.01.005-.004-.003.009-.01-.01-.008-.008 0-.006-.004c.004-.01-.012-.017-.02-.01q-.008.007-.013-.008t-.011-.015q-.006 0-.003-.006c.009-.01-.005-.018-.023-.016q-.016.003-.02.01-.006.01-.003 0 .004-.01-.019 0c-.027.009-.039.018-.046.035q-.005.012-.002.012.005 0 .001.006-.006.015-.01.001-.004-.006 0-.015.006-.008.008-.015l.015-.014q.019-.013-.002-.007c-.02.003-.035.014-.054.037-.015.018-.016.018-.016.032q-.001.015.02.016.018.002.013.005c-.008.004-.016.017-.01.016q.002 0-.012.015-.013.013-.018.012-.003-.003-.008.009c-.007.014-.015.018-.015.007 0-.008 0-.01.007-.017.007-.006.008-.008.005-.014-.004-.006-.006-.005-.016.005q-.024.024-.01 0 .006-.014-.003-.012c-.008 0-.005-.008.004-.014.006-.004.004-.036-.001-.035q-.002 0 .01-.014.015-.015.02-.012a.1.1 0 0 0 .042-.032c.003-.005-.05.009-.058.015a.04.04 0 0 0-.012.02c-.006.018-.011.025-.024.034a.1.1 0 0 0-.019.02q-.011.022.01.022.001 0-.004.007t0 .006c.007-.001-.005.012-.019.019a.03.03 0 0 0-.017.018q-.006.013-.01.01-.003-.003.001-.01a.03.03 0 0 0 .005-.016q-.002-.007.002-.007t.01-.002c.007-.002.007-.002.006-.01q-.001-.021-.025-.002-.018.014-.01.01.015 0-.005.018c-.014.015-.061.019-.066.007-.003-.01-.031 0-.035.01q.001.002.014-.004.016-.008.016-.006-.001.003-.015.01a.04.04 0 0 0-.02.018l-.01.017q-.004.003 0-.005.012-.022-.036-.008-.028.009-.021 0l.013-.009c.013-.004.003-.01-.011-.006a.1.1 0 0 1-.025-.003q-.012-.005-.025.003-.012.006-.012 0 .002-.006-.006.002-.016.018-.013 0 .002-.012-.007-.001a.1.1 0 0 1-.022.014.2.2 0 0 0-.057.031c-.009.008-.013.009-.02.007-.014-.004-.001-.017-.034-.006l-.013.003-.012.001-.01.002-.008.005-.015.012-.027.02-.052.066c.005-.006 0 .004-.007.013l-.009.006-.022.029.009-.006q.01-.008.001.003l-.01.013-.02.017-.052.08q-.011.017 0 .008.008-.005.009 0 0 .003.002 0l.01-.008c.005-.002.005-.001-.006.013l-.03.032-.027.026q0-.002-.007.004l-.005.009.012-.01.026-.02.017-.016q.004 0 .006-.006l.017-.015.029-.03c-.006.002.003-.01.012-.016l.01-.01a.1.1 0 0 1 .035-.03q.006-.003-.002.003c-.008.005-.031.03-.027.03l-.005.006c-.011.012 0 .006.013-.007l.017-.013q.004 0 .01-.01.008-.016.01-.006c.002.003-.002.009.008.008.004 0-.004.018-.004.024q.002.014.014-.003.005-.006-.004.007c-.01.014-.022.045-.018.044a.2.2 0 0 0 .019-.039q0-.005.004-.005.003 0 .006-.009.004-.007.001 0-.001.007-.005.014l-.008.012q-.002.007 0 .006l.007-.01q.005-.01.006-.009c.002.004-.01.024-.014.025q-.004.001-.008.008-.003.005 0 .002.004-.002-.001.01l-.008.022q-.001.009.007-.006l.005-.01q-.004.004 0-.008c.003-.011.004-.012.009-.014q.005 0 .001.004c-.005.006-.009.034-.003.029q.004-.003-.01.02-.022.037 0 .012.011-.013-.003.008-.014.018-.005.011.006-.005 0 .01l-.006.015q-.011.016-.003.015.005 0 .002.007-.005.009-.012-.003-.001-.002-.005.003c-.005.009.004.053.01.048q.006-.004.005-.015c-.001-.012.004-.028.008-.029q.002 0 0 .006-.003.006 0 .01.007.005-.004.031c-.005.013-.007.013-.017.003-.003-.003-.003-.003-.009.014a.3.3 0 0 1-.031.062c-.024.042-.049.084-.067.13l-.004.012c-.008.015-.012.039-.006.034q.004-.004-.002.006a.1.1 0 0 0-.013.041l-.008.035q-.002.006.004.01c.01.006.01.02-.003.07a.4.4 0 0 0-.01.063c0 .016-.001.02-.01.027-.009.01-.01.006 0 .044 0 .006 0 .017-.004.025-.005.012-.003.065.003.058.005-.006.008-.026.004-.029-.002-.002 0-.016.004-.032a.3.3 0 0 0 .011-.07l.004-.04.008-.03c.01-.025.01-.025.015-.017q.005.007-.003.035a.3.3 0 0 0-.007.064c0 .02 0 .039-.002.041v.044q.002.069-.014.098l-.009.02a.1.1 0 0 0 .014.053l.01.016c.001.005.01.02.02.032.017.023.02.024.033.014.016-.011.02-.006.025.03.004.021.028.05.045.052q.007.001.006.007a.1.1 0 0 0 .002.03.1.1 0 0 1-.001.04q-.005.017-.002.02c.012.004.019.018.015.03-.003.01-.003.01.01.016.005.001.01.01.014.017.007.017.017.02.018.004 0-.013.022-.037.026-.03.002.003.003.02.003.04-.001.034-.01.135-.025.141q-.004.002-.005.02 0 .021-.006.021c-.007-.001-.014.064-.01.086q.004.016.01.017c.01 0 .01.02 0 .033-.01.017-.004.06.016.088.007.01.022.044.034.074s.029.072.039.092.017.04.017.045c0 .012.028.05.061.079a.16.16 0 0 1 .064.112c.01.058.021.116.023.176.001.018.003.038.006.043q.004.008 0 .014c-.002.001 0 .014.005.03.01.029.012.06.008.107a.1.1 0 0 0 .006.053c.004.011.008.024.006.028a.1.1 0 0 0 .003.031c.003.013.005.03.005.036q0 .011.006.01c.003-.001.003-.01.002-.018q-.002-.016.003-.016.008 0 .015.054l.004.026q.003.023-.007.014-.009-.005-.016.003-.006.007 0 .008c.018 0 .024.009.03.046l-.01-.01q-.009-.01-.01-.007-.003.003.005.008a.1.1 0 0 1 .01.024q.005.023.006.008.002-.009.005-.009c.005.001.007.026.003.031q-.003.004.005.004.007-.002.024.028c.01.015.015.028.012.027q-.003 0 0 .006.006.008.015.006.01-.001.01.004 0 .004.005.006c.004.001.006-.007.005-.016m-.566-1.359-.004-.013q-.003-.004-.003.007.001.012.005.013.002 0 .002-.007m-.311-.609q-.002-.001-.006.011-.005.013-.002.011l.006-.01zm.7-1.247.007.005c.006.006.028-.003.036-.015a.1.1 0 0 1 .034-.027l.01-.006-.016.014-.016.016h.008q.017.002.001.007-.008.004-.011.009c-.002.004.009.002.024-.002.015-.005.026-.006.024-.003q-.003.004-.014.006a.1.1 0 0 0-.026.01l-.016.008.003.006q.003.005.012.004.009-.003.008.005c-.003.008.05-.01.066-.024q.01-.01.016-.005c.012.008.047-.007.04-.017q0-.003.009-.006l.011-.004-.005-.006q-.005-.006-.012-.005-.005 0 .002-.022c.006-.02.008-.023.016-.03l.01-.014c.005-.006-.016.001-.022.01l-.013.008c-.007.002-.008.003-.012.017-.007.018-.015.022-.01.005q.006-.02-.016 0-.011.01-.008.001.004-.007-.012 0-.016.01-.009 0 .005-.008-.005-.002-.01.004-.005-.003c.007-.007-.002-.014-.013-.01l-.02.006a.1.1 0 0 0-.025.009q-.012.008-.012.011 0 .004-.02.024zm.084-.095.01-.001a.03.03 0 0 0 .017-.008q.005-.006.004-.003-.002.004.01-.007.012-.012.008-.005c-.004.008.017-.006.026-.017.011-.014-.02 0-.05.022zm.038-.007q.01-.008.002-.006l-.011.009c-.008.009-.002.006.009-.003m.04-.025c-.01.003-.016.007-.029.02l-.015.015.006-.001.012-.002q.006-.001.013-.008.007-.004.008-.001 0 .004-.007.006-.008.003-.006.008 0 .006.027-.01a.2.2 0 0 1 .038-.017.06.06 0 0 0 .034-.025q.005-.006-.009 0-.015.008-.01-.004.004-.017-.011-.001c-.006.005-.007.007-.007.014 0 .008 0 .008-.01.011q-.01.002-.014-.003-.005-.005-.02-.002m.02-.03q.002 0 .006-.003.003-.003-.002-.001-.005.001-.004.004m.023-.002a.1.1 0 0 0 .019-.01q.005-.007-.01-.003a.04.04 0 0 0-.019.012q-.002.005.01.001m.018-.021q.018-.006.015-.009 0-.003-.003-.002l-.016.009q-.019.01.004.002m.025.05q.011-.01.004-.008-.005.002-.007.006-.002.006.003.002m.008.033q.005 0-.001.006-.008.008-.012.003-.003-.003-.008.002-.005.006 0 .008t.012.012.01.003a.03.03 0 0 1 .014-.01c.013-.003.025-.02.016-.024-.007-.002-.006-.002.004-.012q.011-.01.008-.012c-.002-.003-.016.002-.032.009-.01.005-.018.017-.01.015m.005-.06q-.002.005.004.004.006-.002.005.004t.014-.002q.017-.01.007.003c-.007.01-.006.01.001.009q.022-.006.034-.031.009-.014-.009-.008-.015.004-.014.01c0 .006-.007.008-.01.002q0-.006-.006.004-.007.011-.01.003-.01-.01-.016.002m.006-.017q.007 0 .005-.006c0-.007-.005-.005-.007.002q-.002.005.002.004M15 3.251q.012-.004-.002.005-.01.007.01.002c.01-.003.02-.004.018 0-.002.006.011.003.015-.004.006-.009 0-.016-.01-.016l-.02.001q-.012 0-.016.008-.004.005.005.004m.062.045c-.002-.006-.004-.005-.02.006l-.01.009.004.003c.011.007.03-.005.026-.018m.01-.02q.01 0 .012.006 0 .008-.002.01-.002 0-.004.008c-.002.007.01.005.058-.004a.4.4 0 0 0 .073-.02l.01-.006q0-.004-.003-.007-.001-.008-.052.007c-.043.01-.049.012-.05.003q-.005-.009-.024-.009h-.024q-.004 0-.01.005-.009.013.016.008m-.005-.028.002.004q.001.003.014 0 .02-.007.004-.005-.01.001-.002-.01.008-.009 0-.006h-.015q-.006 0-.01.005-.005.01.007.012m-.007-.033q.003.001.007-.002t-.002-.002-.005.004m.062.039-.005.007q-.004.005 0 .005l.004-.007q.002-.006 0-.005m.003-.007q.007-.001.006-.007c-.002-.007-.009-.005-.01.003q-.003.005.004.004m-.007-.04q.018-.006.004.001-.02.013-.002.017c.008.002.02-.001.053-.02q.011-.006.004.001-.015.014.007.008.01-.003.008 0-.004.006-.002.008-.001.003-.017.004-.018.002-.015.006.005.004-.013.012-.05.024.038.004c.07-.017.078-.018.068-.023-.006-.003-.006-.003.003-.01l.013-.011q.005-.007.015-.009a.1.1 0 0 0 .025-.013c.01-.01.01-.01.004-.01-.012.002-.006-.008.005-.012a.4.4 0 0 0 .08-.036l.041-.02q.017-.009.017-.013c0-.002.01-.009.026-.013a.1.1 0 0 0 .031-.015c-.051-.02-.144.01-.192.027a.2.2 0 0 0-.044.02.03.03 0 0 1-.019.006.04.04 0 0 0-.022.006l-.03.013q-.03.01-.023.02c.005.009.022.009.029 0l.01-.009q.008-.002-.003.007-.01.007.008.003.046-.013.042-.006a.1.1 0 0 1-.034.01q-.031.007-.031.014-.003.007-.007.004t-.01-.004l-.007-.001c-.01-.006-.025-.01-.03-.008-.018.006-.024.009-.026.014q-.002.003-.009.008l-.013.011q-.01.016.018.009m.536-.204c-.002.006.022.005.025 0q.002-.005-.01-.004-.014.001-.015.004m.46.472a.1.1 0 0 0-.037-.04q-.003.001-.005.008c0 .004-.014.009-.029.011a.1.1 0 0 0-.034.01q-.01.006-.014-.007-.006-.012-.018-.007c-.019.008-.024.02-.008.02.013 0 .014 0 .008.01q-.01.014 0 .012c.008 0 .008.013-.001.018-.004.002.008.006.025.008.036.004.104-.011.113-.043m-.238.208q.005-.002.009-.009t0-.007q-.005 0-.01.008-.002.007.001.008m-.007.119a.02.02 0 0 1 .005-.016q.007-.006.006-.02c-.001-.017-.037-.016-.044.001q-.006.012-.016.013-.012 0-.014.016-.002.015.002.02.006.002-.007.017c-.01.011-.011.014-.006.02q.007.007.019.004c.007-.004.02-.008.028-.011.015-.005.03-.03.027-.044m.124.043c.012-.013.01-.03-.004-.03q-.009-.001-.013-.019c-.003-.01-.008-.022-.013-.024s-.008-.012-.009-.02q-.001-.014-.01-.02c-.008-.004-.008-.006 0-.019q.025-.037-.004-.03-.028.006-.006-.015c.008-.01.008-.01-.005-.01a.04.04 0 0 0-.02.006.2.2 0 0 0-.017.032q-.014.03-.005.023.007-.005.002.013-.004.015 0 .007c.009-.018.014-.01.008.012-.007.02-.005.02.008.016q.017-.007.015.006-.002.01.003.012.003 0 0 .012-.005.01-.017.012-.014-.002-.008.014c.004.01.003.012-.006.017q-.012.004-.013.012 0 .007.003.003c.002-.001.012 0 .02.003q.02.006.005.007a.1.1 0 0 0-.028.019q-.018.019-.005.012a.2.2 0 0 1 .04-.01l.045-.009.022-.003q.006-.001.005-.01-.002-.01.007-.02m.132-.787q.002.007.008.008.005 0 .003.006c-.004.011.024.02.036.011a.02.02 0 0 1 .02-.001q.013.005-.012.01c-.02.006-.021.007-.01.012q.011.005.003.006-.006.002.012.014c.018.012.02.012.023 0q.004-.01.009-.012.005-.001.012-.014t.015-.014c.01 0 .023.014.02.023-.003.012.035.012.04 0q.004-.008 0-.005-.005 0-.024-.011a.2.2 0 0 0-.035-.02c-.007-.002-.015-.007-.016-.011a.005.005 0 0 0-.008-.002q-.004.002-.008-.005c-.002-.008-.02-.011-.02-.003q-.002.006-.001.012 0 .003-.006-.001c-.01-.01-.064-.013-.061-.003m.13 0a.1.1 0 0 1 .031.01c.01.006.058-.01.053-.017-.004-.007-.055-.016-.057-.01a.1.1 0 0 1-.031 0c-.036-.005-.034.009.003.017m.424.042c0 .01.003.011.022.004l.018-.006-.02-.002c-.01 0-.02.002-.02.004m.07.29q0 .008.005.012c.006.006.02 0 .018-.01-.002-.008-.02-.01-.022-.001m.047-.05a.04.04 0 0 1 .018.012q.009.01.03.013l.02.001-.017-.016a.1.1 0 0 1-.021-.025c-.003-.012.028-.059.038-.057a.005.005 0 0 0 .006-.006q-.002-.009.067-.018c.014-.002.025-.006.023-.01-.002-.008-.028-.012-.037-.005a.1.1 0 0 1-.027.001c-.032-.003-.07.01-.079.029q-.008.015-.012.015-.006.001-.004.01t-.003.01-.008.014-.01.013c-.013 0 .002.016.015.019m-.002-.219q.004.014.01.001.005-.006-.004-.007-.008 0-.006.006m.024-.003c.004.007.03.01.03.002q-.001-.004-.017-.007-.016-.002-.013.005m.047.006q.007 0 .013-.003.008-.004 0-.005-.007 0-.013.003-.009.004 0 .005m.338.091q.017.003.015.007-.003.01.042.027c.025.01.026.01.021-.002s-.008-.015-.02-.02q-.011-.006-.015-.011c-.004-.016-.047-.033-.053-.02q-.003.006 0 .008t-.002.006.012.005m.089.061.027.005.028.003q-.001-.008-.019-.015-.011-.005-.013-.01c-.002-.009-.015-.005-.02.006q0 .006-.003.011m.171.12q-.005-.002-.002.004t.007.008q.003 0 .002-.005a.01.01 0 0 0-.006-.008m.223.071c.01.01.052.023.05.017 0-.006-.007-.01-.028-.022l-.026-.015a.01.01 0 0 0-.008-.002c-.004.002 0 .013.012.022m.04.037q0 .004.006.01c.011.009.02.011.014.004-.008-.01-.02-.018-.02-.014m.026-.01.018.011-.01-.012-.007-.004q-.009-.004 0 .004m.301.573q.002.006.003.004.002-.007-.002-.01-.002 0 0 .006m0 .138-.014-.017q-.023-.037-.012-.007.014.037.01.038c-.005-.001-.002.022.004.033q.007.013.005.003 0-.008-.003-.009t-.003-.005q.002-.01.016.003.008.009.006-.003 0-.01.004-.01c.008.002-.002-.021-.012-.026m.026.125a.256.256 0 0 0-.028-.069l.003.008q.004.008 0 .003-.007-.006.005.032c.008.02.01.05.007.061s-.003.01-.008-.002q-.005-.014-.002-.002c.007.035.006.04-.006.04q-.016-.004-.018.041c-.002.015.002.029.005.024q.002-.007.007.016c.008.03.014.029.01 0-.003-.02-.004-.023-.01-.031-.007-.01-.008-.019-.002-.012q.005.002.003-.003-.002-.006.003-.007.012 0 .005.013-.004.005 0 .017.007.015.006 0 .001-.01.005-.007c.005.008.002-.008-.005-.02-.005-.01-.005-.01 0-.01q.006 0 .01.013c.004.016.01.016.008 0q-.003-.015.006-.014a.007.007 0 0 0 .009-.007q0-.01.004 0c.005.01.004-.002-.002-.023a.4.4 0 0 1-.015-.061m.014.596c-.012-.004-.023-.03-.021-.05a.1.1 0 0 0-.005-.033c-.005-.017-.007-.02-.013-.022q-.008 0-.006.01l.005.028q.003.015.002.019-.003.002.005.021.009.018.01.016 0-.003.004.008.002.012.008.011.005 0 .01.005.003.005.002-.003-.001-.006.008.006.014.023.005.002-.005-.015-.014-.018m.013.04q0 .003.006.007.003.002.002-.003c-.004-.007-.01-.009-.008-.004m.015.007q.006.01.004.015t.004.016q.007.016.004-.004-.005-.04-.013-.038-.006-.001 0 .011m-.056.474q-.001.005.007.004c.012-.003.015-.012.003-.011q-.009.001-.01.007m.057-.433q0 .01.002.006.001-.002.004.004.004.008.004.004 0-.006-.005-.015-.008-.013-.005.001m-.001.01q-.006-.037-.016-.042-.007-.005-.002.013.003.022.007.009.005-.017.004.008c0 .015 0 .019.005.025q.006.01.002-.013m-.035-.062q.01.02.004-.001a.1.1 0 0 0-.01-.02q-.003-.001-.003.002zm-.004.073a.1.1 0 0 0 .001-.028q-.002.002-.006.025-.004.053.005.003m-.073-.386-.003.004v.025a.1.1 0 0 0 .009.036l.007.015v-.015a.3.3 0 0 0-.013-.065m-.06-.678a.1.1 0 0 0 .015.043l.03.073c.021.054.024.063.024.058q0-.006.006-.001.008.008-.005-.012l-.013-.025c-.006-.014-.009-.03-.005-.03q.007.001-.004-.017a1 1 0 0 1-.044-.092q-.012-.021-.007-.008.005.01.003.011m.057 1.458q.003.001.005-.002.002-.004-.003-.002-.006.001-.002.004m-.032-.082q.008-.011 0-.01-.005.001-.005.007t.005.003m-.018 0q.002-.002.002-.017 0-.024-.007-.01c-.003.003 0 .027.005.026m-.006.106q.012 0 .023.004c.015.004.048 0 .05-.006q0-.005-.01-.007-.012 0-.013-.012.002-.011-.019-.004-.019.006-.023-.002c-.005-.01-.024-.008-.028.004-.004.011.005.022.02.023m-.075-.185q0-.007-.003-.006-.002 0-.002.007l.002.006zm0 .063q.004.003.005-.003 0-.006-.002-.01-.002-.003-.003.003zm.014-.066a.1.1 0 0 0 .003.026c.003.01.005.03.005.042 0 .03.02.086.03.082.005-.002.008-.01.015-.033.008-.03.008-.032 0-.057a.1.1 0 0 1-.005-.036.03.03 0 0 0-.002-.021l-.01-.022q-.005-.01-.009-.01A.1.1 0 0 1 17.9 5.2c-.007-.02-.029-.036-.032-.036l-.014-.003q-.005-.002-.005.004c.001.005.02.027.028.05a.2.2 0 0 1 .013.049m.142.184-.004.008q0 .006.001.005.003-.001.005-.007 0-.006-.002-.006m.033-.143.007-.018a.1.1 0 0 0 .012-.029q.004-.016.01-.02c.006-.002.011-.015.006-.014q-.002-.002-.003-.024c-.001-.014 0-.025.001-.025l.002-.007q0-.006.002-.006.004-.003.002-.011 0-.008.003-.011.007.001-.003-.008l-.013-.018c-.01-.016-.012-.013-.015.014-.001.013-.004.025-.006.025s-.005.009-.006.019a.1.1 0 0 1-.02.027.1.1 0 0 0-.014.022q-.001.013-.01.01t-.014.008c-.005.016-.01.053-.005.056 0 .001.002.012 0 .023q-.003.022.006.018.006 0 .006.004 0 .005.012.003.012-.003.013.005t.008 0a.1.1 0 0 0 .02-.043m-.013.136q-.005 0-.005.005t-.003.004q-.006 0-.008.009-.005.01.002.003l.012-.007c.006-.001.008-.01.002-.014m0 .026.004.009q.007.013.008-.005 0-.006-.006-.005zm.069-.038a.1.1 0 0 0-.028.036c-.003.013-.002.012.013-.01l.017-.019.006-.008q.003-.01-.008 0m.03-.212c-.006.01-.022.012-.026.005-.003-.006-.019.021-.021.036l-.006.018a.2.2 0 0 0-.014.06.1.1 0 0 1-.003.029q-.008.021-.002.016a.1.1 0 0 0 .012-.035.1.1 0 0 1 .01-.03q.001.003 0 .009v.02q0 .015.004.007.012-.017.005 0-.007.015-.002.017c.003-.001.007-.023.006-.03v-.028l-.001-.02.012-.015q.013-.018.006-.016a.04.04 0 0 0-.013.012q-.01.015-.011 0a.1.1 0 0 1 .002-.023q.001-.012.019-.01c.013 0 .017-.004.023-.013.009-.016.009-.022 0-.009m0 .257-.007.008q-.008.008 0 .005.004-.001.006-.007zm.003-.16q.001-.005-.004-.004-.004 0-.004.007 0 .005.004.005zm-.02-.258q-.002-.005-.007.004-.005.012-.003.022.002.012.003.004 0-.008.006-.011.005-.005.01.013.007.026.016.024.004 0 0-.015-.006-.014 0-.01.003.003.004-.002a.2.2 0 0 0-.018-.057l-.004.017q-.005.025-.008.011m.036.335-.004.01q0 .007.003-.001l.004-.011q0-.003-.003.002m-.006-.085q0 .006.004.004h.01q.006.005.005-.006.001-.009-.01-.006-.009.003-.01.008m.006-.054.012-.044q0 .008-.001-.003 0-.014-.002-.003zm.024-.014q.003.001.005-.002 0-.003-.003-.002t-.002.004m.154.1q0 .006.001.003v-.006q-.002-.005-.001.003m.22-.21c0 1.359-1.07 2.46-2.389 2.46-1.32 0-2.389-1.101-2.389-2.46s1.07-2.459 2.389-2.459c1.32 0 2.389 1.101 2.389 2.46m-.871-.805q-.003 0-.001.007t.008.009q.005-.001 0-.008-.003-.008-.007-.008m-.065-.475v.023c.002.028-.006.064-.015.07q-.008.007.002.007.007.001.013-.01.005-.013.009-.014c.006.002.006-.032 0-.054zm-.296.2q.008.003.012 0 .002-.003-.009-.004t-.003.004m.015-.676q.011.014.004 0c-.007-.01-.02-.022-.016-.014.001.002.007.01.012.014m-.045.66q-.001.003-.011.006-.02.009-.014.028.009.023.01-.004.001-.014.01-.015t.008-.007q0-.008-.003-.007m.054.12q-.01 0-.01.007 0 .008.01.01.009-.001.01-.008 0-.008-.01-.008m-.184-.757q-.001.011.004.01.004.002.006.011.003.01.005.008.003-.004-.004-.02-.01-.03-.011-.009m.2-.038q-.003 0 0 .005.002.007.005.008.003 0 0-.006-.002-.006-.006-.007m.017.644q-.002.001.004.008l.012.01q.003-.002-.004-.009zm-2.094-.867q.01-.012-.01.002l-.012.007.008-.001a.02.02 0 0 0 .014-.008m-.43.991q.021 0 .031-.011c.009-.01.011-.025.002-.016q-.005.005-.022.008c-.029.007-.036.02-.01.02m-.171-.528-.018.019-.018.018.007-.002a.03.03 0 0 0 .012-.009l.01-.007q.004 0-.003.007-.005.008.006-.004l.023-.017c.017-.007.022-.019.006-.013q-.015.006-.005 0c.013-.012-.005-.006-.034.01l-.023.014.018-.008zm.04.371q-.012.014-.005.012.005-.002.011-.012l.005-.011zm-.02-.053c-.005.01-.01.035-.006.03a.1.1 0 0 0 .007-.02q.002-.015 0-.01m.045-.064-.008.005a.02.02 0 0 0-.01.01.06.06 0 0 0-.005.037q.002.009-.004.027-.01.02 0 .006a.2.2 0 0 0 .019-.05zm-.033.014c-.01.013-.012.016-.01.02q.002.004-.002.01-.006.008-.005.012.001.002.01-.013l.014-.03q.009-.021-.007.001m.026-.088q0 .001-.008.011-.009.011-.006.01a.2.2 0 0 0 .034-.038c.004-.01-.002-.005-.013.006zm-.05-.106q-.004-.006-.006.004c-.001.007-.005.011-.02.023l-.017.013.014-.002a.1.1 0 0 0 .023-.009l.024-.02.021-.014q.004-.001.01-.008c.009-.01-.003-.006-.02.008q-.022.018-.03.005m.017.06a.1.1 0 0 0-.022.013c-.014.014-.014.014.012-.002.02-.011.02-.012.01-.01m.138-.105c.004-.007-.005-.006-.011.002q-.005.006-.003.01.004.003.014-.012m-.082.44a.4.4 0 0 0-.05.102c0 .015.02-.01.034-.042a.1.1 0 0 1 .033-.05c.023-.023.024-.023.026-.005.001.013 0 .017-.007.025l-.013.018q-.003.006.005-.002.01-.012.008.008l-.002.018.017-.028.02-.033q.001-.004.005.006c.004.018.015.001.012-.019-.002-.017-.012-.022-.015-.008q-.001.007-.005.008-.003 0 0-.007c.008-.017-.051-.008-.068.01m0-.042q.016-.009.011-.003-.008.015.023.016h.016l.006-.02q.006-.02.002-.018-.006.002-.007-.006c-.002-.02-.014-.018-.05.01l-.04.03c-.008.008.024.001.04-.01m.046-.07c.005-.01.003-.017-.003-.011-.008.008-.01.017-.005.017q.004 0 .008-.007m-.023.2c-.016.007-.023.019-.01.019.01 0 .053-.023.06-.033.008-.01.002-.008-.05.014m.45-.315q.007 0 .013-.007c.007-.009.007-.009-.008 0q-.013.008-.004.007m-.156.073q.004 0 .008-.012.008-.018-.005-.006c-.006.006-.008.018-.003.018m.102-.08q.003 0 .005-.007 0-.008-.003-.008-.004.001-.005.008 0 .007.003.008m.058-.668q.003-.003-.003-.002-.005.001-.004.004.002.002.007-.002m-.295.348q.003-.007 0-.006-.002 0-.005.007v.006zm.094 2.764q.005-.01.003-.013c-.004-.004-.012.009-.01.017q.001.003.007-.004m.145-3.08q.021-.006.017-.017-.006-.005-.007.003-.004.007-.012.01-.012.007.002.004m-.165.71q-.007 0-.013.009-.014.02.007.001.014-.012.006-.01m-.011-.35q.003.004.005-.003c.003-.01-.006-.015-.01-.007q-.003.007-.001.007t.006.003m.087-.142q-.007 0-.006.004l.008-.001q.004-.005-.002-.003m.109-.04q.012-.002.016-.007l.01-.008q.005-.004-.004-.003-.012 0-.016-.003-.004-.002-.004.002l-.008.014q-.008.008.006.005m.078.021.01-.007c.003-.005-.009-.002-.014.005q-.004.006.004.002m-.045.115.014-.006q.007 0 .002-.006-.01-.013-.018.006-.007.012.002.006m1.2.03q-.004 0-.004.009.001.006.005.003a.01.01 0 0 0 .004-.008q-.001-.004-.005-.004m.002-.168q-.007 0-.006.007 0 .007.004.008.004-.001.006-.007.001-.008-.004-.008m.247 2.082.026-.004q.009-.002.006-.006c-.002-.002.003-.017.01-.032.013-.023.014-.028.006-.031-.018-.007-.043-.005-.05.005a.1.1 0 0 0-.01.041c-.004.03-.003.031.012.027m-.204-1.904q-.003.001-.002.008 0 .008-.006.005-.007-.004-.008.006-.002.011-.007.007t-.007.004q-.002.007.005.008c.012 0 .03-.016.028-.028q0-.01-.003-.01m-2.127.263q-.004 0-.01.007-.01.013.007-.002.01-.008.003-.005m1.848-.172-.01.014c0 .007.02-.002.024-.01.005-.012-.004-.015-.014-.004m1.735.529q.003-.001.001-.007 0-.006-.004-.007-.003 0-.002.006zm-1.525-.6q-.002.006.003.012.005.004.005-.007-.003-.021-.008-.006m.31 2.096q.001-.016-.004-.02c-.002-.002-.006.014-.006.035l-.002.05c0 .006.003.017.006.024.007.01.008.006.01-.025 0-.021 0-.04-.002-.042a.1.1 0 0 1-.002-.022m.064-.399c0 .013.003.028.01.033q.014.015.003 0a.1.1 0 0 1-.009-.034q0-.01-.004-.02zm.01-.234q.006-.005.006-.01-.001-.002-.007-.003-.005 0-.006.01.001.006.007.003m-.974.117q-.009-.005-.01-.002 0 .004.01.014.009.01.01.001 0-.007-.01-.013m-.003.038q-.003.007.002.008.008-.001.009-.008 0-.01-.002-.01-.004 0-.009.01m.38-.207c-.021-.01-.023-.008-.012.015.007.015.031.015.031 0 0-.002-.009-.009-.019-.015m.903-1.6v.008l.007.008q.002-.001-.001-.008zm-2.278 3.26q0 .005.004.007.003-.001.002-.005 0-.006-.004-.007-.001 0-.002.005m-.041-.096q-.005 0 0 .006.004.006.007.008v-.006a.01.01 0 0 0-.007-.008m-.115-.745a.03.03 0 0 0 .013.015q.012.007 0-.01c-.01-.015-.018-.018-.013-.005m-.066-.747c-.006.009-.008.033-.004.034q.004 0 .01-.01c.007-.014.001-.035-.006-.024m-.184-.853.003-.012q-.001-.003-.005.003l-.003.012q.001.002.005-.003m-.003.782c-.005-.001-.006 0-.003.013.002.014.01.011.01-.004q0-.007-.007-.01m.431 1.69q-.009.008.004.005.008 0 .009-.006-.002-.012-.013 0m.63-3.27q.002-.004-.004-.003-.007 0-.004.004.004.003.008 0m.1 3.93q-.006 0-.002.003.005.003.007 0 0-.002-.006-.003m-.2-4.147.002.006q.002.002.006-.004.002-.006-.002-.006-.005 0-.006.004m.614-.101.008-.006c.002-.006-.01-.003-.013.003q-.003.006.005.003m1.92 1.889q.003.002 0-.007-.009-.02-.006-.005 0 .008.006.012M15.843 3.33a.01.01 0 0 0 .006-.01q0-.015-.008.003-.005.012.002.007m6.696 1.799c0 2.955-2.277 5.129-5.166 5.129h-2.989V8.206h2.99c1.65 0 2.978-1.377 2.978-3.077s-1.328-3.077-2.979-3.077h-2.989V0h2.99c2.888 0 5.165 2.173 5.165 5.129m.895-4.097c0 .568.45 1.033.991 1.033.564 0 1.014-.465 1.014-1.033S24.99.001 24.425.001c-.541 0-.991.463-.991 1.031m2.073 1.992h-2.141v7.207h2.14zM70.479 13l4.31-9.976h-2.267l-1.55 3.857-1.704-3.857h-2.394l2.943 6.234L68.227 13zm-3.9-9.976a2 2 0 0 0-.564-.072c-.562 0-1.451.231-1.816 1.043v-.97h-2.072v7.206h2.143V7.084c0-1.436.774-1.957 1.633-1.957.21 0 .437.014.675.071zm-10.127 2.74c.041-.537.493-1.217 1.393-1.217 1.016 0 1.382.666 1.41 1.218zm2.958 1.87c-.198.567-.635.942-1.409.942-.831 0-1.55-.578-1.592-1.39h4.874c.014-.044.042-.377.042-.682 0-2.32-1.339-3.698-3.508-3.698-1.817 0-3.493 1.479-3.493 3.8 0 2.42 1.719 3.841 3.65 3.841 1.774 0 2.886-1.043 3.225-2.29zm-4.82-4.61h-2.252l-1.494 4.48-1.62-4.48h-2.323l2.872 7.207h2.155zM43.534 8.417c-.804 0-1.58-.593-1.58-1.798 0-1.216.776-1.783 1.58-1.783.816 0 1.577.567 1.577 1.783 0 1.218-.76 1.798-1.577 1.798m0-5.61c-2.085 0-3.72 1.58-3.72 3.812 0 2.233 1.635 3.828 3.72 3.828 2.098 0 3.718-1.595 3.718-3.828s-1.62-3.813-3.718-3.813m-7.435 2.03c.83 0 1.253.522 1.408 1.072l1.916-.594c-.311-1.29-1.438-2.509-3.367-2.509-2.057 0-3.69 1.58-3.69 3.828 0 2.233 1.675 3.813 3.76 3.813 1.874 0 3.029-1.246 3.34-2.508l-1.889-.594c-.154.536-.62 1.072-1.45 1.072-.888 0-1.635-.637-1.635-1.783 0-1.16.72-1.798 1.607-1.798m-9.971 3.349c.056.796.76 2.261 2.957 2.261 1.874 0 2.789-1.202 2.789-2.436 0-1.059-.703-1.957-2.154-2.261l-.93-.188c-.31-.06-.55-.232-.55-.536 0-.378.353-.625.762-.625.647 0 .943.406.999.885l1.776-.333c-.07-.841-.776-2.147-2.803-2.147-1.564 0-2.692 1.073-2.692 2.392 0 1.015.592 1.886 2.085 2.22l.802.187c.523.117.692.334.692.596 0 .318-.268.622-.818.622-.732 0-1.07-.478-1.098-.97z"/></svg>