<svg width="259" height="294" viewBox="0 0 259 294" fill="none" xmlns="http://www.w3.org/2000/svg">
<path d="M83.5 158.2C83.5 158.8 83.6 159.5 83.8 159.8C84 160 84.2 160.5 84.2 160.7C84.3 161 84.4 161.2 84.5 161.2C84.8 161.2 84.7 160.9 84.3 160.1C84.1 159.7 83.9 159 83.9 158.6C83.8 157.3 83.5 157 83.5 158.2ZM80.9 119.3C80.6 119.3 80.2 119.4 80.2 119.5C80.1 119.6 80.4 119.7 80.7 119.7C81 119.7 81.3 119.6 81.4 119.5C81.4 119.5 81.2 119.4 80.9 119.3ZM81.2 103.8C81.7 103.8 81.7 103.3 81.1 102.9C80.5 102.5 80.5 102.5 80.4 102.8C80.2 103.1 80.8 103.8 81.2 103.8ZM83.2 103.1C83.2 103 83.1 102.7 82.9 102.3C82.7 102 82.6 101.9 82.6 102C82.6 102.2 82.6 102.2 82.4 102.1C82 101.9 82.2 102.3 82.6 102.8C82.9 103.1 83.1 103.2 83.2 103.1ZM97.7 117.1C97.8 116.8 97.8 116.6 97.6 116.4C97.4 116.1 97.4 116 97.4 115.7C97.5 115.4 97.4 115.4 97.1 115.4C96.5 115.4 96.1 116.2 96.2 117C96.3 117.5 96.4 117.6 97.2 117.8C97.6 117.9 97.8 117.9 97.7 117.7C97.7 117.6 97.7 117.3 97.7 117.1ZM85.2 153.1C85.4 152.9 85.5 152.7 85.4 152.6C85.3 152.5 85.2 152.6 85 152.8C84.8 153 84.7 153.2 84.8 153.3C84.8 153.4 85 153.3 85.2 153.1ZM94.9 121C94.9 120.9 94.8 120.8 94.7 120.8C94.6 120.8 94.4 120.6 94.4 120.4C94.4 120.2 94.5 120 94.6 120.1C94.8 120.2 94.9 120.1 95 120.1C95.1 120 95.1 119.9 94.8 119.5C94.4 119 94.3 119 94.1 119.2C93.9 119.5 93.9 119.4 93.9 119C93.9 118.7 93.8 118.5 93.7 118.5C93.6 118.5 93.3 118.1 92.9 117.7C92.5 117.2 92.3 116.9 92.4 116.9C92.5 116.9 92.7 116.8 92.7 116.6C92.8 116.4 92.9 116.3 93.1 116.4C93.4 116.5 93.5 116.1 93.4 115.6C93.2 114.9 92.4 114.9 91.5 115.6C90.6 116.4 90.4 116.8 90.9 117.5C91.1 117.8 91.2 118.1 91.3 118.2C91.3 118.3 91.7 118.8 92.1 119.4C92.4 119.8 92.5 120 92.8 120.4C92.7 120.7 92.7 120.9 92.7 121.1C92.6 121.5 92.6 122 92.7 122.3C93 123.1 94.7 123.9 95.3 123.4C95.5 123.2 95.3 121.8 95 121.5C95 121.3 94.9 121.1 94.9 121ZM84 121.1C83.9 121.1 83.9 121.2 84 121.3C84.1 121.4 84.2 121.5 84.2 121.5C84.2 121.5 84.3 121.4 84.2 121.3C84.2 121.2 84.1 121.1 84 121.1ZM84.7 105.3C84.7 105.2 84.5 105 84.4 104.8C84.2 104.6 84.1 104.6 84.2 104.8C84.3 105.4 84.8 105.8 84.7 105.3ZM90.2 108.5C90.3 108.3 90.3 108.1 90.3 108.1C90.3 108 90.2 108.2 90.1 108.4C90 108.8 90.2 109.7 90.4 109.5C90.5 109.4 90.4 109.3 90.3 109.2C90.1 108.8 90.1 108.7 90.2 108.5ZM90.8 122C90.8 122 90.8 122.2 90.9 122.4C91 122.6 91.1 122.8 91.2 122.8C91.3 122.8 91.3 122.7 91.1 122.4C91 122.2 90.8 122 90.8 122ZM92.6 105.6C92.7 105.6 92.7 105.5 92.7 105.4C92.7 105.3 92.6 105.2 92.6 105.2C92.6 105.2 92.5 105.3 92.5 105.4C92.5 105.5 92.6 105.6 92.6 105.6ZM89.5 121.5C89.3 121.5 89.3 121.6 89.4 121.6C89.5 121.7 89.7 121.7 89.7 121.6C89.8 121.6 89.6 121.5 89.5 121.5ZM86.1 116.6C85.7 116.3 85.4 116 85.3 115.9C85.3 115.8 85.4 115.8 85.5 115.9C85.7 116 85.9 115.3 85.8 115.1C85.8 115.1 85.9 114.9 86.1 114.7C86.2 114.6 86.3 114.5 86.4 114.4C86.2 114.4 86.2 114.4 86 114.4C85.8 114.4 85.5 114.5 85.3 114.6C85.1 114.7 84.8 114.9 84.4 115C83.8 115.3 83.8 115.3 84.1 115.6C84.3 115.8 84.6 115.8 84.8 115.8C85 115.7 85.1 115.8 85.1 116C85.1 116.1 84.9 116.2 84.7 116.2C84.5 116.2 84.3 116.3 84.1 116.4C83.9 116.6 83.7 116.5 83.4 116.2C83 115.7 83 115.7 83.3 115.5C83.5 115.3 83.4 115.3 83 115.2C82.7 115.2 82.5 115.1 82.4 115C82.3 114.3 81.3 115.1 81.2 116C81.2 116.2 81.1 116.4 81 116.3C80.8 116.1 80.3 118.2 80.4 118.6C80.7 119.3 82.2 119.5 83 118.9C83.6 118.5 84.2 118.6 85 119.1C85.8 119.6 87.6 119.8 88 119.5C89 118.3 86.8 117.1 86.1 116.6ZM113.1 100.2C113.1 100.2 113.1 100.1 113 100C112.9 99.9 112.9 99.8 112.8 99.8C112.8 99.8 112.8 99.9 112.9 100C113 100.1 113.1 100.2 113.1 100.2ZM111.6 113.1C111.5 113 111.6 113.1 111.7 113.4C111.8 113.6 111.8 113.7 111.8 113.5C111.8 113.4 111.7 113.2 111.6 113.1ZM109.1 113.3C109 113.3 109 113.4 109.1 113.5C109.1 113.6 109.3 113.7 109.3 113.7C109.4 113.7 109.4 113.6 109.3 113.5C109.3 113.4 109.2 113.3 109.1 113.3ZM135.5 156.9C135.4 157 135.4 157.1 135.4 157.1C135.4 157.1 135.5 157 135.5 156.9ZM135.2 157.5C135.1 157.5 135.1 157.6 135.1 157.7C135.1 157.9 135.2 157.9 135.2 157.7C135.2 157.6 135.2 157.5 135.2 157.5ZM134.7 153.4C134.7 153.5 134.7 153.6 134.7 153.6C134.7 153.6 134.7 153.6 134.7 153.4C134.7 153.2 134.7 153.1 134.7 153.4ZM134.6 153.8C134.6 153.8 134.6 153.7 134.5 153.7C134.5 153.7 134.4 153.7 134.4 153.8C134.4 153.9 134.4 153.9 134.5 153.9C134.5 153.9 134.6 153.8 134.6 153.8ZM134.1 152C134.1 151.8 134 151.8 134 151.9C134 152.2 134 152.7 134 152.5C134.1 152.4 134.2 152.2 134.1 152ZM133.9 151C133.8 151.2 133.8 151.3 133.8 151.3C133.8 151.3 133.8 151.3 133.9 151.2C133.9 151.2 133.9 151.1 133.9 151ZM133.6 151.7C133.5 151.9 133.4 152.1 133.2 152.2C133.1 152.3 133.1 152.3 133 152.4C133 152.5 133.1 152.5 133.1 152.5C133.2 152.6 133.2 152.6 133.3 152.5C133.4 152.3 133.7 151.7 133.8 151.5C133.8 151.2 133.7 151.3 133.6 151.7ZM132.8 160.8C132.7 160.2 132.7 160.2 132.7 160.9C132.7 161.2 132.8 161.4 132.8 161.4C132.8 161.3 132.8 161.1 132.8 160.8ZM132.5 155C132.6 155 132.7 155.1 132.7 155.1C132.8 155.1 132.8 155 132.7 154.7C132.7 154.5 132.6 154.3 132.6 154.3C132.6 154.3 132.6 154.3 132.6 154.2C132.6 154.1 132.6 153.9 132.6 153.7C132.5 153.3 132.6 153 132.7 152.8C132.8 152.7 132.8 152.6 132.6 152.5C132.5 152.4 132.4 152.2 132.5 152.1C132.6 151.8 132.4 151.5 132 151.1C131.8 150.9 131.5 150.7 131.5 150.6C131.4 150.5 131.4 150.5 131 151.1C130.6 151.8 130.6 151.8 130.6 151.5C130.6 151.3 130.6 151 130.6 150.8C130.6 150.5 130.7 150.3 130.6 150.3C130.6 150.1 130.2 150.2 130 150.4C129.9 150.5 129.9 150.6 129.8 150.7C129.9 150.7 129.9 150.8 129.9 150.8C130 150.9 130 151 130.1 151.1C130.1 151.2 130.2 151.3 130.3 151.3C130.4 151.3 130.4 151.4 130.2 151.4C130 151.5 130 151.5 130.1 151.6C130.1 151.7 130.1 151.9 130.1 152C130.1 152.1 130.1 152.3 130.1 152.2C130.1 152.2 130.2 152.1 130.2 152C130.2 151.9 130.4 152 130.5 152.2C130.6 152.4 130.8 152.5 130.8 152.5C130.9 152.5 131 153.4 130.9 153.7C130.9 153.8 130.8 153.9 130.8 153.9C130.7 153.9 130.7 154.1 130.6 154.2C130.5 154.5 130.5 154.5 130.7 154.3C130.9 154.2 131 154.2 131 154.4C131.1 154.8 131.5 154.6 131.6 154.2C131.6 154.1 131.7 153.8 131.8 153.7C132 153.4 132.2 153.6 132.2 154.2C132.3 154.7 132.4 155 132.5 155ZM130.1 153.8C130.3 153.4 130.4 153.1 130.3 153.2C130.3 153.2 130.2 153.3 130.2 153.4C130.1 153.4 130.1 153.6 130.1 153.8C129.9 154.1 129.9 154.1 130.1 153.8ZM129.5 158.1C129.5 158.1 129.4 158.2 129.4 158.3C129.4 158.4 129.3 158.5 129.4 158.5C129.4 158.5 129.5 158.4 129.5 158.3C129.5 158.2 129.5 158.1 129.5 158.1ZM131.1 156.9C131.2 155.9 131.2 155.8 131.1 156.1C131 156.3 130.8 157.2 130.4 158.4C130.3 158.9 130 159.6 129.9 159.8C129.7 160.3 129.5 160.4 129.5 160.2C129.5 160.1 129.4 159.9 129.3 159.7C129 159.1 128.9 159.1 129.2 158.4C129.3 158.1 129.4 157.8 129.5 157.7C129.5 157.6 129.6 157.5 129.7 157.3C129.8 157.1 129.7 157.1 129.5 157.1C129.4 157.1 129.2 157 129.1 156.9C128.9 156.7 128.8 156.7 128.9 156.9C129 157.1 128.8 157.4 128.6 157.5C128.4 157.6 128.2 157.8 128.2 158C128.2 158.1 128.1 158.3 128 158.5C127.9 158.7 127.8 158.9 127.8 159C127.8 159.1 127.7 159.3 127.5 159.4C127.4 159.5 127.3 159.5 127.3 159.3C127.3 159.2 127.3 159 127.3 158.9C127.2 158.7 126.9 159 126.9 159.2C126.9 159.3 126.8 159.4 126.8 159.4C126.7 159.4 126.3 160.2 126.2 160.4C126.2 160.5 126.1 160.6 126 160.7C125.9 160.7 125.8 160.8 125.8 161C125.8 161.1 125.7 161.3 125.7 161.3C125.6 161.3 125.6 161.2 125.6 161.1C125.6 160.8 125.4 161.3 125.2 161.7C125.1 162.1 124.7 162.8 124.5 163C124.4 163.1 124 163.4 123.6 163.7C123.2 164 122.8 164.4 122.6 164.6C122.5 164.8 122.3 165 122.3 165C122.2 165 122.2 165.1 122.1 165.2C122.1 165.3 122 165.4 121.9 165.3C121.8 165.2 121.2 166.9 121.1 167.4C121.1 167.7 121.1 167.8 120.9 168C120.8 168.1 120.7 168.4 120.6 169.1C120.5 169.6 120.4 170.2 120.3 170.5C120.2 170.8 120.2 171 120.2 171.1C120.3 171.2 119.8 172.4 119.6 172.6C119.3 172.8 119.3 173 119.5 173.2C119.7 173.5 119.8 173.4 120.4 172.8C120.8 172.4 121 172.3 121.4 172.1C121.8 172 121.9 171.9 122.1 171.6C122.3 171.1 122.8 170.7 124.1 169.9C124.4 169.7 124.6 169.6 124.6 169.7C124.6 169.8 124.7 169.8 124.8 169.8C125 169.8 125 170.7 124.8 171.1C124.7 171.4 124.8 171.3 125.3 170.5C125.8 169.7 125.9 169.8 125.4 170.6C125.1 171.2 125 171.5 125.3 171C125.5 170.6 125.5 170.8 125.3 171.3C125.2 171.5 125.2 171.6 125.3 171.5C125.5 171.3 125.5 171.6 125.3 172.1C125.1 172.6 125.1 172.8 125.4 172.8C125.5 172.8 125.6 172.9 125.6 172.9C125.6 173 125.7 172.9 125.9 172.7C126.1 172.4 126.2 172.4 126.2 172.6C126.2 172.8 126.2 172.8 126.6 172.4C126.8 172.1 127.1 171.9 127.2 171.8C127.3 171.7 127.4 171.6 127.5 171.4C127.7 170.9 128.7 168.8 129 168.3C129.1 168.1 129.3 167.7 129.4 167.4C129.5 167.1 129.7 166.6 129.8 166.3C129.9 165.9 130.1 165.5 130.1 165.3C130.2 165.1 130.3 164.7 130.3 164.4C130.4 164.1 130.5 163.7 130.5 163.3C130.5 163 130.5 162.6 130.6 162.5C130.6 162.4 130.6 162.3 130.6 162.2C130.6 162.2 130.6 161.9 130.6 161.5C130.7 161.2 130.6 160.8 130.6 160.6C130.5 160.4 130.5 160.1 130.6 159.8C130.7 159.5 130.7 159.2 130.7 159C130.7 158.8 130.8 158.5 130.9 158.3C131 158 131 157.8 130.9 157.7C131 157.8 131 157.6 131.1 156.9ZM131.1 170C131.1 169.9 131.1 170 131 170.1C130.9 170.2 130.8 170.2 130.9 170C130.9 169.8 130.9 169.8 130.8 169.8C130.8 169.9 130.8 169.7 130.9 169.4C131 169.1 131 168.8 131 168.8C131 168.6 130.9 168.7 130.8 169C130.8 169.2 130.7 169.4 130.7 169.4C130.7 169.6 130.5 170.3 130.3 170.7C130.2 170.9 130.1 171.1 130.1 171.2C130 171.2 129.9 171.5 130 171.6C130 171.7 130 171.8 129.9 172.1C129.8 172.4 129.7 172.5 129.7 172.5C129.7 172.6 130.3 171.5 130.5 171.1C130.6 171 130.6 170.8 130.7 170.8C130.7 170.9 131 170.3 131.1 170ZM129.5 172.5C129.4 172.3 129.3 172.5 129 173C128.7 173.5 128.4 174 128.2 174.4C127.7 175.1 127.2 175.8 127.1 176.1C127 176.2 127.1 176.3 127.2 176.3C127.4 176.3 127.7 175.9 128.1 175.2C128.3 174.7 128.7 174.2 128.7 174.3C128.7 174.3 128.7 174.3 128.8 174.2C128.8 174.1 129 173.8 129.2 173.5C129.5 172.8 129.6 172.4 129.5 172.5ZM126 174.3C125.8 174.4 125.8 174.4 125.6 174.5C125.5 174.7 125.5 174.9 125.4 175.1C125.2 175.9 125.3 176.1 125.5 175.6C125.6 175.4 125.7 175.3 125.7 175.4C125.7 175.4 125.8 175.3 125.9 175C126.4 174.1 126.4 174.1 126 174.3ZM125.1 171.9C125 171.9 125 172 125 172C125 172.1 125.1 172.1 125.1 171.9C125.2 171.9 125.2 171.9 125.1 171.9ZM121.3 112.6C121.2 112.5 121.2 112.4 121.1 112.4C121.1 112.4 121.1 112.5 121.1 112.6C121.1 112.7 121.2 112.8 121.3 112.8C121.4 112.8 121.4 112.7 121.3 112.6ZM125 111.5C125 111.4 124.9 111.3 124.9 111.3C124.9 111.3 124.9 111.3 124.9 111.4C124.9 111.5 125 111.6 125 111.6C125.1 111.7 125.1 111.6 125 111.5ZM76.8 105C77 104.8 76.9 104.8 76.7 104.8C76.5 104.8 76.4 104.9 76.4 105C76.3 105.3 76.5 105.3 76.8 105ZM74.4 105.9C74.5 105.9 74.6 105.8 74.6 105.7C74.6 105.6 74.5 105.5 74.5 105.5C74.4 105.5 74.3 105.6 74.3 105.7C74.2 105.8 74.3 105.9 74.4 105.9ZM70.7 107.5C70.9 107.6 71.3 107.3 71.3 106.9C71.3 106.7 71.2 106.7 70.8 106.9C70.5 107.1 70.4 107.4 70.7 107.5ZM70.1 107.2C70 107.2 69.9 107.3 69.9 107.4C70 107.5 70.1 107.6 70.1 107.5C70.4 107.4 70.4 107.2 70.1 107.2ZM84.1 124.7C84.3 124.7 84.6 124.6 84.6 124.5C84.6 124.4 84.5 124.3 84.2 124.3C84 124.3 83.7 124.4 83.7 124.5C83.7 124.6 83.9 124.7 84.1 124.7ZM79 124.2C79.2 124.3 79.5 124.3 79.6 124.2C79.8 124.1 79.6 124.1 79.3 124.1C79 124.1 78.8 124.2 79 124.2ZM71.5 122.3C71.9 122.5 72.2 122.7 72.3 122.7C72.4 122.8 72.5 122.5 72.5 122.2C72.6 121.6 72.6 121.6 71.7 121.6C71.2 121.6 70.8 121.7 70.8 121.8C70.8 121.9 71.1 122.1 71.5 122.3ZM68.8 118.7C68.9 118.7 69 118.5 69 118.2C69 117.7 68.8 117.6 68.6 117.9C68.5 118.1 68.6 118.7 68.8 118.7ZM68.2 120.1C68.2 120.6 68.2 120.9 68.3 120.9C68.7 120.9 69 120.5 69 119.9C69 119.2 68.9 119 68.5 119.1C68.4 119.2 68.3 119.5 68.2 120.1ZM64.8 120.5C64.9 120.6 65 120.7 65.1 120.6C65.4 120.4 65.3 120.2 65 120.2C64.8 120.2 64.7 120.3 64.8 120.5ZM119.1 140.1C119.3 140.6 119.6 141.3 119.8 141.8C120.1 142.4 120.2 143 120.5 144.2C120.7 145.1 120.9 145.9 120.9 145.9C121 145.9 121.9 147.4 122 147.8C122.3 148.9 122.6 150.5 123.1 150.5C123.2 150.5 123.2 150.4 123.2 149.9C123.2 149.6 123.2 149.1 123.3 148.7C123.4 148 122.5 147 122 146.8C121.8 146.7 121.7 146.5 121.6 146.2C121.5 146 121.4 145.5 121.2 145.3C120.8 144.8 120.8 144.6 120.7 143.2C120.6 142.1 120.7 141.5 120.9 142.2C120.9 142.4 121 142.5 121.1 142.5C121.2 142.5 121.5 142.8 121.8 143.3C122.1 143.7 122.4 144.1 122.6 144.2C122.7 144.3 122.8 144.5 122.9 144.8C123 145.1 123.1 145.3 123.1 145.3C123.2 145.3 123.4 144.5 123.3 144.3C123.3 144.2 123.3 144.1 123.4 144.1C123.5 144.1 123.6 143.9 123.7 143.6C123.8 143.2 123.8 143 123.6 142.1C123.3 141 123.1 140.7 122.2 139.3C121.4 138.1 121.2 137.6 121.4 136.7C121.6 135.9 122.1 135.7 122.2 136.4C122.3 136.6 122.4 136.9 122.5 137C122.6 137.2 122.6 137.2 122.5 137.3C122.2 137.3 122.2 138.2 122.6 138.4C122.8 138.6 122.9 138.4 122.9 137.9C122.9 137.6 122.8 137.4 122.7 137.2C122.3 136.7 122.3 136.2 122.7 135.9C123 135.7 123 135.4 123 135.2C122.9 135 122.9 134.9 123 135.1C123.2 135.5 123.7 135.1 123.9 134.4C124.1 133.7 124.1 133.1 124.1 132.8C124.1 132.7 124 132.6 124 132.5C124 132.4 124 132.1 124 131.7C124 130.4 123.9 129.8 123.5 129.7C123.4 129.7 123.4 129.7 123.3 129.7C123.3 129.6 123.4 129.6 123.4 129.5C123.5 129.2 123.3 128.6 122.8 127.7C122.2 126.7 122.1 126.5 121.9 126.3C121.7 126.1 121.8 125 122.1 124.9C122.3 124.7 122.2 124.5 121.8 124.3C121.6 124.2 121.4 124.2 121.4 124.4C121.4 124.7 121.1 124.6 121 124.2C120.9 124 120.8 123.9 120.7 123.8C120.4 123.7 120.2 123.1 120.4 123.1C120.5 123.1 120.6 122.8 120.7 122.4C120.8 122 120.9 121.8 121 121.9C121.2 122 121.2 122.1 121.2 122.4C121.2 123 121.4 123.2 121.6 122.9C121.7 122.7 121.8 122.7 122 122.8C122.3 123 122.3 123 122.4 123.5C122.5 124.1 122.6 124.2 122.9 124.3C123.1 124.3 123.3 124.7 123.3 124.9C123.3 125 123.6 126.1 123.8 126.6C123.8 126.7 124 126.6 124.1 126.5C124.3 126.3 124.3 126.3 124.1 125.6C123.9 125 123.8 124.7 123.3 124C123 123.5 122.7 123.1 122.8 123C122.9 122.8 123 122.2 122.9 121.9C122.8 121.8 122.8 121.4 122.9 121.1C123 120.7 123 120.7 123.2 120.9C123.6 121.3 123.7 120.8 123.6 118.9C123.5 117.4 123.5 117.1 123.2 116.4C123 115.9 122.9 115.4 122.9 115.3C122.8 114.4 121.7 112.9 121.6 113.5C121.6 113.8 121.5 113.8 121.4 113.6C121.3 113.2 121.2 113.1 121.2 113.3C121.3 113.5 121.2 113.5 121.1 113.2C121 113 120.9 112.8 120.7 112.8C120.6 112.7 120.5 112.7 120.4 112.7C120.5 112.6 120.5 112.5 120.5 112.4C120.6 112.2 120.6 111.9 120.7 111.6C120.8 110 120.2 109.7 121.1 110.1C121.3 110.2 121.5 110.2 121.5 110.2C121.5 110 122.1 110.4 122.2 110.6C122.2 110.7 122.3 110.8 122.5 110.8C122.6 110.8 122.8 110.8 122.8 110.8C122.9 110.8 122.9 110.8 122.7 110.7C122.6 110.6 122.5 110.4 122.5 110C122.5 109.5 122.6 109.5 122.8 109.5C123 109.6 123.1 109.7 123.2 109.9C123.4 110.3 123.5 110.4 123.6 110.1C123.6 109.9 123.7 109.9 123.7 110C123.7 110.1 123.7 110 123.6 109.7C123.5 109.5 123.5 109.3 123.6 109.4C123.8 109.5 124 110.3 124 110.8C124 111 123.9 111.3 124 111.5C124 111.7 124 111.8 123.9 111.9C123.8 112.1 123.9 112.8 124.2 113.5C124.3 113.8 124.7 114.5 124.9 115.1C125.2 115.6 125.4 116.2 125.5 116.3C125.7 116.6 125.7 116 125.5 115.6C125.4 115.5 125.4 115.3 125.5 115.2C125.5 115.2 125.5 115 125.4 114.8C125.3 114.6 125.3 114.4 125.4 114.4C125.5 114.4 125.5 114.3 125.3 114C125.1 113.6 125.1 113.3 125.3 113.5C125.4 113.6 125.4 113.5 125.3 113.4C125.2 113.3 125.2 113.2 125.2 113.2C125.2 113.2 125.1 113 125 112.8C124.9 112.5 124.8 112.4 124.8 112.4C124.7 112.3 124.6 112.2 124.5 111.6C124.4 111.3 124.4 111.1 124.5 111.1C124.6 111.1 124.7 111.1 124.7 111.1C124.7 111 124.8 111.1 124.8 111.2C124.9 111.3 124.9 111.3 124.9 111.2C124.9 111 125.1 111 125.3 111.3C125.4 111.4 125.4 111.4 125.5 111.4C124.1 109.2 122.7 107.2 121.1 105.2C121.1 105.3 121.1 105.2 120.9 105C120.9 105 120.9 105 120.9 104.9C120.8 104.8 120.8 104.8 120.7 104.7C120.7 104.7 120.6 104.7 120.6 104.6C120.5 104.6 120.4 104.5 120.4 104.3C120.3 104.1 120.1 104 120 103.8C119.8 103.7 119.6 103.5 119.2 103.4C118.4 103 118.8 103.1 118.5 102.7C118.2 102.3 117.5 101.9 117.6 102.3C117.7 102.5 117.6 102.4 117.5 102.2C117.4 102 117.3 101.9 116.9 101.7C116.7 101.6 116.4 101.5 116.3 101.4C116.2 101.4 116.1 101.3 116 101.3C115.9 101.3 115.9 101.3 116.1 101.7C116.3 102.1 116.3 102.1 116.1 101.9C116 101.8 115.9 101.8 115.9 101.9C115.9 102 115.9 102 115.7 101.9C115.6 101.8 115.2 101.6 114.9 101.5C114.5 101.3 114.4 101.3 114.4 101.6C114.4 101.9 114.2 101.7 113.6 101.1C113.3 100.8 113.3 100.8 113.4 100.8C113.6 100.9 113.3 100.5 113.1 100.4C112.9 100.3 112.9 100.3 113 100.2C113.1 100.1 113.1 100.1 112.8 100C112.7 99.9 112.3 99.7 112 99.5C111.5 99.3 111.4 99.2 111.5 99.5C111.6 99.7 111.6 99.8 111.2 99.6C110.9 99.5 110.5 99.3 110.4 99.2C110.2 99 109.7 98.8 109.3 98.6C108.9 98.5 108.3 98.2 108 98.1C107.6 97.9 107.5 97.9 107.6 98C107.7 98.1 107.6 98.2 107.3 98.2C106.9 98.2 106.6 98 106.9 97.9C107 97.9 107.2 97.8 107.4 97.7C107.6 97.6 107.8 97.5 108 97.5C108.2 97.4 108.2 97.3 108 96.9C107.9 96.8 107.8 96.7 107.8 96.7C107.7 96.7 107.5 96.5 107.3 96.4C107.1 96.3 106.8 96.1 106.5 96.1C106 96 105.3 95.7 105.3 95.5C105.2 95.2 104.5 94.9 104.2 95C104.1 95 104 95.2 104 95.3C104 95.4 103.9 95.4 103.8 95.4C103.7 95.4 103.6 95.4 103.7 95.5C103.8 95.6 103.5 95.6 103.2 95.5C102.1 95.2 100.3 95.3 100.1 95.7C100 95.8 100 95.8 100 95.9L100.3 96.1C100.5 96.3 100.2 96.3 99.5 96.2C98.9 96.2 98.4 96.1 98.4 96.1C98.2 96.1 98.9 96.9 99.2 97.1C99.5 97.3 99.6 97.3 99.4 97.4C99.3 97.4 99 97.3 98.8 97.2C98.5 97.1 98.1 96.8 97.9 96.7C97.5 96.5 97.5 96.5 97.8 96.9C98.1 97.2 98.1 97.2 97.7 97.1C97.2 96.9 97.2 97.1 97.7 97.4C97.9 97.6 97.9 97.6 97.6 97.5C97.3 97.4 97.2 97.3 97.1 96.9C97 96.7 96.9 96.4 96.8 96.3C96.7 96.2 96.7 96.3 96.8 96.5C96.9 96.7 96.8 96.8 96.7 96.8C96.6 96.8 96.5 96.9 96.4 96.9C96.3 97 96.3 97.1 96.6 97.4C96.8 97.7 96.9 97.8 96.9 98C96.9 98.5 97.1 98.8 97.7 98.9C98.3 99 98.8 99.4 98.8 99.9C98.8 100.2 98.8 100.2 98.7 99.8C98.6 99.4 98.1 99.1 97.8 99.1C97.6 99.1 97.6 99.2 97.8 99.6C97.9 100 97.9 100.2 97.7 100.4C97.4 100.8 96.5 100.8 96.3 100.4C96.2 100.2 96.3 100.2 96.6 100.3C97 100.5 97.1 100.4 97.2 99.9C97.3 99.4 97.3 99.3 97.1 99C96.9 98.8 96.8 98.5 96.6 98C96.5 97.6 96.3 97.2 96.2 97.1C96.1 97 96 96.9 96 96.6C96 96.2 95.8 95.9 95.4 95.8C95.2 95.8 95.1 95.7 95.2 95.6C95.3 95.5 95.2 95.4 95.1 95.4C95 95.4 94.9 95.5 94.9 95.6C94.9 95.7 94.9 95.8 94.8 95.8C94.7 95.8 94.6 95.9 94.6 96.2C94.6 96.4 94.5 96.7 94.4 96.8C94.3 96.9 94.2 97.1 94.3 97.1C94.4 97.1 94.5 97.3 94.5 97.5C94.6 97.7 94.5 97.8 94.5 97.8C94.4 97.8 94.6 98 95 98.3C95.9 99.1 95.7 99.3 94.6 98.6C94.1 98.3 93.3 97.9 92.8 97.8C92.3 97.6 91.8 97.4 91.6 97.4C91.4 97.3 91.4 97.3 91.7 97.6C92.3 98.1 92.4 98.3 92.2 98.6C92.1 98.7 92 98.7 91.9 98.5C91.8 98.3 91.5 98.3 90.8 98.4C90.1 98.5 89.8 98.5 89.7 98.3C89.6 98.2 89.5 98.1 89.4 98.2C89.3 98.3 89.1 98.4 88.9 98.4C88.2 98.5 87.5 98.9 87.5 99.1C87.5 99.4 86.9 99.4 86.6 99.2C86.3 99 86.4 98.7 86.7 98.7C87 98.7 86.9 98.4 86.6 98.2C86.3 98 85.5 98 85.7 98.2C85.8 98.3 85.9 98.6 85.9 98.7C85.9 98.9 86 99.1 86.1 99.2C86.4 99.5 86.2 99.9 85.7 99.7C85.5 99.6 85.2 99.6 84.9 99.8C84.4 100.1 84.3 100.2 84.6 100.6C84.8 100.9 84.8 101 84.2 100.8C83.9 100.7 83.5 100.6 83.3 100.5C83.1 100.4 83 100.4 83 100.6C83 100.7 83.2 100.9 83.3 101C83.6 101.1 83.7 101.5 83.5 101.5C83.2 101.5 82.4 101 82.2 100.6C82.1 100.4 82 100.1 82 100C82 99.8 81.9 99.6 81.7 99.5C81 99.2 81.5 99.2 82.7 99.5C83.8 99.8 84 99.8 84.4 99.5C84.7 99.3 84.8 99.1 84.7 98.9C84.6 98.7 84 98.3 83.3 97.9C82.1 97.3 81.8 97.2 80 96.8C79.4 96.6 79.3 96.6 79.5 96.4C79.8 96.2 79.8 96.2 79.3 96C79.1 95.9 78.8 95.8 78.7 95.9C78.6 95.9 78.5 95.9 78.5 95.8C78.5 95.6 78.4 95.6 78.3 95.7C78.2 95.8 78 95.9 77.8 95.9C77.6 95.9 77.5 96.1 77.4 96.2C77.3 96.4 77.2 96.4 77.2 96.3C77.2 96.2 77.3 96 77.4 95.9C77.6 95.7 77.5 95.6 77.1 95.8C76.8 95.9 76.6 96.1 76.5 96.2C76.4 96.3 76.2 96.3 76.1 96.3C75.9 96.2 75.7 96.3 75.5 96.5C75.3 96.7 75.1 96.7 74.9 96.6C74.5 96.4 74.4 96.4 74.5 96.6C74.5 96.7 74.5 96.8 74.4 96.8C74.3 96.8 74.1 96.8 73.9 96.8C73.6 96.8 73.6 96.9 73.8 97C74.1 97.3 73.6 97.5 73.3 97.2C73.1 97 73 97 73.1 97.2C73.2 97.4 73.1 97.4 72.9 97.3C72.7 97.2 72.6 97.2 72.8 97.4C72.9 97.5 73.1 97.6 73.2 97.5C73.7 97.2 73.4 97.8 72.6 98.3C72.1 98.7 71.7 99.2 71.6 99.6C71.5 100 71.2 100.2 71.1 100.2C71 100.2 70.9 100.3 70.9 100.4C70.9 100.5 70.8 100.6 70.8 100.5C70.7 100.4 70.5 100.6 70.3 100.8C70.1 101.1 69.8 101.2 69.7 101.1C69.6 101 69.5 101.1 69.5 101.3C69.5 101.5 69.4 101.6 69.2 101.6C69.1 101.6 68.7 101.8 68.3 102C67.6 102.4 67.4 103.1 67.8 103.7C67.9 103.9 67.9 104 67.7 104.3C67.5 104.5 67.5 104.6 67.8 104.5C68.1 104.4 68.2 104.4 67.9 104.7C67.6 105.1 67.6 105.2 68.3 105.4C68.7 105.5 69 105.4 69.5 105.1C69.8 104.8 70.1 104.5 70.1 104.4C70.1 104.2 70.2 104.2 70.3 104.4C70.4 104.6 70.5 104.8 70.5 105C70.5 105.2 70.6 105.3 70.6 105.3C70.6 105.3 70.7 105.4 70.7 105.6C70.7 105.8 70.8 106.1 71 106.3C71.2 106.5 71.3 106.8 71.2 106.8C71.2 106.9 71.2 107.1 71.3 107.3C71.4 107.7 72.1 107.7 72.1 107.3C72.1 107.2 72.3 107.1 72.5 107.1C73.1 107.1 73.5 106.7 73.4 105.9C73.3 105.4 73.4 105.2 73.8 105C74 104.8 74.3 104.6 74.4 104.4C74.6 104.1 74.6 104.1 74.3 103.8C74.2 103.6 73.9 103.5 73.8 103.5C73.7 103.5 73.6 103.3 73.6 103.1C73.6 102.4 74 101.8 74.7 101.4C75.5 101 75.7 100.7 75.6 100.4C75.4 100 76.2 99.5 76.8 99.6C77.5 99.7 77.7 100 77.3 100.4C75.8 101.7 75.6 101.8 75.7 102.2C75.8 102.4 75.8 102.8 75.8 103C75.8 103.7 76.5 104.1 77.6 103.9C78.1 103.8 78.7 103.7 78.9 103.7C79.3 103.6 79.8 104 79.7 104.2C79.6 104.3 79.2 104.4 78.6 104.4C77.3 104.5 76.9 104.6 76.9 104.9C76.9 105 77 105.2 77.2 105.3C77.4 105.4 77.5 105.6 77.4 105.8C77.3 106.4 77.1 106.5 76.8 106.1C76.2 105.5 75.8 106 75.8 107.2C75.8 107.8 75.8 108 75.5 108C75.3 108 75.2 108.1 75.2 108.2C75.2 108.5 74.5 108.5 74.3 108.2C74.2 108.1 73.8 108.1 73.1 108.4C72.5 108.6 71.9 108.8 71.8 108.7C71.7 108.6 71.2 108.5 70.8 108.5C69.9 108.5 69.4 108.1 69.6 107.6C69.6 107.4 69.8 107.2 70 107.1C70.2 107 70.3 106.9 70.2 106.6C70.1 106.4 70.1 106.2 70.1 106C70.3 105.6 69.8 105.7 69.5 106.1C69.4 106.3 69.2 106.4 69.1 106.3C69 106.2 68.9 106.4 69 107C69.1 108.7 69.1 108.8 68.7 108.8C67.6 108.9 67.4 108.9 67.3 109.4C67.2 109.7 67.1 109.8 67.1 109.6C67 109.4 66.9 109.5 66.6 110C66.3 110.4 65.9 110.8 65.6 110.9C65.3 111 65.1 111.2 65 111.4C64.9 111.6 64.6 111.9 64.3 112.1C63.9 112.4 63.7 112.4 63.5 112.2C63.3 112 63.2 112 63.1 112.4C63 112.8 62.9 112.9 62.6 112.9C61.8 112.8 61.5 112.9 61.4 113.3C61.4 113.5 61.5 113.7 61.7 113.7C62.4 113.7 63.1 114.8 63 115.6C63 115.9 62.8 116.5 62.7 116.8C62.5 117.3 62.4 117.4 61 117.3C60.2 117.3 59.5 117.2 59.4 117.1C59.3 117 59 117.1 58.8 117.3C58.4 117.5 58.4 117.7 58.3 118.6C58.2 119.2 58.1 120 57.9 120.4C57.7 121 57.6 121.2 57.7 121.4C57.8 121.5 57.8 121.9 57.7 122.2C57.6 122.7 57.7 122.8 58.2 122.6C58.6 122.5 58.8 122.6 59 122.9C59.2 123.3 59.4 123.3 59.8 123.1C60.1 123 60.6 122.8 60.9 122.8C61.3 122.8 61.6 122.7 61.7 122.4C61.8 122.2 61.9 122 62.1 122C62.4 122 62.9 121 62.9 120.5C62.9 120 63.7 119 64.5 118.7C64.9 118.5 65.1 118.3 65.2 117.8C65.3 117 66 116.7 66.5 117.1C66.8 117.3 67.1 117.2 67.7 116.8C68.2 116.5 68.7 116.2 68.8 116.2C68.9 116.2 69.3 116.6 69.7 117.2C70.1 117.8 71 118.6 71.6 119C72.8 119.7 73.1 120.2 72.9 121.2C72.8 121.7 72.8 121.7 73.3 121.1C73.7 120.5 73.8 120.4 73.6 120.2C73.4 120 73.4 119.9 73.6 119.7C73.8 119.5 73.9 119.5 74.2 119.7C74.4 119.9 74.6 120 74.7 119.9C74.8 119.8 73.6 118.8 73.3 118.8C73.2 118.8 73.1 118.7 73.1 118.6C73.1 118.5 73 118.4 72.8 118.4C72.7 118.4 72.2 118 71.8 117.5C71.4 117 71.1 116.5 71 116.5C70.9 116.5 70.8 116.2 70.8 115.9C70.8 115.2 71.5 114.9 71.6 115.4C71.7 115.6 71.8 115.7 72 115.6C72.2 115.5 72.4 115.7 72.5 116.2C72.7 116.6 73 116.9 73.3 117C73.5 117.1 74.1 117.4 74.5 117.8C75 118.2 75.2 118.6 75.2 119C75.2 119.4 75.5 119.9 75.9 120.6C76.3 121.1 76.6 121.6 76.5 121.6C76.3 121.7 77.1 122.8 77.4 122.8C77.6 122.8 77.6 122.7 77.5 122.4C77.4 122.2 77.5 122 77.8 121.8C78.5 121.4 78.2 120.9 77.4 121C77.3 121 77.3 120.9 77.3 120.7C77.4 120.5 77.3 120.3 77.2 120.2C76.9 119.9 77 119.5 77.3 119.7C77.5 119.8 77.7 119.7 77.8 119.5C78.2 118.8 79.5 119.3 79.3 120C79.3 120.2 79.3 120.3 79.4 120.3C79.5 120.3 79.6 120.5 79.6 120.9C79.6 121.2 79.6 121.5 79.7 121.5C79.8 121.5 79.9 121.7 79.9 121.9C79.9 122.1 80.1 122.4 80.4 122.5C80.7 122.7 81.1 122.9 81.3 123C81.6 123.2 81.8 123.2 82 122.9C82.2 122.5 82.3 122.5 82.8 122.9C83.4 123.3 84.1 123.4 84.2 123.1C84.2 123 84.5 122.8 84.8 122.8C85 122.8 85.1 122.7 85.4 122.7C85.4 123.1 85.4 123.3 85.4 123.7C85.4 124.2 85.3 125.3 85.1 126C84.7 127.5 84.2 128 83.4 127.4C83 127.1 82.8 127.1 82.3 127.4C81.7 127.8 81.2 127.8 80.3 127.4C79.9 127.3 79.1 127 78.5 126.8C77.9 126.6 77.4 126.4 77.4 126.3C77.4 126.2 77.2 126.1 76.9 126C76.2 125.8 75.4 126.3 75.4 127C75.4 127.3 75.3 127.7 75.2 127.9C75 128.2 74.9 128.2 74.1 127.8C73.6 127.6 73 127.4 72.8 127.4C72.6 127.4 72.3 127.2 72.2 127C72 126.6 70.7 125.9 70.4 126.1C70.2 126.2 68.5 125.3 68.5 125.1C68.5 125 68.7 124.8 68.9 124.5C69.3 124.1 69.3 124 69.1 123.7C68.9 123.4 68.9 123.2 69.1 122.9C69.3 122.5 69.3 122.5 69.1 122.7C68.9 122.8 68.8 122.8 68.8 122.6C68.8 122.4 68.6 122.4 68.1 122.5C67.7 122.6 66.5 122.7 65.5 122.8C64.1 122.9 62.3 123.2 61.3 124.2C61.1 124.4 59.3 124.3 59.1 124C58.9 123.6 58.8 123.7 58.4 124.5C58.2 124.9 57.8 125.4 57.4 125.7C56.6 126.2 55.7 127.6 55.7 128.3C55.7 128.9 55.1 129.7 54.1 130.3C53.4 130.7 52.1 132.4 52 132.9C52 133 51.8 133.4 51.6 133.7C51.4 134 50.9 134.7 50.6 135.2C50.1 136.2 50 136.3 50.2 136.7C50.4 137.1 50.4 137.6 50.2 139C50.1 139.8 49.4 141.5 49.2 141.6C49.1 141.7 49 141.9 49.1 142.2C49.2 142.5 49.2 143 49.1 143.4C49 143.9 49 144.1 49.3 144.2C49.5 144.3 49.7 144.4 49.7 144.6C49.7 144.7 49.9 145.2 50.3 145.8C50.6 146.3 50.8 147.1 50.8 147.3C50.9 148.3 52.4 149.5 53.3 150.4C53.8 150.8 53.9 150.9 55.7 150.4C56.3 150.3 57 150.3 57.4 150.4C58 150.6 58.4 150.5 59.5 150C60.5 149.5 62.1 148.8 63.3 149.5C63.6 149.7 63.8 150 63.8 150.2C63.8 150.8 64.2 151 65.2 150.9C66.1 150.8 66.2 150.8 66.8 151.4C67.2 151.8 67.4 152.1 67.3 152.4C67.2 152.6 67.1 153.3 67.1 153.9C67.1 154.5 67 155.2 66.9 155.3C66.6 155.7 67.1 156.4 68.3 157.7C69.4 158.9 70.3 160.5 70.6 162.1C70.7 162.5 70.8 163.2 70.9 163.7C71 164.4 71 164.6 70.6 165C70.1 165.5 69.6 167.3 69.7 168.1C69.9 169.2 70.8 170.5 71.5 171.5C71.7 171.8 72 172.6 72.1 173.3C72.3 174.7 72.7 175.6 73.2 175.9C73.7 176.2 74.8 178.4 74.7 178.7C74.5 179 75 179.8 75.5 180C75.8 180.1 76 180.1 76.3 180C76.5 179.9 77.2 179.7 77.8 179.7C79.5 179.6 81.2 178.9 82.3 177.4C82.6 177 83.1 176.4 83.4 176.1C83.8 175.7 84 175.3 84.1 174.6C84.2 173.7 84.3 173.7 85.1 173.3C85.9 172.9 85.9 172.8 86 172.1C86.1 171.7 86 171 86 170.6C85.9 169.9 85.9 169.8 86.3 169.5C86.6 169.3 87 168.9 87.3 168.6C87.6 168.3 88.1 167.9 88.4 167.7C88.7 167.6 89.2 167.2 89.5 166.9C90 166.4 90 166.2 90.2 164.5C90.3 163.1 90.3 162.6 90.1 162.4C90 162.3 89.9 161.7 89.9 161.1C89.9 160.5 89.9 159.8 89.8 159.6C89.7 159.2 89.8 158.9 90.3 158C90.7 157.3 91.2 156.5 91.5 156.2C91.8 155.8 92.5 155 93.1 154.3C93.7 153.6 94.4 152.9 94.7 152.7C96 151.6 96.7 150.3 97.1 148.6C97.3 147.8 97.5 147 97.5 146.9C97.6 146.8 97.6 146.1 97.6 145.5C97.5 144.4 97.5 144.4 97.2 144.6C97 144.7 96.2 145 95.2 145.3C94.5 145.5 94.2 145.6 93.4 145.8C93.2 145.6 93.1 145.4 92.9 145.2C92.6 144.8 92.4 144.5 92.6 144.5C92.9 144.4 91.5 142.8 90.5 142C90 141.6 89.7 141.2 89.4 140.5C89.2 140 88.9 139.3 88.6 139.1C88.2 138.8 88 138.3 87.8 137.4C87.6 136.6 87.4 136 87 135.6C86.7 135.3 86.4 134.8 86.4 134.6C86.4 134.4 86.1 133.8 85.8 133.3C85.5 132.8 85.1 132 84.9 131.6C84.7 131.2 84.3 130.5 84.1 130C83.9 129.6 83.7 129.2 83.8 129.2C83.9 129.2 84.1 129.6 84.4 130C84.9 131 85.3 131.2 85.3 130.4C85.3 130 85.3 130 85.4 130.2C85.5 130.4 85.9 131.1 86.4 131.8C86.9 132.5 87.2 133.2 87.3 133.3C87.3 133.4 87.5 133.7 87.8 134C88.4 134.4 88.8 135.3 88.9 136.2C88.9 136.6 89.2 137 89.7 137.4C90.1 137.7 90.4 138.2 90.5 138.3C90.5 138.5 90.8 139 91.2 139.6C91.6 140.1 91.9 140.8 91.9 141.1C92 142 92.7 143.8 92.9 143.9C93 144 93.3 143.8 93.6 143.7C93.8 143.5 94.1 143.4 94.3 143.4C94.4 143.4 94.7 143.3 94.9 143.2C95.1 143.1 95.3 143 95.4 143C95.5 143 95.7 142.8 95.9 142.6C96.1 142.4 96.6 142.1 96.9 141.9C97.2 141.7 97.6 141.4 97.8 141C97.9 140.7 98.3 140.4 98.7 140.3C99.1 140.2 99.3 140 99.3 139.8C99.3 139.6 99.4 139.5 99.6 139.5C99.8 139.5 99.9 139.4 99.9 139.3C99.9 139.2 100 138.9 100.2 138.8C100.4 138.7 100.5 138.5 100.4 138.4C100.2 138.1 100.3 137.5 100.5 137.5C100.6 137.5 100.7 137.1 100.9 136.7C101 136.4 101 136.2 101.1 135.9C100.9 135.7 100.9 135.6 100.7 135.4C100.5 135.1 100.1 134.8 99.8 134.7C99.2 134.5 99 134.2 98.7 133.3C98.6 133 98.6 132.9 98.5 132.6C98.3 132.9 98.3 133.1 98.1 133.4C97.4 134.7 96 134.7 96 133.3C96 132.6 95.6 132.4 95.6 133C95.6 133.5 95.5 133.5 95.2 132.6C95 132.1 94.7 131.6 94.6 131.6C94.5 131.5 94.1 131 93.9 130.5C93.4 129.6 93.4 129.6 93.7 129.3C94.2 128.9 94.6 129 95.1 130C95.6 130.9 96.8 132.3 97.9 132C98 131.9 98.2 131.8 98.3 131.9C98.4 132 98.4 131.9 98.4 131.8C98.3 131.3 98.6 131.5 98.9 132.1C99 132.4 99.2 132.7 99.3 132.8C100.5 133.3 102.4 133.5 103.6 133.1C103.7 133 104 133.3 104.3 133.8C105.1 134.8 105.8 135.5 106 135.3C106.1 135.2 106.1 135.3 106.2 135.4C106.2 135.5 106.1 135.7 106 135.7C105.7 135.7 105.7 135.7 106.3 136.4C107 137.2 107.4 137.2 107.4 136.3C107.4 135.8 107.4 135.8 107.7 136.4C107.9 136.8 108 137.2 108 137.3C108.3 138.8 108.9 140.3 109.6 141.6C109.9 142.2 110.2 142.7 110.2 142.9C110.2 143.1 110.5 143.6 110.8 144.1C111.1 144.6 111.5 145.4 111.7 145.9C112.2 147.1 112.4 147.1 112.8 146C113.2 144.7 112.9 143.3 112.6 142.1C112.4 141.2 112.4 141 112.5 140.9C112.6 140.8 112.7 140.7 112.7 140.6C112.7 140.5 112.7 140.4 112.8 140.4C112.9 140.4 113.3 139.6 113.6 138.4C113.7 138 113.9 137.7 114 137.7C114.2 137.7 114.3 137.2 114.2 136.8C114.1 136.6 114.2 136.4 114.2 136.4C114.3 136.4 114.5 136.3 114.7 136.3C114.9 136.2 115.1 136.2 115.2 136.2C115.3 136.2 115.3 136 115.3 135.8C115.2 135.2 115.6 135.6 116 136.5C116.2 137 116.5 137.4 116.7 137.6C116.9 137.7 117 138 117.1 138.2C117.1 138.4 117.2 138.5 117.2 138.5C117.4 138.5 117.8 139.6 117.9 140.1C117.9 140.5 118 140.6 118.1 140.7C118.4 140.9 118.6 140.8 118.7 140.3C118.8 140.1 118.8 140 118.8 139.8C118.9 139.6 119 139.7 119.1 140.1ZM114 146.2C113.5 145.3 113.4 145.2 113.4 145.7C113.4 146.2 113.7 147.6 113.9 147.9C114.1 148.2 114.1 148.2 114.3 147.9C114.7 147.6 114.6 147.2 114 146.2ZM105.4 196.2C105.4 196.2 105.5 196.2 105.6 196.1C105.7 196 105.6 196 105.5 196C105.4 196.1 105.4 196.1 105.4 196.2ZM99.3 143.5C99.4 143.6 99.5 143.7 99.6 143.6C99.8 143.4 99.7 143.2 99.4 143.2C99.3 143.3 99.2 143.4 99.3 143.5ZM98.5 169.3C98.6 169.3 98.6 169.2 98.6 169.1C98.6 169 98.5 168.9 98.5 168.9C98.5 168.9 98.4 169 98.4 169.1C98.4 169.2 98.4 169.3 98.5 169.3ZM98 190.4C97.9 190.7 98.2 190.7 98.5 190.4C98.6 190.3 98.6 190.2 98.4 190.2C98.2 190.2 98.1 190.3 98 190.4ZM92.1 169.5C91.7 170 91.6 170.3 91.6 171C91.5 172.2 91.9 172.7 92.7 172.4C93.1 172.3 93.4 172.1 93.4 172.1C94.3 170.8 95 168.7 95.6 167C95.7 166.8 95.8 166.6 95.9 166.4C96 166.2 96.1 166 96 165.7C96 165.4 96 165.3 96.2 165.4C96.4 165.5 96.4 165.4 96.5 164.7C96.5 164 96.3 162.8 96.2 162.8C96.2 162.8 96.1 162.9 96 163C95.9 163.1 95.8 163.3 95.8 163.5C95.8 163.7 95.6 164 95.4 164.2C95.2 164.4 94.9 164.8 94.7 165C94.5 165.3 94.1 165.6 93.7 165.8C92.7 166.2 92.3 166.9 92.4 168C92.5 168.8 92.5 169 92.1 169.5ZM67.1 208.3C67.2 208.3 67.2 208.2 67.2 208.1C67.2 208 67.1 207.9 67.1 207.9C67.1 207.9 67 208 67 208.1C67 208.2 67 208.3 67.1 208.3ZM61 209.5C61 209.6 61.1 209.7 61.1 209.7C61.2 209.7 61.2 209.6 61.1 209.5C61 209.4 61 209.3 61 209.3C61 209.3 61 209.4 61 209.5ZM109.6 200.5C109.2 200.7 109.1 200.7 109 200.6C108.9 200.6 108.8 200.6 108.6 200.7C108.4 200.8 108.3 200.8 108.4 200.7C108.5 200.6 108.4 200.6 108.3 200.7C108.3 200.8 108.1 200.8 108 200.9C107.9 201 107.8 201 107.8 200.9C107.8 200.8 107.8 200.8 107.7 200.9C107.3 201 107.1 200.9 107.2 200.8C107.3 200.7 107.2 200.7 107.2 200.7C107.1 200.8 106.8 200.8 106.2 201C105.9 201.1 105.7 201.1 105.5 201.2C105.4 201.2 105.4 201.2 105.6 201C105.7 200.8 105.8 200.7 105.7 200.8C105.6 200.8 105.5 200.9 105.4 201.1C105.2 201.3 105.2 201.4 104.8 201.5C104.5 201.6 104.3 201.7 104.1 201.9C103.8 202.2 103.5 202.3 103.5 202.1C103.5 202 103.4 202 103.3 202.1C103.2 202.2 102.1 202.7 101.4 202.9C101 203 100.6 203 100.5 202.8C100.4 202.7 99.8 202.9 99.5 203.2C99.3 203.4 99.2 203.4 98.4 203.5C97.7 203.5 97.5 203.5 97.1 203.8C96.9 203.9 96.9 203.9 96.9 204C96.8 204.2 96.5 204.3 96.4 204.3C95.6 204.5 95.1 204.7 94.8 204.8C94.7 204.9 94.4 205 94.3 205C94.2 205 93.9 205.2 93.5 205.5C93.2 205.7 92.6 206 92.3 206.2C91.9 206.3 91.5 206.6 91.4 206.7C91.3 206.8 91.2 206.9 91.2 206.8C91.2 206.8 91 206.9 90.9 207.1C90.5 207.5 89.9 207.9 89.7 207.9C89.5 207.8 89.8 207.4 90 207.4C90.1 207.4 90.2 207.3 90.4 207.1C90.6 206.9 90.6 206.9 90.5 207C90.3 207.1 90.1 207.1 90.3 206.9C90.4 206.8 90.5 206.8 90.5 206.7C90.7 206.7 91.3 206.1 91.3 205.9C91.3 205.8 91 205.8 90.5 205.8C89.1 205.9 87.8 205.8 87.9 205.7C87.9 205.6 87.8 205.5 87.7 205.4C87.4 205.1 85.8 205.5 85.7 205.9C85.7 206 85.6 206.1 85.3 206.1C85.1 206.1 85 206.1 85 206.2C85 206.3 84.9 206.4 84.6 206.3C84.4 206.3 84.1 206.3 83.9 206.4C83.7 206.5 83.4 206.6 83.2 206.7C82.4 206.9 81.8 207.2 81.7 207.4C81.5 207.7 81 207.8 81 207.6C81 207.5 80.9 207.5 80.8 207.6C80.7 207.7 80.5 207.6 80.3 207.4C80.1 207.1 80 207.1 79.8 207.3C79.3 207.7 79 207.8 77.7 208.1C76.8 208.3 76.1 208.3 75.5 208.2C74.5 208.1 73.5 208 72.5 208.2C72.4 208.3 72.2 208.3 72.1 208.2C71.7 208 69.6 208 69.2 208.2C68.6 208.4 68.1 208.5 67.2 208.4C66.6 208.3 66.2 208.2 66.2 208.1C66.3 207.8 65.9 207.9 65.6 208.2C65.4 208.5 65.3 208.5 65.1 208.2C64.9 208 64.8 207.9 64.6 208.1C64.4 208.2 64.2 208.2 64.1 208.1C63.9 208 63.9 208 64.1 208.3C64.3 208.5 64.3 208.6 64 208.7C63.9 208.8 63.7 208.8 63.6 208.8C63.5 208.8 63.4 208.8 63.4 208.9C63.3 209 63.2 209 63 209.1C62.8 209.1 62.7 209.2 62.6 209.3C62.6 209.4 62.7 209.5 63 209.5C63.4 209.4 63.3 209.5 62.8 209.7C62.4 209.9 62.2 210.1 62.1 210.1C62.1 210.2 61.8 210.2 61.5 210.2C60.3 210 56.5 210.1 56.3 210.8C56.3 210.9 57.5 211.5 57.7 211.5C57.8 211.5 58.1 211.5 58.4 211.5C59 211.5 59 211.5 58.8 211.7C58.7 211.8 58.7 211.8 58.6 211.9C58.7 211.9 58.8 211.9 58.9 212C59.1 212 59.2 212.2 59.2 212.2C59.2 212.3 59.1 212.3 58.9 212.3C62.7 213 66.6 213.4 70.6 213.4C85.1 213.3 98.7 208.5 109.6 200.5ZM54.5 193.9C54.4 193.8 54.2 193.7 54 193.6C53.6 193.5 53.6 193.5 54 193.7C54.4 194.1 54.7 194.2 54.5 193.9ZM53.7 210.6C53.6 210.4 53.5 210.2 53.4 210.2C53.3 209.9 52.3 209.5 51.7 209.6C51.5 209.6 51.3 209.8 51.3 210C51.3 210.2 51.1 210.3 50.7 210.3C50.6 210.3 50.5 210.3 50.4 210.3C51.3 210.6 52.2 210.8 53.1 211.1C53.3 211.1 53.5 211.1 53.7 211.1C53.9 210.9 53.9 210.9 53.7 210.6ZM50.2 103C50.4 102.9 50.5 103 50.5 103.1C50.5 103.2 50.5 103.3 50.6 103.3C50.7 103.3 50.8 103.4 50.7 103.5C50.7 103.6 50.8 103.7 51 103.7C51.3 103.7 51.5 103.5 51.8 102.9C52.1 102.5 52.3 102 52.3 101.9C52.3 101.8 52.5 101.5 52.9 101.3C53.5 100.9 53.7 100.6 53.5 100.5C53.4 100.4 53.5 100.4 53.6 100.4C53.8 100.4 53.8 100.3 53.8 100.1C53.8 99.8 53.9 99.8 54.3 99.6C54.6 99.5 55 99.3 55.2 99.1C55.5 98.8 55.5 98.8 55.3 99.1C55.1 99.4 55.1 99.5 55.4 99.3C55.6 99.2 55.9 99 56.2 98.9C56.5 98.8 57 98.5 57.3 98.2C57.6 97.9 55.4 97.7 55.5 97.7C55.6 97.7 58.1 97.5 58.1 97.3C58.1 97 58.2 97 58.3 97.2C58.5 97.5 60.1 97.1 61.5 96.5C62.3 96.1 62.4 96 62.2 95.9C62 95.8 61.7 95.7 61.4 95.7C61.1 95.6 61 95.6 61.2 95.5C61.4 95.4 61.5 95.3 61.5 95.1C61.5 94.8 61.6 94.8 61.8 94.9C61.9 95 62.1 95.2 62.1 95.3C62.1 95.6 63.1 95.7 63.2 95.4C63.3 95 62.9 94.4 62.5 94.3C62.1 94.1 61.8 93.5 62.2 93.5C62.3 93.5 62.4 93.6 62.3 93.7C62.3 93.9 62.9 94.4 63.1 94.2C63.3 94 63.3 93.7 62.8 93.5C62.6 93.3 62.4 93.2 62.4 93.1C62.5 93 62.6 93.1 62.8 93.2C63.2 93.4 64 93.3 64 92.9C64 92.8 64.2 92.6 64.4 92.6C64.6 92.5 64.6 92.5 64.8 92.5C64.7 92.5 64.6 92.5 64.4 92.5C64 92.5 64 92 64.4 92C64.6 92 64.7 91.9 64.7 91.9C64.8 91.6 64.5 91.2 64.2 91.2C63.6 91.2 63.7 90.9 64.3 90.8C64.3 90.9 64.3 90.9 64.4 90.9C64.5 90.9 64.5 90.8 64.6 90.8C64.9 90.8 65.1 90.9 65.1 91C65.1 91.2 65.1 91.1 65.3 91C65.6 90.6 65.5 90.5 65.1 90.5C64.9 90.5 64.7 90.4 64.7 90.2C64.7 90.1 64.6 90 64.4 90.1C64.3 90.2 64.2 90.2 64.1 90.2C64.2 90 64.3 89.9 64.4 89.8C64.6 89.6 64.8 89.4 64.9 89.4C65 89.4 65.1 89.3 65.2 89.1C65.3 88.9 65.4 88.8 65.6 88.8C65.7 88.8 66 88.7 66.1 88.6C66.7 88.2 67 87.9 67.6 87.7C67.9 87.6 68 87.5 68.3 87.5C68 87.4 67.9 87.4 67.6 87.3C67.2 87.2 66.7 87.2 66.4 87.4C66.1 87.5 65.7 87.6 65.5 87.5C65.3 87.4 64.9 87.5 64.6 87.7C64.3 87.8 64 87.9 64 87.9C64 87.8 64 87.8 64.1 87.8C64.2 87.8 64.3 87.6 64.5 87.5C64.8 87.2 64.7 87.2 64.1 87.3C63.7 87.4 63.4 87.4 63.5 87.2C63.6 87.1 63.8 87 64.1 87C64.4 87 64.7 86.9 64.7 86.8C64.8 86.7 64.6 86.6 64.3 86.6C64 86.6 63.6 86.5 63.5 86.4C62.2 86.1 60.8 86.2 59.5 86.3C59.1 86.4 58.8 86.5 58.7 86.6C58.7 86.7 58 86.8 57.3 86.8C56.5 86.8 56.1 86.9 56.3 87C56.6 87.1 56.8 87.4 56.5 87.4C56.4 87.4 56.4 87.5 56.4 87.6C56.4 87.8 56.3 87.8 55.5 87.6C54.5 87.3 54.4 87.3 54.4 87.7C54.4 88 54.3 88.1 53.9 87.9C53.7 87.8 53.6 87.8 53.5 88C53.4 88.2 53.3 88.2 53.3 88C53.2 87.7 50.7 88.4 50.6 88.7C50.5 88.9 50.4 89 50 89C49.5 89.1 48.4 89.6 48.1 89.9C48 90 48.1 90 48.3 90C48.5 90 48.7 90 48.6 90.1C48.5 90.3 48.2 90.5 47.4 90.7C45.9 91.2 45.5 91.3 45.5 91.5C45.4 91.7 46.4 91.9 46.6 91.8C46.7 91.7 46.7 91.8 46.7 91.9C46.6 92 46.4 92.2 46.1 92.2C45.7 92.3 45.6 92.3 45.8 92.4C45.9 92.5 46.1 92.6 46.1 92.7C46.2 92.8 46.6 92.8 47.4 92.6C48.7 92.3 49.6 92.5 49.6 93C49.6 93.1 49.7 93.2 49.8 93.2C49.9 93.2 50 93.5 50 93.9C50.1 94.6 50.1 94.7 49.8 94.9C49.3 95.4 49.3 95.6 49.9 95.4C50.2 95.3 50.5 95.3 50.7 95.5C50.9 95.8 51 96.3 50.7 96.1C50.6 96 50.4 96 50.2 96C50 96 49.9 95.9 50 95.8C50.1 95.7 50.1 95.7 49.9 95.7C49.8 95.8 49.7 95.9 49.7 96C49.7 96.1 49.6 96.2 49.6 96.2C49.5 96.2 49.4 96.3 49.4 96.5C49.3 96.9 49.6 97 50 96.8C50.1 96.7 50.2 96.7 50.3 96.7C50.2 96.6 50.2 96.5 50.1 96.4C50 96.1 50 96.1 50.3 96.2C50.5 96.3 50.6 96.4 50.6 96.5C50.6 96.6 50.7 96.6 50.8 96.4C51 96.2 51 96.2 50.7 96.7C50.5 97 50.3 97.3 50.1 97.3C50 97.3 49.6 97.5 49.4 97.8C49 98.2 48.9 98.3 49 98.5C49.1 98.7 49.1 98.8 48.9 98.9C48.8 99 48.8 99.2 48.9 99.5C49 99.8 49 100.1 48.9 100.3C48.8 100.7 48.8 100.7 49.3 100.3C49.7 100.1 49.7 100.1 49.3 100.5C48.9 101 48.9 101 49.1 101.9C49.4 102.9 49.7 103.1 50.2 103ZM48.1 209.4C48.1 209.3 48.1 209.3 48 209.2C47.8 209 47.6 209 47.6 209.1C47.6 209.1 47.6 209.1 47.5 209.1C47.7 209.3 47.9 209.3 48.1 209.4ZM45.9 201.3C45.8 201.3 45.8 201.3 45.8 201.4C45.8 201.5 45.9 201.6 46 201.6C46.1 201.6 46.1 201.6 46.1 201.5C46.1 201.3 46 201.3 45.9 201.3ZM46.9 205.9C46.8 205.8 46.7 205.7 46.5 205.6C46.3 205.5 46.2 205.3 46.2 205.2C46.2 205.1 46.2 205.1 46.1 205.1C46 205.1 46 204.9 45.9 204.7C45.8 204.5 45.8 204.3 45.6 204.2C45.5 204.1 45.4 204 45.4 203.9C45.4 203.7 44.5 202.9 44.3 202.9C44.2 202.9 44 202.8 43.9 202.6C43.8 202.4 43.7 202.2 43.7 202.2C44 201.8 44.2 201.7 44.3 201.8C44.4 201.9 44.5 201.8 44.5 201.7C44.5 201.4 45 201.1 45.3 201.2C45.4 201.2 45.5 201.2 45.5 201.1C45.5 201 45.6 200.9 45.8 200.9C45.9 200.9 46 200.9 46.1 200.8C46 200.8 45.9 200.7 45.8 200.7C45.6 200.6 45.5 200.6 45.4 200.7C45.4 200.7 45.2 200.8 45 200.8C44.5 200.9 43.8 201.1 43.7 201.2C43.6 201.3 43.4 201.4 43.2 201.6C43 201.7 42.8 201.9 42.9 202C42.9 202.1 43 202.2 43.1 202.1C43.2 202.1 43.2 202.2 43.3 202.5C43.4 202.9 43.4 202.9 43.1 202.8C42.8 202.7 42.7 202.6 43.6 203.8C43.8 204.1 44 204.3 44 204.4C44.1 204.6 43.7 204.7 42.8 204.5C41.9 204.4 41.8 204.3 41.6 204C41.4 203.8 41.3 203.7 41.2 203.8C41.1 203.9 41.1 203.9 41.2 203.9C41.3 203.9 41.4 204 41.4 204.1C41.4 204.2 41.3 204.2 41.1 204C40.9 203.9 40.6 203.7 40.4 203.7C40.3 203.6 40 203.5 39.9 203.4C39.7 203.3 39.6 203.3 39.5 203.4C39.5 203.6 39.3 203.5 38.7 203.3C38.3 203.1 38 202.9 37.9 202.9C37.8 202.8 37.6 202.7 37.4 202.7C37.2 202.6 36.9 202.5 36.9 202.4C36.8 202.3 36.7 202.3 36.5 202.3C35.1 202 33.7 201.4 32.5 200.7C32.3 200.6 32.2 200.6 32.3 200.6C32.4 200.7 32.6 200.8 32.9 201C33.2 201.1 33.4 201.3 33.5 201.3C33.5 201.4 33.3 201.3 33.1 201.2C32.8 201.1 32.7 201 32.8 201.1C32.9 201.2 33.1 201.3 33.2 201.4C33.3 201.5 33.4 201.6 33.5 201.6C33.5 201.6 33.6 201.7 33.7 201.8C36.3 203.5 38.9 205.1 41.7 206.4C41.8 206.4 41.9 206.4 41.9 206.4C41.8 206.3 41.5 206.1 41.2 206C41 205.9 40.7 205.8 40.6 205.7C40.5 205.6 40.6 205.6 40.9 205.8C41.9 206.3 43.1 206.7 43.1 206.6C43.2 206.5 43 206.4 42.6 206.3C41.9 206 41 205.3 41.2 205.2C41.3 205.2 41.6 205.3 42 205.5C42.8 206 43.7 206.3 44.2 206.3C44.4 206.3 44.9 206.3 45.3 206.4C45.8 206.4 46 206.4 46.1 206.3C46.1 206.2 46.2 206.2 46.3 206.2C46.4 206.3 46.5 206.2 46.6 206C46.7 205.8 46.7 205.7 46.6 205.6C46.5 205.6 46.4 205.5 46.4 205.4C46.4 205.3 46.5 205.3 46.7 205.4C46.7 205.9 46.8 205.9 46.9 205.9ZM44.5 207.7C44.3 207.7 44.1 207.7 44.1 207.8C44.3 207.9 44.4 207.9 44.6 208C44.7 208 44.9 208 45 207.9C45.3 207.9 45.1 207.7 44.5 207.7ZM33.3 201C32.8 200.8 32.6 200.7 32.8 200.8C33 200.9 33.1 201 33.1 201C33.1 201.1 33.2 201.1 33.3 201.2C33.4 201.2 33.7 201.3 34 201.4C34.8 201.7 34.2 201.3 33.3 201ZM33.4 185.1C33.3 185.1 33.3 185.2 33.3 185.3C33.3 185.4 33.4 185.5 33.5 185.5C33.6 185.5 33.6 185.4 33.6 185.3C33.6 185.2 33.5 185.1 33.4 185.1ZM36.1 202.3C36.1 202.2 36 202.2 35.9 202.1C35.9 202.1 35.8 202.1 35.9 202.2C35.9 202.3 36 202.4 36.1 202.4C36.1 202.4 36.1 202.4 36.1 202.3ZM37 191.2C36.9 191.2 36.8 191.3 36.8 191.4C36.8 191.6 36.9 191.6 37 191.5C37.3 191.4 37.3 191.3 37 191.2ZM37.8 191.4C37.6 191.4 37.5 191.5 37.4 191.6C37.3 191.8 37.3 191.9 37.6 191.8C38.1 191.7 38.2 191.4 37.8 191.4ZM40.2 203.6C40 203.5 39.9 203.6 40 203.7C40.1 203.8 40.2 203.9 40.3 203.9C40.4 203.9 40.5 203.9 40.5 203.8C40.5 203.7 40.4 203.6 40.2 203.6ZM42.7 202.2C42.8 202.1 42.8 202 42.8 202C42.7 201.8 42.6 201.8 42.5 201.9C42.4 202.1 42.5 202.3 42.7 202.2ZM40.8 202.7C40.9 202.8 41 202.8 41 202.7C41 202.7 40.9 202.7 40.8 202.7C40.7 202.6 40.7 202.6 40.8 202.7ZM40.6 203.1C40.6 203.2 40.8 203.2 41 203.3C41.5 203.4 41.5 203.3 41 203.1C40.8 203 40.6 203 40.6 203.1ZM42.4 204.2C42 204.3 42.1 204.3 42.7 204.4C43.8 204.7 43.8 204.3 42.8 203.2C42.2 202.5 42.1 202.4 41.8 202.5C41.7 202.5 41.7 202.6 41.8 202.8C41.9 203 41.9 203.1 41.9 203.2C41.8 203.3 41.9 203.3 42.1 203.4C42.5 203.5 42.4 203.6 42 203.6C41.8 203.6 41.6 203.6 41.5 203.5C41.4 203.5 41.3 203.5 41.2 203.5C41.1 203.5 41.1 203.5 41.2 203.7C41.3 203.9 41.5 203.9 41.7 203.9C41.9 203.9 42.1 203.9 42.3 204C42.5 204.1 42.5 204.2 42.4 204.2ZM43.7 201C43.6 201.1 43.6 201.1 43.8 201.2C43.9 201.2 44 201.2 43.9 201.1C43.9 200.9 43.9 200.9 43.7 201ZM25.4 138.2C25.3 138.4 26.6 138.7 26.8 138.6C26.9 138.5 27.2 138.5 27.5 138.5C27.8 138.5 28.1 138.4 28.1 138.4C28.1 138.4 28 138.1 27.8 137.8C27.4 137.2 26.2 137 26.3 137.4C26.4 137.9 26.1 138.3 25.8 138.2C25.7 138.1 25.5 138.1 25.4 138.2ZM25.6 133.3C25.7 133.3 25.8 133.2 25.8 133.1C25.9 133 25.8 132.9 25.8 132.9C25.7 132.9 25.6 133 25.6 133.1C25.5 133.1 25.5 133.2 25.6 133.3ZM24.4 138.3C24.3 138 23.7 137.9 23.7 138.2C23.7 138.3 23.9 138.4 24.1 138.5C24.4 138.5 24.4 138.5 24.4 138.3ZM24.7 136.6C24.6 136.9 24.6 137 25.1 137C25.7 137.1 26.2 136.7 25.9 136.4C25.8 136.3 25.5 136 25.3 135.7C24.1 134.2 23.8 133.9 23.1 134.2C22.9 134.3 22.5 134.5 22.4 134.7C22.1 135 22.1 135 22.4 134.9C22.6 134.8 22.8 134.7 22.9 134.6C23.1 134.3 23.5 134.4 23.4 134.7C23.4 134.8 23.4 134.9 23.6 134.9C23.8 134.9 23.9 135 23.9 135.1C23.9 135.2 24 135.3 24.2 135.4C24.3 135.4 24.4 135.6 24.4 135.8C24.4 136 24.5 136.2 24.6 136.2C24.8 136.2 24.8 136.4 24.7 136.6ZM29.1 138.5C28.9 138.5 28.7 138.6 28.7 138.7C28.7 138.8 28.8 138.9 29 139C29.2 139 29.4 138.9 29.4 138.8C29.4 138.6 29.3 138.5 29.1 138.5ZM29.7 145C29.6 145 29.5 145.1 29.5 145.2C29.5 145.3 29.5 145.4 29.6 145.4C29.7 145.4 29.8 145.3 29.8 145.2C29.9 145.1 29.8 145 29.7 145ZM39.3 115.8C39.2 115.7 39 115.5 38.9 115.5C38.8 115.4 38.8 115.5 38.9 115.7C39 115.9 39.1 116.1 39.3 116C39.5 115.9 39.5 115.9 39.3 115.8ZM40.7 113.4C40.6 113 40.1 112.9 40.1 113.3C40.1 113.4 40.3 113.5 40.4 113.6C40.7 113.7 40.8 113.7 40.7 113.4ZM44.2 113.3C43.9 113.4 43.7 113.3 43.7 113.1C43.7 112.9 43.6 112.8 43.4 112.9C43.2 113.1 43.5 112.6 44 112C44.6 111.3 44 111.5 43.4 112.2C43.1 112.5 42.7 113 42.6 113.2C42.4 113.4 42.3 113.6 42.2 113.6C42.1 113.6 42 113.8 42 113.9C41.9 114.1 41.8 114.2 41.7 114.2C41.6 114.2 41.5 114.3 41.5 114.4C41.4 114.5 41.8 114.6 42.4 114.6C43.2 114.6 43.4 114.6 43.1 114.8C42.6 115.3 43.1 115.1 43.8 114.4C44.2 114 44.4 113.8 44.3 113.9C44.1 114 44.1 113.9 44.4 113.5C44.6 113.2 44.6 113.2 44.2 113.3ZM44.3 114.6C44.5 114.2 44.4 114.4 43.9 114.8C43.5 115.2 43.5 115.2 43.7 115.4C43.8 115.5 44 115.4 44.1 115.3C44.2 115.1 44.3 114.9 44.2 114.9C44.2 114.9 44.2 114.7 44.3 114.6ZM34.3 110.5C34.2 110.5 34.1 110.6 34.1 110.6C34.1 110.6 34.1 110.7 34.2 110.8C34.3 110.9 34.3 110.8 34.4 110.7C34.4 110.6 34.4 110.5 34.3 110.5ZM36.2 108.1C36.1 108.1 36 108.2 35.9 108.3C35.8 108.4 35.9 108.4 36 108.4C36.1 108.3 36.2 108.2 36.3 108.2C36.4 108.2 36.3 108.1 36.2 108.1ZM37.5 103.4C37.4 103.4 37.2 103.5 37.1 103.6C37 103.7 37 103.8 37.2 103.8C37.3 103.8 37.5 103.7 37.6 103.6C37.7 103.5 37.7 103.4 37.5 103.4ZM38.4 103.7C38.3 103.7 38.2 103.8 38.1 103.9C38 104 38 104.1 38.1 104.1C38.2 104.1 38.3 104 38.4 103.9C38.5 103.8 38.5 103.7 38.4 103.7ZM38.6 102.7C38.7 102.6 38.6 102.5 38.5 102.5C38.4 102.5 38.3 102.4 38.4 102.3C38.5 102.1 38.2 101.8 37.8 101.7C37.7 101.7 37.7 101.6 37.8 101.4C37.9 101.3 37.9 101.2 37.9 101.2C37.9 101.2 37.8 101.3 37.6 101.3C37.5 101.4 37.2 101.7 37 101.9C36.8 102.2 36.5 102.6 36.3 102.7C36 103 36 103 36.3 102.9C36.5 102.8 36.6 102.8 36.6 103C36.6 103.2 36.7 103.2 37.1 102.8C37.6 102.5 37.7 102.4 37.8 102.6C38.3 103 38.4 103 38.6 102.7ZM39.4 102.8C39.3 102.8 39.2 102.9 39.3 102.9C39.4 103 39.5 103 39.4 102.8C39.6 102.9 39.6 102.8 39.4 102.8ZM41.4 98.7C41.2 98.9 41.1 99 41.1 99C41.2 99 41.3 98.8 41.5 98.7C41.9 98.2 41.9 98.2 41.4 98.7ZM42.4 99.5C42.4 99.5 42.6 99.5 42.7 99.5C42.8 99.4 42.8 99.4 42.6 99.4C42.4 99.4 42.4 99.5 42.4 99.5ZM42.4 99C42.4 99 42.2 99.1 41.9 99.2C41.4 99.4 40.9 100.1 41.3 100C41.6 100 41.9 99.8 42.2 99.3C42.4 99.2 42.5 99 42.4 99ZM18.2 112.8C18.2 112.8 18.4 112.6 18.5 112.3C18.7 111.9 18.7 111.8 18.6 111.9C18.5 111.9 18.4 112 18.3 112.1C18.3 112.2 18.2 112.8 18.2 112.8ZM16.9 110.2C17.1 110 17.1 110 17 110C16.9 110 16.8 110.1 16.8 110.2C16.7 110.3 16.6 110.4 16.4 110.5C16.1 110.7 15.9 111 16.2 110.8C16.4 110.7 16.8 110.3 16.7 110.3C16.7 110.4 16.8 110.3 16.9 110.2ZM32.2 191.4C32.2 191.1 32.3 190.9 32.4 191C32.6 191 32.6 191.1 32.5 191.3C32.4 191.5 32.5 191.5 32.6 191.6C32.8 191.7 32.8 191.7 32.7 191.9C32.6 192.1 32.5 192.2 32.5 192.1C32.4 192.1 32.4 192.1 32.4 192.2C32.4 192.3 32.5 192.3 32.8 192.4C33 192.5 33.2 192.5 33.2 192.6C33.2 192.7 33.3 192.8 33.5 192.8C33.7 192.9 33.8 192.8 33.7 192.6C33.6 192.4 33.6 192.4 33.8 192.6C34 192.7 34.3 192.9 34.6 192.9C35.2 192.9 35.4 192.7 34.9 192.6C34.5 192.5 33.5 191.7 33.4 191.5C33.4 191.4 33.2 191.2 33 191.1C32.7 190.9 32.7 190.9 32.9 190.9C33.1 190.9 33.1 190.9 32.8 190.4C32.5 189.9 32.5 189.6 32.7 189.7C32.8 189.7 32.9 189.6 32.9 189.3C32.9 189.1 33 188.8 33.2 188.7C33.6 188.5 33.5 188 33.1 187.9C32.4 187.8 32.1 186.7 32.7 186.6C32.9 186.6 33 186.5 33 186.3C33 185.9 33 185.4 33 185.2C33 185.1 33 185.1 33.1 185.1C33.2 185.1 33.2 185.1 33.1 185C33 184.9 32.8 184.7 32.7 184.4C32.5 184 32.5 184 33.1 184.2C33.7 184.4 33.8 184.4 33.8 184C33.8 183.8 33.8 183.4 33.7 183.3C33.6 183.1 33.7 183.1 34.1 183.1C35.1 183.2 35.6 183.1 35.8 182.6C36 182.1 36 181.7 35.8 181.6C35.7 181.6 35.6 181.4 35.6 181.2C35.5 181 35.4 180.7 35.2 180.6C35 180.5 34.8 180.2 34.8 180.1C34.8 180 34.8 180 35 180.2C35.2 180.4 35.6 180.6 36.1 180.7C36.8 180.9 37 180.9 37.3 180.5C37.5 180.2 37.7 179.7 37.7 179.4C37.8 178.6 38.1 178 38.2 178.2C38.3 178.3 38.3 178.4 38.3 178.6C38.2 178.7 38.3 178.7 38.4 178.5C38.5 178.3 38.7 177.9 38.9 177.6C39.1 177.2 39.2 176.7 39.1 176.1C39 175.6 39 175 39.2 174.8C39.5 174.3 41.1 173.5 41.7 173.5C42.2 173.5 42.8 173.1 42.8 172.8C42.8 172.7 42.9 172.3 43.1 171.9C43.3 171.5 43.4 171.1 43.3 171C43.3 170.9 43.3 170.5 43.3 170.1C43.4 169.6 43.3 168.7 43.3 168C43.2 167 43.2 166.6 43.4 166.3C44.1 165.3 44.9 164.1 45.2 162.9C45.2 162.6 45.1 161.9 45 161.3C44.8 160.5 44.6 160.3 44.3 160.3C44.1 160.3 43.4 159.8 42.8 159.2C41.9 158.3 41.6 158.1 40.9 158C40.5 157.9 40 157.8 39.8 157.6C39.6 157.4 39.3 157.4 39 157.5C38.7 157.7 38.6 157.6 38.6 157.2C38.6 156.8 38.3 156.6 37.5 156.1C37.1 155.9 36.9 155.7 36.5 155.5C36.4 155.8 36.3 155.9 36.2 156.2C36 156.6 35.8 156.8 35.7 156.7C35.6 156.6 35.7 156.3 35.9 156.1C36.3 155.6 36.1 155.2 35.5 155C35.2 154.9 35 155 34.8 155.4C34.6 155.9 34.6 156 34.5 155.5C34.5 155.2 34.6 154.7 34.8 154.3C35.1 153.7 35.2 153.6 34.9 153.3C34.7 153.1 34.5 152.6 34.4 152.2C34.3 151.8 33.9 151 33.7 150.5C33.3 149.8 33.1 149.6 32.2 149.4C31.2 149.2 31.1 149.1 30.7 148.1C30.4 147.4 30.2 147 29.9 147C29.6 147 29.6 146.9 29.7 146.5C29.9 146.2 29.8 146 29.6 145.9C29.4 145.8 29.3 145.5 29.3 145.3C29.3 145 29.2 144.9 28.6 145.2C28.1 145.4 27.9 145.4 27.8 145.2C27.7 145.1 27.4 145 27.2 145C26.9 145 26.7 144.9 26.7 144.6C26.6 144.3 26.5 144.1 26.4 144.1C26.3 144.1 26.2 144 26.2 143.9C26.2 143.8 26.2 143.9 26.1 144C26.1 144.2 25.9 144.3 25.8 144.3C25.7 144.3 25.5 144.4 25.3 144.5C24.9 144.9 24.9 144.5 25.3 144C25.8 143.3 25.6 143.2 25 143.7C24.7 143.9 24.4 144.1 24.3 144.1C24.2 144.1 24 144.1 24 144.2C23.9 144.3 23.8 144.4 23.7 144.4C23.6 144.4 23.5 144.4 23.4 144.4C23.3 144.4 23.2 144.5 23.2 144.7C23.1 144.9 22.8 145.3 22.6 145.7C22 146.4 22.1 146.3 21.9 145.9C21.7 145.2 21.4 145.1 20.8 145.4C20.3 145.7 20.3 145.7 20.1 145.4C20 145.2 19.9 144.8 19.9 144.4C19.9 143.8 19.9 143.6 20.5 142.3C21.1 141 21.1 140.8 21 140.4C20.9 140.1 20.7 140 20.1 139.9C19 139.8 19 139.8 19.3 139.5C19.4 139.4 19.7 138.8 19.8 138.4C20 138 20.1 137.7 20.2 137.7C20.2 137.8 20.4 137.5 20.5 137.2C20.7 136.9 20.9 136.4 21 136.2C21.5 135.4 21.5 135.3 20.8 135.4C20.1 135.5 19.8 135.8 19.5 136.5C19.3 137 18.7 137.8 18.6 137.6C18.6 137.5 18.4 137.6 18.1 137.7C17.4 138 17.2 137.5 17.3 136.2C17.4 135.2 17.5 134.9 17.9 133.7C18.2 133 18.5 132.3 18.6 132.2C18.7 132.1 18.8 131.8 19 131.4C19.3 130.6 19.9 129.7 20.2 129.7C20.3 129.7 20.5 129.5 20.7 129.3C21.1 128.9 21.8 128.9 22.5 129.2C22.8 129.4 22.9 129.4 23 128.9C23.2 128.4 23.2 128.4 23.8 128.4C24.2 128.4 24.5 128.6 24.5 128.7C24.6 128.9 24.7 128.9 24.9 128.8C25.3 128.5 25.5 129.4 25.1 130.1C25 130.3 24.9 130.8 24.9 131.1C24.9 131.4 24.9 131.7 24.8 131.8C24.7 132 24.8 132.6 25 132.6C25.1 132.6 25.2 132.4 25.4 132.1C25.7 131.6 25.8 130.9 26.1 129.3C26.2 128.9 26.3 128.5 26.3 128.3C26.5 127.9 27.1 126.9 27.3 126.9C27.4 126.9 27.7 126.7 28 126.3C28.3 126 28.6 125.7 28.7 125.7C28.8 125.7 29 125.5 29.1 125.4C29.3 125.2 29.5 125.1 29.6 125.1C29.8 125.1 29.8 125 29.9 124.7C30 124.5 30 124.4 30 124.5C30.1 124.6 30.1 124.6 30.2 124.4C30.3 124.3 30.3 124.2 30.2 124.2C30.1 124.2 30.1 124.1 30.3 123.9C30.5 123.7 30.6 123.5 30.5 123.4C30.5 123.1 30.8 122.1 31.1 121.8C31.3 121.6 31.2 121.7 31.1 122.3C30.9 123 30.9 123 31.2 122.6C31.4 122.4 31.5 122 31.6 121.8C31.7 121.6 31.8 121.5 31.9 121.5C32.1 121.5 32.3 121.3 32.5 120.9C32.7 120.5 32.9 120.3 33.1 120.3C33.3 120.3 33.4 120.2 33.3 120.1C33.2 120 33.5 119.9 33.9 119.8C34.5 119.7 34.6 119.6 34.6 119.3C34.6 118.8 35.3 117.9 36 117.6C36.3 117.4 36.8 117.2 37 117.1C37.2 117 37.4 116.9 37.5 116.8C37.6 116.8 37.8 116.7 38.1 116.6C38.5 116.5 38.5 116.5 38.2 116.8C38 117 37.8 117.2 37.7 117.2C37.6 117.2 37.3 117.8 37.4 118C37.4 118.1 37.7 118 38 117.7C38.3 117.5 38.6 117.3 38.8 117.2C39.3 117.1 40.2 116.5 40.3 116.2C40.4 116 40.4 116 40.4 116.2C40.4 116.4 40.5 116.4 40.7 116.3C40.9 116.1 40.9 116.1 40.8 116.1C40.7 116.1 40.7 115.9 40.8 115.7C40.9 115.4 40.9 115.4 40.4 115.9C40 116.4 39.8 116.5 39.5 116.4C39 116.3 38.7 115.8 39 115.2C39.1 114.9 39.1 114.7 38.9 114.7C38.7 114.7 38.7 114.6 39.1 114.5C39.3 114.4 39.6 114.2 39.7 114C39.8 113.8 39.7 113.7 39.2 113.7C38.5 113.8 37.8 114.2 36.9 115C36.5 115.4 36.6 115.3 37.1 114.7C37.5 114.3 38 113.8 38.3 113.6C38.6 113.4 39 113.1 39.2 112.9C39.6 112.6 39.9 112.6 40.8 112.7C41.8 112.8 42.1 112.8 42.6 112.4C42.9 112.2 43.5 111.8 43.8 111.7C44.4 111.5 44.5 111.4 44.7 110.8C44.9 110.3 44.9 110.1 44.6 109.9C44.3 109.7 44.3 109.5 44.5 109.4C44.7 109.3 44.7 109.2 44.6 109.2C44.4 109.2 44.3 109.1 44.3 109C44.3 109 44.2 108.9 44 108.9C43.9 108.9 43.7 108.7 43.7 108.6C43.7 108.5 43.6 108.3 43.6 108.2C43.5 108 43.5 107.8 43.7 107.6C43.8 107.4 43.8 106.7 43.8 106C43.8 105.5 43.8 105.3 43.7 104.8C43.5 105.1 43.3 105.2 43.1 105.5C42.4 106.3 41.7 106.6 41.7 106.2C41.7 106 41.5 106 41.4 106C41.2 106.1 41.2 106 41.5 105.3C41.9 104.5 41.9 104.5 41.5 104.4C41.3 104.3 41.2 104.2 41.2 104.1C41.3 103.8 41 103.5 40.5 103.5C40.3 103.5 40 103.5 39.8 103.4C39.6 103.3 39.4 103.4 39.3 103.5C39.2 103.6 39 104.1 38.8 104.6C38.5 105.4 38.4 105.6 38.1 105.9C37.7 106.3 37.7 106.3 37.9 106.6C38.1 106.9 37.8 107.6 37.5 108.2C37.4 108.4 37 108.7 36.6 109C36.3 109.2 36.2 109.3 35.9 109.5C35.8 109.8 35.8 110 35.7 110.3C35.3 111.4 35.2 111.6 34.8 111.9C34.5 112.1 34.4 112 34.3 111.5C34.2 111.1 34.3 110.7 34.3 110.6C35 109.2 35 109.1 34.4 109.2C34.1 109.2 33.9 109.1 33.9 109C33.9 108.9 33.8 108.8 33.7 108.8C33.6 108.8 33.4 108.6 33.3 108.4C33.2 108.2 32.9 108 32.6 108C32.2 108 32.1 107.9 32.3 107.5C32.4 107.2 32.4 107 32.2 106.9C31.9 106.8 32.1 106.4 33 105.4C33.7 104.6 34.6 103.8 34.9 103.8C35 103.8 35.1 103.7 35.2 103.6C35.3 103.3 35.8 102.9 36.2 102.9C36.5 102.9 38.1 101.3 38 101.1C38 101 38.1 101 38.3 101.1C38.5 101.1 38.6 101.3 38.6 101.4C38.6 101.5 38.6 101.5 38.7 101.3C38.8 101.1 38.9 101 39.1 100.9C39.3 100.9 39.6 100.7 39.8 100.5C39.9 100.4 40 100.3 40.2 100.2C40.2 100.1 40.2 100 40.1 99.9C40 99.6 40.2 99.3 40.3 99.3C40.3 99.3 40.5 99.2 40.5 99.1C40.6 99 40.5 98.8 40.4 98.7C40.2 98.6 40.1 98.5 40.1 98.5C40.1 98.5 40.5 98.4 41 98.4C41.7 98.3 42 98.3 42 98.1C42.1 97.8 42.2 97.8 42.4 98.1C42.5 98.3 42.5 98.5 42.4 98.5C42.3 98.6 42.4 98.6 42.6 98.5C42.8 98.4 42.9 98.5 42.8 98.6C42.7 98.7 42.9 98.9 43.1 99C43.7 99.3 43.4 100.1 42.5 100.6C42.3 100.7 42.2 100.8 42.2 101C42.2 101.2 42.1 101.3 41.7 101.4C41.4 101.5 41.2 101.5 41.1 101.5C40.9 101.4 40.4 101.8 40.3 102.1C40.2 102.2 40.6 102.2 41.1 102.1C41.7 102 42 102 42 102.2C42 102.3 42.1 102.5 42.2 102.5C42.3 102.5 42.3 102.6 42.3 102.7C42.1 103 42.4 103.4 42.6 103.2C42.7 103.1 42.8 103.1 42.8 103.2C42.8 103.3 43 103.5 43.1 103.5C43.3 103.6 43.5 103.7 43.6 103.7C43.9 103.9 43.9 103.3 43.6 102.9C43.2 102.4 43.4 102.2 43.9 102.7C44.3 103 44.3 103.1 44.6 102.7C44.9 102.4 44.9 102.2 44.9 101.9C44.9 101.6 44.8 101.4 44.7 101.4C44.6 101.4 44.5 101.3 44.4 101.1C44.3 100.8 44.3 100.8 44.7 100.5C45.1 100.2 45.2 100.3 45.4 100.9C45.5 101.3 45.8 101.4 46 101C46.1 100.8 46.2 100.7 46.2 100.8C46.2 100.9 46.5 100.7 46.8 100.4C47 100.2 47.1 100.1 47.3 99.9C47.1 99.9 47 99.8 46.9 99.8C46.7 99.7 46.5 99.6 46.5 99.5C46.5 99.4 46.4 99.2 46.2 99.2C45.4 99.1 45.2 98.4 45.9 98.3C46.1 98.3 46.1 98.2 45.9 98.1C45.7 98 45.7 98 45.9 97.9C46.1 97.9 46.2 97.8 46.2 97.6C46.2 97.5 46.1 97.4 45.9 97.5C45.7 97.6 45.7 97.6 45.8 97.4C46 97.2 45.9 97.2 45.5 97.2C45.4 97.2 45.3 97.2 45.3 97.1C45.4 96.8 44.9 96.6 44.7 96.8C44.6 96.9 44.4 96.8 44.3 96.5C44.2 96.3 44.1 96 44 96.1C43.9 96.1 43.9 96 43.9 95.9C44.1 95.6 43.7 95.4 43.2 95.4C42.9 95.5 42.7 95.5 42.6 95.7C42.5 95.9 42.5 95.9 42.5 95.7C42.6 95.5 42.4 95.5 41.9 95.7C41.1 96 40.8 96.2 40.5 96.7C40.4 96.9 40.4 97.1 40.4 97.1C40.5 97.1 40.5 97.2 40.4 97.3C40.2 97.6 40.2 97.6 40.1 97.3C40 97.2 40.1 97 40.1 96.9C40.2 96.8 40.3 96.6 40.3 96.5C40.3 96.4 40.5 96.2 40.7 96.1C41.1 95.8 41.1 95.8 40.6 95.9C40 96 39.6 96.3 39 96.9C38.5 97.4 38.5 97.4 38.5 97.8C38.5 98.1 38.6 98.2 39.1 98.3C39.4 98.3 39.6 98.4 39.5 98.5C39.3 98.6 39 99 39.2 99C39.3 99 39.1 99.2 38.8 99.4C38.6 99.6 38.3 99.8 38.3 99.8C38.2 99.7 38.2 99.8 38.1 100C37.9 100.4 37.7 100.5 37.7 100.2C37.7 100 37.7 99.9 37.9 99.7C38.1 99.5 38.1 99.4 38 99.3C37.9 99.1 37.8 99.2 37.5 99.4C37 99.9 37 99.9 37.2 99.4C37.3 99.1 37.3 99 37.1 99.1C36.9 99.1 36.9 98.9 37.2 98.7C37.4 98.6 37.3 97.7 37.1 97.7C37 97.7 37.2 97.5 37.4 97.3C37.7 97 37.9 96.9 38 96.9C38.1 96.9 39.1 96.2 39.3 96C39.4 95.9 37.8 96.2 37.6 96.4C37.4 96.6 37.3 96.7 37.2 97C37 97.5 36.9 97.7 36.5 98C36.3 98.1 36.1 98.3 35.9 98.6C35.7 99 35.8 99.2 36.2 99.2C36.2 99.2 36.2 99.3 36.1 99.4C36 99.5 36 99.6 36.1 99.6C36.3 99.6 36 99.9 35.6 100.1C35.3 100.2 35.2 100.4 35.1 100.6C35 100.9 34.9 100.9 34.8 100.9C34.7 100.9 34.7 100.7 34.8 100.6C34.9 100.5 34.9 100.3 34.9 100.2C34.9 100.1 34.9 100 35 100C35.1 100 35.2 100 35.3 99.9C35.5 99.8 35.5 99.8 35.5 99.6C35.5 99.2 35.2 99.2 34.7 99.5C34.3 99.8 34.3 99.9 34.4 99.8C34.7 99.8 34.6 99.9 34.2 100.3C33.8 100.7 32.4 100.8 32.3 100.5C32.2 100.2 31.4 100.5 31.3 100.8C31.3 100.9 31.5 100.8 31.7 100.7C32 100.5 32.2 100.5 32.2 100.5C32.2 100.6 32 100.7 31.8 100.8C31.5 100.9 31.4 101.1 31.2 101.3C31.1 101.5 31 101.7 30.9 101.8C30.8 101.9 30.8 101.8 30.9 101.6C31.2 101.2 30.8 101.1 29.8 101.4C29.2 101.6 29.1 101.6 29.2 101.4C29.3 101.3 29.5 101.2 29.6 101.1C30 101 29.7 100.8 29.3 100.9C29.1 100.9 28.8 100.9 28.6 100.8C28.4 100.7 28.1 100.7 27.9 100.9C27.7 101 27.5 101 27.5 100.9C27.5 100.8 27.5 100.8 27.3 100.9C27 101.2 26.8 101.2 26.9 100.9C26.9 100.7 26.9 100.7 26.7 100.9C26.6 101 26.3 101.2 26 101.3C25.3 101.6 24.6 101.9 24.3 102.2C24.1 102.4 23.9 102.5 23.7 102.4C23.3 102.3 23.7 101.9 22.7 102.2C22.6 102.2 22.4 102.3 22.3 102.3C22.2 102.3 22.1 102.3 21.9 102.4C21.8 102.4 21.7 102.5 21.6 102.5C21.6 102.5 21.5 102.6 21.4 102.6C21.3 102.7 21.1 102.8 20.9 102.9C20.6 103.1 20.3 103.3 20.1 103.5C19.5 104.2 19 104.8 18.4 105.5C18.4 105.5 18.5 105.5 18.5 105.4C18.6 105.2 18.5 105.5 18.3 105.8C18.2 105.9 18.1 105.9 18.1 106L17.4 106.8C17.5 106.7 17.6 106.7 17.6 106.6C17.8 106.5 17.8 106.5 17.7 106.7C17.6 106.9 17.5 107 17.4 107.1C17.3 107.2 17 107.5 16.8 107.6C16.3 108.3 15.8 108.9 15.4 109.6C15.5 109.6 15.4 109.7 15.3 109.9C15.1 110.2 15.1 110.3 15.3 110.1C15.4 110 15.5 110 15.5 110.1C15.5 110.2 15.5 110.2 15.6 110.1C15.6 110 15.8 109.9 15.9 109.9C16.1 109.8 16.1 109.9 15.7 110.3C15.5 110.5 15.1 111 14.8 111.2C14.5 111.5 14.2 111.7 14.1 111.8C14 111.9 14 111.9 14 111.9C14 111.9 13.9 111.9 13.8 112C13.7 112.1 13.7 112.2 13.6 112.3C13.7 112.2 13.8 112.1 14 112C14.2 111.9 14.5 111.6 14.7 111.4C14.9 111.2 15.2 111 15.2 111C15.3 111 15.3 110.9 15.4 110.8C15.5 110.7 15.7 110.5 15.9 110.3C16.1 110.1 16.4 109.9 16.6 109.7C16.8 109.5 16.9 109.4 16.8 109.5C16.6 109.6 16.9 109.2 17.2 109C17.3 108.9 17.5 108.8 17.5 108.7C17.7 108.5 18.4 107.9 18.5 107.8C18.6 107.8 18.6 107.8 18.4 107.9C18.2 108.1 17.5 108.8 17.6 108.8C17.7 108.8 17.6 108.8 17.5 109C17.1 109.3 17.5 109.2 17.9 108.8C18.1 108.6 18.3 108.5 18.4 108.4C18.5 108.4 18.6 108.3 18.7 108.1C18.9 107.8 18.9 107.7 19 107.9C19 108 18.9 108.1 19.2 108.1C19.3 108.1 19.1 108.6 19.1 108.8C19.1 109 19.3 109 19.5 108.7C19.6 108.6 19.6 108.7 19.4 108.9C19.1 109.3 18.7 110.2 18.9 110.2C19 110.2 19.4 109.2 19.4 109.1C19.4 109 19.5 109 19.5 109C19.6 109 19.6 108.9 19.7 108.7C19.8 108.5 19.8 108.5 19.7 108.7C19.7 108.8 19.6 109 19.5 109.1C19.4 109.2 19.3 109.3 19.3 109.5C19.2 109.6 19.2 109.7 19.3 109.7C19.3 109.7 19.4 109.6 19.5 109.4C19.6 109.2 19.7 109.1 19.7 109.2C19.8 109.3 19.4 109.9 19.3 109.9C19.2 109.9 19.1 110 19.1 110.1C19 110.2 19 110.2 19.1 110.2C19.2 110.1 19.2 110.3 19 110.5C18.9 110.7 18.8 111 18.8 111.1C18.8 111.3 18.8 111.2 19 110.9C19.1 110.7 19.2 110.6 19.1 110.6C19 110.7 19 110.5 19.1 110.4C19.2 110.1 19.2 110 19.4 110C19.5 110 19.5 110 19.4 110.1C19.2 110.3 19.1 111.1 19.3 110.9C19.4 110.8 19.3 111.1 19 111.5C18.6 112.2 18.5 112.3 19 111.9C19.2 111.7 19.2 111.7 18.9 112.1C18.6 112.5 18.6 112.5 18.7 112.4C18.8 112.3 18.8 112.4 18.7 112.7C18.6 112.9 18.5 113.1 18.5 113.2C18.3 113.5 18.3 113.7 18.4 113.6C18.5 113.6 18.5 113.7 18.5 113.8C18.4 114 18.3 114 18.2 113.7C18.2 113.6 18.1 113.7 18.1 113.8C18 114 18.2 115.3 18.4 115.2C18.5 115.1 18.5 115 18.5 114.8C18.5 114.5 18.6 114 18.8 114C18.8 114 18.8 114.1 18.8 114.2C18.7 114.3 18.8 114.4 18.8 114.5C18.9 114.6 18.9 114.9 18.7 115.4C18.5 115.8 18.5 115.8 18.2 115.5C18.1 115.4 18.1 115.4 18 115.9C17.9 116.3 17.7 116.7 17.1 117.7C16.4 118.9 15.7 120.1 15.1 121.4C15.1 121.5 15 121.6 15 121.8C14.8 122.2 14.7 122.9 14.8 122.8C14.9 122.7 14.9 122.8 14.7 123C14.6 123.2 14.4 123.7 14.3 124.2C14.2 124.7 14.1 125.1 14.1 125.2C14.1 125.3 14.1 125.4 14.2 125.5C14.5 125.7 14.5 126.1 14.1 127.5C13.9 128.2 13.8 129 13.8 129.3C13.8 129.8 13.8 129.9 13.6 130.1C13.3 130.4 13.3 130.3 13.6 131.3C13.6 131.5 13.6 131.8 13.5 132C13.3 132.4 13.4 133.9 13.6 133.7C13.7 133.5 13.8 133 13.7 132.9C13.6 132.8 13.7 132.4 13.8 132C13.9 131.6 14 131.1 14 131.1C14 131 14 130.6 14.1 130C14.2 129.5 14.2 128.9 14.2 128.8C14.2 128.7 14.3 128.3 14.4 127.9C14.7 127.2 14.7 127.2 14.8 127.4C14.9 127.5 14.9 127.9 14.7 128.4C14.6 128.8 14.5 129.7 14.5 130.2C14.5 130.8 14.5 131.3 14.4 131.4C14.4 131.5 14.4 132 14.4 132.7C14.5 134 14.3 135 14 135.5C13.9 135.7 13.8 136 13.7 136.1C13.7 136.5 13.9 137.4 14.1 137.6C14.2 137.7 14.3 137.9 14.4 138C14.5 138.2 14.7 138.6 15 138.9C15.5 139.5 15.6 139.6 16 139.3C16.5 139 16.6 139.1 16.8 140.1C16.9 140.7 17.6 141.5 18.1 141.6C18.2 141.6 18.3 141.7 18.3 141.8C18.3 141.9 18.3 142.3 18.4 142.7C18.5 143.1 18.5 143.6 18.4 143.8C18.3 144.1 18.3 144.3 18.3 144.3C18.7 144.4 18.9 144.8 18.8 145.2C18.7 145.5 18.7 145.5 19.1 145.7C19.2 145.7 19.4 146 19.5 146.2C19.7 146.7 20 146.7 20 146.3C20 145.9 20.7 145.2 20.8 145.4C20.9 145.5 20.9 146 20.9 146.5C20.9 147.5 20.6 150.4 20.2 150.6C20.2 150.6 20.1 150.8 20 151.2C20 151.5 19.9 151.8 19.8 151.8C19.6 151.8 19.4 153.6 19.5 154.3C19.6 154.6 19.7 154.8 19.8 154.8C20.1 154.8 20.1 155.4 19.8 155.7C19.5 156.2 19.7 157.4 20.2 158.2C20.4 158.5 20.9 159.5 21.2 160.3C21.6 161.2 22.1 162.4 22.3 162.9C22.6 163.5 22.8 164.1 22.8 164.2C22.8 164.6 23.6 165.6 24.6 166.5C25.7 167.3 26.3 168.4 26.5 169.7C26.8 171.4 27.1 173 27.2 174.7C27.2 175.2 27.3 175.8 27.4 175.9C27.5 176.1 27.5 176.2 27.4 176.3C27.3 176.4 27.4 176.7 27.5 177.2C27.8 178 27.9 178.9 27.7 180.3C27.6 181 27.7 181.4 27.9 181.8C28 182.1 28.1 182.5 28.1 182.6C28.1 182.7 28.1 183.1 28.2 183.5C28.3 183.9 28.3 184.3 28.4 184.5C28.4 184.7 28.5 184.8 28.6 184.8C28.7 184.8 28.7 184.5 28.7 184.3C28.6 184 28.7 183.8 28.8 183.9C29 183.9 29.1 184.4 29.3 185.4C29.3 185.5 29.4 185.8 29.4 186.2C29.5 186.6 29.4 186.7 29.2 186.6C29 186.5 28.8 186.5 28.7 186.7C28.6 186.8 28.6 186.9 28.7 186.9C29.2 186.9 29.4 187.2 29.6 188.2C29.6 188.2 29.5 188.1 29.3 187.9C29.1 187.7 29 187.6 29 187.7C29 187.7 29 187.9 29.2 188C29.3 188.1 29.4 188.4 29.5 188.7C29.6 189.1 29.6 189.2 29.7 188.9C29.7 188.7 29.8 188.6 29.8 188.6C29.9 188.6 30 189.4 29.9 189.5C29.8 189.6 29.9 189.6 30 189.6C30.2 189.6 30.4 189.8 30.7 190.4C31 190.8 31.1 191.2 31.1 191.2C31 191.2 31 191.3 31.1 191.4C31.2 191.5 31.4 191.6 31.5 191.6C31.7 191.6 31.8 191.6 31.8 191.7C31.8 191.8 31.9 191.9 32 191.9C32.2 191.9 32.3 191.7 32.2 191.4ZM15.5 152.5C15.5 152.4 15.4 152.2 15.4 152.1C15.3 152 15.3 152.1 15.3 152.3C15.3 152.5 15.4 152.7 15.4 152.7C15.5 152.7 15.5 152.6 15.5 152.5ZM6.3 135C6.3 135 6.2 135.1 6.1 135.3C6 135.5 6 135.7 6.1 135.6C6.1 135.6 6.2 135.4 6.3 135.3C6.3 135.2 6.3 135.1 6.3 135ZM27 99.3C27.1 99.4 27.1 99.4 27.2 99.4C27.4 99.6 28 99.3 28.3 99C28.4 98.8 28.8 98.5 29.3 98.2C29.4 98.1 29.5 98.1 29.6 98C29.4 98.2 29.3 98.3 29.1 98.4C28.9 98.6 28.8 98.7 28.6 98.8C28.7 98.8 28.7 98.8 28.8 98.8C29.1 98.8 29.1 98.9 28.8 99C28.6 99.1 28.5 99.2 28.4 99.3C28.4 99.4 28.7 99.4 29.1 99.2C29.5 99.1 29.9 99 29.8 99.1C29.8 99.2 29.6 99.3 29.4 99.3C29.2 99.3 28.9 99.4 28.6 99.6C28.4 99.7 28.3 99.8 28.1 99.9C28.1 100 28.2 100 28.2 100.1C28.3 100.2 28.4 100.2 28.6 100.2C28.8 100.1 28.9 100.2 28.8 100.3C28.7 100.5 30.3 100 30.8 99.6C31 99.4 31.2 99.4 31.3 99.5C31.7 99.7 32.7 99.3 32.5 99C32.5 99 32.6 98.9 32.8 98.8C32.9 98.8 33 98.7 33.1 98.7C33 98.6 33 98.6 32.9 98.5C32.8 98.4 32.7 98.3 32.6 98.4C32.5 98.4 32.5 98.2 32.6 97.8C32.8 97.3 32.8 97.1 33.1 96.9C33.2 96.8 33.4 96.6 33.4 96.5C33.5 96.3 32.9 96.5 32.7 96.7C32.6 96.8 32.4 96.9 32.3 97C32.1 97.1 32.1 97.1 31.9 97.5C31.7 98 31.5 98.2 31.6 97.7C31.7 97.3 31.6 97.3 31.1 97.7C30.9 97.9 30.8 97.9 30.9 97.7C31 97.6 30.8 97.6 30.5 97.7C30.2 97.9 30.1 97.9 30.2 97.7C30.3 97.6 30.3 97.5 30 97.6C29.8 97.7 29.8 97.7 29.9 97.5C30.1 97.3 29.8 97.1 29.5 97.2C29.4 97.3 29.1 97.3 28.9 97.4C28.7 97.4 28.3 97.6 28.2 97.7C28 97.8 27.8 98 27.8 98C27.8 98.1 27.6 98.3 27.2 98.7C27.4 98.9 27.2 99 27 99.3ZM29.5 96.6C29.6 96.6 29.7 96.6 29.8 96.6C30 96.6 30.2 96.5 30.3 96.4C30.4 96.3 30.5 96.3 30.4 96.3C30.3 96.4 30.5 96.3 30.7 96.1C30.9 95.9 31 95.8 31 96C30.9 96.2 31.5 95.8 31.8 95.5C32.1 95.1 31.2 95.5 30.3 96.2C29.9 96.2 29.8 96.3 29.5 96.6ZM30.6 96.3C30.8 96.1 30.8 96.1 30.7 96.1C30.6 96.1 30.5 96.2 30.4 96.3C30.1 96.7 30.3 96.6 30.6 96.3ZM31.8 95.6C31.5 95.7 31.3 95.8 30.9 96.2L30.5 96.6C30.6 96.6 30.6 96.6 30.7 96.5C30.8 96.5 31 96.4 31 96.4C31.1 96.4 31.3 96.3 31.4 96.2C31.5 96.1 31.6 96.1 31.6 96.2C31.6 96.3 31.6 96.3 31.4 96.4C31.2 96.5 31.2 96.5 31.2 96.6C31.2 96.7 31.4 96.6 32 96.3C32.4 96.1 32.9 95.8 33.1 95.8C33.5 95.7 33.9 95.4 34.1 95.1C34.2 95 34.1 95 33.8 95.1C33.5 95.2 33.4 95.2 33.5 95C33.6 94.7 33.5 94.7 33.2 95C33 95.1 33 95.2 33 95.4C33 95.6 33 95.6 32.7 95.7C32.5 95.8 32.3 95.7 32.3 95.6C32.3 95.6 32 95.6 31.8 95.6ZM32.4 94.8C32.4 94.8 32.5 94.8 32.6 94.7C32.7 94.6 32.7 94.6 32.6 94.7C32.4 94.7 32.4 94.7 32.4 94.8ZM33 94.7C33.2 94.6 33.5 94.5 33.6 94.4C33.7 94.3 33.6 94.3 33.3 94.3C33 94.4 32.8 94.5 32.7 94.6C32.7 94.8 32.8 94.8 33 94.7ZM33.6 94.1C34 94 34.1 93.9 34.1 93.8C34.1 93.7 34 93.7 34 93.7C34 93.7 33.8 93.8 33.5 94C33.1 94.2 33.1 94.2 33.6 94.1ZM34.3 95.5C34.5 95.3 34.6 95.2 34.4 95.3C34.4 95.3 34.3 95.4 34.3 95.5C34.2 95.6 34.2 95.6 34.3 95.5ZM34.6 96.5C34.7 96.5 34.7 96.5 34.5 96.7C34.4 96.8 34.2 96.9 34.2 96.8C34.1 96.7 34 96.7 33.9 96.9C33.8 97 33.8 97.1 33.9 97.1C34 97.1 34.1 97.3 34.2 97.4C34.3 97.6 34.4 97.6 34.5 97.5C34.6 97.4 34.8 97.3 34.9 97.2C35.3 97.1 35.6 96.6 35.4 96.5C35.2 96.4 35.2 96.4 35.5 96.1C35.7 95.9 35.8 95.8 35.7 95.7C35.6 95.6 35.2 95.8 34.7 96C34.6 96.2 34.4 96.5 34.6 96.5ZM34.7 94.8C34.7 94.9 34.7 94.9 34.8 94.9C34.9 94.9 35 94.9 34.9 95C34.9 95.1 35 95.1 35.3 94.9C35.7 94.7 35.7 94.7 35.5 95C35.3 95.2 35.3 95.3 35.5 95.2C35.9 95.1 36.3 94.8 36.5 94.3C36.7 94 36.6 94 36.2 94.1C35.9 94.2 35.8 94.3 35.8 94.4C35.8 94.6 35.6 94.6 35.5 94.5C35.5 94.4 35.4 94.4 35.3 94.6C35.1 94.8 35.1 94.8 35 94.7C35 94.5 34.8 94.5 34.7 94.8ZM34.9 94.3C35 94.3 35.1 94.2 35 94.1C35 93.9 34.9 94 34.8 94.2C34.8 94.2 34.8 94.3 34.9 94.3ZM35.7 93.2C35.9 93.1 35.9 93.1 35.6 93.3C35.4 93.4 35.5 93.4 35.9 93.3C36.2 93.2 36.5 93.2 36.4 93.3C36.3 93.5 36.7 93.4 36.8 93.2C37 92.9 36.8 92.7 36.5 92.7C36.4 92.7 36.1 92.7 35.9 92.7C35.7 92.7 35.5 92.8 35.4 92.9C35.5 93.2 35.5 93.2 35.7 93.2ZM37.5 94.5C37.4 94.3 37.4 94.3 36.9 94.7C36.8 94.8 36.7 94.9 36.6 95C36.7 95 36.7 95.1 36.7 95.1C37.1 95.2 37.7 94.9 37.5 94.5ZM37.8 93.9C38 93.9 38.2 93.9 38.2 94.1C38.2 94.2 38.2 94.3 38.1 94.4C38.1 94.4 38 94.5 38 94.7C38 94.9 38.3 94.8 39.7 94.6C40.7 94.4 41.7 94.2 41.9 94.1C42 94 42.1 94 42.2 93.9C42.2 93.8 42.1 93.8 42.1 93.7C42 93.6 41.6 93.6 40.5 93.9C39.2 94.2 39.1 94.3 39 94C38.9 93.8 38.7 93.7 38.3 93.8C38 93.8 37.7 93.8 37.6 93.8C37.5 93.8 37.4 93.8 37.3 93.9C37.2 93.9 37.4 94 37.8 93.9ZM37.7 93.1L37.8 93.2C37.8 93.3 38 93.2 38.2 93.2C38.6 93.1 38.6 93.1 38.3 93.1C38.1 93.1 38.1 93 38.2 92.8C38.3 92.6 38.3 92.6 38.2 92.6C38.1 92.6 37.9 92.6 37.8 92.6C37.7 92.6 37.6 92.6 37.5 92.7C37.4 92.9 37.5 93.1 37.7 93.1ZM37.5 92.2C37.5 92.2 37.6 92.2 37.7 92.1C37.8 92 37.8 92 37.6 92C37.5 92.1 37.4 92.1 37.5 92.2ZM39.3 93.3C39.3 93.3 39.2 93.4 39.2 93.5C39.1 93.6 39.1 93.7 39.2 93.7C39.2 93.7 39.3 93.6 39.3 93.5C39.3 93.3 39.3 93.3 39.3 93.3ZM39.4 93.1C39.6 93.1 39.6 93 39.6 92.9C39.6 92.7 39.4 92.7 39.3 93C39.2 93 39.3 93.1 39.4 93.1ZM39.2 91.9C39.6 91.8 39.6 91.8 39.3 91.9C38.9 92.1 38.9 92.3 39.3 92.4C39.5 92.5 39.8 92.4 40.9 91.8C41.1 91.7 41.2 91.7 41 91.8C40.7 92.1 40.8 92.2 41.2 92C41.4 91.9 41.5 91.9 41.4 92C41.3 92.1 41.3 92.2 41.3 92.2C41.3 92.3 41.1 92.3 40.8 92.3C40.5 92.3 40.3 92.4 40.3 92.5C40.4 92.6 40.3 92.7 39.9 92.8C38.9 93.3 39.3 93.3 41 92.9C43.1 92.4 43.3 92.4 43 92.2C42.8 92.1 42.8 92.1 43.1 91.9C43.3 91.8 43.4 91.7 43.5 91.6C43.6 91.5 43.8 91.4 44 91.4C44.2 91.4 44.5 91.2 44.7 91C45 90.7 45 90.7 44.8 90.7C44.5 90.8 44.6 90.5 45 90.4C45.4 90.3 46.6 89.8 47.3 89.4C47.7 89.2 48.2 88.9 48.5 88.8C48.8 88.7 49 88.5 49 88.4C49 88.3 49.3 88.2 49.8 88C50.2 87.9 50.6 87.7 50.7 87.6C49.2 87 46.4 87.9 45 88.4C44.5 88.6 43.9 88.8 43.7 89C43.5 89.1 43.3 89.2 43.1 89.2C42.9 89.2 42.7 89.3 42.4 89.4C42.2 89.5 41.8 89.7 41.5 89.8C40.9 90 40.7 90.2 40.8 90.4C41 90.6 41.4 90.6 41.6 90.4C41.7 90.3 41.8 90.2 41.9 90.2C42 90.2 42 90.2 41.8 90.4C41.6 90.6 41.7 90.6 42 90.5C42.9 90.3 43.3 90.2 43.2 90.3C43.1 90.4 42.7 90.5 42.2 90.6C41.6 90.7 41.3 90.8 41.3 91C41.3 91.1 41.2 91.2 41.1 91.1C41 91 40.9 91 40.8 91C40.7 91 40.6 91 40.6 91C40.3 90.8 39.9 90.7 39.7 90.8C39.2 91 39 91.1 39 91.2C39 91.3 38.9 91.4 38.7 91.4C38.6 91.5 38.4 91.6 38.3 91.7C38.4 92 38.7 92.1 39.2 91.9ZM55 86.1C54.9 86.3 55.6 86.2 55.7 86.1C55.8 86 55.6 86 55.4 86C55.2 86 55 86.1 55 86.1ZM68.6 99.6C68.6 99.5 67.7 98.5 67.5 98.5C67.5 98.5 67.4 98.6 67.4 98.7C67.4 98.8 67 98.9 66.6 99C66.2 99.1 65.7 99.2 65.6 99.3C65.4 99.4 65.3 99.4 65.2 99.1C65.1 98.9 64.9 98.8 64.7 98.9C64.1 99.1 64 99.5 64.5 99.5C64.9 99.5 64.9 99.5 64.7 99.8C64.5 100.1 64.5 100.1 64.7 100.1C64.9 100.1 64.9 100.5 64.7 100.6C64.6 100.7 64.9 100.8 65.4 100.8C66.3 101 68.3 100.5 68.6 99.6ZM61.6 105.6C61.7 105.6 61.8 105.5 61.9 105.4C62 105.3 62 105.2 61.9 105.2C61.8 105.2 61.7 105.3 61.6 105.4C61.5 105.4 61.5 105.6 61.6 105.6ZM61.3 109C61.3 108.9 61.3 108.6 61.5 108.6C61.6 108.5 61.7 108.2 61.7 108C61.6 107.5 60.6 107.5 60.4 108C60.3 108.2 60.1 108.4 59.9 108.4C59.7 108.4 59.5 108.5 59.5 108.8C59.5 109.1 59.5 109.3 59.6 109.4C59.7 109.5 59.6 109.6 59.4 109.9C59.1 110.2 59.1 110.3 59.2 110.5C59.3 110.6 59.5 110.7 59.7 110.6C59.9 110.5 60.3 110.4 60.5 110.3C61 110.1 61.4 109.4 61.3 109ZM65 110.2C65.3 109.8 65.3 109.4 64.9 109.4C64.7 109.4 64.6 109.2 64.5 108.8C64.4 108.5 64.3 108.2 64.1 108.1C64 108 63.8 107.8 63.8 107.5C63.8 107.3 63.7 107 63.5 106.9C63.2 106.8 63.3 106.7 63.5 106.4C64 105.7 63.9 105.4 63.4 105.5C62.8 105.6 62.8 105.5 63.2 105.1C63.4 104.8 63.4 104.8 63.1 104.8C62.9 104.8 62.6 104.9 62.5 105C62.4 105.1 62.2 105.5 62 105.9C61.7 106.5 61.7 106.7 61.8 106.6C62 106.5 62 106.6 61.9 107C61.8 107.3 61.8 107.4 61.9 107.2C62.1 106.7 62.3 106.9 62.1 107.5C61.9 108.1 61.9 108.1 62.3 108C62.7 107.9 62.8 107.9 62.7 108.2C62.7 108.4 62.7 108.6 62.8 108.5C62.9 108.5 62.9 108.7 62.8 108.9C62.7 109.1 62.5 109.3 62.3 109.3C62 109.3 61.9 109.4 62.1 109.7C62.2 110 62.2 110.1 61.9 110.2C61.7 110.3 61.5 110.4 61.5 110.6C61.5 110.7 61.5 110.8 61.6 110.7C61.7 110.7 61.9 110.7 62.2 110.8C62.6 110.9 62.6 111 62.3 111C62.1 111 61.7 111.3 61.5 111.5C61.2 111.9 61.1 112 61.4 111.9C61.6 111.8 62.1 111.7 62.6 111.6C63.1 111.5 63.7 111.4 63.9 111.4C64.2 111.4 64.5 111.3 64.6 111.3C64.7 111.3 64.8 111.2 64.7 111C64.8 110.6 64.9 110.4 65 110.2ZM68.9 87.7C68.9 87.8 69 87.9 69.1 87.9C69.2 87.9 69.2 88 69.2 88.1C69.1 88.4 69.9 88.6 70.3 88.4C70.5 88.3 70.7 88.3 70.9 88.4C71.1 88.5 71.1 88.6 70.5 88.7C69.9 88.9 69.9 88.9 70.2 89C70.4 89.1 70.5 89.2 70.3 89.2C70.2 89.2 70.3 89.4 70.6 89.6C71.1 89.9 71.2 89.9 71.3 89.6C71.4 89.4 71.5 89.2 71.6 89.2C71.7 89.2 71.8 89 72 88.8C72.1 88.6 72.3 88.4 72.4 88.4C72.7 88.4 73.1 88.8 73 89.1C72.9 89.4 74 89.4 74.2 89.1C74.3 89 74.3 88.9 74.2 89C74.1 89 73.8 88.9 73.5 88.7C73.2 88.5 72.7 88.2 72.5 88.2C72.3 88.1 72 88 72 87.9C72 87.8 71.9 87.8 71.8 87.8C71.7 87.9 71.6 87.8 71.6 87.7C71.5 87.5 71 87.4 71 87.6C71 87.7 71 87.9 71 87.9C71 88 70.9 88 70.8 87.9C70.4 87.5 68.8 87.4 68.9 87.7ZM72.7 87.7C73.1 87.8 73.5 87.9 73.7 88C74 88.2 75.4 87.7 75.2 87.5C75.1 87.3 73.6 87 73.5 87.2C73.5 87.2 73.1 87.3 72.6 87.2C71.5 87 71.6 87.4 72.7 87.7ZM85.2 88.9C85.2 89.2 85.3 89.2 85.9 89C86.1 88.9 86.2 88.9 86.4 88.8C86.2 88.8 86 88.8 85.8 88.8C85.5 88.7 85.3 88.8 85.2 88.9ZM87.3 97.2C87.3 97.3 87.3 97.4 87.4 97.5C87.6 97.7 88 97.5 87.9 97.2C87.9 97 87.4 96.9 87.3 97.2ZM88.7 95.7C88.9 95.7 89.1 95.9 89.2 96.1C89.3 96.3 89.7 96.4 90.1 96.5C90.4 96.5 90.5 96.5 90.7 96.5C90.5 96.3 90.4 96.2 90.2 96C89.9 95.7 89.6 95.4 89.6 95.3C89.5 95 90.4 93.6 90.7 93.7C90.8 93.7 90.9 93.6 90.9 93.5C90.9 93.3 91.5 93.1 92.9 93C93.3 92.9 93.6 92.8 93.6 92.7C93.5 92.5 92.8 92.4 92.5 92.5C92.4 92.6 92 92.6 91.7 92.6C90.7 92.5 89.6 92.9 89.4 93.4C89.3 93.6 89.1 93.9 89 93.8C88.9 93.8 88.9 93.9 88.9 94.1C89 94.3 88.9 94.4 88.8 94.4C88.7 94.4 88.6 94.6 88.6 94.8C88.5 95 88.4 95.2 88.3 95.2C87.9 95.2 88.3 95.7 88.7 95.7ZM88.6 89.5C88.7 89.8 88.8 89.8 88.9 89.5C89 89.4 89 89.3 88.8 89.3C88.7 89.3 88.6 89.3 88.6 89.5ZM89.3 89.4C89.4 89.6 90.2 89.7 90.2 89.5C90.2 89.4 90 89.3 89.7 89.3C89.4 89.2 89.3 89.2 89.3 89.4ZM90.7 89.6C90.8 89.6 91 89.6 91.1 89.5C91.3 89.4 91.3 89.4 91.1 89.4C91 89.4 90.8 89.4 90.7 89.5C90.6 89.5 90.6 89.5 90.7 89.6ZM100.7 92.2C101 92.2 101.2 92.3 101.1 92.4C101 92.6 101.4 92.9 102.3 93.2C103.1 93.5 103.1 93.5 102.9 93.1C102.7 92.8 102.7 92.7 102.3 92.6C102.1 92.5 101.9 92.4 101.8 92.3C101.7 91.9 100.4 91.4 100.2 91.7C100.1 91.8 100.1 91.9 100.2 91.9C100.3 91.9 100.2 92 100.1 92.1C100.3 92.1 100.4 92.1 100.7 92.2ZM103.3 93.9C103.6 93.9 103.8 94 104.1 94C104.6 94.1 104.9 94.1 104.9 94.1C104.9 94 104.7 93.8 104.3 93.7C104.1 93.6 103.9 93.5 103.9 93.4C103.8 93.1 103.4 93.2 103.3 93.5C103.4 93.7 103.4 93.8 103.3 93.9ZM108.4 97.3C108.3 97.3 108.3 97.3 108.3 97.4C108.3 97.5 108.4 97.6 108.5 97.6C108.6 97.6 108.6 97.5 108.6 97.5C108.6 97.4 108.5 97.4 108.4 97.3ZM115 99.4C115.3 99.7 116.5 100 116.5 99.9C116.5 99.7 116.3 99.6 115.7 99.3C115.3 99.1 115 98.9 114.9 98.9C114.8 98.8 114.7 98.8 114.7 98.8C114.5 98.8 114.6 99.1 115 99.4ZM116.1 100.4C116.1 100.5 116.1 100.6 116.3 100.7C116.6 101 116.9 101 116.7 100.8C116.5 100.6 116.1 100.3 116.1 100.4ZM116.9 100.1C117 100.2 117.2 100.3 117.4 100.4C117.3 100.3 117.2 100.2 117.1 100.1C117 100 116.9 100 116.9 100C116.8 99.9 116.8 100 116.9 100.1ZM125.8 116.6C125.9 116.7 125.8 116.7 125.8 116.6C125.9 116.6 125.9 116.5 125.8 116.4C125.8 116.4 125.8 116.5 125.8 116.6ZM125.8 120.5C125.7 120.5 125.5 120.2 125.4 120C124.9 119.3 124.9 119.3 125 119.8C125.3 120.5 125.4 120.9 125.3 120.9C125.2 120.9 125.3 121.5 125.4 121.9C125.5 122.1 125.6 122.2 125.6 122C125.6 121.8 125.6 121.8 125.5 121.8C125.4 121.8 125.4 121.7 125.4 121.7C125.4 121.5 125.6 121.5 125.9 121.8C126.1 122 126.1 122 126.1 121.7C126.1 121.5 126.1 121.4 126.2 121.4C126.4 121.3 126.1 120.7 125.8 120.5ZM126.6 124.1C126.5 123.6 126.5 123.5 126.2 122.8C126 122.4 125.8 122.1 125.8 122.1C125.8 122.1 125.8 122.2 125.9 122.3C126 122.4 126 122.5 125.9 122.4C125.7 122.3 125.8 122.6 126.1 123.3C126.3 123.9 126.4 124.7 126.3 125.1C126.2 125.4 126.2 125.4 126.1 125C126 124.7 126 124.7 126 124.9C126.2 125.9 126.2 126.1 125.8 126C125.5 126 125.3 126.3 125.2 127.2C125.2 127.6 125.3 128 125.4 127.9C125.4 127.8 125.5 127.9 125.6 128.4C125.8 129.3 126 129.2 125.9 128.4C125.8 127.8 125.8 127.7 125.6 127.5C125.4 127.2 125.4 127 125.5 127.1C125.6 127.2 125.6 127.1 125.6 127C125.6 126.9 125.6 126.8 125.7 126.8C125.9 126.8 126 126.9 125.8 127.2C125.7 127.3 125.7 127.5 125.8 127.7C125.9 128 126 128 126 127.7C126 127.5 126.1 127.5 126.1 127.5C126.3 127.7 126.2 127.3 126 126.9C125.8 126.6 125.8 126.6 126 126.6C126.1 126.6 126.2 126.7 126.3 127C126.4 127.5 126.6 127.5 126.5 127C126.4 126.7 126.5 126.6 126.7 126.6C126.8 126.6 127 126.5 127 126.4C127 126.2 127 126.2 127.1 126.4C127.3 126.7 127.2 126.4 127 125.7C126.7 124.9 126.6 124.6 126.6 124.1ZM127 141.2C126.7 141.1 126.3 140.3 126.4 139.8C126.4 139.6 126.3 139.2 126.3 138.9C126.2 138.4 126.1 138.3 125.9 138.3C125.8 138.3 125.7 138.4 125.7 138.6C125.7 138.8 125.8 139.1 125.9 139.4C126 139.7 126 139.9 126 139.9C125.9 139.9 126 140.1 126.2 140.5C126.3 140.8 126.5 141 126.5 140.9C126.5 140.8 126.6 140.9 126.6 141.1C126.7 141.3 126.7 141.4 126.8 141.4C126.9 141.4 127 141.5 127.1 141.5C127.2 141.6 127.2 141.6 127.2 141.4C127.2 141.3 127.3 141.4 127.4 141.6C127.7 142 127.7 142 127.5 141.6C127.3 141.4 127.1 141.3 127 141.2ZM127.4 142.4C127.4 142.4 127.5 142.5 127.6 142.6C127.7 142.7 127.7 142.6 127.7 142.5C127.5 142.3 127.3 142.2 127.4 142.4ZM127.8 142.5C127.9 142.7 127.9 142.8 127.9 142.9C127.9 143 127.9 143.1 128 143.4C128.2 143.7 128.2 143.7 128.1 143.3C128 142.5 127.9 142.2 127.7 142.2C127.7 142.2 127.6 142.3 127.8 142.5ZM126.1 156.1C126.1 156.2 126.2 156.2 126.3 156.2C126.7 156.1 126.7 155.8 126.4 155.9C126.3 155.9 126.2 156 126.1 156.1ZM127.8 143.7C127.8 143.9 127.8 143.9 127.9 143.9C127.9 143.8 128 143.9 128 144C128 144.1 128.1 144.2 128.1 144.1C128.1 144 128 143.8 127.9 143.7C127.8 143.4 127.8 143.5 127.8 143.7ZM127.8 144C127.7 143.3 127.5 142.9 127.3 142.8C127.2 142.7 127.2 142.8 127.2 143.2C127.3 143.6 127.3 143.7 127.4 143.4C127.5 143.2 127.5 143.2 127.5 143.7C127.5 144.1 127.5 144.2 127.6 144.4C127.9 144.5 127.9 144.5 127.8 144ZM126.8 142.2C127 142.6 127 142.6 126.9 142.2C126.8 142 126.7 141.7 126.6 141.7C126.5 141.6 126.5 141.7 126.5 141.7C126.5 141.8 126.6 142 126.8 142.2ZM126.6 144.3C126.7 143.9 126.7 143.5 126.7 143.5C126.6 143.5 126.6 143.8 126.5 144.2C126.4 145.2 126.5 145.3 126.6 144.3ZM124.5 133.3L124.4 133.4C124.4 133.5 124.4 133.8 124.4 134.1C124.5 134.6 124.5 134.8 124.7 135.1C124.8 135.3 124.8 135.4 124.9 135.5V135.1C124.9 134.7 124.6 133.2 124.5 133.3ZM122.7 113.8C122.6 113.8 123 114.7 123.1 115C123.2 115.2 123.6 116.1 124 117.1C124.6 118.6 124.7 118.9 124.7 118.7C124.7 118.6 124.8 118.6 124.9 118.7C125 118.8 125 118.8 124.7 118.4C124.5 118.1 124.3 117.8 124.3 117.7C124.1 117.3 124.1 116.8 124.2 116.8C124.3 116.8 124.3 116.6 124.1 116.3C123.9 116 123.2 114.6 123.2 114.4C123.2 114.3 123 114 122.8 113.7C122.6 113.3 122.5 113.2 122.6 113.5C122.7 113.7 122.8 113.8 122.7 113.8ZM124.4 155.6C124.4 155.6 124.5 155.6 124.6 155.5C124.7 155.4 124.6 155.4 124.5 155.4C124.4 155.5 124.3 155.6 124.4 155.6ZM123.4 153.3C123.6 153.1 123.6 153 123.4 153C123.3 153 123.3 153.1 123.3 153.2C123.3 153.3 123.4 153.3 123.4 153.3ZM122.9 153.3C122.9 153.3 123 153.1 123 152.8C123 152.3 122.9 152.3 122.8 152.5C122.7 152.6 122.8 153.3 122.9 153.3ZM122.8 156.3C123 156.3 123.3 156.4 123.5 156.4C123.9 156.5 124.9 156.4 125 156.2C125 156.1 124.9 156 124.7 156C124.5 156 124.3 155.8 124.3 155.7C124.3 155.5 124.2 155.4 123.7 155.6C123.3 155.7 123.1 155.7 123 155.5C122.8 155.2 122.3 155.3 122.2 155.6C122 156 122.3 156.3 122.8 156.3ZM120.5 151C120.5 150.9 120.5 150.8 120.4 150.8C120.3 150.8 120.3 150.9 120.3 151C120.3 151.1 120.4 151.2 120.4 151.2C120.5 151.2 120.5 151.1 120.5 151ZM120.6 152.8C120.7 152.9 120.7 152.8 120.7 152.7C120.7 152.6 120.7 152.5 120.7 152.4C120.7 152.3 120.6 152.4 120.6 152.5C120.5 152.6 120.5 152.8 120.6 152.8ZM121 150.9C121 151 121 151.4 121.1 151.6C121.2 151.9 121.2 152.5 121.2 152.8C121.2 153.6 121.8 155.3 122.1 155.1C122.3 155 122.4 154.8 122.6 154.1C122.8 153.3 122.8 153.2 122.6 152.5C122.5 152.1 122.4 151.6 122.4 151.5C122.5 151.3 122.4 151.1 122.3 150.9C122.2 150.7 122.1 150.4 122 150.3C121.9 150.1 121.8 150 121.8 150C121.7 150 121.5 149.6 121.3 149C121.1 148.4 120.4 148 120.3 148C120.2 148 120 148 119.9 147.9C119.8 147.8 119.7 147.9 119.7 148C119.7 148.1 120.3 148.8 120.5 149.4C120.8 150.2 121 150.8 121 150.9ZM125.2 156.2C125.2 156.2 125.1 156.3 125.1 156.4C125.1 156.5 125.1 156.6 125.1 156.6C125.2 156.6 125.2 156.5 125.2 156.4C125.2 156.3 125.2 156.2 125.2 156.2ZM126.1 152.1C126.1 152 126.2 151.8 126.3 151.6C126.4 151.4 126.6 151 126.6 150.8C126.7 150.5 126.8 150.3 126.9 150.2C127.1 150.1 127.2 149.8 127.1 149.8C127.1 149.8 127 149.5 127 149.1C127 148.7 127 148.4 127.1 148.4C127.1 148.4 127.2 148.3 127.2 148.2C127.2 148.1 127.2 148 127.3 148C127.4 148 127.4 147.8 127.4 147.7C127.4 147.6 127.4 147.4 127.5 147.4C127.6 147.4 127.6 147.4 127.4 147.2C127.3 147.1 127.1 146.8 127 146.7C126.7 146.2 126.6 146.3 126.6 147.1C126.6 147.5 126.5 147.8 126.4 147.8C126.3 147.8 126.3 148 126.2 148.3C126 148.6 125.8 149 125.6 149.1C125.4 149.3 125.2 149.5 125.2 149.7C125.2 149.9 125.1 150 124.9 150C124.7 150 124.6 150 124.5 150.2C124.3 150.6 124.2 151.7 124.3 151.8C124.3 151.8 124.4 152.1 124.3 152.5C124.2 153 124.3 153.1 124.5 153C124.6 153 124.7 153 124.7 153.1C124.7 153.2 124.8 153.2 125.1 153.2C125.4 153.1 125.5 153.2 125.5 153.3C125.5 153.5 125.6 153.5 125.7 153.3C125.8 153 126.1 152.4 126.1 152.1ZM125.7 156C125.6 156 125.6 156 125.6 156.1C125.6 156.2 125.5 156.3 125.5 156.2C125.4 156.2 125.3 156.3 125.3 156.4C125.2 156.6 125.2 156.6 125.4 156.5C125.5 156.4 125.6 156.3 125.7 156.3C125.8 156.4 125.9 156.1 125.7 156ZM125.7 156.7C125.7 156.8 125.8 156.8 125.8 156.9C125.9 157.2 126 157.1 126 156.8C126 156.7 125.9 156.6 125.8 156.7C125.8 156.7 125.8 156.7 125.7 156.7ZM127.8 155.6C127.4 156 127 156.4 127 156.6C126.9 157 126.9 156.9 127.4 156.3C127.6 156 127.8 155.8 127.9 155.7C128 155.7 128 155.6 128.1 155.5C128.1 155.4 128 155.4 127.8 155.6ZM128.7 149.6C128.5 149.9 128 149.9 127.9 149.7C127.8 149.5 127.4 150.3 127.3 150.7C127.3 150.9 127.2 151.2 127.1 151.2C126.9 151.4 126.6 152.7 126.7 152.9C126.7 153 126.7 153.3 126.6 153.7C126.5 154.1 126.4 154.3 126.5 154.2C126.6 154.1 126.7 153.7 126.9 153.2C127 152.7 127.1 152.4 127.2 152.4C127.2 152.4 127.3 152.5 127.2 152.6C127.2 152.7 127.2 153 127.2 153.2C127.2 153.5 127.3 153.5 127.3 153.4C127.5 153.1 127.6 153.1 127.4 153.4C127.3 153.6 127.3 153.9 127.4 153.9C127.5 153.9 127.6 153.3 127.6 153C127.6 152.9 127.6 152.5 127.6 152.2C127.6 152 127.6 151.9 127.6 151.6C127.7 151.4 127.8 151.3 127.9 151.1C128.2 150.7 128.2 150.6 128.1 150.7C128 150.7 127.8 150.9 127.7 151C127.5 151.3 127.4 151.3 127.4 151C127.4 150.8 127.4 150.6 127.5 150.4C127.6 150.1 127.7 150.1 128.1 150.1C128.5 150.1 128.6 150 128.8 149.7C128.9 149.4 128.9 149.2 128.7 149.6ZM128.7 156.9C128.7 156.9 128.6 157 128.5 157.1C128.3 157.3 128.3 157.3 128.5 157.3C128.6 157.3 128.7 157.2 128.7 157.1C128.7 157 128.7 156.9 128.7 156.9ZM128.7 152.4C128.7 152.3 128.7 152.2 128.6 152.3C128.5 152.3 128.5 152.4 128.5 152.5C128.5 152.6 128.6 152.7 128.6 152.6C128.7 152.6 128.7 152.5 128.7 152.4ZM128.1 145C128.1 144.9 128 144.9 127.9 145.1C127.8 145.3 127.8 145.6 127.8 145.7C127.8 145.9 127.9 145.9 127.9 145.8C127.9 145.7 128 145.5 128.1 145.5C128.2 145.4 128.3 145.5 128.4 145.9C128.5 146.4 128.7 146.6 128.9 146.6C129 146.6 129 146.5 128.9 146.2C128.8 145.9 128.8 145.8 128.9 145.9C129 145.9 129 145.9 129 145.8C129 145.6 128.5 144.1 128.5 144.2C128.5 144.2 128.4 144.4 128.4 144.7C128.3 145.1 128.2 145.2 128.1 145ZM129.2 154.5C129.2 154.6 129.1 154.7 129.1 154.8C129.1 154.9 129.1 154.9 129.2 154.7C129.3 154.7 129.3 154.5 129.2 154.5C129.3 154.5 129.3 154.4 129.2 154.5ZM129 152.1C129 152.2 129.1 152.2 129.1 152.2C129.2 152.2 129.3 152.2 129.4 152.2C129.5 152.3 129.6 152.2 129.6 152C129.6 151.8 129.5 151.8 129.3 151.8C129.1 151.9 129 152 129 152.1ZM129.2 150.6C129.2 150.6 129.7 149.2 129.6 149.2C129.6 149.2 129.6 149.2 129.5 149.4C129.5 149.5 129.4 149.5 129.5 149.3C129.5 149 129.5 149 129.4 149.2C129.4 149.4 129.2 150.6 129.2 150.6ZM129.9 150.2H130C130 150.1 130 150.1 129.9 150.1C129.9 150.1 129.9 150.1 129.9 150.2ZM134.5 153C134.5 153.2 134.5 153.1 134.5 153C134.5 152.9 134.4 152.9 134.5 153ZM141 147C141 185.9 109.4 217.5 70.5 217.5C31.6 217.5 0 185.9 0 147C0 108.1 31.6 76.5 70.5 76.5C109.4 76.5 141 108.1 141 147ZM115.3 123.9C115.2 123.9 115.2 124 115.3 124.1C115.3 124.2 115.4 124.3 115.5 124.3C115.6 124.3 115.6 124.2 115.5 124.1C115.4 124 115.3 123.9 115.3 123.9ZM113.3 110.3C113.3 110.3 113.3 110.6 113.3 111C113.4 111.8 113.1 112.8 112.9 113C112.7 113.1 112.7 113.1 112.9 113.2C113 113.2 113.2 113.1 113.3 112.9C113.4 112.7 113.5 112.5 113.6 112.5C113.8 112.5 113.8 111.6 113.6 110.9C113.5 110.6 113.4 110.3 113.3 110.3ZM104.6 116.1C104.7 116.2 104.9 116.2 105 116.1C105 116 104.9 116 104.8 116C104.5 115.9 104.5 116 104.6 116.1ZM105 96.7C105.2 96.9 105.2 96.9 105.1 96.7C104.9 96.4 104.5 96 104.6 96.3C104.7 96.4 104.9 96.6 105 96.7ZM103.7 115.6C103.7 115.6 103.5 115.7 103.4 115.8C103 116 102.9 116.2 103 116.6C103.1 117.1 103.3 117 103.3 116.5C103.3 116.3 103.4 116.1 103.6 116.1C103.8 116.1 103.9 116 103.8 115.9C103.8 115.7 103.7 115.6 103.7 115.6ZM105.3 119.1C105.1 119.1 105 119.2 105 119.3C105 119.4 105.1 119.5 105.3 119.5C105.5 119.5 105.6 119.4 105.6 119.3C105.6 119.2 105.5 119.1 105.3 119.1ZM99.9 97.4C99.9 97.6 99.9 97.7 100 97.7C100.1 97.7 100.2 97.9 100.2 98C100.2 98.2 100.3 98.3 100.3 98.2C100.4 98.1 100.3 97.9 100.2 97.6C100 97 99.9 96.9 99.9 97.4ZM105.8 96.2C105.8 96.2 105.7 96.3 105.8 96.4C105.8 96.5 105.9 96.6 106 96.6C106.1 96.6 106 96.5 106 96.4C105.9 96.3 105.8 96.3 105.8 96.2ZM106.3 114.7C106.2 114.7 106.3 114.8 106.4 114.9C106.5 115 106.7 115.1 106.8 115.2C106.9 115.2 106.8 115.1 106.7 115C106.5 114.9 106.4 114.7 106.3 114.7ZM44.5 89.9C44.7 89.7 44.6 89.7 44.2 90C44.1 90.1 44 90.1 43.9 90.2C44 90.2 44 90.2 44.1 90.2C44.2 90.1 44.4 90 44.5 89.9ZM31.8 118.3C32.2 118.3 32.5 118.2 32.7 118C33 117.7 33 117.3 32.8 117.6C32.7 117.7 32.4 117.8 32.1 117.8C31.3 117.9 31.1 118.3 31.8 118.3ZM26.8 103.1C26.6 103.3 26.5 103.4 26.3 103.6C26.1 103.8 26 103.9 25.8 104.1C25.9 104.1 25.9 104.1 26 104.1C26.1 104.1 26.3 104 26.4 103.9C26.5 103.8 26.6 103.7 26.7 103.7C26.8 103.7 26.7 103.8 26.6 103.9C26.5 104.1 26.6 104 26.8 103.8C27 103.6 27.3 103.4 27.5 103.3C28 103.1 28.1 102.7 27.7 102.9C27.4 103 27.3 103 27.5 102.9C27.9 102.6 27.4 102.7 26.5 103.2C26.2 103.4 26.1 103.4 25.8 103.6C26 103.5 26.1 103.5 26.3 103.4C26.4 103.3 26.5 103.2 26.8 103.1ZM27.9 113.8C27.7 114.1 27.6 114.1 27.8 114.1C27.9 114.1 28 113.9 28.1 113.8C28.2 113.6 28.2 113.5 28.2 113.5C28.2 113.5 28.1 113.6 27.9 113.8ZM27.4 112.2C27.2 112.5 27.1 113.2 27.2 113.1C27.3 113 27.4 112.8 27.4 112.5C27.4 112.3 27.4 112.1 27.4 112.2ZM28.7 110.4C28.7 110.4 28.6 110.5 28.5 110.5C28.4 110.6 28.2 110.7 28.2 110.8C28 111.1 28 111.6 28.1 111.9C28.2 112 28.1 112.4 28 112.7C27.8 113.1 27.8 113.2 28 112.9C28.2 112.7 28.4 112.1 28.5 111.5C28.6 110.9 28.7 110.4 28.7 110.4ZM27.7 110.8C27.4 111.2 27.4 111.3 27.4 111.4C27.4 111.5 27.4 111.6 27.3 111.7C27.2 111.8 27.1 111.9 27.2 112C27.2 112.1 27.3 111.9 27.5 111.6C27.6 111.3 27.8 110.9 27.9 110.7C28 110.4 28 110.4 27.7 110.8ZM28.5 108.3C28.5 108.3 28.4 108.4 28.3 108.6C28.1 108.8 28 108.9 28.1 108.9C28.2 108.9 28.9 108.1 29.1 107.8C29.2 107.5 29 107.6 28.7 108C28.5 108.2 28.4 108.3 28.5 108.3ZM27 105.2C26.9 105.1 26.9 105.1 26.9 105.3C26.9 105.5 26.7 105.6 26.3 106C26.1 106.2 26 106.2 25.8 106.4C26 106.4 26 106.4 26.2 106.3C26.4 106.3 26.7 106.1 26.9 106C27 105.9 27.4 105.6 27.6 105.4C27.9 105.2 28.1 105 28.2 105C28.3 105 28.4 104.9 28.5 104.8C28.8 104.5 28.4 104.6 27.9 105C27.4 105.5 27.1 105.5 27 105.2ZM27.5 107C27.3 107 27 107.2 26.9 107.4C26.5 107.8 26.5 107.8 27.3 107.3C27.8 107 27.8 106.9 27.5 107ZM31.6 104C31.7 103.8 31.5 103.8 31.3 104.1C31.2 104.2 31.2 104.3 31.2 104.4C31.2 104.4 31.4 104.2 31.6 104ZM29.1 116.6C28.7 117 27.6 119.2 27.6 119.5C27.6 119.9 28.2 119.2 28.6 118.3C28.9 117.6 29.1 117.3 29.6 116.9C30.3 116.2 30.3 116.2 30.4 116.7C30.4 117.1 30.4 117.2 30.2 117.4C30 117.6 29.9 117.8 29.8 117.9C29.7 118 29.8 118 30 117.8C30.2 117.6 30.3 117.6 30.2 118C30.2 118.2 30.2 118.3 30.1 118.5C30.3 118.2 30.4 118 30.6 117.7C30.9 117.3 31.1 116.8 31.2 116.7C31.2 116.6 31.3 116.7 31.4 116.9C31.5 117.4 31.9 116.9 31.8 116.4C31.7 115.9 31.4 115.8 31.4 116.2C31.4 116.3 31.3 116.4 31.3 116.4C31.2 116.4 31.2 116.3 31.3 116.2C31.4 115.8 29.6 116.1 29.1 116.6ZM29.2 115.4C29.5 115.2 29.6 115.2 29.5 115.3C29.3 115.6 29.6 115.8 30.2 115.8C30.4 115.8 30.5 115.8 30.7 115.8C30.8 115.6 30.8 115.4 30.9 115.2C31 114.9 31 114.6 30.9 114.7C30.8 114.8 30.7 114.7 30.7 114.5C30.6 113.9 30.3 114 29.2 114.8C28.6 115.2 28.1 115.6 28 115.7C27.8 115.9 28.7 115.7 29.2 115.4ZM30.5 113.3C30.6 113 30.6 112.8 30.4 113C30.2 113.2 30.1 113.5 30.2 113.5C30.3 113.5 30.5 113.4 30.5 113.3ZM29.8 119.1C29.3 119.3 29.1 119.6 29.5 119.6C29.8 119.6 31.1 118.9 31.3 118.7C31.6 118.4 31.4 118.5 29.8 119.1ZM43.1 110.1C43.2 110.1 43.4 110 43.5 109.9C43.7 109.7 43.7 109.7 43.3 109.9C43 110 43 110.1 43.1 110.1ZM38.5 112.2C38.6 112.2 38.7 112 38.8 111.9C39 111.6 38.9 111.5 38.6 111.7C38.4 111.8 38.4 112.2 38.5 112.2ZM41.5 109.9C41.6 109.9 41.6 109.8 41.6 109.7C41.6 109.6 41.6 109.5 41.5 109.5C41.4 109.5 41.4 109.6 41.3 109.7C41.4 109.8 41.5 109.9 41.5 109.9ZM43.2 90.7C43.3 90.7 43.3 90.6 43.2 90.7C43 90.7 43 90.7 43 90.8C43.1 90.8 43.2 90.8 43.2 90.7ZM34.5 100.7C34.6 100.6 34.6 100.5 34.5 100.5C34.5 100.5 34.4 100.6 34.3 100.7C34.3 100.8 34.3 100.9 34.3 100.9C34.4 100.9 34.5 100.8 34.5 100.7ZM37.3 179.9C37.4 179.7 37.4 179.6 37.4 179.5C37.3 179.4 37 179.7 37.1 180C37.1 180.1 37.2 180.1 37.3 179.9ZM41.6 91.6C42 91.5 42.2 91.3 42.1 91.1C41.9 91.1 41.9 91.1 41.9 91.3C41.8 91.3 41.7 91.5 41.6 91.6C41.3 91.7 41.3 91.7 41.6 91.6ZM36.7 112C36.6 112 36.4 112.1 36.3 112.3C36 112.7 36.1 112.7 36.5 112.4C36.8 112 36.8 112 36.7 112ZM36.4 102C36.5 102.1 36.5 102 36.6 101.9C36.7 101.6 36.4 101.5 36.3 101.7C36.2 101.8 36.2 101.9 36.3 101.9C36.2 101.9 36.3 101.9 36.4 102ZM39 97.9C38.9 97.9 38.8 98 38.8 98C38.8 98 38.9 98 39 97.9C39.1 97.9 39.1 97.9 39 97.9ZM42.2 96.7C42.4 96.7 42.6 96.6 42.7 96.5C42.7 96.4 42.9 96.3 43 96.3C43.1 96.2 43.1 96.2 42.9 96.2C42.7 96.2 42.5 96.2 42.4 96.1C42.3 96.1 42.3 96.1 42.3 96.2C42.3 96.3 42.2 96.4 42.1 96.6C41.8 96.8 41.9 96.8 42.2 96.7ZM44.5 97.4C44.6 97.3 44.8 97.2 44.8 97.2C44.8 97 44.5 97.1 44.5 97.4C44.3 97.4 44.3 97.4 44.5 97.4ZM43.1 100.7C43.2 100.6 43.4 100.6 43.5 100.5C43.6 100.5 43.7 100.4 43.6 100.3C43.4 100.1 43.2 100.1 43.1 100.5C43 100.7 43 100.7 43.1 100.7ZM78.5 101.5C78.4 101.5 78.4 101.6 78.4 101.7C78.4 101.8 78.5 101.9 78.5 101.8C78.6 101.7 78.6 101.6 78.6 101.6C78.7 101.6 78.6 101.5 78.5 101.5ZM78.6 96.7C78.5 96.7 78.4 96.8 78.4 96.9C78.4 97 78.5 97.1 78.5 97.1C78.6 97.1 78.7 97 78.7 96.9C78.8 96.8 78.7 96.7 78.6 96.7ZM85.9 156.4C86.2 156.3 86.5 156.3 86.7 156.3C86.9 156.3 86.9 156.2 86.9 156.1C86.8 156 87 155.6 87.2 155.2C87.6 154.5 87.6 154.4 87.3 154.3C86.8 154.1 86 154.2 85.9 154.5C85.8 154.6 85.7 155.2 85.6 155.7C85.4 156.4 85.5 156.5 85.9 156.4ZM79.9 101.8C79.9 101.8 79.8 101.9 79.9 102C79.9 102.1 79.8 102.2 79.7 102.1C79.6 102 79.5 102.1 79.4 102.3C79.4 102.5 79.3 102.6 79.2 102.5C79.1 102.4 79 102.5 79 102.6C79 102.7 79 102.8 79.1 102.8C79.5 102.8 80 102.3 79.9 102C80 101.9 79.9 101.8 79.9 101.8ZM17.1 109.3C17 109.3 16.9 109.4 16.8 109.5C16.6 109.7 16.7 109.7 17 109.4C17.2 109.3 17.2 109.3 17.1 109.3ZM71.6 104.4C71.5 104.6 71.3 104.8 71.3 104.8C71.3 105 71.9 104.7 72 104.5C72.2 104.2 71.9 104.1 71.6 104.4ZM122.9 119.5C122.9 119.5 123 119.4 122.9 119.3C122.9 119.2 122.8 119.1 122.8 119.1C122.7 119.1 122.7 119.2 122.8 119.3C122.8 119.4 122.8 119.5 122.9 119.5ZM77.8 102.3C77.8 102.4 77.8 102.6 77.9 102.7C78 102.8 78 102.7 78 102.5C78 102.1 77.9 102 77.8 102.3ZM87 162.5C87 162.2 87 162 86.9 161.9C86.8 161.8 86.7 162.3 86.7 162.9C86.7 163.5 86.6 164.1 86.7 164.3C86.7 164.5 86.8 164.8 86.9 165C87.1 165.3 87.1 165.2 87.2 164.3C87.2 163.7 87.2 163.2 87.2 163.1C87 163 87 162.7 87 162.5ZM88.9 151C88.9 151.4 89 151.8 89.2 151.9C89.5 152.2 89.5 152.2 89.3 151.9C89.2 151.7 89.1 151.3 89 150.9C89 150.7 88.9 150.5 88.9 150.3C88.9 150.6 88.9 150.8 88.9 151ZM89.2 144.3C89.3 144.2 89.4 144.1 89.4 144C89.4 143.9 89.3 143.9 89.2 143.9C89.1 143.9 89 144 89 144.2C89 144.3 89.1 144.4 89.2 144.3ZM60.4 147.6C60.2 147.5 60.1 147.5 60.1 147.5C60.1 147.6 60.2 147.7 60.4 147.9C60.6 148.1 60.7 148.1 60.7 148C60.7 147.9 60.6 147.7 60.4 147.6ZM60.4 148.7C60.3 148.8 60.4 148.9 60.5 148.9C60.6 148.9 60.7 148.8 60.8 148.7C60.8 148.6 60.8 148.5 60.7 148.5C60.5 148.5 60.4 148.6 60.4 148.7ZM71.6 142.8C71 142.5 70.9 142.6 71.2 143.2C71.4 143.6 72.1 143.6 72.1 143.2C72.1 143.2 71.9 143 71.6 142.8ZM98.2 97C98.2 97 98.2 97.1 98.2 97.2C98.2 97.3 98.3 97.4 98.4 97.4C98.5 97.4 98.4 97.3 98.4 97.2C98.3 97.1 98.2 97 98.2 97ZM31 190.4C31 190.5 31.1 190.6 31.1 190.6C31.2 190.6 31.2 190.5 31.2 190.5C31.2 190.4 31.1 190.3 31.1 190.3C31 190.2 31 190.3 31 190.4ZM29.8 187.6C29.7 187.6 29.7 187.7 29.8 187.8C29.9 187.9 30 188 30 188C30 188 30 187.9 30 187.8C29.9 187.7 29.8 187.7 29.8 187.6ZM26.4 166.3C26.5 166.5 26.6 166.7 26.8 166.7C27 166.8 27 166.8 26.8 166.4C26.5 166 26.2 165.9 26.4 166.3ZM24.4 144.9C24.2 145.1 24.2 145.8 24.3 145.9C24.4 145.9 24.5 145.8 24.6 145.6C24.8 145.2 24.6 144.6 24.4 144.9ZM19 120.4C19.1 120.3 19.1 120.1 19.1 120.1C19.1 120 19 120.1 19 120.2C18.9 120.3 18.9 120.5 18.9 120.5C18.9 120.6 18.9 120.5 19 120.4ZM18.9 142.8C18.7 142.8 18.7 142.8 18.8 143.2C18.9 143.6 19.1 143.5 19.1 143.1C19.1 143 19 142.8 18.9 142.8ZM31.6 191.3C31.4 191.5 31.5 191.5 31.7 191.5C31.8 191.5 32 191.4 32 191.3C32 191 31.8 191 31.6 191.3ZM50.2 97.6C50.3 97.5 50.2 97.5 50.1 97.5C50 97.5 49.9 97.6 50 97.6C50.1 97.7 50.2 97.6 50.2 97.6ZM53.2 210.2C53.1 210.2 53 210.2 53.2 210.2C53.3 210.3 53.3 210.3 53.4 210.3C53.3 210.3 53.3 210.2 53.2 210.2ZM47.3 91.3C47.3 91.3 47.3 91.4 47.4 91.5C47.5 91.5 47.5 91.5 47.6 91.4C47.7 91.3 47.6 91.2 47.5 91.2C47.4 91.2 47.3 91.3 47.3 91.3ZM65.4 88.4C65.5 88.3 65.6 88.3 65.6 88.2C65.6 88 65.3 88.1 65.2 88.3C65.2 88.5 65.2 88.5 65.4 88.4ZM122 142.6C122.1 142.7 122.1 142.6 122 142.4C121.8 142 121.8 142 121.8 142.3C121.9 142.4 122 142.5 122 142.6ZM60.6 95.5C60.7 95.4 60.8 95.3 60.8 95.2C60.8 94.9 60.7 95 60.6 95.3C60.4 95.5 60.4 95.5 60.6 95.5ZM258.2 147C258.2 231.7 191 294 105.8 294H17.5V235.2H105.7C154.4 235.2 193.6 195.7 193.6 147C193.6 98.3 154.4 58.8 105.7 58.8H17.5V0H105.7C191 0 258.2 62.3 258.2 147Z" fill="white"/>
</svg>
