<?xml version="1.0" standalone="no"?>
<!DOCTYPE svg PUBLIC "-//W3C//DTD SVG 20010904//EN"
 "http://www.w3.org/TR/2001/REC-SVG-20010904/DTD/svg10.dtd">
<svg version="1.0" xmlns="http://www.w3.org/2000/svg"
 width="2560.000000pt" height="298.000000pt" viewBox="0 0 2560.000000 298.000000"
 preserveAspectRatio="xMidYMid meet">

<g transform="translate(0.000000,298.000000) scale(0.100000,-0.100000)"
fill="#000000" stroke="none">
<path d="M11197 2968 c-114 -11 -290 -56 -408 -103 -382 -153 -666 -457 -800
-857 -106 -316 -101 -763 11 -1069 180 -486 565 -806 1089 -903 183 -34 431
-31 628 9 565 115 967 525 1094 1115 20 92 23 133 23 335 0 202 -3 243 -23
335 -64 296 -192 540 -391 739 -300 301 -750 448 -1223 399z m310 -579 c347
-48 603 -275 694 -614 27 -101 38 -368 19 -482 -49 -306 -237 -544 -511 -647
-216 -81 -515 -73 -722 19 -225 99 -399 325 -450 585 -76 382 33 761 275 957
132 106 255 156 458 187 53 8 162 6 237 -5z"/>
<path d="M14010 2974 c-232 -19 -444 -85 -597 -187 -111 -74 -224 -200 -278
-310 -68 -139 -87 -224 -88 -392 0 -125 3 -149 26 -221 59 -180 203 -337 397
-434 155 -78 279 -111 651 -174 172 -29 288 -54 327 -70 169 -68 242 -179 213
-323 -21 -106 -75 -169 -185 -218 -128 -56 -354 -73 -499 -36 -199 51 -357
158 -523 354 -56 67 -66 62 -267 -142 -161 -162 -177 -181 -177 -213 0 -43 37
-97 130 -187 243 -237 613 -393 966 -408 397 -17 718 89 934 306 153 154 217
307 227 547 12 270 -53 444 -226 606 -154 145 -336 218 -716 287 -425 79 -525
107 -602 175 -66 58 -86 105 -81 185 11 153 112 241 311 272 86 14 257 6 342
-16 139 -35 298 -138 380 -246 67 -88 80 -99 122 -99 35 0 48 10 205 168 197
196 195 193 122 292 -96 130 -277 281 -429 358 -171 85 -481 143 -685 126z"/>
<path d="M19236 2969 c-698 -74 -1199 -563 -1286 -1254 -18 -141 -8 -452 19
-577 95 -439 377 -803 762 -982 397 -184 875 -194 1286 -26 397 162 690 512
801 955 93 369 51 798 -107 1112 -140 280 -378 515 -645 639 -249 115 -548
163 -830 133z m314 -584 c286 -43 495 -196 616 -451 70 -147 88 -237 88 -444
0 -194 -12 -266 -63 -394 -56 -139 -136 -247 -246 -331 -87 -66 -168 -107
-282 -142 -82 -25 -101 -27 -268 -27 -168 0 -186 2 -270 28 -267 82 -446 256
-534 522 -42 127 -55 232 -48 398 11 273 82 450 247 616 122 123 271 197 455
226 109 17 193 17 305 -1z"/>
<path d="M2797 2933 c-4 -3 -7 -136 -7 -295 l0 -288 810 0 811 0 24 25 25 24
0 238 c0 267 -2 274 -68 293 -41 11 -1584 15 -1595 3z"/>
<path d="M4823 2925 c-17 -7 -36 -22 -42 -34 -8 -14 -11 -313 -11 -984 0
-1017 1 -1050 46 -1192 26 -79 90 -202 145 -277 259 -348 796 -506 1299 -382
416 103 707 401 775 791 13 72 15 240 15 1055 0 646 -3 976 -10 989 -24 43
-57 49 -280 49 -231 0 -266 -7 -289 -56 -8 -18 -11 -281 -11 -954 0 -650 -3
-945 -11 -982 -34 -160 -154 -278 -332 -325 -77 -21 -305 -23 -392 -4 -188 41
-318 162 -354 329 -8 37 -11 332 -11 983 0 1024 3 976 -61 998 -49 17 -435 14
-476 -4z"/>
<path d="M7525 2926 c-17 -7 -36 -25 -43 -40 -9 -21 -12 -337 -12 -1396 l0
-1370 29 -32 29 -33 230 0 c246 0 269 4 291 52 8 17 11 342 11 1133 l0 1110
298 0 c327 0 408 -8 487 -45 154 -73 237 -217 237 -415 0 -162 -57 -289 -167
-372 -92 -70 -194 -88 -492 -88 -172 0 -184 -1 -204 -21 -29 -29 -19 -59 50
-149 32 -41 243 -320 471 -620 227 -300 421 -553 432 -562 18 -16 49 -18 318
-18 276 0 299 1 321 19 30 24 31 80 1 120 -12 16 -162 204 -335 418 -172 213
-316 393 -320 400 -5 7 13 21 49 40 142 72 288 222 365 375 160 319 132 763
-68 1065 -110 167 -302 314 -498 381 -161 55 -164 55 -830 59 -506 2 -626 1
-650 -11z"/>
<path d="M15585 2931 c-11 -5 -29 -19 -40 -31 -20 -22 -20 -38 -23 -1389 -2
-1286 -1 -1368 15 -1401 26 -52 59 -59 278 -59 194 -1 252 7 276 36 11 13 15
94 19 382 l5 366 380 6 c371 5 382 6 480 32 181 49 336 136 461 261 206 206
306 486 291 811 -19 406 -212 714 -552 880 -124 61 -226 90 -365 105 -113 12
-1196 12 -1225 1z m1195 -591 c241 -38 390 -260 352 -523 -23 -155 -112 -288
-231 -341 -80 -36 -191 -46 -513 -46 l-268 0 0 460 0 460 298 0 c163 0 326 -5
362 -10z"/>
<path d="M21204 2930 c-12 -5 -29 -19 -38 -32 -15 -20 -16 -151 -16 -1406 l0
-1383 25 -24 24 -25 236 0 c150 0 244 4 257 11 49 26 48 1 48 1179 l0 1100
298 0 c163 0 325 -5 360 -10 221 -31 362 -209 362 -454 -1 -183 -90 -340 -233
-406 -79 -37 -187 -50 -433 -50 -162 0 -183 -2 -197 -18 -20 -22 -21 -45 -5
-75 17 -32 917 -1217 949 -1250 l27 -27 299 0 300 0 21 23 c27 28 28 72 4 108
-9 15 -161 205 -337 423 -176 219 -321 401 -323 406 -2 5 16 19 40 31 175 88
335 267 412 460 52 133 61 189 60 389 -1 169 -3 194 -28 285 -31 114 -86 236
-143 321 -160 235 -425 390 -726 423 -115 13 -1212 14 -1243 1z"/>
<path d="M23505 2931 c-11 -5 -29 -19 -40 -31 -18 -20 -20 -39 -23 -217 -4
-218 1 -272 28 -305 l18 -23 369 -5 368 -5 5 -1122 5 -1122 23 -23 c22 -23 26
-23 262 -23 l240 0 27 28 28 27 3 1120 2 1120 364 0 364 0 26 31 26 31 0 224
c0 250 -5 273 -61 293 -38 13 -2002 15 -2034 2z"/>
<path d="M2026 2327 l-509 -597 -755 -2 -755 -3 481 -315 c265 -173 480 -318
479 -322 -1 -4 -191 -228 -422 -499 -231 -270 -424 -498 -428 -506 -7 -12 -4
-12 25 0 18 8 344 146 723 307 380 161 697 295 706 297 10 3 208 -122 490
-307 l474 -312 5 518 5 517 730 311 730 311 -733 3 -732 2 -2 597 -3 596 -509
-596z"/>
<path d="M2797 643 c-4 -3 -7 -136 -7 -295 l0 -288 810 0 811 0 24 25 25 24 0
238 c0 267 -2 274 -68 293 -41 11 -1584 15 -1595 3z"/>
</g>
</svg>
