<svg xmlns="http://www.w3.org/2000/svg" xml:space="preserve" width="1000.987" height="352.875"><path fill="#E12A27" d="M0 0h1000.987v352.875H0z"/><g fill="#FFF"><path d="M192.305 131.364c-11.863 30.332-19.238 32.086-41.073 32.086h-3.3V75.125h17.199c42.408 0 58.766 23.099 74.146 66.983l.49 1.542 23.8-1.194V51.254H45.913v21.555l2.391.072c28.364 1.122 28.222 4.353 28.222 13.129v175.807c0 8.774.143 12.074-28.222 13.125h-2.391v24.574h136.071v-23.732h-2.811c-30.961-1.121-31.242-3.297-31.242-13.967v-74.563h3.3c21.413 0 28.224 2.387 41.073 33.417l.633.566h19.658v-91.769h-19.73z"/><path d="M333.988 278.247c-21.977 0-30.26-18.819-30.26-69.3 0-52.519 6.318-68.597 27.029-68.597 22.046 0 30.189 18.607 30.189 68.597.001 52.518-6.526 69.3-26.958 69.3m-1.402-160.151c-57.574 0-93.383 35.104-93.383 91.626 0 57.71 34.054 90.851 93.383 90.851 57.359 0 93.026-35.389 93.026-92.399 0-56.377-34.824-90.078-93.026-90.078M583.656 245.386c-12.078 16.498-26.822 24.782-43.951 24.782-38.828 0-46.973-33.63-46.973-61.925 0-45.567 11.021-68.525 32.789-68.525 7.442 0 13.973 3.513 16.643 8.918-5.125 4.283-10.042 13.763-10.042 21.979 0 17.619 12.564 28.505 32.788 28.505 18.885 0 31.031-13.202 31.031-33.563 0-21.906-18.883-47.391-72.244-47.391-58.064 0-95.557 36.789-95.557 93.656 0 55.539 34.473 88.68 92.324 88.68 34.125 0 59.891-14.185 78.707-43.459l1.264-1.968-15.233-11.866z"/><path d="M783.965 264.765v-143.44l-88.396 1.968v19.938l1.476.068c21.485.845 22.324 7.234 22.324 14.956v94.293c-10.25 4.282-13.828 6.389-23.94 6.389-14.181 0-20.292-8.918-20.292-26.607V121.324l-85.021 1.544v20.01l2.809.071c19.66.348 20.992 6.038 20.992 15.304v83.553c0 36.578 18.112 57.642 52.027 57.642 19.376 0 36.436-8.637 53.426-25.698v25.766h88.398v-22.958l-2.738-.138c-18.256-1.127-21.065-3.303-21.065-11.655M929.652 119.218h24.431v57.854h-24.079l-.912-1.194c-18.887-23.238-33.771-33.63-48.308-33.63-12.146 0-20.778 6.529-20.778 16.079 0 12.779 12.916 16.5 35.663 21.835 33.561 8.006 64.733 20.432 64.733 57.643 0 35.81-31.804 61.713-75.544 61.713-9.478 0-21.415-2.244-31.104-5.403-14.043-4.213-18.464-1.405-21.764 5.403h-20.853v-64.521h20.077l.775 1.544c14.181 23.31 36.928 39.812 55.321 39.812 15.028 0 22.683-5.128 22.683-15.378 0-12.146-10.603-18.957-43.32-28.013-36.932-10.25-56.941-21.765-56.941-53.15 0-36.088 30.192-60.381 75.126-60.381 8.212 0 17.481 1.754 25.487 4.635 12.356 4.418 16.288 1.963 19.307-4.848"/></g></svg>