<svg xmlns="http://www.w3.org/2000/svg" xmlns:xlink="http://www.w3.org/1999/xlink" xml:space="preserve" width="1000" height="999.999"><defs><path id="a" d="M573.314 413.16c-2.672.5-5.177 1.168-7.682 2.17-2.338 1.002-4.676 2.171-7.014 3.674-2.171 1.503-4.342 3.173-6.513 5.177a55 55 0 0 0-10.02 12.191c-2.84 4.676-5.177 9.686-7.181 15.197a161 161 0 0 0-5.344 17.87c-1.503 6.345-3.006 13.025-4.342 20.206-1.336 7.014-2.672 13.694-3.507 20.207-1.003 6.346-1.503 12.526-1.67 18.204s.167 10.855 1.169 15.53c1.002 4.677 2.505 8.685 4.843 12.359 1.503 1.837 3.006 3.674 4.843 5.177 1.67 1.503 3.674 2.672 5.845 3.674s4.509 1.67 7.18 2.17 5.345.669 8.518.669c3.006 0 5.845-.334 8.684-.835s5.344-1.336 7.849-2.338 4.843-2.338 7.18-3.841c2.339-1.503 4.51-3.34 6.68-5.177 3.842-3.507 7.182-7.682 9.854-12.358 2.839-4.676 5.177-9.853 7.18-15.531a79 79 0 0 0 3.007-9.52c.835-2.672 1.503-5.51 2.17-8.517 1.504-6.346 3.007-13.026 4.176-20.04.668-3.34 1.169-6.513 1.67-9.519.668-3.507 1.169-7.014 1.67-10.354.835-6.346 1.503-12.19 1.503-17.702.167-5.51-.167-10.52-1.17-15.03-1.001-4.509-2.504-8.517-5.01-12.024-1.335-2.004-3.005-3.674-4.675-5.01-1.67-1.503-3.674-2.672-5.845-3.674s-4.51-1.67-7.181-2.17c-2.505-.502-5.344-.669-8.35-.669-3.006-.835-5.845-.668-8.517-.167"/></defs><clipPath id="b"><use xlink:href="#a" overflow="visible"/></clipPath><linearGradient id="c" x1="81.036" x2="84.884" y1="805.694" y2="805.694" gradientTransform="scale(239.0339)rotate(-60.315 -648.867 473.307)" gradientUnits="userSpaceOnUse"><stop offset="0" style="stop-color:#801517"/><stop offset=".5" style="stop-color:#ca2027"/><stop offset="1" style="stop-color:#ec1a37"/></linearGradient><path fill="url(#c)" d="m453.24 529.391 89.847-157.481 137.775 78.49-89.846 157.482z" clip-path="url(#b)"/><defs><path id="d" d="M351.37 413.16c-2.672.5-5.177 1.168-7.682 2.17s-4.676 2.171-7.014 3.674a85 85 0 0 0-6.513 5.01c-3.841 3.507-7.181 7.515-10.02 12.191s-5.177 9.686-7.181 15.197a161 161 0 0 0-5.344 17.87c-1.503 6.345-3.006 13.025-4.342 20.206-1.336 7.014-2.672 13.694-3.507 20.207-.835 6.346-1.503 12.526-1.67 18.203q-.25 8.518 1.002 15.532c1.002 4.676 2.505 8.85 5.01 12.358a34.5 34.5 0 0 0 4.676 5.177c1.67 1.503 3.674 2.672 5.845 3.674s4.509 1.67 7.181 2.17c2.672.502 5.344.669 8.517.669 3.006 0 5.845-.334 8.684-.835 2.672-.501 5.344-1.336 7.85-2.338 2.504-1.002 4.842-2.338 7.18-3.841s4.51-3.34 6.68-5.344c3.841-3.507 7.014-7.682 9.853-12.358 2.84-4.676 5.177-9.854 7.181-15.531a93 93 0 0 0 3.006-9.687c.835-2.672 1.503-5.51 2.171-8.35 1.503-6.346 2.84-13.026 4.175-20.04.668-3.34 1.17-6.513 1.67-9.519.668-3.507 1.17-7.014 1.67-10.52.835-6.347 1.503-12.192 1.503-17.703.167-5.51-.167-10.52-1.169-15.03s-2.505-8.517-4.843-12.024c-1.336-2.004-3.006-3.674-4.676-5.01-1.837-1.503-3.84-2.672-6.012-3.674-2.17-1.002-4.509-1.67-7.18-2.17-2.506-.502-5.345-.669-8.35-.669-2.84-.334-5.679-.167-8.35.334"/></defs><clipPath id="e"><use xlink:href="#d" overflow="visible"/></clipPath><linearGradient id="f" x1="81.036" x2="84.884" y1="805.097" y2="805.097" gradientTransform="scale(239.0339)rotate(-60.315 -649.047 473.412)" gradientUnits="userSpaceOnUse"><stop offset="0" style="stop-color:#801517"/><stop offset=".5" style="stop-color:#ca2027"/><stop offset="1" style="stop-color:#ec1a37"/></linearGradient><path fill="url(#f)" d="m231.297 529.391 89.846-157.481 137.775 78.49-89.679 157.482z" clip-path="url(#e)"/><defs><path id="g" d="M793.086 412.658c-2.672.501-5.344 1.17-7.682 2.171-2.505 1.002-4.843 2.338-7.014 3.674-2.17 1.503-4.342 3.173-6.513 5.177-4.008 3.507-7.18 7.682-10.02 12.191-2.839 4.676-5.177 9.853-7.348 15.364-2.004 5.511-3.84 11.69-5.344 18.036-1.503 6.346-3.006 13.193-4.342 20.374-1.336 7.014-2.672 13.861-3.507 20.374a147 147 0 0 0-1.67 18.37c-.167 5.679.167 10.856 1.17 15.699 1.001 4.676 2.504 8.85 5.01 12.358 1.502 2.004 3.005 3.674 4.842 5.177 1.67 1.503 3.674 2.839 5.845 3.674 2.171 1.002 4.676 1.67 7.181 2.17 2.672.502 5.511.669 8.517.669s6.012-.334 8.684-1.002c2.84-.501 5.344-1.336 8.016-2.338a35.2 35.2 0 0 0 7.348-4.008c2.338-1.503 4.51-3.34 6.68-5.344q5.762-5.512 10.02-12.525c2.84-4.676 5.177-10.02 7.181-15.698 1.17-3.006 2.171-6.346 3.006-9.687 1.17-3.674 2.171-7.515 3.173-11.523 1.336-5.678 2.505-11.69 3.507-17.869.501-3.173 1.17-6.179 1.503-9.185.668-3.507 1.17-7.014 1.67-10.52.835-6.347 1.503-12.359 1.503-17.87.167-5.51-.167-10.688-1.169-15.197-1.002-4.676-2.505-8.684-5.01-12.19-1.336-2.005-3.006-3.675-4.843-5.178s-3.84-2.672-6.012-3.674c-2.17-1.002-4.676-1.837-7.18-2.17-2.673-.502-5.345-.836-8.35-.836-3.34.501-6.18.835-8.852 1.336"/></defs><clipPath id="h"><use xlink:href="#g" overflow="visible"/></clipPath><linearGradient id="i" x1="81.036" x2="84.884" y1="806.285" y2="806.285" gradientTransform="scale(239.0339)rotate(-60.315 -648.688 473.203)" gradientUnits="userSpaceOnUse"><stop offset="0" style="stop-color:#801517"/><stop offset=".5" style="stop-color:#ca2027"/><stop offset="1" style="stop-color:#ec1a37"/></linearGradient><path fill="url(#i)" d="m671.844 529.892 90.681-158.984 139.112 79.325-90.682 158.985z" clip-path="url(#h)"/><defs><path id="j" d="M521.878 609.218c-7.181-1.503-13.694-3.674-19.373-6.346s-10.688-5.845-14.863-9.352c-4.342-3.507-7.849-7.348-10.855-11.19-4.342-5.677-7.682-11.522-10.02-18.035s-3.84-13.36-4.509-20.875c-.668-7.683-.5-15.865.334-24.884s2.338-18.87 4.175-29.893c2.004-10.855 4.175-20.54 6.847-29.559 2.505-9.018 5.511-17.034 8.851-24.549 3.507-7.348 7.515-14.195 12.191-20.54 4.843-6.347 10.188-12.192 16.7-17.703 4.343-3.841 9.353-7.515 14.697-10.855 5.51-3.34 11.523-6.513 18.036-9.018s13.527-4.676 21.209-6.179 15.698-2.338 24.382-2.171c8.684 0 16.366.835 23.38 2.505 7.014 1.503 13.36 3.841 18.87 6.346a77.2 77.2 0 0 1 14.53 9.185c4.175 3.507 7.682 7.181 10.52 10.855 4.343 5.511 7.516 11.356 9.854 17.535s3.84 12.86 4.509 20.207q1.002 11.022 0 24.048c-.668 8.851-2.004 18.37-3.841 29.058s-3.841 20.374-6.18 29.392c-2.337 8.851-5.01 17.034-8.35 24.55-3.34 7.515-7.18 14.362-11.69 20.708s-10.02 12.358-16.198 18.036c-4.342 3.84-9.185 7.682-14.696 11.356-5.511 3.507-11.523 6.847-18.036 9.686-6.68 2.839-13.861 5.01-21.543 6.847-7.85 1.67-16.032 2.672-24.883 2.672h-2.171c-8.016.334-15.197-.501-21.877-1.837m-221.777.167c-7.181-1.503-13.694-3.674-19.372-6.346s-10.521-5.845-14.863-9.185c-4.342-3.507-7.85-7.348-10.855-11.19q-6.513-8.517-10.02-18.035c-2.338-6.513-3.841-13.36-4.51-20.875-.667-7.515-.5-15.866.335-24.884s2.338-18.87 4.342-29.893c2.004-10.855 4.175-20.708 6.847-29.559 2.505-9.018 5.51-17.034 8.85-24.549 3.508-7.348 7.516-14.195 12.192-20.54 4.676-6.347 10.187-12.192 16.533-17.703 4.342-3.84 9.352-7.515 14.696-10.855 5.511-3.34 11.523-6.513 18.036-9.018s13.694-4.676 21.21-6.179c7.681-1.503 15.697-2.171 24.381-2.171s16.366.835 23.38 2.505c7.014 1.503 13.36 3.674 18.871 6.346s10.354 5.845 14.53 9.185c4.174 3.507 7.681 7.181 10.52 10.855 4.342 5.511 7.515 11.19 9.853 17.535s3.841 12.86 4.51 20.207c.667 7.348.667 15.197 0 24.048s-2.005 18.37-3.842 29.058-3.84 20.374-6.179 29.392c-2.338 8.851-5.01 17.035-8.35 24.55s-7.18 14.362-11.69 20.708a125.5 125.5 0 0 1-16.199 18.036c-4.342 4.008-9.185 7.682-14.696 11.356-5.51 3.507-11.523 6.847-18.203 9.519a120.4 120.4 0 0 1-21.543 6.847 117 117 0 0 1-24.883 2.672h-2.004c-8.016.167-15.364-.501-21.877-1.837M500.168 0C224.116 0 .335 223.614 0 499.665c-.167 80.328 18.871 156.146 52.438 223.447 10.02-4.509 18.537-12.024 24.55-21.71l.333-.501c.167-.167.334-.501.501-.668a75.5 75.5 0 0 0 7.348-15.197c1.837-5.177 3.507-11.022 5.177-17.87.167-1.168 38.076-207.58 40.414-219.939H97.696l16.2-54.943 25.884-.167 2.84-14.362c.333-2.004.668-3.841 1.001-5.845l.835-4.676c1.504-8.851 3.34-18.871 5.01-25.885 1.504-5.845 2.84-10.688 4.343-15.197 2.17-6.68 4.342-12.692 6.847-18.203 3.84-8.517 8.35-16.032 13.36-23.046 5.344-7.348 11.356-13.861 18.37-19.873 5.01-4.51 10.52-8.517 16.366-12.358a113.5 113.5 0 0 1 20.04-10.354c7.682-3.173 15.698-5.511 23.547-7.181 8.684-1.837 17.869-2.672 26.887-2.672h1.169c9.018 0 17.535.835 25.384 2.505 3.173.668 6.012 1.503 8.684 2.338l.501.167-18.203 58.116-.835-.501c-.334-.167-.668-.334-1.169-.668a41 41 0 0 0-9.018-3.006c-3.34-.668-7.014-1.17-10.855-1.17h-.334c-4.008 0-7.85.335-11.69 1.17-3.34.668-6.513 1.67-10.02 3.006l-.501.167c-.167 0-.334.167-.501.167-2.505 1.002-4.843 2.17-7.348 3.674-2.338 1.503-4.676 3.173-6.847 5.01-4.008 3.34-7.348 7.18-10.354 11.857-2.84 4.509-5.177 9.352-7.181 14.863-1.837 5.01-3.507 10.688-5.01 17.535-.167.835-1.002 5.845-1.837 10.187-.668 3.674-1.17 7.014-1.336 7.682l-3.674 26.22 39.579-.168-16.366 55.277-32.398-.167-29.893 166.5-7.682 40.414c-1.837 9.519-3.34 17.535-5.678 25.885-2.84 10.521-6.012 19.706-9.853 28.056-4.008 8.684-8.35 16.366-13.694 23.547-5.512 7.348-11.524 14.028-18.705 20.374-5.177 4.676-10.855 8.851-16.7 12.525-5.01 3.173-10.354 6.012-16.032 8.684C170.008 909.318 324.15 999.832 499.5 1000c276.22.334 500.334-223.28 500.501-499.499 0-70.808-14.53-138.276-41.082-199.398-2.84.5-5.511 1.336-8.016 2.338s-5.01 2.338-7.348 3.84c-2.338 1.504-4.676 3.34-6.847 5.345-4.175 3.674-7.515 8.016-10.521 12.692q-4.509 7.265-7.515 16.032c-2.171 5.845-4.008 12.191-5.678 18.704a902 902 0 0 0-4.51 21.21c-.834 4.508-8.015 46.926-13.86 81.328l-7.85 44.757s-.166 1.169-.5 2.839l-.501 2.505c-.668 3.507-1.002 7.014-1.336 10.354-.167 1.503-.334 2.839-.334 3.84 0 1.337-.167 4.009-.167 4.009 0 .167 0 .334.167.5 0 3.508.167 6.848.668 9.854q1.002 6.012 4.008 10.52c1.169 1.67 2.505 3.174 3.84 4.51 1.504 1.336 3.174 2.338 4.844 3.34q2.755 1.252 6.012 2.004c.334.167.668.167 1.169.167l-15.865 50.768c-1.67 0-3.34.167-5.01 0-6.012-.167-11.356-.835-16.533-2.171-5.01-1.17-9.52-2.84-13.694-5.01-.835-.334-1.503-.835-2.171-1.336-3.006-1.503-5.678-3.173-8.35-5.01q-5.761-4.259-10.02-9.52c-4.51-5.677-7.515-12.357-9.686-19.538-2.505 4.509-5.678 8.85-9.352 13.193-1.67 1.837-3.34 3.507-5.01 5.177l-.167.334c-.334.334-.668.668-1.002.835-.835.835-1.67 1.503-2.505 2.338h-.167c-.835.835-1.838 1.503-2.672 2.17-2.673 2.172-5.345 4.009-8.017 5.846-4.842 3.173-9.685 5.51-14.695 7.515-5.01 1.837-10.188 3.173-15.699 3.84-5.51.836-11.356 1.003-17.535.836-5.678-.167-11.189-.835-16.533-2.171-5.177-1.17-10.187-2.84-14.696-5.01-4.509-2.004-8.684-4.676-12.358-7.348q-5.511-4.259-9.519-9.52c-4.676-6.345-7.682-13.693-9.519-21.71s-2.338-16.7-2.004-25.884c.334-9.018 1.503-18.37 3.006-27.89 1.503-9.352 3.507-18.704 5.344-27.722s3.841-18.37 6.18-27.555 5.01-18.37 8.35-27.054 7.347-17.034 12.19-24.549 10.688-14.195 17.702-19.706c3.841-3.173 8.183-5.845 12.86-8.35 4.675-2.338 9.518-4.342 14.695-6.012s10.521-2.672 16.033-3.34a92.6 92.6 0 0 1 16.7-.501c5.845.334 11.189 1.002 16.199 2.171s9.686 2.672 13.86 4.843a54.8 54.8 0 0 1 11.524 8.016c3.173 2.84 5.845 6.346 8.517 10.187.5-3.34 1.002-6.68 1.67-10.187 1.67-8.684 3.674-17.869 5.845-27.388 2.17-9.686 4.509-18.704 6.847-27.221 2.505-8.517 5.177-16.7 8.183-24.048 1.002-2.505 2.17-5.01 3.34-7.348l1.503-3.006c.167-.167.167-.501.334-.668.5-.835 1.002-1.837 1.503-2.84 1.336-2.17 2.505-4.508 4.008-6.512a65.2 65.2 0 0 1 8.517-10.521c9.853-11.022 24.716-22.211 45.424-25.885C845.19 99.699 684.536.167 500.668 0z"/></defs><clipPath id="k"><use xlink:href="#j" overflow="visible"/></clipPath><linearGradient id="l" x1="81.036" x2="84.884" y1="805.529" y2="805.529" gradientTransform="scale(239.0339)rotate(-60.315 -648.916 473.336)" gradientUnits="userSpaceOnUse"><stop offset="0" style="stop-color:#82000a"/><stop offset=".5" style="stop-color:#ca0021"/><stop offset="1" style="stop-color:#fa0031"/></linearGradient><path fill="url(#l)" d="m-430.526 755.01 675.85-1185.37 1185.37 675.684-675.85 1185.536z" clip-path="url(#k)"/><path fill="#211E1F" d="M604.877 509.017c-.668 3.006-1.503 5.678-2.171 8.517 1.169-3.674 2.17-7.348 3.173-11.356 1.336-5.51 2.505-11.523 3.507-17.535.5-3.173 1.002-6.179 1.503-9.185-.501 3.173-1.17 6.346-1.67 9.52a521 521 0 0 1-4.342 20.04"/><path fill="#FFF" d="M667.001 414.996c-2.338-6.179-5.678-12.024-9.853-17.535-2.84-3.84-6.346-7.515-10.521-10.855a77.2 77.2 0 0 0-14.53-9.185c-5.51-2.672-11.856-4.843-18.87-6.346-7.014-1.67-14.863-2.505-23.38-2.505a113.3 113.3 0 0 0-24.382 2.171c-7.682 1.336-14.696 3.507-21.21 6.18q-9.768 4.007-18.035 9.017c-5.511 3.34-10.354 7.014-14.696 10.855-6.346 5.511-11.857 11.356-16.7 17.702a119 119 0 0 0-12.191 20.541c-3.508 7.515-6.347 15.531-8.852 24.55-2.505 8.85-4.842 18.703-6.847 29.558-2.004 10.855-3.507 20.708-4.175 29.893-.835 9.019-1.002 17.202-.334 24.884.668 7.515 2.171 14.529 4.51 20.875 2.337 6.513 5.677 12.358 10.02 18.036 3.005 3.84 6.68 7.682 10.855 11.189s9.185 6.68 14.863 9.352 12.024 4.843 19.372 6.346q10.77 2.254 24.048 2.004c8.85 0 17.2-1.17 24.883-2.672a120.4 120.4 0 0 0 21.543-6.847c6.68-2.672 12.692-6.012 18.036-9.686 5.51-3.507 10.354-7.348 14.696-11.356 6.346-5.678 11.69-11.69 16.199-18.036s8.35-13.193 11.69-20.708 6.012-15.531 8.35-24.55c2.338-8.85 4.342-18.704 6.179-29.392s3.173-20.207 3.841-29.058c.668-8.684.835-16.7 0-24.048-.668-7.515-2.004-14.195-4.509-20.374m-52.94 36.24c-.166 5.51-.667 11.355-1.502 17.701-.501 3.34-1.002 6.847-1.67 10.354-.501 3.006-1.002 6.012-1.503 9.185-1.17 6.18-2.171 12.024-3.507 17.535-1.002 4.008-2.004 7.85-3.173 11.356-1.002 3.34-1.837 6.513-3.006 9.52-2.004 5.678-4.342 10.855-7.181 15.53-2.84 4.677-6.012 8.852-9.853 12.359a48 48 0 0 1-6.68 5.177c-2.338 1.503-4.676 2.839-7.181 3.84-2.505 1.003-5.177 1.838-7.85 2.339-2.671.5-5.677.835-8.683.835s-5.845-.167-8.517-.668c-2.505-.501-5.01-1.17-7.181-2.171-2.171-1.002-4.008-2.171-5.845-3.674s-3.34-3.173-4.843-5.177c-2.338-3.507-4.008-7.682-4.843-12.358-1.002-4.676-1.336-9.853-1.17-15.531.168-5.678.669-11.69 1.67-18.204 1.003-6.513 2.172-13.193 3.508-20.207s2.672-13.86 4.342-20.207c1.67-6.346 3.34-12.358 5.344-17.869a91.4 91.4 0 0 1 7.18-15.197 55 55 0 0 1 10.02-12.19c2.172-2.005 4.343-3.675 6.514-5.178 2.17-1.503 4.509-2.672 7.014-3.674s5.01-1.67 7.682-2.17c2.672-.502 5.51-.669 8.517-.669s5.678.167 8.35.668c2.505.501 5.01 1.17 7.18 2.171 2.172 1.002 4.176 2.171 5.846 3.674 1.837 1.503 3.34 3.173 4.676 5.01q3.507 5.26 5.01 12.024c1.169 5.344 1.503 10.354 1.336 15.865M113.561 751.67c7.181-6.347 13.193-13.027 18.704-20.375 5.177-7.18 9.686-14.863 13.694-23.547 3.674-8.35 7.015-17.535 9.854-28.056 2.338-8.35 3.84-16.366 5.678-25.885l7.682-40.414 29.893-166.333 32.398.167 16.366-55.277-39.58.167 3.675-26.219c.167-.668.668-4.008 1.336-7.682.835-4.509 1.67-9.519 1.837-10.187 1.503-6.847 3.173-12.525 5.01-17.535 2.004-5.511 4.342-10.354 7.18-14.863 3.007-4.676 6.347-8.517 10.355-11.857 2.17-1.837 4.509-3.507 6.847-5.01 2.505-1.503 4.843-2.672 7.348-3.674.167 0 .334-.167.5-.167l.502-.167q5.01-2.004 10.02-3.006c3.84-.668 7.682-1.17 11.69-1.17h.334c3.84 0 7.515.335 10.855 1.17a41 41 0 0 1 9.018 3.006c.334.167.835.334 1.169.668l.668.5 18.203-58.115-.501-.167a109 109 0 0 0-8.684-2.338c-7.85-1.67-16.366-2.505-25.384-2.505h-1.17c-9.184 0-18.202.835-26.886 2.672-8.016 1.67-15.865 4.008-23.547 7.18-7.014 3.007-13.861 6.347-20.04 10.355a120 120 0 0 0-16.366 12.358c-7.014 6.179-12.86 12.692-18.37 19.873-5.177 7.014-9.52 14.529-13.36 23.046-2.506 5.51-4.677 11.356-6.848 18.203-1.503 4.509-2.839 9.352-4.342 15.197-1.837 7.014-3.507 17.034-5.01 25.885l-.835 4.676a415 415 0 0 1-1.002 5.845l-2.839 14.362-25.885.167-16.199 54.943h33.066c-2.338 12.358-40.247 218.77-40.414 219.94-1.503 6.847-3.34 12.692-5.177 17.869-2.004 5.678-4.342 10.52-7.348 15.197-.167.334-.334.5-.5.668l-.335.5c-6.012 9.854-14.529 17.202-24.549 21.711 8.517 17.201 18.203 33.901 28.557 49.766 5.511-2.505 11.022-5.344 16.032-8.684 5.845-4.008 11.523-8.183 16.7-12.859"/><path fill="#211E1F" d="M382.933 509.017c-.668 2.84-1.503 5.678-2.17 8.35 1.168-3.674 2.17-7.348 3.172-11.189 1.336-5.51 2.505-11.523 3.507-17.535a507 507 0 0 1 1.503-9.018c-.5 3.173-1.169 6.346-1.67 9.52a588 588 0 0 1-4.342 19.872"/><path fill="#FFF" d="M445.057 414.996c-2.338-6.346-5.678-12.024-9.853-17.535-2.839-3.84-6.346-7.515-10.52-10.855a77.2 77.2 0 0 0-14.53-9.185c-5.51-2.672-11.857-4.843-18.87-6.346-7.015-1.67-14.864-2.505-23.38-2.505a113.3 113.3 0 0 0-24.383 2.171c-7.682 1.503-14.696 3.674-21.209 6.18q-9.77 4.007-18.036 9.017c-5.511 3.34-10.354 7.181-14.696 10.855-6.346 5.511-11.857 11.356-16.533 17.702s-8.684 13.026-12.191 20.541-6.346 15.531-8.851 24.55c-2.505 8.85-4.676 18.703-6.847 29.558-2.004 10.855-3.507 20.708-4.342 29.893-.835 9.019-1.002 17.202-.334 24.884.668 7.515 2.004 14.529 4.509 20.875q3.507 9.519 10.02 18.036c3.006 3.84 6.513 7.682 10.855 11.189s9.185 6.68 14.863 9.185c5.678 2.672 12.024 4.843 19.372 6.346 7.18 1.503 15.197 2.17 24.048 2.17a144 144 0 0 0 24.883-2.671 120.4 120.4 0 0 0 21.543-6.847c6.68-2.672 12.692-6.012 18.203-9.52 5.511-3.506 10.354-7.347 14.696-11.355 6.346-5.678 11.69-11.69 16.2-18.036 4.508-6.346 8.35-13.193 11.69-20.708s6.011-15.531 8.35-24.55c2.337-8.85 4.341-18.704 6.178-29.392s3.173-20.207 3.841-29.058c.668-8.684.835-16.7 0-24.048-.835-7.682-2.338-14.195-4.676-20.54m-52.939 36.238c-.167 5.511-.668 11.356-1.503 17.702-.5 3.34-1.002 6.847-1.67 10.521l-1.503 9.018c-1.169 6.18-2.17 12.024-3.507 17.535-.835 4.008-2.004 7.682-3.173 11.19a693 693 0 0 1-3.006 9.685c-2.004 5.679-4.342 10.856-7.18 15.532-2.84 4.676-6.013 8.85-9.854 12.358-2.17 2.004-4.342 3.674-6.68 5.344-2.338 1.503-4.676 2.839-7.18 3.84-2.506 1.003-5.178 1.838-7.85 2.506-2.839.5-5.678.835-8.684.835s-5.845-.167-8.517-.668c-2.505-.501-5.01-1.17-7.181-2.171-2.171-1.002-4.175-2.171-5.845-3.674a23 23 0 0 1-4.676-5.177c-2.338-3.507-4.008-7.682-5.01-12.358q-1.503-7.014-1.002-15.532c.167-5.678.668-11.69 1.67-18.203a652 652 0 0 1 3.507-20.207c1.336-7.014 2.672-13.86 4.342-20.207 1.503-6.346 3.34-12.358 5.344-17.869s4.342-10.688 7.181-15.197a55 55 0 0 1 10.02-12.19c2.171-1.838 4.342-3.675 6.513-5.01 2.171-1.504 4.51-2.673 7.014-3.675 2.338-1.002 5.01-1.67 7.682-2.17 2.672-.502 5.511-.669 8.517-.669s5.678.167 8.35.668c2.505.501 4.843 1.336 7.181 2.171 2.171 1.002 4.175 2.171 6.012 3.674 1.67 1.503 3.34 3.173 4.676 5.01 2.338 3.507 4.008 7.515 4.843 12.024 1.002 4.843 1.336 9.853 1.17 15.364M886.607 273.714a84 84 0 0 0-8.517 10.52l-4.008 6.514c-.501 1.002-1.002 2.004-1.503 2.839-.167.167-.167.5-.334.668l-1.503 3.006c-1.17 2.338-2.339 4.843-3.34 7.348-3.006 7.348-5.679 15.53-8.184 24.048a646 646 0 0 0-6.847 27.221c-2.17 9.352-4.175 18.537-5.845 27.388-.668 3.507-1.169 6.847-1.503 10.187-2.505-3.84-5.344-7.348-8.517-10.187a54.8 54.8 0 0 0-11.523-8.016c-4.175-2.171-8.85-3.674-13.86-4.843s-10.355-1.837-16.2-2.171a92.6 92.6 0 0 0-16.7.501c-5.51.668-10.855 1.837-16.032 3.34a75.4 75.4 0 0 0-14.696 6.012c-4.676 2.338-8.85 5.177-12.859 8.35-7.014 5.511-12.859 12.191-17.702 19.706s-8.851 15.698-12.191 24.55c-3.34 8.683-6.012 17.868-8.35 27.053s-4.342 18.537-6.18 27.555c-1.836 9.018-3.84 18.37-5.343 27.722s-2.672 18.705-3.006 27.723c-.167 9.185.334 17.869 2.004 25.885s4.843 15.53 9.519 21.71q4.008 5.26 9.519 9.519a60.4 60.4 0 0 0 12.358 7.348c4.51 2.17 9.52 3.674 14.696 5.01 5.177 1.169 10.688 1.837 16.533 2.17 6.18.168 12.024 0 17.535-.834 5.511-.835 10.688-2.004 15.698-3.841s9.853-4.342 14.696-7.515c2.672-1.67 5.344-3.674 8.016-5.845 1.002-.668 1.837-1.503 2.672-2.171h.167c.835-.668 1.67-1.503 2.505-2.338.334-.334.668-.668 1.002-.835l.167-.334c1.67-1.67 3.34-3.34 5.01-5.177 3.674-4.342 6.847-8.684 9.352-13.193 2.004 7.18 5.177 13.86 9.686 19.539q4.26 5.26 10.02 9.519c2.505 1.837 5.344 3.507 8.35 5.01a15 15 0 0 0 2.171 1.336c4.175 2.17 8.684 3.84 13.694 5.01s10.521 1.837 16.534 2.17h5.01l15.865-50.767c-.334-.167-.668-.167-1.17-.167q-3.255-.752-6.011-2.004a16.7 16.7 0 0 1-4.843-3.34c-1.504-1.336-2.84-2.84-3.841-4.51-2.005-3.005-3.174-6.68-4.009-10.52-.5-3.006-.668-6.346-.668-9.853 0-.167 0-.334-.167-.501 0 0 .167-2.672.167-4.008 0-1.002.167-2.338.334-3.841.334-3.34.669-6.847 1.336-10.354l.501-2.505c.334-1.67.501-2.84.501-2.84l7.85-44.756c5.844-34.402 13.025-76.987 13.86-81.329a313 313 0 0 1 4.51-21.209c1.67-6.68 3.506-13.026 5.678-18.704q3.256-8.767 7.515-16.032c3.006-4.843 6.346-9.185 10.52-12.692 2.172-2.004 4.51-3.841 6.848-5.344s4.843-2.84 7.348-3.841 5.177-1.837 8.016-2.338c-8.016-18.37-17.034-36.24-27.054-53.44-20.541 3.507-35.404 14.863-45.257 25.718m-52.439 177.354c-.167 5.511-.668 11.523-1.503 17.87-.5 3.34-1.002 6.846-1.67 10.52-.5 3.006-1.002 6.012-1.503 9.185a1145 1145 0 0 1-3.507 17.87c-1.002 4.007-2.004 7.849-3.173 11.522-1.002 3.34-2.004 6.514-3.006 9.686-2.004 5.678-4.342 10.856-7.18 15.699-2.84 4.676-6.013 8.85-10.02 12.525-2.172 2.004-4.343 3.84-6.68 5.344s-4.844 2.839-7.349 4.008c-2.505 1.002-5.177 1.837-8.016 2.338-2.672.5-5.678.835-8.684 1.002-3.006 0-5.845-.167-8.517-.668s-5.01-1.17-7.18-2.171c-2.172-1.002-4.176-2.171-5.846-3.674-1.837-1.503-3.34-3.173-4.843-5.177-2.338-3.507-4.008-7.682-5.01-12.358s-1.336-10.02-1.169-15.698.835-11.858 1.67-18.37a583 583 0 0 1 3.507-20.375c1.336-7.18 2.84-13.86 4.342-20.374 1.503-6.346 3.34-12.525 5.344-18.036 2.004-5.678 4.51-10.688 7.348-15.364a55 55 0 0 1 10.02-12.19c2.171-2.005 4.342-3.675 6.513-5.178 2.338-1.503 4.676-2.672 7.014-3.674 2.505-1.002 5.01-1.67 7.682-2.17 2.672-.502 5.511-.836 8.685-.836 3.006 0 5.844.334 8.35.835 2.672.501 5.01 1.17 7.18 2.171 2.171 1.002 4.176 2.171 6.013 3.674s3.34 3.173 4.843 5.177c2.338 3.507 4.008 7.515 5.01 12.191 1.168 4.008 1.502 9.018 1.335 14.696M318.471 737.307v-35.571c0-8.016-5.01-10.688-9.686-10.688s-9.853 2.672-9.853 10.688v35.571h-14.696v-58.951h14.362v5.344c3.841-4.008 9.352-6.18 14.696-6.18 5.845 0 10.688 1.838 13.861 5.178 4.676 4.676 6.012 10.187 6.012 16.7v37.742h-14.696zM373.748 712.424c0 7.515 4.676 13.193 12.86 13.193 6.512 0 9.685-1.837 13.36-5.51l9.017 8.683c-6.012 6.012-11.69 9.352-22.378 9.352-13.86 0-27.22-6.346-27.22-30.227 0-19.205 10.353-30.06 25.717-30.06 16.366 0 25.718 12.024 25.718 28.223v6.513h-37.074zm21.042-16.366c-1.503-3.507-4.843-6.012-9.853-6.012s-8.183 2.672-9.853 6.012c-.835 2.17-1.169 3.84-1.336 6.346h22.378c-.167-2.672-.5-4.342-1.336-6.346M455.912 737.307c-12.024 0-17.034-8.517-17.034-16.867v-29.225h-6.346v-11.19h6.18v-17.367h14.695v17.368h10.354v11.189h-10.354v28.223c0 3.34 1.503 5.344 5.01 5.344h5.344v12.525zM554.276 737.307h-12.191l-12.191-37.074-12.358 37.074h-12.191l-18.037-58.951h15.532l9.519 36.406 12.024-36.406h10.688l12.19 36.406 9.52-36.406h15.53zM636.273 730.794c-3.674 3.841-9.686 7.181-18.37 7.181s-14.53-3.34-18.203-7.18c-5.344-5.512-6.68-12.192-6.68-23.047 0-10.688 1.336-17.368 6.68-22.879 3.674-3.841 9.519-7.181 18.203-7.181s14.696 3.34 18.37 7.181c5.344 5.51 6.68 12.19 6.68 22.879 0 10.688-1.336 17.368-6.68 23.046m-11.356-37.241c-1.67-1.67-4.008-2.672-6.847-2.672-3.006 0-5.177.835-6.847 2.672-3.006 3.006-3.34 8.183-3.34 14.195s.334 11.356 3.34 14.362c1.67 1.67 3.84 2.672 6.847 2.672s5.177-.835 6.847-2.672c3.006-3.006 3.34-8.35 3.34-14.362s-.334-11.189-3.34-14.195M700.067 694.388c-2.338-2.338-4.175-3.507-7.849-3.507-4.509 0-9.519 3.34-9.519 10.855v35.571h-14.696v-58.951h14.362v5.678c2.839-3.34 8.517-6.346 14.863-6.346 5.845 0 9.853 1.503 13.861 5.51zM769.205 737.307l-14.362-24.549-6.346 7.014v17.535h-14.696v-80.494h14.696v45.591l19.706-24.048h17.702l-21.042 23.714 22.545 35.237z"/></svg>