<svg xmlns="http://www.w3.org/2000/svg" width="590" height="172" fill="none"><path fill="#E2001A" d="M581.698 7.1h.884c.981 0 1.443-.73 1.443-1.865s-.655-1.537-1.502-1.537h-.825zm-2.251-3.79h3.519c1.212 0 2.347.58 2.347 1.848 0 1.04-.694 1.806-1.616 2.116l1.154 1.614c.539.712 1.174 1.443 1.556 1.69v.174h-1.23c-.672 0-1.152-1.326-2.499-3.288h-.98v2c0 .867.021.904.98.981v.307h-3.231v-.307c.943-.077.983-.114.983-.98V4.621c0-.886-.04-.943-.983-1.022zm-2.478 3.868c0 3.229 2.576 6.073 5.709 6.073 3.153 0 5.711-2.844 5.711-6.093 0-3.268-2.539-6.134-5.711-6.134-3.152 0-5.709 2.884-5.709 6.134zm12.516 0c0 3.806-3 6.92-6.807 6.92-3.787 0-6.805-3.114-6.805-6.94 0-3.847 3.018-6.98 6.805-6.98 3.807 0 6.807 3.116 6.807 6.98zM44.402 74.986v33.31s-5.42 13.16-16.76 13.16C7.096 121.456.15 100.539.15 63.026.15 38.444 5.87.855 25.265.855c6.77 0 13.183 7.839 13.183 7.839L40.565.856h3.837v39.368h-6.489c-.712-25.473-6.62-31.885-12.47-31.885-5.7 0-12.62 13.424-12.825 55.61-.204 40.587 7.567 50.381 14.786 50.381 3.974 0 6.234-4.275 6.234-4.275l.356-35.07c.098-9.025-6.59-9.026-6.59-9.026V60.71h23.692v5.248s-6.694 3.653-6.694 9.026M61.662 66.814c2.95-23.714 6.356-51.198 6.356-51.198s4.203 28.691 7.513 51.198zm28.91 23.176c-.825-4.61-16.629-87.92-16.629-87.92H65.55S53.99 92.66 52.543 100.563c-1.447 7.9-5.597 9.383-5.597 9.383v3.62l16.627-7.407v-2.635s-6.913 2.963-6.09-3.293c.306-2.325 1.84-14.615 3.647-29.137h15.03c1.606 10.909 2.898 18.968 3.217 21.034.988 6.422-4.28 7.739-4.28 7.739v2.635l21.072-6.751v-2.532s-4.775 1.381-5.598-3.23M99.133 94.674v-2.516s4.204-.173 4.204-4.822V14.3c0-6.374-7.063-8.267-7.063-8.267V2.07h18.259l9.818 69.074 9.819-68.728h16.88v3.617s-4.477-.345-4.477 6.028v64.423c0 4.65 5.025 4.346 5.025 4.346v1.45l-19.543 3.984v-2.202s5.536-.91 5.536-5.534V12.233l-11.366 75.356-3.946.933-14.12-72.672v68.73c0 6.2 6.374 3.617 6.374 3.617v2.252zM201.258 2.07v3.963s6.829-.828 6.829 8.318v49.222c0 4.124-6.829 7.732-6.829 7.732v3.618l41.88-3.562V51.977h-2.193s.514 15.977-12.499 15.977c-11.081 0-9.664-8.246-9.664-16.106V38.963s4.252-.258 8.117-.258c5.155 0 5.155 12.884 5.155 12.884h2.191V21.954h-2.32s-.516 12.628-5.283 12.628h-7.86V6.032h9.792c6.056 0 10.308 14.247 10.308 14.247h2.191V2.07zM414.612 77.566c-5.304 0-11.048-8.83-11.048-34.312 0-25.486 4.64-37.432 11.048-37.432s11.049 11.946 11.049 37.432c0 25.482-5.745 34.312-11.049 34.312m22.207-34.312c0-27.984-10.275-42.005-22.207-42.005-11.931 0-22.207 11.499-22.207 42.005 0 28.035 11.491 39.532 22.207 39.532 8.508 0 22.207-11.497 22.207-39.532M552.105 113.262c-6.465 0-13.47-12.96-13.47-50.362 0-37.405 5.66-54.938 13.47-54.938 7.812 0 13.472 17.533 13.472 54.938 0 37.402-7.005 50.362-13.472 50.362M579.181 62.9c0-41.069-12.528-61.652-27.076-61.652S525.031 18.127 525.031 62.9c0 41.15 14.008 58.024 27.074 58.024 10.374 0 27.076-16.874 27.076-58.024M470.841 2.07s-.34 4.57-2.042 4.57c-1.703 0-6.015-5.675-11.691-5.675-6.924 0-17.025 9.192-17.025 25.65 0 15.551 5.674 22.59 12.144 27.13s13.848 8.853 13.848 18.614c0 10.896-4.984 14.64-8.735 14.64s-8.967-3.068-11.805-11.805c-2.842-8.737-3.751-15.435-3.751-15.435h-2.609v31.67h2.382s.568-5.335 3.406-3.406 6.925 5.562 11.918 5.562c4.994 0 18.728-3.519 18.728-29.17 0-14.53-5.774-20.134-13.265-25.925-7.491-5.788-12.841-7.107-12.841-17.55 0-10.442 5.57-14.187 7.837-14.187 2.265 0 7.257 1.474 9.983 10.897 2.725 9.42 3.518 15.777 3.518 15.777h2.952V2.07zM515.801 2.782s-.387 5.056-2.31 5.056c-1.928 0-6.804-6.28-13.222-6.28-7.83 0-19.255 10.176-19.255 28.391 0 17.21 6.419 24.999 13.735 30.024s15.66 9.797 15.66 20.603c0 12.06-6.358 16.922-10.599 16.922-4.24 0-9.419-4.116-12.631-13.785s-4.24-17.083-4.24-17.083h-2.95v35.05h2.694s.642-5.904 3.852-3.768c3.208 2.134 7.83 6.154 13.476 6.154 5.65 0 21.18-3.893 21.18-32.284 0-16.08-6.529-22.284-15.002-28.692-8.471-6.406-14.522-7.864-14.522-19.422s6.3-15.702 8.863-15.702 8.208 1.631 11.291 12.06c3.081 10.426 3.98 17.46 3.98 17.46h3.337V2.781zM300.276 171.032c14.457 0 26.856-2.194 30.461-2.862 5.306-.984-4.126-2.752-4.126-2.752s16.702-8.255 16.702-13.562c0-2.948-18.754-1.964-28.733-.588 0 0-19.807 1.571-19.807 7.664v7.86c0 2.754 1.77 4.24 5.503 4.24M259.219 169.659c9.026 1.98 21 1.994 26.396 1.994 4.862 0 5.424-4.074 6.21-8.986.786-4.914-.197-9.236-7.074-11.595-6.879-2.359-8.067-2.672-11.655-4.049-3.204-1.228-5.887.48-8.588 3.656-2.708 3.185-4.576 6.096-8.057 11.005-2.899 4.087.205 7.412 2.768 7.975M233.275 158.678c1.533 1.148 7.661 4.923 12.34 6.91 2.913 1.234 6.453.001 8.346-4.692 1.894-4.691 8.56-12.346 10.124-13.911 1.564-1.563 2.139-3.292 0-4.279-2.14-.989-1.893-.905-3.868-1.812-1.976-.906-2.717-.164-6.914 1.894-4.198 2.057-14.862 8.708-18.072 10.356-3.21 1.645-3.49 4.388-1.956 5.534M219.472 135.133c0 4.528 2.435 11.094 5.717 15.609 1.976 1.975 4.067 2.475 8.554-.416 4.486-2.891 13.22-8.579 20.436-11.165 1.248-.448 2.89-1.098 2.89-1.098v-2.093s-14.862.195-22.13-.425c-5.836-.499-10.527-3.711-13.326-3.711-2.198 0-2.141 3.299-2.141 3.299M225.473 110.941c-1.476 2.007-5.267 6.152-6.014 13.148 0 0-.645 3.143 2.976 4.623s15.146 4.609 24.364 4.609c9.22 0 10.372.33 11.031-1.564.659-1.893-.659-2.714-3.211-4.28-2.552-1.564-8.396-4.444-13.993-9.136s-7.901-6.75-9.3-8.149c-1.399-1.397-4.092-1.647-5.853.749M268.642 93.168c-12.589 1.02-23.392 3.957-33.787 9.021 0 0-4.85 3.392 0 6.617 4.851 3.227 25.824 19.068 25.824 19.068s3.52-.145 6.308-1.465c2.787-1.323 6.527-3.008 3.594-5.941-1.908-1.908-5.648-4.915-5.648-10.342 0-5.426 3.709-16.958 3.709-16.958M312.732 121.798h28.15l21.238 16.544-21.238-14.075h-28.15zM292.236 127.23h28.768l11.235 21.236L319.77 129.7h-30.251zM260.381 133.651l10.866-4.939 20.989 17.532-21.237-14.752-9.239 4.324z"/><path fill="#E2001A" d="m266.308 138.095 6.076-2.567 13.925 10.716-14.074-8.042-4.384 1.93zM424.324 132.93c-34.26-.03-69.353-19.443-87.646-19.368v1.145-3.124c19.277.073 53.961 19.399 87.646 19.371 24.559-.039 33.256-15.887 33.308-27.068.016-4.699-1.1-9.278-3.416-10.639l1.019-1.688c3.235 1.992 4.359 7.228 4.375 12.327-.004 6.088-2.403 13.334-8.042 19.094-5.632 5.758-14.498 9.95-27.217 9.95z"/><path fill="#E2001A" d="M426.815 127.253c-17.832 0-32.231-2.613-44.091-4.386-23.843-3.574-37.813-8.759-49.589-9.678l.153-1.968c12.121.96 25.995 6.14 49.728 9.69 11.907 1.785 26.159 4.366 43.799 4.366 18.664-.001 28.021-4.66 32.734-9.406 4.714-4.751 4.926-9.73 4.928-10.754.003-1.101-.11-3.402-1.141-5.558-1.044-2.151-2.673-5.138-6.455-5.974l-.208.963.626-2.895c4.361.926 6.609 4.468 7.822 7.059 1.226 2.587 1.33 5.172 1.332 6.405.004 1.306-.297 6.903-5.501 12.146-5.204 5.24-15.161 9.99-34.112 9.99z"/><path fill="#E2001A" d="M327.96 105.006a3.458 3.458 0 1 1 0-6.915 3.458 3.458 0 0 1 0 6.915m41.258-.305s-4.546 1.465-10.266 1.465c-7.26 0-14.108-4.84-22.882-4.84-1.762 0-2.341-.728-2.341-2.048 0-1.057 1.177-1.618 2.351-1.618s8.204 1.906 13.044 1.906c4.841 0 11.672-.584 11.672-.584s-8.047-.578-17.284-3.526c-9.238-2.948-10.614-5.11-16.706-5.11-6.093 0-15.133 2.948-24.565 2.948-3.465 0-15.647-1.166-29.675-.393 0 0-3.232 9.453-3.232 15.613s4.032 10.246 6.598 13.667c2.2 2.933 6.382 2.98 18.336 1.587 13.257-1.544 28.454-10.854 36.962-10.854 0 0 5.72 1.027 14.814 1.027s21.414-2.055 21.414-2.055l-5.573-2.198s2.053-.442 4.693-1.908c2.64-1.467 2.64-3.079 2.64-3.079M272.821 33.612c-3.388 2.976-8.271 2.66-8.271 2.66V6.876s5.003-.83 8.331 1.818c2.64 2.103 3.768 6.862 3.768 12.622 0 5.576-1.292 10.068-3.828 12.296m17.809 29.044c-3.024-5.247-12.6-25.812-12.6-25.812s9.959-6.166 9.959-17.592c0-12.764-8.317-17.182-16.508-17.182H247.79v3.962s6.175 0 6.175 4.584v47.426c0 8.576-6.175 8.195-6.175 8.195v4.864l23.216-.91v-3.954s-6.304-.124-6.304-9.013v-18.15h2.099l13.583 30.93h16.421v-3.398s-3.149 1.298-6.175-3.95M373.185 34.824c-3.251 2.976-7.936 2.66-7.936 2.66V6.876s4.8-.83 7.995 1.819c2.533 2.101 3.614 6.861 3.614 12.621 0 5.576-1.238 11.279-3.673 13.508m15.897 31.592c-2.34-5.521-12.097-28.373-12.097-28.373s10.757-4.77 10.757-18.79c0-12.765-7.982-17.182-15.842-17.182h-22.738v3.961s5.927 0 5.927 4.584v47.427c0 9.832-5.927 10.621-5.927 10.621v2.437l22.28 2.435v-3.955s-6.048-.392-6.048-7.89V41.563h2.015l12.417 32.81 16.376 1.912v-3.397s-4.216.38-7.12-6.472M178.827 75.08c-3.998.774-5.544-2.193-5.544-7.22V42.075s14.698-3.095 14.698 16.503c0 12.893-5.157 15.73-9.154 16.504m-5.544-68.203s5.118-.83 8.524 1.818c2.701 2.102 3.853 6.86 3.853 12.622 0 5.574-1.32 10.068-3.915 12.294-3.466 2.978-8.462 2.662-8.462 2.662zm11.474 32.232s12.507-5.544 12.507-19.856c0-12.764-8.509-17.183-16.889-17.183h-24.24v3.963s6.318 0 6.318 4.582v57.89c0 10.958-6.318 10.056-6.318 10.056v3s22.664-3.84 29.444-4.707c8.752-1.12 14.264-7.19 14.264-18.405 0-17.02-15.086-19.34-15.086-19.34"/><path fill="#E2001A" d="M314.579 65.764c-5.304 0-11.048-7.465-11.048-29.01 0-21.544 4.64-31.643 11.048-31.643s11.048 10.099 11.048 31.644-5.744 29.01-11.048 29.01m22.207-29.01c0-23.655-10.275-35.511-22.207-35.511s-22.206 9.723-22.206 35.512c0 23.703 11.489 33.422 22.206 33.422 8.508 0 22.207-9.72 22.207-33.422"/></svg>