<svg xmlns="http://www.w3.org/2000/svg" xml:space="preserve" viewBox="0 0 824.2 500"><path fill="#FFF" d="M570.2 185 284.9 0 0 185zM0 199.8h72.5v76.3h67.9v-76.3h72v216.3h-72v-77.8H72.5v77.8H0zM222 308.5v-.8c0-64.5 51.1-112.9 119.4-112.9 37 0 69 12.2 92.7 32.8l-40.4 48.8c-14.1-12.2-30.1-16.8-47.7-16.8-28.2 0-46.5 19.5-46.5 48.8v.8c0 30.5 22.5 49.6 49.6 49.6 12.2 0 19.1-3.1 24.8-6.1v-14.5h-37v-50.3h104.5v99.9c-23.6 19.1-58.4 32.4-97.6 32.4-68.1.1-121.8-44.9-121.8-111.7M744.1 199.8l-42 121.3-41.9-121.3H440.9v60.7h57.6v155.6h72.1V260.5h33.5L667 416.1h69.1l87.7-216.3zM0 431.7h14.9V458H42v-26.3h14.9v66.7H42v-26.7H14.9v26.7H0zM102.6 499.6c-5.3 0-9.9-.8-14.1-2.7s-8-4.2-11.1-7.2c-3.1-3.1-5.7-6.9-7.2-10.7-1.9-4.2-2.7-8.8-2.7-13.3 0-4.6.8-9.2 2.7-13.3 1.9-4.2 4.2-7.6 7.2-11.1 3.1-3.1 6.9-5.7 11.4-7.6 4.2-1.9 9.2-2.7 14.1-2.7 5 0 9.9.8 14.1 2.7s8 4.2 11.1 7.2c3.1 3.1 5.7 6.9 7.2 10.7s2.7 8.8 2.7 13.3c0 4.6-.8 9.2-2.7 13.3-1.9 4.2-4.2 7.6-7.2 11.1-3.1 3.1-6.9 5.7-11.4 7.6-4.2 2-9.1 2.7-14.1 2.7m0-13.3c3.1 0 5.7-.4 8-1.5s4.6-2.7 6.5-4.6 3.1-4.2 4.2-6.5c1.1-2.7 1.5-5.3 1.5-8 0-3.1-.4-5.7-1.5-8-1.1-2.7-2.3-4.6-4.2-6.9s-3.8-3.4-6.5-4.6c-2.3-1.1-5.3-1.5-8-1.5-3.1 0-5.7.4-8 1.5s-4.6 2.7-6.1 4.6c-1.9 1.9-3.1 4.2-4.2 6.5s-1.5 5.3-1.5 8c0 3.1.4 5.7 1.5 8 1.1 2.7 2.3 4.6 4.2 6.9s3.8 3.4 6.5 4.6c1.9 1.1 4.5 1.5 7.6 1.5M148.7 431.7h15.6l17.5 28.2 17.5-28.2h15.6v66.7h-14.5V455l-18.7 28.6h-.4l-18.7-28.2v43.1h-14.1v-66.8zM229.2 431.7h50.3v13h-35.9V458H275v13h-31.3v14.1h36.2v13h-50.7zM361.9 492c-2.7 2.3-5.7 4.2-8.8 5.3-3.1 1.5-6.9 1.9-10.7 1.9-3.1 0-6.1-.4-8.8-1.1-2.7-.8-5-2.3-7.2-3.8-2.3-1.5-3.4-3.8-4.6-6.1s-1.5-5-1.5-8c0-4.2 1.1-8 3.4-11.1s5.3-5.3 9.5-7.2c-1.5-2.3-2.7-4.6-3.4-6.9s-1.1-4.2-1.1-6.9c0-2.3.4-4.6 1.5-6.5s2.3-3.8 3.8-5.7c1.9-1.5 3.8-3.1 6.5-3.8 2.7-1.1 5.3-1.5 8.8-1.5 3.1 0 5.3.4 7.6 1.1s4.2 1.9 5.7 3.4 3.1 3.4 3.8 5.3c.8 1.9 1.5 4.2 1.5 6.5v.4c0 2.3-.4 4.2-1.1 6.1-.8 1.9-1.5 3.4-3.1 5-1.1 1.5-2.7 2.7-4.6 3.8s-3.8 1.9-5.7 3.1l8.8 8.8c1.1-1.9 2.3-3.4 3.4-5.3s2.3-3.8 3.4-6.1l10.7 5.7c-1.1 2.3-2.7 4.6-4.2 7.2l-4.6 6.9 9.9 9.9-10.7 7.6zm-17.9-4.6c1.5 0 3.4-.4 5-1.1 1.5-.8 3.1-1.5 4.6-2.7l-13-13c-2.3 1.1-3.8 2.3-4.6 3.8s-1.5 3.1-1.5 4.6c0 2.3.8 4.2 2.7 5.7 1.9 2.3 4.1 2.7 6.8 2.7m1.5-30.1c3.1-1.1 5-2.3 6.5-3.8s2.3-3.1 2.3-5.3c0-1.9-.8-3.4-1.9-4.6-1.1-1.1-2.7-1.5-4.6-1.5s-3.4.8-4.6 1.9c-1.1 1.1-1.9 3.1-1.9 5v.4c0 1.5.4 2.7.8 4.2 1.1 1 2.3 2.2 3.4 3.7M450.8 499.6c-5.3 0-9.9-.8-14.1-2.7s-8-4.2-11.1-7.2c-3.1-3.1-5.3-6.9-7.2-10.7-1.9-4.2-2.7-8.8-2.7-13.7 0-4.6.8-9.2 2.7-13.3 1.9-4.2 4.2-7.6 7.2-11.1s6.9-5.7 11.1-7.6 8.8-2.7 14.1-2.7c3.1 0 5.7.4 8 .8s4.6 1.1 6.9 1.9 4.2 1.9 5.7 3.1c1.5 1.1 3.8 2.3 5.3 3.8l-9.2 11.1c-1.1-1.1-2.7-1.9-3.8-3.1-1.1-.8-2.7-1.5-3.8-2.3-1.5-.4-2.7-1.1-4.6-1.1-1.5-.4-3.4-.4-5.3-.4-2.7 0-5.3.4-7.6 1.5s-4.2 2.7-6.1 4.6-3.1 4.2-4.2 6.5c-1.1 2.7-1.5 5.3-1.5 8 0 3.1.4 5.7 1.5 8.4s2.3 5 4.2 6.9 3.8 3.4 6.5 4.6c2.3 1.1 5.3 1.5 8 1.5 5.3 0 9.9-1.5 13.7-4.2v-9.5H450V460h29v29c-3.4 3.1-7.6 5.3-12.2 7.6s-9.9 3-16 3M513.7 431.4h13.7l28.6 67.1h-15.3l-6.1-14.9h-28.2l-6.1 14.9h-14.9c.1 0 28.3-67.1 28.3-67.1m15.7 39.2-8.8-21.7-8.8 21.7zM564.1 431.7h30.5q12.6 0 19.5 6.9c3.8 3.8 5.7 8.8 5.7 15.3 0 5.3-1.1 9.9-3.8 13.3s-6.1 5.7-10.3 7.6l16.4 23.6h-17.2L590.4 477H579v21.4h-14.9zm29.3 32.4c3.8 0 6.5-.8 8.4-2.7s3.1-3.8 3.1-6.9v-.4c0-3.1-1.1-5.7-3.1-7.2-1.9-1.5-5-2.3-8.4-2.3h-14.5v19.1h14.5zM630.8 431.7h25.9c5.3 0 9.9.8 14.5 2.7 4.2 1.5 8 4.2 11.4 6.9s5.7 6.5 7.2 10.7 2.7 8.4 2.7 13-.8 9.2-2.7 13.3c-1.9 4.2-4.2 7.6-7.2 10.7-3.1 3.1-6.9 5.3-11.4 7.2-4.6 1.9-9.2 2.7-14.5 2.7h-25.9zm26 53.8c3.1 0 5.7-.4 8.4-1.5 2.3-.8 4.6-2.3 6.5-4.2s3.1-3.8 4.2-6.5c1.1-2.3 1.5-5 1.5-8s-.4-5.7-1.5-8c-1.1-2.7-2.3-4.6-4.2-6.5s-3.8-3.1-6.5-4.2-5.3-1.5-8.4-1.5h-11.4v40.4zM702.9 431.7h50.3v13h-35.9V458h31.3v13h-31.3v14.1h36.2v13h-50.7v-66.4zM764.7 431.7h13.7l31.3 41.2v-41.2h14.5v66.7h-12.6l-32.4-42.3v42.3h-14.5z"/></svg>