<svg xmlns="http://www.w3.org/2000/svg" xml:space="preserve" width="2747.386" height="917.519" fill="#fff"><path d="M0 917.517h121.835V0H0zM1678.536 917.519h122.349V.002h-122.349zM1068.372 229.278c0 174.344-213.989 229.223-213.989 229.223l213.441 458.505H945.479L732.513 458.501s213.511-54.879 213.511-229.223C946.024 54.893 732.513.002 732.513.002h121.87c46.538 0 213.989 54.891 213.989 229.276M2594.334.002s-182.737 54.893-182.737 229.278c0 174.344 213.441 287.177 213.441 458.472 0 171.301-183.282 229.767-183.282 229.767h122.348s183.282-58.466 183.282-229.767c0-171.295-213.989-284.129-213.989-458.472 0-174.385 183.282-229.278 183.282-229.278z"/></svg>