<svg xmlns="http://www.w3.org/2000/svg" xml:space="preserve" viewBox="0 0 499 500"><path fill="#028CD6" d="m466.9 258.1-208 208c-4.1 4.2-10.3 5-15.2 2.5l79.5-79.6c0-.6 7.6-7.2 7.6-21.6V103.1L467 239.3c5.1 5.2 5.1 13.6-.1 18.8M196.2 460.7v-265h-46.5c-14.3 0-16.1-3.1-8.3-10.9L276.8 49.1l17.9-17.8c.4-.5.6-.6 1-1s.6-.5 1-.6c4.2-3 5.9 1 6.2 6.1v323c.9 13.3-6.1 16.7-6.1 17.3L208 464.9l-1.4 1.4c-.4.4-.5.5-1 .9l-.4.4c-.5.4-.6.5-1 .9-.5.4-.6.5-1 .9-4.8 3.3-6.6.5-6.7-8.2M32.1 258.7c-5.2-5.2-5.2-13.6 0-18.8l208-208c4.5-4.5 11.3-5.1 16.5-1.8L116.5 170.4c-19.1 21.7-9.5 53.4 29.5 53.4h22s0 98.5.1 170.9zM487 220.5 330.7 64.2V34.7c0-28.6-31-41.5-53.9-24.3C260.7-4 236-3.4 220.5 12L12 220.5c-16 16-16 42 0 58l156.1 156v34.4c0 21.6 29.9 45.3 55.1 20.6 16.2 13.5 40.2 12.7 55.3-2.4L487 278.5c16.1-16 16.1-42 0-58"/></svg>