<svg xmlns="http://www.w3.org/2000/svg" xml:space="preserve" id="Livello_1" x="0" y="0" version="1.1" viewBox="0 0 1280 1237.9"><style>.st0{fill:#fff}</style><path d="M145.1 609.6c.2 4.8-1.2 11.5-6.8 17.1-4.4 4.4-10.6 7.1-17 7.1-8.5 0-14.8-6.2-26.3-17.8l-77.4-77.4C5.9 526.8 0 521 0 512.4c0-4.6 1.2-11.5 6.7-17.1 4.5-4.4 10.7-7.1 17.1-7.1 8.7.2 14.8 6.2 26.3 17.8l77.4 77.4c11.7 11.8 17.6 17.6 17.6 26.2M169.4 382.8c0 7.1-5 12.1-14.4 21.5l-19.2 19.2 75.8 75.8c11.7 11.7 17.6 17.6 17.6 26.1 0 4.6-1 11.4-6.8 17.1-4.2 4.2-10.4 6.9-16.9 6.9-8.5 0-14.9-6-26.4-17.6L103.3 456l-19 19c-9.6 9.6-14.2 14.2-21.3 14.2-3.9 0-9.4-.9-13.8-5.3-3.6-3.6-5.5-8.7-5.7-13.9-.3-7.1 5-12.1 14.4-21.5l70.7-70.7c9.4-9.4 14.2-14.2 21.3-14.2 3.9 0 9.4.9 13.9 5.3 3.4 3.6 5.6 8.9 5.6 13.9M375.7 389.3c-11.2 11.2-21.7 6.4-39.3-2.3l-8.3-4.1-47.8 47.7 4.3 8.5c8.7 17.2 13.8 27.3 2.5 38.7-8.5 8.5-22.7 7.8-29.5 1-4.6-4.6-6.6-8.3-12.2-21.1l-43.2-96.4c-9.9-22.1-13.7-31.1-12.1-40.2 1.2-6.2 3.9-13.1 9.9-19.1 5-5 11.8-8.5 18.8-10 9.6-1.8 18.3 2.3 40.5 12.1l95.9 42.3c12.2 5.5 17.1 7.5 21.7 12.1 6.4 6.4 8.6 21-1.2 30.8m-142.8-53.7 31.3 62.5 31.4-31.4zM494.3 259.3c0 7.1-5 12.1-14.4 21.5L432 328.7c-14.8 14.8-17.4 17.4-27.3 17.8-9.2.4-13.5-3.9-27.3-17.7l-74.9-75c-11.7-11.7-17.6-17.5-17.6-26.1 0-4.6 1.2-11.6 6.7-17.1 4.4-4.5 10.7-7.1 17.1-7.1 8.7.1 14.7 6.2 26.3 17.7l76 76 42.8-42.8c9.4-9.4 14.4-14.4 21.2-14.4 3.9 0 9.4.9 13.9 5.3 3.2 3.7 5.4 9 5.4 14M538.7 216c.2 4.8-1.2 11.5-6.8 17.1-4.4 4.4-10.6 7.1-17 7.1-8.5 0-14.8-6.2-26.3-17.8L411.2 145c-11.7-11.7-17.6-17.6-17.6-26.1 0-4.6 1.2-11.5 6.7-17.1 4.5-4.4 10.7-7.1 17.1-7.1 8.7.2 14.7 6.2 26.3 17.8l77.4 77.4c11.7 11.7 17.6 17.5 17.6 26.1M667.4 97.5c-11.2 11.2-21.7 6.4-39.3-2.3l-8.3-4-47.8 47.7 4.3 8.5c8.7 17.2 13.9 27.3 2.5 38.7-8.5 8.5-22.7 7.8-29.5 1-4.6-4.6-6.6-8.3-12.2-21.1l-43.2-96.5c-9.9-22-13.7-31.1-12.1-40.1 1.2-6.2 3.9-13.1 10-19.1 5-5 11.7-8.5 18.8-10 9.6-1.8 18.3 2.3 40.4 12.1l96 42.4c12.2 5.5 17.1 7.4 21.7 12.1 6.3 6.3 8.5 20.9-1.3 30.6M524.6 43.9l31.3 62.5L587.3 75zM1254.1 634.5l-170.9-170.9c-14.3-52.4-44.7-101-89.9-142.7-34.7-32-75.1-51.1-114.9-62.2l-76.3-76.3c-16.8-16.8-39-26-62.7-26s-46 9.2-62.7 26L571.3 287.8C486.7 333.3 349 462.6 342.9 468.3c-5.9 5.6-9.3 13.2-9.4 21.3s3 15.9 8.7 21.5l2.9 2.9-120.5 120.4c-16.8 16.7-26 39-26 62.7s9.2 46 26 62.7l186.5 186.6-67.8 67.9c-14.1 14.1-22 33-22 53.1s7.8 38.9 22 53.1c14.2 14.1 33.1 22 53.1 22h210.7l69.4 69.5c16.8 16.7 39.1 26 62.7 26s46-9.2 62.7-26l69.4-69.5h89.4c20.1 0 38.9-7.8 53.1-22L1150.4 984c14.1-14.1 22-33 22-53.1s-7.8-38.9-22-53.1c-2.4-2.4-5-4.6-7.6-6.6l111.3-111.3c34.5-34.6 34.5-90.8 0-125.4M739.4 207.1c7.7 0 15 3 20.5 8.5l29.5 29.5c-6.6-.3-13.1-.4-19.2-.4-31.3 0-61.3 3.1-88.3 7.9l37-37c5.4-5.5 12.7-8.5 20.5-8.5M266.8 717.6c-5.5-5.4-8.5-12.7-8.5-20.5s3-15 8.5-20.5l120.5-120.4L525.1 694c11.7 11.6 30.6 11.6 42.2 0l129.5-129.5c6.4-6.4 15-10 24-10 9.1 0 17.6 3.5 24 10 6.4 6.4 10 14.9 10 24s-3.5 17.6-10 24L453.4 904.2zm493 457.4c-5.5 5.5-12.8 8.5-20.5 8.5-7.8 0-15.1-3-20.5-8.5l-32.6-32.6h106.2zm348.4-233.2-136.5 136.5c-2.9 2.9-6.8 4.5-10.9 4.5H396.4c-4.1 0-8-1.6-10.9-4.5s-4.5-6.8-4.5-10.9 1.6-8 4.5-10.9L787 654.7c17.7-17.7 27.4-41.2 27.4-66.2 0-25.1-9.7-48.5-27.4-66.2s-41.2-27.4-66.2-27.4-48.5 9.7-66.2 27.4L546.2 630.7 406.4 491c44.5-40.3 143.9-127.4 201-154.6 33.3-15.9 96.6-31.9 162.7-31.9 53.4 0 128.5 10.5 182.7 60.4 132.5 122.3 64.8 259.3 49.9 285.5-32.5 57.1-156.3 187.2-186.2 212.6-9.6 8.1-13.1 21.3-8.7 33.1 4.3 11.8 15.5 19.6 28 19.6h261.5c4.1 0 8 1.6 10.9 4.5s4.5 6.8 4.5 10.9-1.6 7.8-4.5 10.7m103.7-224.1-138.2 138.2h-165c51.2-53.2 120.2-130.9 145.9-176.1 10.5-18.4 32.6-63.6 37.2-123.2l120 120c11.3 11.4 11.3 29.8.1 41.1" class="st0"/></svg>