<svg xmlns="http://www.w3.org/2000/svg" xml:space="preserve" id="Livello_1" x="0" y="0" version="1.1" viewBox="0 0 404.6 261.6"><style>.st0{fill:#e64c92}</style><path d="M2.5 95.6c4.6-5.7 14.7-5.6 19 .4 2.2 3.1 2.5 7.1 2.5 10.8-.1 13.6 0 27.2 0 40.8 7.2.1 14.5 0 21.7 0 3.8.1 8.1.2 10.8 3.3 4.8 5.1 2.2 15.3-5.2 16.1-10.9.5-21.8.1-32.6.2-4.5-.1-9.5.6-13.6-1.8-3.7-2.1-5.1-6.6-5.1-10.6-.1-16.7 0-33.4-.1-50 .1-3.3.6-6.7 2.6-9.2M80.6 100.6c1.4-4.2 4.4-8.4 9.1-9 4-.3 8-.4 12 .1 4.6.7 7.4 5 8.9 9.1 5.9 16.5 11.9 32.9 17.7 49.5 1.2 4.1 3.2 8.9.7 12.9-3.5 6.2-13.1 7.2-18 2.3-1.9-2.3-2.2-5.4-3.1-8.2-8.2-.2-16.4 0-24.7-.1-.9 2.7-1.4 5.6-3.1 8-5.1 5.9-16.6 3.9-19-3.7-1.1-4.5.8-9 2.2-13.2 5.9-15.9 11.5-31.8 17.3-47.7m14.9 15c-2.7 8.8-5.3 17.6-7.9 26.5 5.3.2 10.5.1 15.8.1-2.5-8.8-5.1-17.7-7.9-26.6M252.7 5.6c9.9-6.1 22.5-7.3 33.4-3.4 13.5 4.7 23.7 17.3 25.4 31.5 6.2-4.7 13.4-8.3 21.2-9.1 14.6-2 29.9 4.8 38 17.1 9.8 14.1 8.7 34.4-2.2 47.6 9.2 1.3 18.3 5.1 24.7 12 10.1 9.9 13.8 25.5 9.8 39-4.2 15.4-18.5 27.1-34.4 28.4 6.5 8.5 10.2 19.3 8.9 30.1-1.1 11.2-7.2 21.8-16.5 28.2-9.7 7-22.7 9.1-34.2 5.7-5.3-1.3-9.7-4.6-14.4-7.1-1.1 11.7-7.5 22.9-17.4 29.3-9.9 6.8-22.9 8.3-34.2 4.8-14.5-4.5-25.5-17.9-27.2-32.9-7.9 5.9-17.9 9.1-27.7 8.2-13.9-1-26.9-10-32.7-22.7-6.7-13.6-4.4-30.9 5.4-42.5-10.6-1.2-20.9-5.8-27.8-14.1-7.7-8.9-11.1-21.4-8.8-33 2.2-12.3 10.8-23.3 22.1-28.5 4.6-2.2 9.6-3.2 14.6-3.9-11.1-11.8-13-30.9-5.3-45 7.2-13.7 22.9-22.3 38.4-20.8 8.2.9 16.8 3.8 22.6 9.9 1-11.7 8.1-22.7 18.3-28.8" class="st0"/><path d="M213 78c39.9.1 79.9 0 119.8.1 1.1 0 2.2.1 3.3.2-.2 9 0 17.9-.1 26.9-30.7.1-61.5.1-92.2 0-.4 4.4-.2 8.7-.2 13.1 21.7-3.3 44.1-4.9 65.7-.1 9.8 2.4 19.9 6.4 26.4 14.5 6.8 8 10.4 19.3 7.3 29.6-2.7 10.2-10.7 18.2-19.7 23.2-12.8 7.1-27.6 9.6-42 10.8-15.8.7-31.9.7-47-4.4-10.1-3.4-20.2-8.5-26.8-17.2-4-5.2-6.1-11.8-5.8-18.3 13.9 0 27.9-.1 41.8.1 4.4 7.2 13 10.6 21.1 10.9 8.2.4 17.4-.2 23.8-5.9 3.8-3.2 4.8-8.9 2.8-13.4-1.9-3.8-5.5-6.4-9.5-7.7-10.9-3.4-23-2.5-33.1 2.9-14.8.3-29.7.1-44.6.1 3.3-21.8 5.9-43.6 9-65.4" style="fill:#fff"/></svg>