<svg xmlns="http://www.w3.org/2000/svg" xmlns:xlink="http://www.w3.org/1999/xlink" xml:space="preserve" width="500" height="378.683"><linearGradient id="a" x1="304.703" x2="547.224" y1="209.696" y2="96.614" gradientTransform="matrix(1 0 0 -1 0 374.017)" gradientUnits="userSpaceOnUse"><stop offset="0" style="stop-color:#ff1365"/><stop offset="1" style="stop-color:#e6194e"/></linearGradient><path fill="url(#a)" d="M500 378.683V0h-64.418l-66.856 115.729-79.455 81.691-11.177 75.086-61.37 106.178H500z"/><path fill="#FFF" d="M408.758 43.385H100.793v82.402h169.579c0-.102-83.52 143.67-83.52 143.67l7.722 15.444 68.482 38.102 60.252-102.215-1.626-10.059c-6.503-40.134 18.695-78.541 58.118-88.701l33.53-62.284-4.471-16.358z"/><path fill="none" d="M417.395 200.061a8.4 8.4 0 0 0 .61-2.134l3.556-29.161c-1.93-.508-4.064-.813-5.995-.813-18.187 0-26.621 23.166-26.621 43.894s.61 9.348 1.931 12.701c1.422.508 3.048.711 4.877.711 7.722 0 16.663-14.428 21.54-25.198zM414.55 225.767l1.422-11.685c-2.337 6.401-5.283 12.497-8.636 17.984 2.439-1.219 4.877-3.556 7.214-6.401z"/><linearGradient id="b" x1="400.373" x2="360.137" y1="148.63" y2="100.774" gradientTransform="matrix(1 0 0 -1 0 374.017)" gradientUnits="userSpaceOnUse"><stop offset="0" style="stop-color:#404040"/><stop offset="0" style="stop-color:#404040"/><stop offset=".1" style="stop-color:#676767"/><stop offset=".2" style="stop-color:#878787"/><stop offset=".3" style="stop-color:#a0a0a0"/><stop offset=".5" style="stop-color:#b2b2b2"/><stop offset=".6" style="stop-color:#bdbdbd"/><stop offset=".7" style="stop-color:#c1c1c1"/></linearGradient><path fill="url(#b)" d="M405.304 232.168c-9.145 15.241-19.305 26.214-31.701 26.214s-15.297-4.296-20.276-7.751c6.3 8.636 18.65 15.676 28.099 15.676s24.589-11.888 31.904-30.888l2.54-21.337c-2.337 2.845-8.23 16.765-10.669 17.984z"/><linearGradient id="c" x1="387.423" x2="433.044" y1="179.432" y2="187.561" gradientTransform="matrix(1 0 0 -1 0 374.017)" gradientUnits="userSpaceOnUse"><stop offset="0" style="stop-color:#d9d9d9"/><stop offset=".6" style="stop-color:#606060"/></linearGradient><path fill="url(#c)" d="M415.464 168.055c1.93 0 4.064.305 5.995.813l.61-5.283c-3.048-1.016-9.246-3.455-14.631-3.455-18.391 0-26.925 23.369-26.925 44.402s3.15 18.594 9.957 20.727c-1.321-3.353-1.93-7.62-1.93-12.802-.001-21.033 8.534-44.402 26.924-44.402"/><linearGradient id="d" x1="465.979" x2="427.877" y1="317.319" y2="59.851" gradientTransform="matrix(1 0 0 -1 0 374.017)" gradientUnits="userSpaceOnUse"><stop offset="0" style="stop-color:#404040"/><stop offset=".2" style="stop-color:#878787"/><stop offset=".3" style="stop-color:#b2b2b2"/><stop offset=".4" style="stop-color:#c1c1c1"/><stop offset=".5" style="stop-color:#bcbcbc"/><stop offset=".6" style="stop-color:#adadad"/><stop offset=".7" style="stop-color:#969696"/><stop offset=".8" style="stop-color:#757575"/><stop offset=".9" style="stop-color:#4b4b4b"/><stop offset="1" style="stop-color:#404040"/></linearGradient><path fill="url(#d)" d="M473.583 67.974 458.545 215.2c-2.54 21.54-27.332 39.829-48.059 43.69l2.947 9.348c32.107-1.118 50.599-20.423 53.444-45.011L480.289 89.21z"/><linearGradient id="e" x1="338.549" x2="473.583" y1="210.585" y2="210.585" gradientTransform="matrix(1 0 0 -1 0 374.017)" gradientUnits="userSpaceOnUse"><stop offset=".2" style="stop-color:#fff"/><stop offset="1" style="stop-color:#d9d9d9"/></linearGradient><path fill="url(#e)" d="M473.583 67.974c-25.097 0-42.065 18.492-45.519 43.385l-2.845 26.214c-6.3-3.251-14.936-5.995-26.214-5.995-4.184 0-4.775.203-7.011.508-32.819 4.674-53.444 38.407-53.444 76.814 0 6.655.305 7.824.813 11.481 3.353 24.284 17.578 38.508 34.038 38.508s33.428-20.423 42.369-44.3l-5.284 44.3c24.792 0 45.824-19 48.669-43.589M417.7 198.334c0 .711-.305 1.524-.61 2.134-4.877 10.77-13.92 25.198-21.54 25.198s-14.733-7.519-14.733-21.236c0-20.829 8.433-43.894 26.621-43.894 5.457 0 11.481 2.439 14.53 3.455z"/><linearGradient id="f" x1="176.133" x2="333.316" y1="412.068" y2="254.885" gradientTransform="matrix(1 0 0 -1 0 374.017)" gradientUnits="userSpaceOnUse"><stop offset="0" style="stop-color:#ccc"/><stop offset="1" style="stop-color:#a6a6a6"/></linearGradient><path fill="url(#f)" d="m408.962 42.166 2.947-1.626H97.541l1.727 1.626z"/><linearGradient id="g" x1="104.763" x2="91.857" y1="250.57" y2="332.582" gradientTransform="matrix(1 0 0 -1 0 374.017)" gradientUnits="userSpaceOnUse"><stop offset="0" style="stop-color:#ccc"/><stop offset="1" style="stop-color:#a6a6a6"/></linearGradient><path fill="url(#g)" d="m97.541 40.541.102 84.028 1.626-1.626V42.166z"/><linearGradient id="h" x1="-3.074" x2="35.333" y1="198.011" y2="159.605" gradientTransform="matrix(1 0 0 -1 0 374.017)" gradientUnits="userSpaceOnUse"><stop offset="0" style="stop-color:#d9d9d9"/><stop offset=".6" style="stop-color:#8c8c8c"/></linearGradient><path fill="url(#h)" d="m13.31 159.723 5.792 6.909L19 230.746l-5.995-7.214z"/><defs><path id="i" d="m120.098 179.13-4.166-7.112s-11.989 21.642-20.727 35.867l4.166 7.011 20.727-35.867z"/></defs><clipPath id="j"><use xlink:href="#i" overflow="visible"/></clipPath><g clip-path="url(#j)"><path fill="#828383" d="m116.033 172.018 6.706 8.128z"/><path fill="#888" d="m116.033 172.018 6.706 8.128z"/><path fill="#8D8D8D" d="m115.932 172.119 6.706 8.128z"/><linearGradient id="k" x1="101.504" x2="116.44" y1="187.47" y2="172.432" gradientTransform="matrix(1 0 0 -1 0 374.017)" gradientUnits="userSpaceOnUse"><stop offset="0" style="stop-color:#d9d9d9"/><stop offset=".6" style="stop-color:#8c8c8c"/></linearGradient><path fill="url(#k)" d="m115.932 172.119 6.706 8.128c-.914 1.422-12.294 22.048-20.626 35.765l-6.706-8.027c8.331-13.716 19.711-34.341 20.626-35.866"/></g><linearGradient id="l" x1="66.704" x2="78.49" y1="147.793" y2="136.108" gradientTransform="matrix(1 0 0 -1 0 374.017)" gradientUnits="userSpaceOnUse"><stop offset="0" style="stop-color:#d9d9d9"/><stop offset=".6" style="stop-color:#8c8c8c"/></linearGradient><path fill="url(#l)" d="m69.498 223.431 6.198 6.909v10.364l-6.706-8.128z"/><linearGradient id="m" x1="42.476" x2="43.695" y1="142.662" y2="129.555" gradientTransform="matrix(1 0 0 -1 0 374.017)" gradientUnits="userSpaceOnUse"><stop offset="0" style="stop-color:#8c8c8c"/><stop offset=".8" style="stop-color:#d9d9d9"/></linearGradient><path fill="url(#m)" d="m81.183 234.912 4.979 5.792H4.877L0 235.013z"/><linearGradient id="o" x1="118.472" x2="119.386" y1="157.191" y2="146.624" gradientTransform="matrix(1 0 0 -1 0 374.017)" gradientUnits="userSpaceOnUse"><stop offset="0" style="stop-color:#8c8c8c"/><stop offset=".8" style="stop-color:#d9d9d9"/></linearGradient><path fill="url(#o)" d="m142.248 219.264 4.979 5.69H95.001l-4.369-5.69z"/><linearGradient id="p" x1="17.672" x2="122.137" y1="228.506" y2="104.124" gradientTransform="matrix(1 0 0 -1 0 374.017)" gradientUnits="userSpaceOnUse"><stop offset=".2" style="stop-color:#fcfcfc"/><stop offset="1" style="stop-color:#f2f2f2"/></linearGradient><path fill="url(#p)" d="m122.333 159.927 41.455 74.985h-13.31c-.203-.305-3.556-6.808-8.332-15.647H90.53c-5.385 8.84-9.246 15.342-9.449 15.647H.203l.305-74.985h12.599v63.707h56.188v9.246l41.76-72.851h11.278zm-27.027 48.059h40.947c-7.62-14.326-20.219-35.867-20.219-35.867s-11.99 21.642-20.728 35.867"/><linearGradient id="q" x1="159.52" x2="160.13" y1="139.715" y2="132.501" gradientTransform="matrix(1 0 0 -1 0 374.017)" gradientUnits="userSpaceOnUse"><stop offset="0" style="stop-color:#8c8c8c"/><stop offset=".8" style="stop-color:#d9d9d9"/></linearGradient><path fill="url(#q)" d="m164.093 235.013 5.08 5.69h-13.615l-5.08-5.588z"/><linearGradient id="r" x1="113.98" x2="177.816" y1="205.534" y2="141.8" gradientTransform="matrix(1 0 0 -1 0 374.017)" gradientUnits="userSpaceOnUse"><stop offset="0" style="stop-color:#d9d9d9"/><stop offset=".6" style="stop-color:#8c8c8c"/></linearGradient><path fill="url(#r)" d="m122.452 159.826 6.586 8.128 40.134 72.749-5.041-5.487z"/><linearGradient id="s" x1="84.104" x2="92.639" y1="148.225" y2="139.791" gradientTransform="matrix(1 0 0 -1 0 374.017)" gradientUnits="userSpaceOnUse"><stop offset="0" style="stop-color:#d9d9d9"/><stop offset=".6" style="stop-color:#8c8c8c"/></linearGradient><path fill="url(#s)" d="m86.161 240.703 8.84-15.749-4.369-5.69s-9.246 15.342-9.449 15.647l4.877 5.792"/><path fill="#BFBFBF" d="M.306 159.723 0 235.115h81.257l.333-.552 9.055-14.995h51.38c2.357 4.365 4.374 8.175 5.82 10.917l1.736 3.292c.209.395.375.71.496.935s.184.343.23.413l.06.091h13.764l-41.68-75.39h-11.516l-41.438 72.291v-8.686H13.31v-63.708zm.404.407h12.193v63.708h56.189v9.805l42.081-73.412h11.04l41.232 74.579h-12.848c-.031-.054-.069-.12-.161-.29-.12-.223-.285-.538-.494-.933l-1.734-3.292a1274 1274 0 0 0-5.882-11.026l-.058-.107H90.415l-9.387 15.546H.407zm115.325 11.478-.177.308-.222.387-20.682 35.786H136.6zm-.004.821 19.875 35.252h-40.19z"/><path fill="none" d="M168.665 124.568h98.964v-.102z"/><linearGradient id="t" x1="182.083" x2="184.42" y1="256.872" y2="230.353" gradientTransform="matrix(1 0 0 -1 0 374.017)" gradientUnits="userSpaceOnUse"><stop offset="0" style="stop-color:#8c8c8c"/><stop offset=".8" style="stop-color:#d9d9d9"/></linearGradient><path fill="url(#t)" d="M168.665 124.568H97.846l9.754 10.872h153.627l6.401-10.872z"/><linearGradient id="u" x1="158.693" x2="357.941" y1="384.79" y2="147.338" gradientTransform="matrix(1 0 0 -1 0 374.017)" gradientUnits="userSpaceOnUse"><stop offset=".5" style="stop-color:#fff"/><stop offset="1" style="stop-color:#d9d9d9"/></linearGradient><path fill="url(#u)" d="m263.158 135.44-78.541 135.135 69.904 40.134 65.434-113.798 3.048-15.749c3.963-17.578 10.059-34.647 22.252-44.605l16.968-13.005 46.84-81.386 2.845-1.626H97.541v83.824h.305l1.422-1.422h171.205c0-.102-1.422 2.337-1.422 2.337"/><linearGradient id="v" x1="268.45" x2="270.686" y1="264.386" y2="237.867" gradientTransform="matrix(1 0 0 -1 0 374.017)" gradientUnits="userSpaceOnUse"><stop offset="0" style="stop-color:#8c8c8c"/><stop offset=".8" style="stop-color:#d9d9d9"/></linearGradient><path fill="url(#v)" d="m278.094 135.44-9.043-10.059-5.893 10.059z"/><linearGradient id="w" x1="152.387" x2="351.636" y1="379.487" y2="142.035" gradientTransform="matrix(1 0 0 -1 0 374.017)" gradientUnits="userSpaceOnUse"><stop offset=".5" style="stop-color:#fff"/><stop offset="1" style="stop-color:#d9d9d9"/></linearGradient><path fill="url(#w)" d="m278.094 135.44-9.043-10.059-5.893 10.059z"/><linearGradient id="x" x1="409.109" x2="436.949" y1="330.668" y2="302.929" gradientTransform="matrix(1 0 0 -1 0 374.017)" gradientUnits="userSpaceOnUse"><stop offset="0" style="stop-color:#d9d9d9"/><stop offset=".6" style="stop-color:#8c8c8c"/></linearGradient><path fill="url(#x)" d="m416.988 56.797-5.08-16.257"/><linearGradient id="y" x1="245.123" x2="264.428" y1="68.744" y2="49.439" gradientTransform="matrix(1 0 0 -1 0 374.017)" gradientUnits="userSpaceOnUse"><stop offset="0" style="stop-color:#d9d9d9"/><stop offset=".6" style="stop-color:#8c8c8c"/></linearGradient><path fill="url(#y)" d="m255.131 312.945 8.128 12.802"/><linearGradient id="z" x1="220.179" x2="225.462" y1="106.185" y2="44.917" gradientTransform="matrix(1 0 0 -1 0 374.017)" gradientUnits="userSpaceOnUse"><stop offset="0" style="stop-color:#d9d9d9"/><stop offset=".1" style="stop-color:#b4b4b4"/><stop offset=".3" style="stop-color:#828282"/><stop offset=".4" style="stop-color:#5e5e5e"/><stop offset=".6" style="stop-color:#484848"/><stop offset=".6" style="stop-color:#404040"/></linearGradient><path fill="url(#z)" d="m182.382 271.185 10.973 15.749 69.904 38.813-8.128-12.802z"/><path fill="#FFF" d="m183.093 271.185.203-.203-.914.203 72.749 41.76z"/><path fill="#FFF" d="m254.521 310.709-69.904-40.134-1.321.406-.203.203 72.038 41.76 59.541-103.333c.305-1.727 0-3.048 0-3.048l-1.118 1.48zM364.412 119.749c1.118-.914 3.196-3.106 4.314-3.919l43.182-75.29-2.845 1.626z"/><linearGradient id="A" x1="254.217" x2="112.985" y1="216.326" y2="282.166" gradientTransform="matrix(1 0 0 -1 0 374.017)" gradientUnits="userSpaceOnUse"><stop offset="0" style="stop-color:#d9d9d9"/><stop offset=".5" style="stop-color:#fcfcfc"/><stop offset="1" style="stop-color:#b3b3b3"/></linearGradient><path fill="url(#A)" d="m168.665 124.568 98.964-.102.406-.203-170.087.102-.305.203z"/><linearGradient id="B" x1="132.998" x2="135.233" y1="252.497" y2="226.079" gradientTransform="matrix(1 0 0 -1 0 374.017)" gradientUnits="userSpaceOnUse"><stop offset="0" style="stop-color:#8c8c8c"/><stop offset=".8" style="stop-color:#d9d9d9"/></linearGradient><path fill="url(#B)" d="M97.846 124.568h70.819z"/><linearGradient id="C" x1="245.382" x2="104.049" y1="197.134" y2="263.076" gradientTransform="matrix(1 0 0 -1 0 374.017)" gradientUnits="userSpaceOnUse"><stop offset="0" style="stop-color:#d9d9d9"/><stop offset=".5" style="stop-color:#fcfcfc"/><stop offset="1" style="stop-color:#b3b3b3"/></linearGradient><path fill="url(#C)" d="M97.846 124.568h70.819z"/><linearGradient id="D" x1="107.512" x2="306.76" y1="341.819" y2="104.368" gradientTransform="matrix(1 0 0 -1 0 374.017)" gradientUnits="userSpaceOnUse"><stop offset=".5" style="stop-color:#fff"/><stop offset="1" style="stop-color:#d9d9d9"/></linearGradient><path fill="url(#D)" d="m270.473 122.841-171.205.102-1.321 1.422 170.087-.102z"/><linearGradient id="E" x1="254.742" x2="113.51" y1="217.483" y2="283.425" gradientTransform="matrix(1 0 0 -1 0 374.017)" gradientUnits="userSpaceOnUse"><stop offset="0" style="stop-color:#d9d9d9"/><stop offset=".5" style="stop-color:#fcfcfc"/><stop offset="1" style="stop-color:#b3b3b3"/></linearGradient><path fill="url(#E)" d="m270.473 122.841-171.205.102-1.321 1.422 170.087-.102z"/><linearGradient id="F" x1="201.886" x2="239.277" y1="226.18" y2="123.355" gradientTransform="matrix(1 0 0 -1 0 374.017)" gradientUnits="userSpaceOnUse"><stop offset="0" style="stop-color:#ccc"/><stop offset="1" style="stop-color:#a6a6a6"/></linearGradient><path fill="url(#F)" d="M261.735 135.44h-.508l-78.846 135.745.914-.203z"/><linearGradient id="G" x1="267.73" x2="305.121" y1="250.16" y2="147.336" gradientTransform="matrix(1 0 0 -1 0 374.017)" gradientUnits="userSpaceOnUse"><stop offset="0" style="stop-color:#ccc"/><stop offset="1" style="stop-color:#a6a6a6"/></linearGradient><path fill="url(#G)" d="m268.035 124.263-.406.203v.102h.406l.203-.305z"/><linearGradient id="H" x1="262.875" x2="265.212" y1="263.87" y2="237.452" gradientTransform="matrix(1 0 0 -1 0 374.017)" gradientUnits="userSpaceOnUse"><stop offset="0" style="stop-color:#8c8c8c"/><stop offset=".8" style="stop-color:#d9d9d9"/></linearGradient><path fill="url(#H)" d="M268.035 124.568h-.406l-6.401 10.872h.508z"/><linearGradient id="I" x1="263.028" x2="300.418" y1="248.423" y2="145.598" gradientTransform="matrix(1 0 0 -1 0 374.017)" gradientUnits="userSpaceOnUse"><stop offset="0" style="stop-color:#ccc"/><stop offset="1" style="stop-color:#a6a6a6"/></linearGradient><path fill="url(#I)" d="M268.035 124.568h-.406l-6.401 10.872h.508z"/><linearGradient id="J" x1="91.228" x2="290.476" y1="328.182" y2="90.629" gradientTransform="matrix(1 0 0 -1 0 374.017)" gradientUnits="userSpaceOnUse"><stop offset=".5" style="stop-color:#fff"/><stop offset="1" style="stop-color:#d9d9d9"/></linearGradient><path fill="url(#J)" d="M263.158 135.44h-1.422l-78.439 135.542 1.422-.406z"/><linearGradient id="K" x1="202.89" x2="240.382" y1="226.582" y2="123.757" gradientTransform="matrix(1 0 0 -1 0 374.017)" gradientUnits="userSpaceOnUse"><stop offset="0" style="stop-color:#ccc"/><stop offset="1" style="stop-color:#a6a6a6"/></linearGradient><path fill="url(#K)" d="M263.158 135.44h-1.422l-78.439 135.542 1.422-.406z"/><linearGradient id="L" x1="157.367" x2="356.615" y1="383.653" y2="146.201" gradientTransform="matrix(1 0 0 -1 0 374.017)" gradientUnits="userSpaceOnUse"><stop offset=".5" style="stop-color:#fff"/><stop offset="1" style="stop-color:#d9d9d9"/></linearGradient><path fill="url(#L)" d="m269.051 125.381 1.422-2.54-2.439 1.422h.203l-.203.305h.305z"/><linearGradient id="M" x1="269.128" x2="306.62" y1="250.659" y2="147.835" gradientTransform="matrix(1 0 0 -1 0 374.017)" gradientUnits="userSpaceOnUse"><stop offset="0" style="stop-color:#ccc"/><stop offset="1" style="stop-color:#a6a6a6"/></linearGradient><path fill="url(#M)" d="m269.051 125.381 1.422-2.54-2.439 1.422h.203l-.203.305h.305z"/><linearGradient id="N" x1="263.676" x2="265.911" y1="263.979" y2="237.46" gradientTransform="matrix(1 0 0 -1 0 374.017)" gradientUnits="userSpaceOnUse"><stop offset="0" style="stop-color:#8c8c8c"/><stop offset=".8" style="stop-color:#d9d9d9"/></linearGradient><path fill="url(#N)" d="m269.051 125.381-.711-.813h-.305l-6.3 10.872h1.422z"/><linearGradient id="O" x1="151.792" x2="351.04" y1="378.99" y2="141.538" gradientTransform="matrix(1 0 0 -1 0 374.017)" gradientUnits="userSpaceOnUse"><stop offset=".5" style="stop-color:#fff"/><stop offset="1" style="stop-color:#d9d9d9"/></linearGradient><path fill="url(#O)" d="m269.051 125.381-.711-.813h-.305l-6.3 10.872h1.422z"/><linearGradient id="P" x1="263.56" x2="301.052" y1="248.635" y2="145.81" gradientTransform="matrix(1 0 0 -1 0 374.017)" gradientUnits="userSpaceOnUse"><stop offset="0" style="stop-color:#ccc"/><stop offset="1" style="stop-color:#a6a6a6"/></linearGradient><path fill="url(#P)" d="m269.051 125.381-.711-.813h-.305l-6.3 10.872h1.422z"/><path fill="#FFF" d="M378.886 120.809c-.508 0-1.016.203-1.422.305-.305 0-.508.102-.813.203-.305 0-.508.102-.813.203-5.69 1.422-10.973 3.759-15.85 6.706-1.016.61-2.032 1.321-3.048 1.93-.406.305-.813.508-1.219.813-16.562 11.888-27.738 32.209-32.006 55.68l-.305 1.829c-.203 1.524-.508 2.947-.61 4.471l-9.246 15.444v-3.15c-.508-41.049 19.407-80.878 52.124-90.022.711-.203 1.524-.406 2.235-.61l.305-.508"/><linearGradient id="Q" x1="-91.877" x2="4929.562" y1="777.568" y2="-4243.871" gradientTransform="matrix(1 0 0 -1 0 374.017)" gradientUnits="userSpaceOnUse"><stop offset="0" style="stop-color:#d9d9d9"/><stop offset=".1" style="stop-color:#b4b4b4"/><stop offset=".3" style="stop-color:#828282"/><stop offset=".4" style="stop-color:#5e5e5e"/><stop offset=".6" style="stop-color:#484848"/><stop offset=".6" style="stop-color:#404040"/></linearGradient><path fill="url(#Q)" d="m379.801 122.028 37.188-65.231-5.08-16.257-42.877 74.68-.305.508-.813.203 11.786 6.096z"/><linearGradient id="R" x1="-237.071" x2="4784.367" y1="632.374" y2="-4389.064" gradientTransform="matrix(1 0 0 -1 0 374.017)" gradientUnits="userSpaceOnUse"><stop offset="0" style="stop-color:#d9d9d9"/><stop offset=".1" style="stop-color:#b4b4b4"/><stop offset=".3" style="stop-color:#828282"/><stop offset=".4" style="stop-color:#5e5e5e"/><stop offset=".6" style="stop-color:#484848"/><stop offset=".6" style="stop-color:#404040"/></linearGradient><path fill="url(#R)" d="m255.131 312.945 8.128 12.802 60.049-105.06-8.738-11.177z"/><linearGradient id="S" x1="355.33" x2="239.399" y1="243.791" y2="-67.833" gradientTransform="matrix(1 0 0 -1 0 374.017)" gradientUnits="userSpaceOnUse"><stop offset="0" style="stop-color:#d9d9d9"/><stop offset=".1" style="stop-color:#b4b4b4"/><stop offset=".3" style="stop-color:#828282"/><stop offset=".4" style="stop-color:#5e5e5e"/><stop offset=".6" style="stop-color:#484848"/><stop offset=".6" style="stop-color:#404040"/></linearGradient><path fill="url(#S)" d="M323.003 216.724a89 89 0 0 1-.305-7.519c0-5.08.305-10.161.914-15.038.203-1.524.406-2.947.61-4.471 0-.61.203-1.219.305-1.829 4.267-23.471 15.546-43.792 32.006-55.68.406-.305.813-.508 1.219-.813 1.016-.711 2.032-1.321 3.048-1.93q7.316-4.42 15.85-6.706s1.105-.323 3.048-.711l-11.786-6.096c-.508.102-1.016.203-1.524.406-32.819 9.246-52.327 48.974-51.819 90.022v3.15l8.738 11.177c-.172-1.666-.199-2.201-.304-3.962"/><linearGradient id="T" x1="169.154" x2="299.92" y1="393.558" y2="237.696" gradientTransform="matrix(1 0 0 -1 0 374.017)" gradientUnits="userSpaceOnUse"><stop offset="0" style="stop-color:#ccc"/><stop offset="1" style="stop-color:#a6a6a6"/></linearGradient><path fill="url(#T)" d="M99.268 122.942V42.166h309.693l2.947-1.626H97.541v83.824z"/></svg>