<svg xmlns="http://www.w3.org/2000/svg" width="432" height="269" fill="none" viewBox="0 0 432 269"><g clip-path="url(#a)"><path fill="#fff" d="m303.27 268.2-.02-47.65 28.73.01.93 13.11-16.11-.01.02 6.24 13.13-.02.02 13.04h-13.22l.01 15.28z"/><path fill="#fff" d="M354.84 221.2c-12.59 0-22.73 10.45-22.71 23.3a22.76 22.76 0 1 0 45.52-.12c0-12.85-10.28-23.24-22.81-23.18m.14 36.62a3.89 3.89 0 0 1-2.755-1.153 3.892 3.892 0 0 1-1.125-2.767v-19a4.09 4.09 0 0 1 3.86-4.13 4.203 4.203 0 0 1 4 4.12v19.09a3.997 3.997 0 0 1-4 3.88z"/><path fill="#fff" d="m413.43 268.22-14.44-24.93 13.03-22.75-14.77.01-5.59 10.22-5.54-10.23h-15.26l13.4 22.83-14.03 24.86H385l6.57-12.17 6.66 12.16z"/><path fill="#a80000" d="M430.92 268.23h-9.89l-14.51-24.95 13.06-22.74h11.34zM295.93 220.56H.02v47.67h295.91zM.05 84.13h38.31l44.25 69.72V84.13h37.57v127.53H81.52l-44.08-69.55v69.55H.05zM431.05 84.31l-34.69 127.53h-39.37l-17.34-75.87-17.29 75.87h-39.2L247.7 84.31h38.66l17.16 71.53 16.08-71.53h40.1l15.71 71.89 17.16-71.89zM191.36 80.9c-36.93 0-66.82 30.51-66.82 68.15s29.89 68.15 66.82 68.15 66.75-30.51 66.75-68.14S228.2 80.9 191.36 80.9m11.82 96.12a11.511 11.511 0 0 1-23-.16v-55.82c0-6.4 5.14-12.11 11.39-12.11s11.66 5.71 11.66 12.11z"/><path fill="#0e1b4f" d="M0 0v75.06l430.93-.16V0zm37.59 66.5H8.46V8.42h12.18v47.55h17zm16.94 0H42.36V8.42h12.17zm38.42 0H80.53l-22-58.08h12.92l15.3 43.52 15.3-43.52h12.75zm63-48h-25v13.53h24.76v10h-24.75v14.39h25V66.5h-37.18V8.42h37.18z"/><path fill="#fff" d="M37.59 66.5H8.46V8.42h12.18v47.55h17zM54.53 66.5H42.36V8.42h12.17zM92.95 66.5H80.53l-22-58.08h12.92l15.3 43.52 15.3-43.52h12.75zM155.95 18.5h-25v13.53h24.76v10h-24.75v14.39h25V66.5h-37.18V8.42h37.18z"/></g><defs><clipPath id="a"><path fill="#fff" d="M0 0h431.04v268.23H0z"/></clipPath></defs></svg>