<svg xmlns="http://www.w3.org/2000/svg" width="408" height="465" fill="none" viewBox="0 0 408 465"><path fill="#fff" fill-rule="evenodd" d="M183.591 0 .267 111.275 0 328.235l39.967-24.651V130.561l32.19-19.688.186 173.022 39.099-24.027V86.845l32.193-19.657v173.119l39.965-24.459zM20.4 356.05l186.989 108.935V465l.012-.006.009.006.003-.015L394.4 356.05 207.401 246.176zm187.001-68.2.01.008.003.008 109.972 64.622-109.979 64.073-.012.006-109.98-64.079 109.972-64.616v-.014zM224.4 0l.112 42.949 141.189 86.636v43.984L224.512 87.182l-.105 128.706L408 328.235v-44.633l-141.45-86.883.256-42.287 141.122 86.016.072-129.231z" clip-rule="evenodd"/></svg>