<svg width="408" height="465" viewBox="0 0 408 465" fill="none" xmlns="http://www.w3.org/2000/svg">
<path fill-rule="evenodd" clip-rule="evenodd" d="M183.591 0L0.26714 111.275L0 328.235L39.9666 303.584V130.561L72.1577 110.873L72.3428 283.895L111.442 259.868V86.845L143.635 67.1884V240.307L183.6 215.848L183.591 0Z" fill="white"/>
<path fill-rule="evenodd" clip-rule="evenodd" d="M20.4 356.05L207.389 464.985V465L207.401 464.994L207.41 465L207.413 464.985L394.4 356.05L207.401 246.176L20.4 356.05ZM207.401 287.85L207.411 287.858L207.414 287.866L317.386 352.488L207.407 416.561L207.395 416.567L97.4143 352.488L207.387 287.872V287.858L207.401 287.85Z" fill="white"/>
<path fill-rule="evenodd" clip-rule="evenodd" d="M224.4 0L224.512 42.9487L365.701 129.585V173.569L224.512 87.1822L224.407 215.888L408 328.235V283.602L266.55 196.719L266.806 154.432L407.928 240.448L408 111.217L224.4 0Z" fill="white"/>
</svg>
