<svg xmlns="http://www.w3.org/2000/svg" xml:space="preserve" id="Livello_1" x="0" y="0" version="1.1" viewBox="0 0 4667.8 2035.7"><style>.st0{fill:#fff}</style><path d="M424.1 5.3h-74.6L238 258.9 184.6 5.3h-77.1L0 408.4h70.7l74.6-280.2h1l58.2 280.2H238l122.6-272.5h1l10.2 272.5h67.9zm315 0H532.7l-46.5 403.1H728l7.7-67.4H564.2l12.1-105.8H696l7.8-67.4H584l11.2-95.2h136.2zm75.2 0-46 403.1h170.6c88.2 0 156-86.9 156-206.9 0-87.5-38.8-196.2-170.6-196.2zm62.5 67.4h34c72.7 0 111.5 56.8 111.5 127.7 0 69.7-32 140.7-110 140.7h-66zm373.7-67.4h-70.3l-46.5 403.1h70.3zM1481.7 0H1407l-161.9 408.4h77.6l32-88h102.7l10.2 88h72.2zm-48.5 84.5h1l17.4 178.5H1375zm374.7-52.6C1779.3 11.2 1745.4 0 1713.4 0c-66.9 0-116.3 52-116.3 121.8 0 105.8 121.6 113.5 121.6 180.3 0 26.6-18.9 44.3-47.5 44.3-27.6 0-66.9-17.8-93.5-41.4l-10.7 70.3c29.6 23.7 64.5 38.5 112.5 38.5 74.1 0 112-58.5 112-123.6 0-112.9-121.7-120.6-121.7-178.5 0-26.6 20.8-44.3 46.5-44.3 25.2 0 60.6 16.5 81.9 35.5zm279.2-26.6h-206.5l-46.5 403.1H2076l7.7-67.4h-171.6l12.1-105.8H2044l7.7-67.4H1932l11.1-95.2h136.2zm332 0h-282.6l-7.8 67.4h104.7l-38.8 335.8h70.2l38.8-335.8h107.6zM1788.6 516.5l73.4 165h-467.7l-27.5 220.1h293.4l-27.5 165.1h-293.4l-36.7 247.5h476.8l-110 165.1h-596l137.5-962.8z" class="st0"/><linearGradient id="SVGID_1_" x1="1877.896" x2="3142.778" y1="1613.85" y2="257.43" gradientUnits="userSpaceOnUse"><stop offset=".239" style="stop-color:#e85395"/><stop offset=".535" style="stop-color:#1ea8de"/></linearGradient><path d="m2109.5 1240.9-146.7 238.4h-229.2l284.3-449.3zm541 678.5h-201.7L1843.6 516.5h210.9l110 275.1 486-779.4h229.2l-623.5 990.3z" style="fill:url(#SVGID_1_)"/><path d="m2962.3 681.5-110 797.8h-210.9l119.2-797.8h-238.4l100.8-165h623.5l-27.5 165zM3937.2 877.7c47.8-177-74.2-346-263-358.6-117-7.8-382.4-3.6-382.4-3.6l-135.1 963.8h200.9s45.1-320.2 56.1-391c41.2-1.9 111.4-2.9 142.3 15.1 25.3 14.7 45.4 55.7 65.9 96.9 45.6 91.5 137.3 279 137.3 279h44.8l84.5-200.6s-100-201-144.8-221.4c95.5-27.1 167-81.7 193.5-179.6M3736.7 820c-7.7 90.4-95 111.6-175.3 118.3-22.5 1.9-124.7 1.6-124.7 1.6l36.5-262.7h2c41.9-.8 83.9-1.1 125.7 2.6 51.5 4.6 146.6 12.9 135.8 140.2M4456.9 1479.3l-27.5-201.7h-302.6l-82.5 201.7h-183.4l421.8-962.8h220.1l165 962.8zM4356 718.2 4191 1140h220.1z" class="st0"/><linearGradient id="SVGID_2_" x1="1425.412" x2="1425.412" y1="1498.551" y2="2035.716" gradientUnits="userSpaceOnUse"><stop offset="0" style="stop-color:#707e86;stop-opacity:0"/><stop offset=".075" style="stop-color:#707e86;stop-opacity:2.857704e-02"/><stop offset=".526" style="stop-color:#707e86;stop-opacity:.2"/><stop offset="1" style="stop-color:#707e86;stop-opacity:0"/></linearGradient><path d="m1338.3 1911.2-36.7-247.6h476.8l-110-165h-596l76.7 537.1h503.4l-20.8-124.5z" style="fill:url(#SVGID_2_)"/><linearGradient id="SVGID_3_" x1="2517.383" x2="2517.383" y1="1938.684" y2="2035.716" gradientUnits="userSpaceOnUse"><stop offset="0" style="stop-color:#707e86;stop-opacity:0"/><stop offset=".709" style="stop-color:#707e86;stop-opacity:.2"/><stop offset=".961" style="stop-color:#707e86;stop-opacity:2.669311e-02"/><stop offset="1" style="stop-color:#707e86;stop-opacity:0"/></linearGradient><path d="m2447.8 1938.7-62.6 97h204.3l60-97z" style="fill:url(#SVGID_3_)"/><linearGradient id="SVGID_4_" x1="1968.692" x2="1968.692" y1="1498.551" y2="2035.716" gradientUnits="userSpaceOnUse"><stop offset="0" style="stop-color:#707e86;stop-opacity:0"/><stop offset=".075" style="stop-color:#707e86;stop-opacity:2.857704e-02"/><stop offset=".526" style="stop-color:#707e86;stop-opacity:.2"/><stop offset="1" style="stop-color:#707e86;stop-opacity:0"/></linearGradient><path d="m1732.6 1498.6 244.8 537.1h227.4l-243-537.1z" style="fill:url(#SVGID_4_)"/><linearGradient id="SVGID_5_" x1="2782.857" x2="2782.857" y1="1498.551" y2="2035.716" gradientUnits="userSpaceOnUse"><stop offset="0" style="stop-color:#707e86;stop-opacity:0"/><stop offset=".075" style="stop-color:#707e86;stop-opacity:2.857704e-02"/><stop offset=".526" style="stop-color:#707e86;stop-opacity:.2"/><stop offset="1" style="stop-color:#707e86;stop-opacity:0"/></linearGradient><path d="m2640.4 1498.6 80.2 537.1h204.8l-74.1-537.1z" style="fill:url(#SVGID_5_)"/><linearGradient id="SVGID_6_" x1="3532.229" x2="3532.229" y1="1498.642" y2="2035.716" gradientUnits="userSpaceOnUse"><stop offset="0" style="stop-color:#707e86;stop-opacity:0"/><stop offset=".075" style="stop-color:#707e86;stop-opacity:2.857704e-02"/><stop offset=".526" style="stop-color:#707e86;stop-opacity:.2"/><stop offset="1" style="stop-color:#707e86;stop-opacity:0"/></linearGradient><path d="M3742.6 1920.7c44.8-20.4 144.8-221.4 144.8-221.4l-84.5-200.6h-44.8s-91.7 187.5-137.3 279c-20.5 41.1-40.6 82.1-65.9 96.9-30.9 18-101.1 17-142.3 15.1-11-70.8-56.1-391-56.1-391h-200.9l75.3 537.1h678c-35.7-58.7-94.2-94.8-166.3-115.1" style="fill:url(#SVGID_6_)"/><linearGradient id="SVGID_7_" x1="4263.355" x2="4263.355" y1="1498.551" y2="2035.716" gradientUnits="userSpaceOnUse"><stop offset="0" style="stop-color:#707e86;stop-opacity:0"/><stop offset=".075" style="stop-color:#707e86;stop-opacity:2.857704e-02"/><stop offset=".526" style="stop-color:#707e86;stop-opacity:.2"/><stop offset="1" style="stop-color:#707e86;stop-opacity:0"/></linearGradient><path d="m4455.9 1498.6-27.5 201.7h-302.6l-82.5-201.7h-183.4l235.3 537.1h172.2l-77.4-197.9h220.1l-25.8 197.9h190.4l92.1-537.1z" style="fill:url(#SVGID_7_)"/></svg>