<?xml version="1.0" standalone="no"?>
<!DOCTYPE svg PUBLIC "-//W3C//DTD SVG 20010904//EN"
 "http://www.w3.org/TR/2001/REC-SVG-20010904/DTD/svg10.dtd">
<svg version="1.0" xmlns="http://www.w3.org/2000/svg"
 width="1200.000000pt" height="1200.000000pt" viewBox="0 0 1200.000000 1200.000000"
 preserveAspectRatio="xMidYMid meet">

<g transform="translate(0.000000,1200.000000) scale(0.100000,-0.100000)"
fill="#000000" stroke="none">
<path d="M1175 11704 c-152 -18 -267 -52 -382 -114 -256 -138 -425 -372 -485
-670 -19 -96 -19 -9744 0 -9840 69 -346 303 -621 622 -732 157 -55 65 -52
1650 -55 l1465 -3 -30 22 c-57 41 -105 101 -127 157 -29 76 -29 235 1 479 12
101 26 247 30 325 l8 142 -33 39 c-50 59 -59 94 -39 161 15 55 15 56 -14 145
-33 97 -90 216 -183 380 -104 182 -121 252 -74 306 23 28 23 28 6 79 -9 27
-36 96 -60 152 -39 95 -45 104 -89 129 -87 51 -276 183 -386 270 -144 114
-243 203 -450 404 -94 91 -220 210 -279 265 -60 54 -125 124 -144 155 -19 30
-147 211 -283 401 -280 391 -472 674 -542 801 l-48 86 -82 12 c-175 24 -154
14 -177 91 -34 115 -96 253 -225 504 -137 267 -184 380 -222 523 -22 88 -24
110 -20 242 6 159 21 260 68 452 30 123 32 128 94 206 35 43 76 87 90 96 22
15 25 23 25 81 l0 65 -140 0 c-230 0 -276 19 -299 127 -7 32 -26 92 -42 133
-42 105 -47 160 -21 202 11 18 41 94 65 168 56 170 133 348 302 704 77 162
153 337 178 413 80 238 267 554 411 698 130 129 217 163 486 191 116 12 160
21 175 34 15 13 46 19 130 23 201 11 270 48 299 161 15 58 46 275 46 322 0 13
-8 24 -20 27 -43 11 -87 185 -70 276 11 59 34 81 85 81 l42 0 6 118 c17 307
78 427 268 527 l84 44 -820 -1 c-451 0 -833 -3 -850 -4z m159 -9757 c66 -362
122 -654 124 -648 2 5 -4 119 -13 253 -9 134 -19 426 -22 651 l-6 407 102 0
101 0 0 -865 0 -865 -144 0 c-129 0 -145 2 -150 18 -3 9 -60 310 -127 667 -66
358 -123 652 -126 655 -3 3 -3 -9 0 -26 10 -52 29 -864 25 -1094 l-3 -215
-100 0 -100 0 -3 863 -2 862 162 -2 162 -3 120 -658z m916 637 c131 -60 170
-163 170 -444 0 -232 -17 -308 -83 -377 l-30 -32 33 -37 c69 -79 75 -105 75
-339 0 -170 -3 -221 -17 -265 -26 -84 -68 -134 -145 -172 l-66 -32 -206 -1
-206 0 -3 863 -2 864 217 -4 c194 -3 223 -6 263 -24z m882 -804 c53 -454 97
-842 97 -862 l1 -38 -115 0 c-87 0 -117 3 -121 13 -3 8 -10 87 -17 178 l-12
164 -101 3 -102 3 -6 -53 c-3 -29 -8 -100 -11 -158 -9 -165 4 -150 -130 -150
-85 0 -115 3 -115 13 0 20 201 1691 206 1705 3 10 41 12 166 10 l163 -3 97
-825z"/>
<path d="M2010 2111 l0 -291 49 0 c26 0 62 5 79 11 48 17 54 51 50 301 -3 209
-4 218 -25 240 -18 17 -37 23 -88 26 l-65 4 0 -291z"/>
<path d="M2010 1370 l0 -273 67 6 c54 5 72 12 93 32 24 25 25 29 29 196 5 279
-2 298 -117 307 l-72 5 0 -273z"/>
<path d="M2850 2404 c0 -8 -48 -647 -66 -886 l-7 -88 87 0 87 0 -6 48 c-3 26
-14 155 -25 287 -24 283 -60 638 -66 644 -2 2 -4 0 -4 -5z"/>
<path d="M3232 11674 c43 -23 93 -63 136 -108 38 -39 85 -80 103 -91 21 -13
44 -41 63 -79 60 -116 45 -314 -36 -484 l-33 -70 22 -27 c42 -48 33 -79 -69
-235 -56 -86 -77 -110 -91 -106 -14 3 -25 -11 -54 -67 -73 -147 -157 -258
-209 -277 -27 -10 -44 -62 -34 -100 5 -19 28 -37 96 -73 141 -75 224 -135 224
-162 0 -19 29 -43 158 -128 86 -57 180 -125 209 -151 221 -199 333 -551 333
-1054 0 -88 5 -152 15 -185 8 -29 33 -155 55 -282 23 -126 46 -248 51 -270 6
-22 47 -119 91 -215 109 -238 154 -375 178 -546 20 -151 35 -225 51 -265 8
-21 20 -28 73 -38 76 -15 120 -40 138 -78 7 -16 37 -42 68 -60 81 -46 99 -64
115 -108 7 -22 34 -76 60 -120 78 -137 112 -287 101 -448 -6 -92 -36 -232 -65
-302 -20 -49 -80 -143 -129 -202 -121 -145 -346 -258 -558 -283 -75 -8 -95 -7
-177 14 -479 122 -756 620 -605 1086 72 223 223 399 435 506 l62 31 -53 119
c-30 66 -111 236 -180 379 -72 148 -138 297 -152 345 -29 99 -118 536 -167
822 -19 109 -40 205 -47 213 -30 36 -132 -25 -260 -154 l-85 -86 -142 -361
c-117 -295 -143 -370 -143 -411 0 -47 2 -52 30 -63 40 -17 107 -91 132 -147
23 -53 113 -351 228 -761 l83 -293 -28 -29 c-20 -20 -26 -35 -22 -52 3 -13 30
-121 61 -240 66 -261 107 -499 141 -828 14 -135 33 -278 41 -318 20 -97 67
-205 176 -399 204 -367 244 -500 343 -1138 25 -165 51 -317 56 -338 6 -22 34
-71 63 -110 117 -160 176 -281 176 -365 0 -26 -16 -112 -36 -192 -47 -194 -54
-311 -26 -445 12 -55 26 -134 32 -175 16 -103 28 -140 58 -173 30 -31 34 -82
12 -134 -13 -30 -11 -42 38 -190 66 -203 91 -307 98 -413 13 -186 -52 -320
-211 -437 l-30 -23 3355 3 3355 2 85 23 c180 50 370 164 483 293 107 120 190
287 221 444 15 73 16 520 14 4970 l-3 4890 -23 74 c-51 165 -123 290 -237 410
-134 141 -282 224 -495 279 -60 15 -371 16 -3925 19 l-3860 3 67 -36z m4438
-2659 l0 -435 -360 0 -360 0 0 -3010 0 -3010 -470 0 -470 0 0 3010 0 3010
-352 2 -353 3 -3 433 -2 432 1185 0 1185 0 0 -435z m1224 403 c5 -25 222
-3301 316 -4763 32 -500 58 -907 59 -903 4 23 174 2807 251 4108 50 844 93
1545 96 1558 l4 22 475 0 c365 0 475 -3 475 -12 0 -14 -727 -6758 -736 -6831
l-6 -47 -604 0 c-377 0 -604 4 -604 10 0 5 -162 1545 -360 3423 -198 1877
-360 3423 -360 3435 l0 22 495 0 495 0 4 -22z"/>
</g>
</svg>
