<svg xmlns="http://www.w3.org/2000/svg" xml:space="preserve" id="Layer_1" x="0" y="0" version="1.1" viewBox="0 0 768.5 206.5"><style>.st0{fill:#28c8b4}</style><path id="rect4321" d="M0 5v198h43V77.4L139.4 203H176V5h-43v121L40.1 5z" class="st0"/><path id="rect4330" d="M617.5 5v198h151v-38.5h-108v-42H754V84h-93.5V43.5h106V5z" class="st0"/><path id="rect4339" d="m405 5 80 199h38.5l80-199h-47.1l-51.5 138.7L453.4 5z" class="st0"/><path id="path4353" d="M304.9 0c-57.6 0-104.4 46.7-104.4 104.3 0 49.4 34.7 92.1 83.1 102.2l18.7-35.8c-35.7-1.4-63.9-30.6-63.9-66.3 0-36.7 29.7-66.4 66.4-66.4s66.4 29.7 66.4 66.4c0 10.7-2.6 21.2-7.6 30.7l-37.2 71.2c48.2-10.2 82.6-52.7 82.7-101.9C409.2 46.7 362.5 0 304.9 0m0 75.9c-15.7 0-28.5 12.7-28.5 28.5 0 15.7 12.7 28.5 28.5 28.5 15.7 0 28.5-12.7 28.5-28.5-.1-15.8-12.8-28.5-28.5-28.5" class="st0"/></svg>