<svg xmlns="http://www.w3.org/2000/svg" width="192.788" height="192.788" viewBox="0 0 37.167 37.167"><g style="stroke:none"><path d="M-1 403.52c-3.324 0-6 2.676-6 6v754c0 3.323 2.676 6 6 6h754c3.324 0 6-2.677 6-6v-754c0-3.324-2.676-6-6-6zm28 34h698v698H27Z" style="opacity:1;fill:#f67963;fill-opacity:1;fill-rule:evenodd;stroke:none;stroke-width:.25;stroke-linejoin:miter;stroke-miterlimit:4;stroke-dasharray:none" transform="translate(.34 -19.58)scale(.04852)"/><path d="M37.634 97.451c-10.433 0-19.287-8.633-19.287-19.287 0-9.822 7.801-19.217 19.36-19.217 10.222 0 19.15 8.241 19.15 19.263 0 7.707-4.597 12.397-4.597 12.397 1.505 1.641 3.075 3.145 5.94 3.145.28 0 .5.13.5.5v3.6c0 .344-.219.5-.5.5-4.627 0-7.411-2.54-9.932-5.599-1.256-1.3-3.01-2.748-4.422-3.069-.783-.18-.866-.606-.422-1.021.835-.87 1.934-1.31 3.318-1.31l1.83.323c1.565-1.793 3.607-5.008 3.607-9.454 0-7.826-6.224-14.58-14.548-14.58-7.925 0-14.615 6.393-14.615 14.587 0 7.132 5.775 14.557 14.904 14.557.595.005 1.65-.149 2.234-.149 1.853 0 3.125.91 4.41 2.66.287.345.362.755-.384.985-1.362.474-3.918 1.17-6.546 1.17" style="opacity:1;fill:#fff;fill-opacity:1;fill-rule:evenodd;stroke:none;stroke-width:.025;stroke-linejoin:miter;stroke-miterlimit:4;stroke-dasharray:none" transform="matrix(.48521 0 0 .48521 .34 -19.58)"/></g></svg>