<svg xmlns="http://www.w3.org/2000/svg" width="168.23" height="172.66" viewBox="0 0 168.23 172.66"><defs><clipPath id="a" clipPathUnits="userSpaceOnUse"><path d="M0 283.465h283.465V0H0Z"/></clipPath></defs><g clip-path="url(#a)" style="transform:matrix(1.333333,0,0,-1.333333,-104.115,283.95333)"><path d="m0 0-40.858 10.089-.019-.005-40.857 10.081c-8.836 2.183-17.754-3.21-19.932-12.04l-10.569-42.84-1.024-4.156c-1.271-5.116.889-8.235 1.481-9.213l33.557-54.884a14.15 14.15 0 0 1 8.101-5.464h.016a14.15 14.15 0 0 1 9.715 1.071l55.225 32.969c.981.598 4.339 2.348 5.604 7.466l1.027 4.153 10.567 42.844C14.213-11.104 8.824-2.178 0 0" style="fill:#1d1d1b;fill-opacity:1;fill-rule:nonzero;stroke:none" transform="translate(191.982 192.316)"/><path d="m0 0-40.448 9.985-40.455 9.974c-5.752 1.421-11.524-1.93-12.899-7.504l-11.625-47.207a5.33 5.33 0 0 1 .61-4.089l32.82-54.115c1.98-2.999 5.228-3.702 5.228-3.702s3.202-.887 6.353.848l54.238 32.634a5.42 5.42 0 0 1 2.449 3.333L7.924-12.646C9.301-7.073 5.749-1.418 0 0" style="fill:#fedc00;fill-opacity:1;fill-rule:nonzero;stroke:none" transform="translate(190.099 186.48)"/><path d="M0 0c.179.741.857.998 1.954.708C3.017.422 3.461-.165 3.298-.835c-.147-.585-.869-.952-2.127-.638C.369-1.275-.178-.736 0 0m5.068-7.773c.18.724-.759 2.187-.55 3.034.225.915.996.774 1.933 1.866.294.333.473.79.61 1.328.374 1.519-.269 3.615-4.002 4.537l-3.535.869c-1.478.366-2.337.132-2.728-1.451l-1.892-7.48c-.154-.629.4-1.381 1.526-1.658 1.06-.267 1.837.215 2.153 1.482.248 1.006.657 1.329 1.375 1.152.311-.079.667-.462.898-1.096l.659-1.725c.3-.811.865-1.304 1.848-1.545.934-.231 1.516-.076 1.705.687" style="fill:#1d1d1b;fill-opacity:1;fill-rule:nonzero;stroke:none" transform="translate(121.498 192.547)"/><path d="M0 0c.097.405.46.735.775.657.327-.079.545-.576.442-.981-.105-.427-.42-.562-.831-.463C.051-.703-.091-.361 0 0m3.99 3.524c-.167.791-.457 1.768-2.103 2.176-1.034.253-1.882-.063-2.512-.876l-4.998-6.647c-.104-.137-.205-.254-.314-.721-.17-.67.258-1.203 1.222-1.443.564-.14 1.15-.065 1.739.186.563.296.834.433.834.433.086.054.238.064.471.103.349.033.884-.002 1.639-.219 1.091-.288 1.256-.208 2.099-1.491.427-.666.929-.913 1.493-1.057 1.029-.248 2.075.228 1.922 1.053z" style="fill:#1d1d1b;fill-opacity:1;fill-rule:nonzero;stroke:none" transform="translate(134.925 186.796)"/><path d="M0 0c.444 1.813 1.015 2.07 2.381 1.735C3.335 1.5 4.658.349 4.14-1.753 3.825-3.029 2.599-4.201.677-3.724c-.834.205-1.37.905-1.093 2.047zm6.229 2.493C4.841 3.784 3.971 4.004-.21 5.029c-1.215.308-1.958-.109-2.226-1.2l-1.731-7c-.319-1.317.069-2.032 1.4-2.36l2.174-.535c4.484-1.109 7.182.107 8.057 3.63.49 1.991.128 3.645-1.235 4.929" style="fill:#1d1d1b;fill-opacity:1;fill-rule:nonzero;stroke:none" transform="translate(147.147 184.845)"/><path d="M0 0c.533 2.147.115 2.918-1.536 3.326-1.235.3-2.069-.467-2.38-1.739l-1.637-6.446c-.354-1.456-.371-2.639 1.416-3.078 1.366-.339 2.232.204 2.588 1.633z" style="fill:#1d1d1b;fill-opacity:1;fill-rule:nonzero;stroke:none" transform="translate(161.853 183.631)"/><path d="M0 0c.416 1.676 1.831 2.533 3.305 2.171 2.02-.497 2.433-2.261 2.084-3.689-.435-1.748-1.839-2.633-3.495-2.22C.375-3.366-.508-2.078 0 0m8.86-2.33c.795 3.2-1.416 6.308-4.693 7.114-2.024.502-3.771.186-5.179-.696-1.222-.736-2.081-2.022-2.479-3.652-.755-3.021 1.415-6.091 4.782-6.918 3.484-.86 6.735.758 7.569 4.152" style="fill:#1d1d1b;fill-opacity:1;fill-rule:nonzero;stroke:none" transform="translate(167.049 179.483)"/><path d="m0 0 8.349 1.754L.953-28.222l10.583-1.516 11.121 45.084-24.743-8.07Z" style="fill:#1d1d1b;fill-opacity:1;fill-rule:nonzero;stroke:none" transform="translate(96.05 165.11)"/><path d="M0 0c-13.161 3.246-19.458-9.311-21.869-19.049-2.411-9.777-2.667-23.82 10.488-27.065C1.99-49.412 8.286-36.856 10.695-27.083 13.097-17.343 13.366-3.302 0 0m-2.443-9.901c4.63-1.141 4.606-7.257 2.789-14.633-1.831-7.421-4.655-12.817-9.283-11.676-4.637 1.141-4.434 7.186-2.608 14.617 1.818 7.366 4.467 12.834 9.102 11.692" style="fill:#1d1d1b;fill-opacity:1;fill-rule:nonzero;stroke:none" transform="translate(139.232 175.393)"/><path d="M0 0c3.12-5.047 7.937-8.22 13.704-9.648 9.325-2.294 19.192 1.477 21.745 11.803 2.178 8.855-2.699 16.934-11.53 19.111-.757.193-1.572.249-2.481.424l.947 3.845 12.537-3.089 4.954 9.279-25.397 6.27-5.833-23.652c2.892.372 6.075.349 9.037-.379 3.934-.964 7.764-3.884 6.632-8.466-1.037-4.207-4.815-6.067-8.1-5.263-2.949.729-5.637 2.625-6.641 5.674Z" style="fill:#1d1d1b;fill-opacity:1;fill-rule:nonzero;stroke:none" transform="translate(145.728 131.133)"/><path d="m0 0-.779.188.174.694.776-.199C.556.593.872.515.792.203.7-.177.389-.104 0 0m1.433-.054c.196.803-.172 1.186-.904 1.369l-1.696.419-.874-3.506.731-.182.365 1.47.566-.144.412-1.66.849-.207-.467 1.67c.465-.055.872.17 1.018.771" style="fill:#1d1d1b;fill-opacity:1;fill-rule:nonzero;stroke:none" transform="translate(124.791 96.602)"/><path d="M0 0c-1.446.357-2.216 1.57-1.851 3.057.368 1.5 1.623 2.22 3.067 1.86 1.434-.354 2.239-1.581 1.872-3.074C2.722.354 1.442-.361 0 0m1.437 5.804c-1.862.456-3.695-.677-4.156-2.528-.457-1.859.644-3.718 2.503-4.174a3.45 3.45 0 0 1 4.181 2.527 3.444 3.444 0 0 1-2.528 4.175" style="fill:#1d1d1b;fill-opacity:1;fill-rule:nonzero;stroke:none" transform="translate(123.954 93.773)"/><path d="M0 0c-.182.256-.344.416-.752.519-.659.16-.963-.15-1.147-.881l-.775-3.143c-.232-.928-.308-1.447.415-1.624.289-.073.531.003.697.23.083.189.209.253.434 1.189.113.424.249.653.458.602.131-.032.313-.452.449-.872.141-.486.381-1.256.446-1.36.141-.276.381-.52.84-.636.556-.137.938.167 1.109.883l.777 3.13c.274 1.117.187 1.474-.43 1.618-.295.076-.522-.009-.696-.265-.235-.259-.389-1.049-.416-1.177-.103-.431-.313-.601-.446-.587-.162.06-.395.532-.588 1.309A8.5 8.5 0 0 1 0 0" style="fill:#1d1d1b;fill-opacity:1;fill-rule:nonzero;stroke:none" transform="translate(108.894 126.26)"/><path d="M0 0c.298-.071 1.466-.434 1.659.325.172.717-1.092.909-1.103.917-1.2.29-1.551.425-1.421.959.084.318.329.464 1.198.251.56-.137 1.296-.315 1.457.33.169.691-.635.89-1.283 1.049-.517.13-.756.278-.695.554.058.205.356.295.876.17.961-.237 1.612-.382 1.785.313.078.332-.23.703-.666.803l-2.565.636c-.518.124-.943-.173-1.067-.669l-.964-3.887C-3.026.778-2.542.625-1.4.345Z" style="fill:#1d1d1b;fill-opacity:1;fill-rule:nonzero;stroke:none" transform="translate(115.853 118.882)"/><path d="M0 0c-.174-.692.01-1.085.605-1.236.43-.11.849.051 1.039.816.196.778.505 2.053.691 2.769.113.476.314.63.945.624.42-.042.666.159.748.453.114.467-.136.764-.847.942l-2.349.575c-.659.169-1.037.024-1.146-.42-.081-.318.067-.564.453-.775.554-.326.657-.516.537-.996Z" style="fill:#1d1d1b;fill-opacity:1;fill-rule:nonzero;stroke:none" transform="translate(120.29 118.726)"/><path d="M0 0c.022.352-.133.791-.756.947-.464.112-.802-.102-.895-.493a3.2 3.2 0 0 1-.064-.766l.05-3.595c-.006-1.083.394-1.274.935-1.405.401-.1.911-.045 1.331.801.586 1.135.784 1.137.879 1.112.121-.023.168-.159.222-1.263.071-.803.064-1.273.933-1.479.968-.245 1.219.455 1.82 1.604 1.211 2.194 1.507 2.74 1.574 3.016.11.433-.065.792-.582.923-.432.101-.891-.099-1.117-.565-.544-1.025-.714-1.44-.935-1.383-.166.041-.208.275-.249 1.289-.024.911-.189 1.269-.794 1.418-.564.137-.901-.094-1.186-.57C.502-1.57.387-1.773.2-1.727.037-1.69.002-1.257 0 0" style="fill:#1d1d1b;fill-opacity:1;fill-rule:nonzero;stroke:none" transform="translate(127.577 121.417)"/><path d="M0 0c.216.904.886 1.377 1.601 1.204C2.537.973 2.716.047 2.528-.74 2.3-1.65 1.599-2.168.842-1.981.106-1.794-.277-1.112 0 0m4.161-1.122c.42 1.731-.577 3.351-2.117 3.728-.96.245-1.79.064-2.478-.435-.582-.42-1.02-1.122-1.234-1.991A2.966 2.966 0 0 1 .507-3.435c1.625-.407 3.205.51 3.654 2.313" style="fill:#1d1d1b;fill-opacity:1;fill-rule:nonzero;stroke:none" transform="translate(136.213 116.982)"/><path d="M0 0c.093.378.415.537.953.405.483-.14.699-.449.609-.814-.082-.309-.438-.51-1.039-.359C.16-.682-.1-.397 0 0m2.287-4.075c.1.401-.332 1.171-.223 1.627.12.484.497.422.945 1.017.14.183.249.41.318.706.201.825-.061 1.909-1.833 2.348l-1.65.405c-.697.171-1.108.067-1.328-.81l-1.014-4.01c-.074-.316.174-.732.696-.864.514-.127.892.158 1.058.831.137.554.32.725.656.646.156-.041.323-.254.429-.582l.28-.899c.124-.415.39-.688.842-.807.434-.101.723-.011.824.392" style="fill:#1d1d1b;fill-opacity:1;fill-rule:nonzero;stroke:none" transform="translate(144.02 116.033)"/><path d="M0 0c.141.563-.676.717-.982.785-.253.063-.546.04-.904-.101-.358-.101-1.012-.753-1.33-.677-.212.048-.202.27-.191.575-.011.521-.16.821-.74.964-.649.158-1.079-.136-1.267-.898l-.883-3.48c-.184-.738-.176-1.429.638-1.632.598-.14 1.048.074 1.246.858.131.537.424.828.713.759.186-.051.254-.188.714-1.56.134-.514.418-.812 1.12-.984.373-.094.771.041.866.442.083.339.031.417-.728 2.911a.7.7 0 0 0-.011.386c.082.305.303.416.822.772.788.509.85.615.917.88" style="fill:#1d1d1b;fill-opacity:1;fill-rule:nonzero;stroke:none" transform="translate(154.586 115.06)"/></g></svg>