<svg xmlns="http://www.w3.org/2000/svg" xml:space="preserve" id="Layer_1" x="0" y="0" viewBox="0 0 283.5 283.5"><style>.st1{fill-rule:evenodd;clip-rule:evenodd}.st2{fill:#fff}</style><path d="M-.1 141.7C-.1 63.5 63.4 0 141.6 0s141.7 63.5 141.7 141.7-63.5 141.7-141.7 141.7S-.1 220-.1 141.7" style="fill:red"/><path d="m51.7 234.4 179.8-103.8-.1 103.8zM231.4 47.3 51.7 151V47.3z" class="st1"/><path d="m190.1 83-53 30.6-38 22v47.7l-33 19 25.7-49.1-14.2 8.4-26 49.4v11.9l47.5-27.4.3-.1.8-.5 51.7-30v-12.3l-41.7 24.3v-11.6l27.9-16.4v-12.2l-27.9 16.4v-11.8l26.9-15.6 24.2-13.9v47.8l11.3-6.4v-48l17.5-10.1zM204.9 74.4l-25.7 74.9 12.2-7 4-11.6 18.7-10.8 4 6.9 12.4-7.1zm-4.2 41 4.2-12.2 4.1 7.4zM54.3 168.3l.8-.5 1.8 4 2.7-1.6-2-4.4c.6-.7.9-1.6 1.1-2.2.2-.7.3-1.5.3-2 0-.2 0-.6-.1-.8-.1-.3-.1-.6-.2-.9s-.3-.6-.6-.7c-.2-.2-.5-.2-.7-.3-.2 0-.3-.1-.6-.1h-.1c-.1 0-.1 0-.2.1-.1 0-.2.1-.2.1-.1 0-.2.1-.3.1s-.2.1-.2.1l-3.9 2.3V175l2.6-1.5zm1.5-4.1c-.1.1-.1.1-.2.1l-.1.1-1.2.7v-2.2l1.5-.9h.2l.1-.1h.1c.2 0 .2.1.2.1.1.1.1.3.1.6 0 .2-.1.5-.1.7-.3.3-.4.7-.6.9M63.4 166l3.3-1.9.7 1.6 2.7-1.6-5.2-10.8-5.2 16.8 2.9-1.7zm.5-3.2.9-2.9.9 1.8zM74.9 161.1c.1-.1.2-.2.3-.2.1-.1.2-.2.3-.2.1-.1.2-.1.2-.2.7-.7 1.2-1.4 1.7-2 .5-.7.9-1.5 1.2-2.2s.6-1.5.7-2.2.2-1.4.2-2-.1-1-.1-1.4c-.1-.5-.2-.8-.5-1.2-.1-.1-.1-.2-.1-.2-.1-.1-.1-.1-.1-.2-.1-.2-.5-.6-.6-.7-.2-.2-.5-.3-.7-.5-.2-.1-.6-.2-.8-.2-.2-.1-.5-.1-.8 0-.1 0-.1 0-.2.1-.1 0-.2.1-.5.1-.1.1-.3.1-.5.1-.2.1-.3.1-.5.1l-4 2.4V164l4.2-2.5c.4-.2.5-.3.6-.4m-.1-3.2-.2.2c-.1.1-.2.1-.2.2l-1.4.7v-7.1l1.6-.9c.1 0 .1-.1.1-.1l.2-.1h.2l.2-.1c.2 0 .6 0 .7.1.2.1.5.2.6.5.1.2.2.5.3.7s.1.6.1.9-.1.7-.1 1.1c-.1.5-.2.8-.3 1.2-.2.5-.5.9-.7 1.2-.4.8-.7 1.2-1.1 1.5" class="st2"/><path d="m82.5 143.1-2.4 1.5v13.3l2.4-1.4zM84.7 153.5c.5.3 1 .5 1.6.5h.1c.7 0 1.4-.2 2.2-.7.7-.5 1.5-1 2-1.7.7-.7 1.2-1.6 1.7-2.4.5-.9.9-1.8 1.1-2.7s.5-1.9.5-2.8-.1-1.7-.5-2.4c-.2-.7-.7-1.2-1.2-1.6-.5-.3-1-.5-1.6-.5h-.1c-.7 0-1.4.2-2.2.7-.7.5-1.5 1-2 1.7-.7.7-1.2 1.6-1.7 2.4-.5.9-.9 1.8-1.1 2.7s-.5 1.8-.5 2.8c0 .9.1 1.7.5 2.4.2.7.6 1.3 1.2 1.6m6.5-9.6c.1.2.1.6.1.9 0 .6-.1 1-.2 1.6s-.5 1-.7 1.6c-.2.5-.6.9-.9 1.4s-.7.7-1.1.9c-.5.2-.7.3-1 .3h-.1c-.3 0-.6-.1-.8-.2s-.5-.5-.6-.7c-.1-.3-.2-.7-.2-1.2v-.5l.1-.5c.1-.5.2-.9.3-1.4s.3-.8.6-1.1c.2-.3.5-.7.7-.9s.5-.6.7-.7c.2-.2.5-.3.7-.5 0 0 .1-.1.2-.1.1-.1.2-.1.2-.1.1 0 .2-.1.3-.1.1-.1.1-.1.2-.1h.2c.2 0 .5.1.6.1.2.1.5.2.6.5-.1.3.1.4.1.8" class="st2"/></svg>