<svg xmlns="http://www.w3.org/2000/svg" xml:space="preserve" viewBox="0 0 1766.8 500"><path fill="red" d="M1695.7 428.9c96.4-96.4 94.5-254.6-4.2-353.6-98.7-98.7-257.2-100.6-353.6-4.2s-94.5 254.6 4.2 353.6c98.6 98.7 257.1 100.6 353.6 4.2"/><path fill-rule="evenodd" d="m1270.7 207.1 201.9-73.6 202.2-73.6-37.3 211.8-37.3 211.8-75.6-255.2z" clip-rule="evenodd"/><g fill="#fff" fill-rule="evenodd" clip-rule="evenodd"><path d="M660 434.7c-8.9 0-17-1.6-24.7-4.9-7.3-3.2-13.4-8.1-17.8-13.8-4.9-6.1-8.1-13-10.1-20.7s-2-16.2-.4-25.1 4.9-17.4 9.3-25.1c4.9-7.7 10.9-14.6 17.4-20.3 6.9-6.1 14.6-10.5 23.1-13.8 8.5-3.2 17-4.9 25.9-4.9 17.8 0 31.6 6.5 42.1 19l27.1-23.1c-7.3-8.9-16.6-15.8-27.1-21.1-10.5-4.9-22.7-7.7-36.1-7.7s-26.3 2.4-39.3 7.7c-12.6 4.9-24.3 12.2-34.8 21.1-10.1 8.9-19 19-26.3 31.2-6.9 11.8-11.8 23.9-14.2 36.9H436.4l2.8-15.8 8.5-48.6h96.8l5.7-32.4H421l-17 96.8h-64.8c7.3-9.7 12.6-20.7 14.6-32 3.2-17.8-.4-32.8-10.9-45.4s-24.3-19-42.1-19h-96.4l-17 96.8h-138l11.3-64.4h96.8l5.7-32.4H34L0 467.9h32l11.3-64.4h137.8l-11.3 64.4h32l11.3-64.4h54.7l25.9 64.4H331l-25.5-64.4h93.2l-11.3 64.4h129.2l5.7-32.4h-96.8l5.7-32h143.4c.4 1.6.4 3.6 1.2 5.3 3.2 11.7 8.5 21.9 15.4 30.8 7.3 8.9 16.6 15.8 27.1 21.1 10.9 4.9 23.1 7.7 36.5 7.7s26.3-2.4 38.9-7.7c12.6-4.9 24.3-12.2 34.8-21.1l-19-22.7c-15.4 11.7-31.6 17.8-49.5 17.8M230.5 305.4h64.8c8.9 0 15.8 3.2 21.1 9.3 5.3 6.5 6.9 13.8 5.7 22.7-1.6 8.9-6.1 16.6-13.4 23.1-6.5 5.7-13.8 8.5-21.5 9.3h-67.7zM836.3 434.7c-8.9 0-17-1.6-24.7-4.9-7.3-3.2-13.4-8.1-17.8-13.8-4.9-6.1-8.1-13-10.1-20.7s-2-16.2-.4-25.1 4.9-17.4 9.3-25.1c4.9-7.7 10.9-14.6 17.4-20.3 6.9-6.1 14.6-10.5 23.1-13.8s17-4.9 25.9-4.9c17.8 0 31.6 6.5 42.1 19l27.1-23.1c-7.3-8.9-16.6-15.8-27.1-21.1-10.5-4.9-22.7-7.7-36.1-7.7s-26.3 2.4-39.3 7.7c-12.6 4.9-24.3 12.2-34.8 21.1-10.1 8.9-19 19-26.3 31.2-7.3 11.8-11.7 24.3-14.2 37.3-2.4 13.4-2 25.9.8 37.7 3.2 11.8 8.5 21.9 15.4 30.8 7.3 8.9 16.6 15.8 27.1 21.1 10.9 4.9 23.1 7.7 36.5 7.7s26.3-2.4 38.9-7.7c12.6-4.9 24.3-12.2 34.8-21.1l-19-22.7c-14.6 12.3-30.8 18.4-48.6 18.4M997.5 467.1h36.1l22.3-32.4h89.1l10.5 32.4h36.1L1128.8 273zm80.3-64.4 38.5-57.1 18.6 57.1zM386.5 160h54.7l25.9 64.4h37.3l-27.6-69.7c12.6-4.9 23.1-12.6 32.4-23.1 9.7-10.9 15.4-23.1 17.8-36.5 3.2-17.8-.4-32.8-10.9-45.4s-24.3-19-42.1-19h-96.8l-34 194.1h32zm17.1-97.3h64.8c8.9 0 15.8 3.2 21.1 9.3 5.3 6.5 6.9 13.8 5.7 22.7-1.6 8.9-6.1 16.6-13.4 23.1s-15.4 9.3-24.3 9.3l-64.8-.4zM588.7 192h89.1l10.5 32.4h36.1L661.6 30.3 530.4 224.4h36.1zm60-89.2 18.6 57.1h-57.1zM853.3 216.7c13-5.3 24.3-12.2 34.8-21.1s19-19.4 26.3-31.2c7.3-11.7 12.2-24.3 14.6-37.3 2.4-13.4 2-25.5-1.2-37.3-2.8-11.7-8.1-21.9-15.4-30.8s-16.2-15.8-27.1-21.1-22.7-7.7-36.1-7.7h-64.4l-34 194.1h64.4c12.6.1 25.5-2.4 38.1-7.6m-43-154h32.4c8.9 0 16.6 1.6 23.9 4.9 7.3 3.2 13.4 8.1 18.2 14.2s8.5 13 10.1 20.7c2 7.7 2 16.2.8 24.7-1.6 8.9-4.9 17-9.3 24.7-4.9 7.7-10.5 14.6-17.4 20.7s-14.6 10.5-22.7 13.8c-8.5 3.2-17 4.9-25.9 4.9H788zM1033.6 30.3h-32l-47 267L925 467.1h32L991.1 273zM1235 59.1c-15.4-19-36.5-28.4-63.6-28.4s-51.5 9.3-73.3 28.4c-22.3 19-36.1 41.7-40.5 68.5-4.9 26.7.8 49.8 16.6 68.5 15.4 19 36.5 28.4 63.6 28.4 26.7 0 51.5-9.3 73.3-28.4 22.3-18.6 36.1-41.3 40.9-68.5 4.4-26.8-1.2-49.5-17-68.5m-16.2 68.4c-3.2 17.8-12.2 32.8-27.1 45.8-15 12.6-31.2 18.6-49 18.6s-32-6.1-42.5-18.6c-10.1-13-13.8-28-10.5-45.8 3.2-17.8 12.2-32.8 26.7-45.4 15-12.6 31.6-19 49-19s31.6 6.5 42.1 19c10.9 12.2 14.5 27.6 11.3 45.4"/></g></svg>