<svg xmlns="http://www.w3.org/2000/svg" width="1438" height="474" fill="none"><path fill="#CF1F1F" d="M1437.9.7H.7v472.5h1437.2z"/><path fill="#fff" fill-rule="evenodd" d="M374.7 311.6c0 49.8-25.9 78.3-76 78.3-50 0-76-28.5-76-78.3V149.7c0-49.8 25.9-78.3 76-78.3 50 0 76 28.5 76 78.3v30.2h-48.2v-33.4c0-22.2-10.2-30.7-26.4-30.7s-26.4 8.4-26.4 30.7v168.1c0 22.2 10.2 30.2 26.4 30.2s26.4-8 26.4-30.2v-44.5h48.2zM477.3 129.9l-40.1 256.2H390l52.3-311.4h75.1l52.3 311.4h-51.8zM1124.2 74.7h-75.1l-52.3 311.4h47.1l40.2-256.2 40.6 256.2h51.8zM645.1 224.6H669c16.1 0 24.8-7.1 24.8-29.4v-46.7c0-22.2-8.7-29.4-24.8-29.4h-23.9zm99.2-72.9v40.5c0 49.8-24.8 77-75.3 77h-23.9v117h-50.5V74.7H669c50.5 0 75.3 27.1 75.3 77M774.7 386.1H825V74.7h-50.3zM853.7 74.7h155.7v44.5h-52.7v266.9h-50.3V119.2h-52.7zM1203.3 74.7h49.8v266.9h82v44.5h-131.8zM111.8 361.8h25.3v-5.9c0-5.6-2.1-9.1-8.7-9.1h-8.1c-5.9 0-8.5 2.3-8.5 7.7zm70.5-16.4c-2.1.8-3.4 1.4-10.1 1.4h-12.9c-7.6 0-10.5 3-10.5 9.9v5.2h33.5V377h-82.2v-22.8c0-15.7 6.2-22.4 18.9-22.4h6.5c8.5 0 14 3.2 16.7 9.9 2.7-7.6 8.9-10 17.5-10h12.7c4 0 6.9-.1 10-1.6v15.3zM114.6 286l67.7 11.8v13.9l-82.2-15.4v-22.1l82.2-15.4V274zM170.5 222.8v-8.6c0-4.9-2.1-7.8-8-7.8h-42.8c-5.9 0-8 2.9-8 7.8v8.6zm-70.4 15.3v-24.2c0-15.3 7.2-22.8 20.3-22.8H162c13.2 0 20.3 7.5 20.3 22.8v24.2zM99.8 168.3H182v-15H99.8zM162.9 114.6c5.7 0 7.9-3.1 7.9-8s-2.2-8-7.9-8h-43.4c-5.7 0-7.9 3.1-7.9 8s2.2 8 7.9 8zm-42.6 15.5c-12.9 0-20.2-8.3-20.2-23.5s7.4-23.5 20.2-23.5h41.8c12.9 0 20.2 8.3 20.2 23.5s-7.4 23.5-20.2 23.5z" clip-rule="evenodd"/></svg>