<svg xmlns="http://www.w3.org/2000/svg" xml:space="preserve" viewBox="0 0 1423.437 1078"><path fill="#4144C5" d="M0 0h1078v1078H0z"/><path fill="#FFF" d="M320.277 464.5c0 45.756-40.176 52.5-75.888 52.5H234V412h10.389c35.712 0 75.888 6.744 75.888 52.5M474.285 749 342.039 576.551c59.706-10.602 92.07-60.847 92.07-118.879 0-89.838-63.054-129.671-146.196-129.671H124v421h110V587h.903l103.229 162z"/><path fill="#FFF" d="M692.1 607.817c0 36.626-24.23 64.801-65.928 64.801s-65.927-28.175-65.927-64.801c0-35.5 24.229-65.363 65.927-65.363s65.928 29.863 65.928 65.363M791 463H689v28.177c-22-25.357-56.489-37.747-89.734-37.747-85.65 0-144.956 71.004-144.956 153.838 0 82.832 60.293 154.405 145.942 154.405 33.809 0 69.309-12.673 87.34-41.673H689v32h102zM952 751H850V465h102zm-51.064-339.101c-31.248 0-56.916-25.668-56.916-56.916s25.668-56.915 56.916-56.915 56.916 25.668 56.916 56.915c0 31.248-25.667 56.916-56.916 56.916"/><path fill="#4144C5" d="M1381.123 670.651h42.313v87.29h-190.854v-87.29h47.936V407.006h-75.75v-79.893h176.355z"/></svg>