<svg xmlns="http://www.w3.org/2000/svg" xml:space="preserve" viewBox="0 0 1466.223 1078"><path fill="#00B46E" d="M0 0h1078v1078H0z"/><path fill="#FFF" d="M320.277 464.5c0 45.756-40.176 52.5-75.888 52.5H234V412h10.389c35.712 0 75.888 6.744 75.888 52.5M474.285 749 342.039 576.551c59.706-10.602 92.07-60.847 92.07-118.879 0-89.838-63.054-129.671-146.196-129.671H124v421h110V587h.903l103.229 162zM692.1 607.817c0 36.626-24.23 64.801-65.928 64.801s-65.927-28.175-65.927-64.801c0-35.5 24.229-65.363 65.927-65.363s65.928 29.863 65.928 65.363M791 463H689v28.177c-22-25.357-56.489-37.747-89.734-37.747-85.65 0-144.956 71.004-144.956 153.838 0 82.832 60.293 154.405 145.942 154.405 33.809 0 69.309-12.673 87.34-41.673H689v32h102zm161 288H850V465h102zm-51.064-339.101c-31.248 0-56.916-25.668-56.916-56.916s25.668-56.915 56.916-56.915 56.916 25.668 56.916 56.915c0 31.248-25.667 56.916-56.916 56.916"/><path fill="#00B46E" d="M1163.223 623.693h106.228v4.198q0 20.084 11.983 30.875 11.985 10.791 35.064 10.791c14.004 0 25.197-4.041 33.584-12.132q12.575-12.13 12.576-32.549c0-15.979-6.02-27.963-18.05-35.951q-18.053-11.985-54.741-11.984h-21.009v-80.484l5.03.592h5.03c22.488 0 39.354-4.337 50.599-13.02q16.866-13.017 16.866-39.059-.001-20.12-9.469-31.661c-5.918-7.693-14.305-11.54-25.151-11.54q-14.798 0-24.264 9.765c-5.724 6.315-8.581 15.192-8.581 26.631v6.806h-102.973v-1.479c0-38.86 12.474-70.077 37.431-93.652 24.953-23.57 58.339-35.36 100.162-35.36q57.7.001 93.652 32.993 35.95 32.996 35.951 85.958-.001 31.071-15.683 53.558-15.686 22.491-45.568 33.732 40.534 11.54 62.435 37.283c14.596 17.162 21.896 37.977 21.896 62.435q-.001 62.734-41.869 102.381c-27.917 26.437-64.062 39.65-108.447 39.65q-36.104-.001-63.914-8.914-27.818-8.91-48.084-27.191-20.27-18.275-30.477-43.982c-6.805-17.134-10.207-36.7-10.207-58.69"/></svg>