<svg xmlns="http://www.w3.org/2000/svg" width="1981" height="1078" fill="none"><path fill="#00F" d="M1578 754.5v-88.4h41.5V414.7H1578V327h185.8v81.1h-39.7v111.3L1836 408.1h-45.1V327h185.2v87.7H1940L1820.3 535l135.3 131.1h25.3v88.4h-185.8v-80.6h40.9l-111.9-111.8v111.8h39.7v80.6zm-234.7-80h49.3v-36.1h-183.4v-81.8L1383.6 327h113.1v229.7h55.3v81.8h-55.3v36.1h36.7v80h-190zm56.5-247.1-89.6 129.3h89.6zM0 0v1078h1078V0z"/><path fill="#fff" d="M901.3 296.7c31.3 0 57.1 25.8 57.1 57.1s-25.7 57.1-57.1 57.1c-31.3 0-57.1-25.8-57.1-57.1s25.7-57.1 57.1-57.1m-777.7 32.4h164c83.4 0 146.7 39.7 146.7 129.9 0 58.3-32.5 108.7-92.4 119.3l132.7 173.1H338L234.4 589h-1.1v162.3H123.6zm109.7 84.1v105.2h10.6c35.8 0 76.1-6.7 76.1-52.6s-40.3-52.6-76.1-52.6zm367.5 41.4c33 0 67.7 12.3 89 37.5v-28h101.9v287.3H689.8v-31.9h-1.1c-17.9 28.5-53.2 41.4-86.8 41.4-85.1 0-145-71.1-145-153.4 0-82.4 58.8-152.9 143.9-152.9m249.5 9.5h101.9v287.2H850.3zm-222.7 79c-41.4 0-65.5 29.6-65.5 64.9 0 36.4 24.1 64.4 65.5 64.4 41.5 0 65.5-28 65.5-64.4 0-35.2-24.1-64.9-65.5-64.9"/></svg>