<svg xmlns="http://www.w3.org/2000/svg" xml:space="preserve" viewBox="0 0 1514.33 1080"><path fill="#606923" d="M1298.64 642.734c9.62 16.866 28.28 27.083 46.96 27.083 35.56 0 62.06-24.671 62.06-60.851 0-30.681-24.66-55.992-58.42-55.992-27.73 0-46.4 12.629-57.85 39.752l-86.74-24.084 39.16-239.787h234.94v85.55h-152.41l-13.27 65.076c18.08-10.845 37.98-16.279 60.27-16.279 82.51 0 140.99 60.253 140.99 148.228 0 89.146-65.1 154.208-163.9 154.208-87.35 0-143.39-42.801-162.08-122.904zM0 0h1080v1080H0z"/><path fill="#FFF" d="M902.942 297.271c-31.412 0-57.228 25.803-57.228 57.214s25.816 57.214 57.228 57.214c31.411 0 57.2-25.803 57.2-57.214s-25.789-57.214-57.2-57.214M851.891 464.994h102.087v287.743H851.891zM342.518 579.422c60.027-10.666 92.544-61.149 92.544-119.484 0-90.316-63.376-130.134-146.945-130.134H123.759v422.933h109.94V590.071h1.123l103.762 162.666h136.864zm-98.169-60.026h-10.65V413.942h10.65c35.9 0 76.286 6.731 76.286 52.727s-40.386 52.727-76.286 52.727"/><path fill="#FFF" d="M691.049 464.994v28.031c-21.33-25.234-56.092-37.574-89.193-37.574-85.26 0-144.151 70.675-144.151 153.139 0 82.446 60.012 153.677 145.272 153.677 33.655 0 68.985-12.895 86.936-41.494h1.136v31.964h102.073V464.994zm-62.27 208.662c-41.508 0-65.62-28.061-65.62-64.513 0-35.346 24.112-65.067 65.62-65.067s65.62 29.721 65.62 65.067c0 36.452-24.112 64.513-65.62 64.513"/></svg>