<svg xmlns="http://www.w3.org/2000/svg" xml:space="preserve" viewBox="0 0 1211.956 500"><path fill="#2DBBEE" d="M0 0h500v500H0z"/><path fill="#FFF" d="M418.049 137.61c-14.541 0-26.484 11.944-26.484 26.485s11.943 26.484 26.484 26.484 26.484-11.943 26.484-26.484-11.942-26.485-26.484-26.485M394.421 215.258h47.272v133.22h-47.272zM158.587 268.232c27.783-4.923 42.849-28.309 42.849-55.317 0-41.8-29.332-60.238-68.034-60.238H57.298v195.807h50.919V273.18h.5l48.046 75.304h63.362zm-45.447-27.784h-4.922v-48.82h4.922c16.615 0 35.329 3.123 35.329 24.41s-18.714 24.41-35.329 24.41"/><path fill="#FFF" d="M319.953 215.249v12.992c-9.869-11.693-25.984-17.39-41.3-17.39-39.476 0-66.735 32.706-66.735 70.883s27.783 71.158 67.26 71.158c15.591 0 31.931-5.972 40.251-19.214h.525v14.791H367.2v-133.22zm-28.833 96.616c-19.214 0-30.382-12.992-30.382-29.857 0-16.365 11.168-30.132 30.382-30.132 19.213 0 30.382 13.767 30.382 30.132 0 16.865-11.168 29.857-30.382 29.857"/><path fill="#2DBBEE" d="M751.564 350.527h-37.952V328.79c-15.591 17.84-34.304 25.36-59.664 25.36-29.282 0-54.118-10.594-73.631-31.231-18.689-19.813-28.183-44.348-28.183-73.631 0-27.334 10.619-52.419 30.132-71.682 19.513-18.964 44.074-29.007 71.957-29.007 23.411 0 41.55 6.421 56.341 21.212v-17.315h36.253v65.286h-50.47c-9.769-14.791-23.711-22.611-40.451-22.611-30.682 0-53.843 24.011-53.843 54.392 0 32.63 24.835 57.74 51.894 57.74 18.414 0 34.854-10.044 44.348-27.883H641.68v-39.602h109.884zM917.04 310.363h14.666v40.152H876.04v-20.063c-10.044 15.341-24.535 22.586-44.348 22.586-33.455 0-52.993-20.088-52.993-58.29v-56.89H759.46v-40.451h63.587v84.25c0 21.462 5.846 31.507 24.26 31.507 15.616 0 26.509-11.443 26.509-31.507v-43.798h-17.59v-40.451h60.814zM961.731 192.394h-18.689v-40.175h61.913v157.855h19.238v40.451h-77.029v-40.451h14.567zM1048.504 237.56h-16.74v-40.151h58.59v18.964c10.868-14.216 25.385-21.462 46.847-21.462 42.949 0 74.755 32.906 74.755 78.928 0 46.023-31.806 78.928-74.755 78.928-19.813 0-34.579-6.146-44.898-19.238v25.085h15.066v40.45h-75.605v-40.45h16.74zm80.327 74.48c21.212 0 36.828-15.89 36.828-38.202s-15.616-38.202-36.828-38.202c-21.187 0-36.803 15.89-36.803 38.202s15.615 38.202 36.803 38.202"/></svg>