<?xml version="1.0" standalone="no"?>
<!DOCTYPE svg PUBLIC "-//W3C//DTD SVG 20010904//EN"
 "http://www.w3.org/TR/2001/REC-SVG-20010904/DTD/svg10.dtd">
<svg version="1.0" xmlns="http://www.w3.org/2000/svg"
 width="1148.000000pt" height="646.000000pt" viewBox="0 0 1148.000000 646.000000"
 preserveAspectRatio="xMidYMid meet">

<g transform="translate(0.000000,646.000000) scale(0.100000,-0.100000)"
fill="#000000" stroke="none">
<path d="M2095 4368 c-3 -7 -4 -521 -3 -1143 l3 -1130 1133 -3 1132 -2 0 1145
0 1145 -1130 0 c-895 0 -1132 -3 -1135 -12z m1966 -641 c44 -29 64 -86 49
-133 -34 -102 -179 -115 -224 -20 -22 46 -20 77 7 117 42 62 108 76 168 36z
m-1204 -76 c68 -30 118 -86 137 -152 41 -138 -7 -270 -119 -326 l-56 -29 136
-177 c74 -97 135 -179 135 -182 0 -3 -64 -5 -142 -5 l-143 0 -105 166 -105
166 -5 -163 -5 -164 -117 -3 -118 -3 0 451 0 451 228 -3 c214 -3 230 -4 279
-27z m598 -253 c17 -6 45 -22 63 -35 l32 -24 0 30 0 31 105 0 105 0 0 -310 0
-310 -105 0 -105 0 0 30 c0 36 -3 37 -38 5 -36 -34 -123 -59 -179 -51 -212 29
-339 264 -249 461 70 154 225 226 371 173z m645 -308 l0 -311 -107 3 -108 3
-3 295 c-1 162 0 300 3 307 3 9 34 13 110 13 l105 0 0 -310z"/>
<path d="M2590 3390 l0 -110 35 0 c45 0 113 27 125 51 6 10 10 36 10 59 0 23
-4 49 -10 59 -12 24 -80 51 -125 51 l-35 0 0 -110z"/>
<path d="M3326 3189 c-82 -71 -51 -201 54 -229 91 -24 170 35 170 127 0 88
-47 133 -139 133 -42 0 -56 -5 -85 -31z"/>
<path d="M4660 3591 l0 -90 43 -3 42 -3 3 -267 2 -268 -45 0 -45 0 0 -90 0
-90 195 0 195 0 0 89 0 90 -42 3 -43 3 0 265 0 265 43 3 42 3 0 90 0 89 -195
0 -195 0 0 -89z"/>
<path d="M5190 3575 l0 -105 -40 0 -40 0 0 -90 0 -90 40 0 40 0 0 -255 0 -255
150 0 150 0 0 90 0 90 -50 0 -50 0 0 165 0 165 60 0 60 0 0 90 0 90 -60 0 -60
0 0 105 0 105 -100 0 -100 0 0 -105z"/>
<path d="M6430 3590 l0 -90 40 0 40 0 0 -270 0 -270 -45 0 -45 0 0 -90 0 -90
185 0 185 0 0 90 0 90 -45 0 -45 0 0 360 0 360 -135 0 -135 0 0 -90z"/>
<path d="M6940 3600 l0 -80 100 0 100 0 0 80 0 80 -100 0 -100 0 0 -80z"/>
<path d="M5770 3471 c-91 -28 -164 -94 -207 -186 -25 -53 -28 -72 -28 -160 0
-93 2 -105 33 -167 61 -124 166 -188 305 -188 77 0 138 21 176 59 l21 21 0
-35 0 -35 140 0 140 0 0 90 0 90 -40 0 -40 0 0 165 0 165 40 0 40 0 0 90 0 90
-135 0 -135 0 0 -35 0 -36 -37 29 c-21 16 -53 35 -72 41 -38 12 -162 13 -201
2z m220 -193 c141 -96 96 -310 -68 -326 -120 -11 -202 91 -178 222 8 43 49 94
91 112 48 21 117 17 155 -8z"/>
<path d="M7457 3465 c-130 -48 -217 -182 -217 -334 0 -203 125 -348 310 -359
92 -5 149 9 195 49 l35 31 0 -36 0 -36 140 0 140 0 0 90 0 90 -40 0 -40 0 0
164 0 165 38 3 37 3 3 88 3 87 -136 0 -135 0 0 -40 0 -39 -25 25 c-45 45 -102
64 -190 63 -44 0 -97 -7 -118 -14z m250 -191 c55 -41 68 -70 68 -149 0 -80
-13 -108 -69 -149 -39 -30 -143 -30 -183 0 -52 39 -73 81 -73 149 0 71 22 114
80 153 29 20 44 23 93 20 37 -3 67 -11 84 -24z"/>
<path d="M6860 3380 l0 -90 40 0 40 0 0 -165 0 -165 -35 0 -35 0 0 -90 0 -90
175 0 175 0 0 90 0 90 -40 0 -40 0 0 255 0 255 -140 0 -140 0 0 -90z"/>
<path d="M8290 3085 l0 -305 70 0 69 0 3 128 3 127 110 0 110 0 3 -127 3 -128
69 0 70 0 0 305 0 305 -70 0 -69 0 -3 -112 -3 -113 -110 0 -110 0 -3 113 -3
112 -69 0 -70 0 0 -305z"/>
<path d="M8890 3085 l0 -305 163 0 c175 1 209 8 278 55 27 19 49 48 71 93 28
56 32 75 32 146 0 145 -53 243 -159 292 -46 22 -63 24 -217 24 l-168 0 0 -305z
m327 159 c44 -32 67 -89 67 -165 0 -118 -48 -169 -168 -177 l-76 -5 0 188 0
187 74 -4 c55 -2 82 -9 103 -24z"/>
</g>
</svg>
