<svg xmlns="http://www.w3.org/2000/svg" xml:space="preserve" viewBox="0 0 2990 1077.865"><path fill="#7D0841" d="M0 0h1077.864v1077.865H0z"/><path fill="#FFF" d="M901.172 296.696c-31.328 0-57.126 25.754-57.126 57.084 0 31.372 25.797 57.124 57.126 57.124s57.082-25.752 57.082-57.124c.001-31.33-25.753-57.084-57.082-57.084M850.239 464.097h101.892v287.182H850.239zM341.845 578.273c59.934-10.631 92.386-61.014 92.386-119.221 0-90.139-63.261-129.893-146.659-129.893h-164.03v422.089h109.714V588.902h1.124l103.534 162.346h136.634zm-97.96-59.893h-10.63V413.119h10.63c35.822 0 76.138 6.741 76.138 52.632s-40.316 52.629-76.138 52.629"/><path fill="#FFF" d="M689.692 464.097v27.957c-21.26-25.19-55.959-37.507-89.015-37.507-85.083 0-143.851 70.564-143.851 152.838S516.717 760.788 601.8 760.788c33.575 0 68.835-12.878 86.768-41.442h1.124v31.892h101.892v-287.14H689.692zm-62.138 208.234c-41.44 0-65.509-27.999-65.509-64.384 0-35.26 24.069-64.946 65.509-64.946s65.508 29.687 65.508 64.946c0 36.386-24.068 64.384-65.508 64.384"/><path fill="#7D0841" d="M1338.415 667.302h36.081v88.369h-171.894v-88.369h41.439V415.986h-41.439v-87.805h189.309l77.564 279.014 78.774-279.014h186.371v87.805h-41.483v251.316h41.483v88.369h-172.5v-88.369h36.038v-223.66l-96.188 312.029h-65.509l-98.046-316.265zM1801.593 467.056c33.057-32.451 77.607-50.512 125.702-50.512s91.954 18.061 125.054 50.512c33.057 32.496 50.471 74.583 50.471 123.283 0 48.093-17.414 90.788-50.471 123.238-33.1 32.496-76.959 49.953-125.054 49.953s-92.645-17.457-125.702-49.953c-33.014-32.451-50.471-75.145-50.471-123.238s17.457-90.787 50.471-123.283m125.702 205.038c42.045 0 76.311-36.038 76.311-81.754 0-46.279-33.662-81.757-76.311-81.757-42.131 0-76.96 35.478-76.96 81.757 0 45.717 34.828 81.754 76.96 81.754M2287.539 512.167v-86.594h150.937v86.594h-28.865l-92.559 243.541h-95.626l-91.349-243.541h-28.909v-86.594h152.709v86.594h-25.84l42.088 129.288 43.254-129.288zM2504.369 512.19h-40.316v-86.594h133.523v242.89h41.439v87.201H2462.93v-87.201h41.439zm0-183.993h93.207v79.336h-93.207zM2814.475 763.515c-50.557 0-91.392-15.642-125.658-49.953-33.705-33.012-50.514-75.1-50.514-123.238 0-48.093 17.457-90.788 50.514-123.238 33.057-32.496 77.521-50.469 125.658-50.469 60.755 0 114.813 28.822 147.308 76.915 19.228 28.26 28.217 60.151 28.217 96.793 0 12.056-1.167 24.631-2.982 37.293h-243.496c7.821 28.864 35.433 48.697 70.953 48.697 18.624 0 34.223-6.005 49.304-18.623h113.603c-29.47 67.367-90.182 105.823-162.907 105.823m73.935-206.249c-9.636-36.08-36.039-55.871-73.935-55.871-34.872 0-62.527 20.395-73.373 55.871z"/></svg>