<svg xmlns="http://www.w3.org/2000/svg" xml:space="preserve" viewBox="0 0 1634.684 500"><path fill="#FFF" d="M0 0h500v500H0z"/><path d="M113.129 191.647c16.62 0 35.308 3.111 35.308 24.421 0 21.288-18.688 24.398-35.308 24.398h-4.923v-48.819zm106.984 156.86-61.54-80.249c27.786-4.945 42.851-28.321 42.851-55.318 0-41.808-29.341-60.24-68.038-60.24H57.292v195.807h50.907v-75.328h.512l48.052 75.328zm221.551 0h-47.262V215.285h47.262zm-23.63-157.899c-14.533 0-26.488-11.954-26.488-26.487 0-14.531 11.956-26.486 26.488-26.486s26.487 11.955 26.487 26.486c-.001 14.533-11.956 26.487-26.487 26.487m-50.839 157.899h-47.263v-14.81h-.534c-8.311 13.232-24.653 19.221-40.23 19.221-39.487 0-67.272-32.986-67.272-71.151 0-38.185 27.276-70.893 66.739-70.893 15.32 0 31.431 5.71 41.297 17.386v-12.976h47.263zm-76.089-96.612c-19.221 0-30.387 13.766-30.387 30.132 0 16.876 11.167 29.853 30.387 29.853s30.386-12.977 30.386-29.853c0-16.366-11.166-30.132-30.386-30.132"/><g fill="#FFF"><path d="M641.462 309.555v41.016h-86.196v-41.016h19.247V192.958h-19.247v-40.729h63.02l73.094 110.183v-69.454h-19.517v-40.729h85.908v40.729H739.93v157.613h-42.693l-73.905-110.469v69.453zM836.127 354.195c-23.427 0-42.403-7.244-58.28-23.157-15.643-15.354-23.446-34.871-23.446-57.2s8.091-42.098 23.446-57.163c15.335-15.066 35.97-23.427 58.28-23.427 28.168 0 53.271 13.389 68.336 35.682 8.939 13.138 13.102 27.933 13.102 44.909 0 5.604-.541 11.461-1.37 17.318H803.22c3.622 13.372 16.454 22.563 32.907 22.563 8.651 0 15.913-2.775 22.87-8.632h52.73c-13.679 31.249-41.846 49.107-75.6 49.107m34.313-95.675c-4.451-16.741-16.724-25.932-34.313-25.932-16.182 0-28.995 9.479-34.024 25.932zM965.22 350.558l-35.988-112.956h-13.391v-40.17h68.355v40.17h-12.29l16.453 59.956 26.509-100.126h37.376l26.51 100.126 16.453-59.956h-12.291v-40.17h68.355v40.17h-13.389l-35.989 112.956h-42.945l-25.391-88.142-25.375 88.142zM1198.716 303.411c.558 10.885 6.415 16.761 17.553 16.761 10.614 0 16.201-4.776 16.201-13.408 0-12.291-12.832-11.695-33.196-17.57-28.455-8.092-42.115-22.87-42.115-47.415 0-28.726 20.923-48.26 52.983-48.26 12.291 0 22.041 2.775 31.537 9.785v-6.434h31.789v43.522h-40.439c-1.676-10.038-5.586-13.949-14.237-13.949-9.209 0-14.488 5.298-14.488 11.426 0 11.156 9.19 13.678 26.203 17.841 33.754 8.669 50.207 19.283 50.207 48.55 0 29.861-22.851 50.206-56.047 50.206-13.119 0-23.986-3.622-33.771-11.713v7.803h-33.448v-47.144zM1335.894 350.558v-43.214c58.299-34.619 87.312-67.508 87.312-95.423 0-13.929-7.533-22.039-19.535-22.039-12.254 0-20.364 10.344-20.364 28.473 0 1.406.306 3.082.306 4.451h-48.819v-1.369c0-44.098 28.708-73.076 70.572-73.076 41.827 0 68.048 23.986 68.048 59.938 0 29.303-24.527 63.885-73.654 101.821h32.925v-12.561h40.458v53h-137.249zM1537.891 313.462h22.887V296.72H1475.7v-37.934l80.88-106.542h52.459v106.542h25.645v37.934h-25.645v16.742h17.013v37.106h-88.161zm26.24-114.634-41.575 59.957h41.575z"/></g></svg>