<svg xmlns="http://www.w3.org/2000/svg" xml:space="preserve" viewBox="0 0 3842.707 1078"><path fill="#135F7E" d="M0 0h1078v1078H0z"/><path fill="#FFF" d="M243.905 413.192c35.832 0 76.124 6.708 76.124 52.651 0 45.897-40.292 52.603-76.124 52.603h-10.612V413.192zm230.66 338.19L341.886 578.365c59.906-10.661 92.387-61.061 92.387-119.266 0-90.139-63.26-129.878-146.691-129.878H123.521v422.161h109.757V588.974h1.103l103.601 162.408zm477.662 0H850.331V464.155h101.897v287.227zM901.281 410.95c-31.332 0-57.108-25.773-57.108-57.105 0-31.329 25.776-57.105 57.108-57.105 31.329 0 57.105 25.776 57.105 57.105 0 31.332-25.776 57.105-57.105 57.105M791.674 751.382h-101.9v-31.931h-1.152c-17.919 28.528-53.152 41.44-86.736 41.44-85.132 0-145.039-71.117-145.039-153.399 0-82.328 58.807-152.847 143.89-152.847 33.031 0 67.766 12.31 89.036 37.485v-27.975h101.9zM627.625 543.086c-41.44 0-65.515 29.68-65.515 64.965 0 36.385 24.074 64.363 65.515 64.363 41.438 0 65.512-27.978 65.512-64.363 0-35.285-24.074-64.965-65.512-64.965"/><g fill="#135F7E"><path d="M1374.608 525.174c52.19 0 77.85-13.26 77.85-51.835 0-36.107-22.467-49.367-69.2-49.367h-28.156v100.973h19.506zm19.506 141.762v88.639h-185.882v-88.351h41.307V415.939h-41.307v-87.777h183.713c45.04 0 79.307 2.922 107.958 23.551 37.877 26.417 57.589 66.529 57.589 120.107 0 45.04-15.701 82.23-47.504 111.798-31.115 28.881-70.769 34.267-125.436 34.267H1355.1v49.339h39.012zM1620.498 512.323h-38.207v-86.63h126.216v48.249c18.564-36.775 47.499-52.265 88.925-53.584v91.679c-61.298 2.926-84.909 29.374-84.909 89.499v66.837h38.438v87.204h-172.686v-87.204h42.454v-156.05zM2049.634 557.072c-9.638-36.086-36.086-55.822-74.008-55.822-34.767 0-62.592 20.424-73.32 55.822zm-74.008 206.191c-50.486 0-91.277-15.72-125.585-49.798-33.619-33.218-50.486-75.156-50.486-123.118 0-48.249 17.498-90.818 50.486-123.347s77.623-50.487 125.585-50.487c60.756 0 114.857 28.915 147.386 76.935 19.277 28.284 28.284 60.125 28.284 96.899 0 11.876-1.147 24.669-2.926 37.291h-243.654c7.86 28.858 35.455 48.593 70.853 48.593 18.588 0 34.308-5.852 49.339-18.76h113.709c-29.546 67.468-90.36 105.792-162.991 105.792M2205.339 512.323h-40.159v-86.63h125.069v49.339c23.36-37.234 54.756-55.822 96.254-55.822 40.407 0 70.483 21.112 87.3 61.215 26.46-40.848 56.536-60.125 97.402-60.125 66.178 0 104.577 43.946 104.577 126.273v121.799h18.932v87.204h-112.447V573.881c0-45.782-10.811-67.984-46.292-67.984-30.133 0-51.238 24.67-51.238 67.984v94.49h42.454v87.204h-132.527V574.001c0-45.752-11.437-67.94-46.955-67.94-30.115 0-50.576 24.653-50.576 67.94v94.371h37.865v87.204h-172.113v-87.204h42.455zM2769.295 328.162h92.941v79.172h-92.941zm-.516 184.161h-40.217v-86.63h133.674v242.679h41.307v87.204h-176.129v-87.204h41.307V512.323zM3234.514 668.945h17.844v86.63h-105.562V712.26c-21.543 33.218-53.026 48.651-95.653 48.651-72.329 0-114.324-43.315-114.324-125.585v-122.43h-41.307v-87.777h136.543v181.823c0 46.275 12.577 68.119 52.32 68.119 33.655 0 57.259-24.718 57.259-68.119v-94.619h-37.865v-87.204h130.806v243.826zM3330.094 512.323h-40.444v-86.63h125.069v49.339c23.59-37.234 54.756-55.822 96.254-55.822 40.178 0 70.483 21.112 87.3 61.215 26.46-40.848 56.535-60.125 97.402-60.125 66.178 0 104.577 43.946 104.577 126.273v121.799h42.455v87.204H3707.31V573.881c0-45.782-10.811-67.984-46.292-67.984-30.133 0-51.238 24.67-51.238 67.984v94.49h42.454v87.204h-132.527V574.001c0-45.752-11.437-67.94-46.955-67.94-30.115 0-50.575 24.653-50.575 67.94v94.371h37.865v87.204h-172.113v-87.204h42.455V512.323z"/></g></svg>