<svg xmlns="http://www.w3.org/2000/svg" width="2534" height="1078" fill="none"><path fill="#fff" d="M71 172h924v719H71z"/><path fill="#0097F1" d="M0 0v1078h1079.39V0zm900.543 296.689c31.477-.119 57.181 25.202 57.494 56.608.263 31.238-25.371 57.063-56.824 57.23-31.214.144-57.013-25.202-57.227-56.297-.24-31.429 25.317-57.445 56.557-57.541m-687.625 32.555c28.956.015 57.907.11 86.846.457 25.655.311 50.33 6.373 73.136 18.662 26.637 14.397 44.796 35.981 53.516 65.039 9.27 30.927 9.511 62.044-1.318 92.588-13.487 37.969-40.031 61.974-79.555 71.149-1.176.264-2.347.527-3.523.863-.287.095-.505.43-1.102.957A910345 910345 0 0 1 473.033 751.08H336.607a291266 291266 0 0 0-103.296-161.818c-.67.096-.84.094-.934.142-.169.071-.358.193-.408.313-.12.503-.287 1.005-.287 1.484-.096 53.085-.168 106.196-.264 159.305 0 .12-.215.239-.502.646H122.252V329.701c1.222-.144 2.516-.43 3.785-.43 28.963.024 57.925-.042 86.881-.027m19.996 83.957c-.313.023-.529.383-1.006.766v104.349c12.624.288 24.793.336 36.891-1.484 8.72-1.294 17.154-3.376 25.058-7.305 12.673-6.276 20.767-16.266 23.498-30.088a75.2 75.2 0 0 0 1.295-18.398c-.935-17.32-8.358-30.928-24.386-38.881a73.7 73.7 0 0 0-12.432-4.814c-16.004-4.648-32.463-4.672-48.918-4.145M601.51 454.73c20.778.203 40.761 4.972 59.787 15.159 9.153 4.911 17.345 11.115 24.486 18.685.79.863 1.412 1.869 2.131 2.803.453-.24.935-.479 1.438-.719v-25.969h101.451v286.366H689.4v-32.102c-1.462 1.221-2.205 1.606-2.611 2.205-13.92 20.194-33.802 31.309-57.184 36.412-61.73 13.463-123.875-15.811-154.056-72.322-15.835-29.585-22.087-61.11-18.639-94.504 4.096-39.623 19.812-73.665 49.444-100.662 21.01-19.14 45.876-30.398 74.121-34.064 7.096-.916 14.109-1.355 21.035-1.288m248.894 9.985H951.57V751.15H850.404zm-227.486 78.193a86 86 0 0 0-10.77 1.387c-21.75 4.192-37.441 16.36-45.968 37.105-5.439 13.248-6.516 27.048-3.715 40.942 4.647 23.214 17.943 39.215 40.773 46.713 11.641 3.857 23.572 4.577 35.623 2.756 17.344-2.587 31.884-10.205 42.233-24.793 8.074-11.475 11.402-24.437 11.668-38.307-.17-2.922-.267-5.844-.6-8.744-2.948-24.219-14.784-42.067-37.59-51.817-10.257-4.401-20.906-5.92-31.654-5.242M1205.23 327.781c-1.65 0-3.28.191-5.1.287v88.276h40.91v250.861h-41v88.518H1386v-88.444h-38.57v-48.965c2.38 0 4.39.047 6.42-.025 22.33-.599 44.68-.743 66.96-2.012 18.42-1.078 36.46-5.006 53.28-13.007 29.56-14.086 50.28-37.132 63.26-66.573 18.23-41.538 18.59-84.298 2.21-126.316-15.98-40.917-46.12-67.078-89.31-77.235-19.19-4.504-38.76-5.174-58.36-5.222-62.18-.215-124.4-.143-186.66-.143m370.51.293v86.744h39.5v253.977h-40.91v86.887h176.29v-87.127h-41.35V328.074zm355.66 91.727c-9.4.102-18.83 1.016-28.26 2.642-50.43 8.672-88.59 35.335-112.61 80.539-23.87 44.869-27.19 92.516-13.61 141.002 13.46 48.174 43 83.511 89.28 103.729 29.56 12.888 60.54 15.737 92.33 11.017 26.83-4.025 49.49-15.666 67.21-36.507.36-.456.96-.719 2.23-1.629v34.974h131.18v-87.054h-35.62V512.156h35.53v-86.312h-126.49v38.185l-.93.432c-1.27-1.485-2.57-2.97-3.84-4.479-13.48-15.811-29.92-27.215-49.75-33.443-15.39-4.821-30.98-6.908-46.65-6.738m-580.83 4.664c14.61.312 29.2.217 43.77 1.127 7.21.48 14.56 2.155 21.51 4.478 17.8 5.989 26.61 19.236 27.67 37.586.4 6.779 0 13.776-1.27 20.459-2.64 13.966-11.21 23.548-24.2 29.25-9.36 4.12-19.28 6.18-29.36 6.875-13.32.934-26.72.983-40.73 1.438V424.754c1-.12 1.82-.312 2.61-.289m1032.29 1.389v86.408h25.49c-14.42 42.881-28.51 85.019-42.66 127.133-.29-.048-.67-.072-1.01-.096-13.75-42.161-27.5-84.3-41.51-127.205h25.58v-86.168h-152.74v86.336c8.14 0 16.03.214 23.91-.073 3.71-.144 5.31 1.15 6.63 4.647 13.87 37.371 27.84 74.67 41.88 111.969 15.47 41.251 31.07 82.454 46.47 123.73.86 2.275 1.53 5.104.96 7.356-1.13 4.431-3.16 8.623-5.06 13.318h-31.02v87.103h153.8v-87.199h-28.34c33.44-87.366 66.59-173.966 99.94-260.996h28.29v-86.263zm-434.78 82.341c26.29-.64 48.49 9.457 64.8 31.534 11.12 15.044 15.4 32.412 15.55 51.984-.46 21.775-6.95 42.329-23.53 58.691-17.29 17.104-38.61 23.669-62.57 21.944-19.24-1.366-35.98-8.528-49.59-22.303-12.86-13.032-19.79-28.938-22.25-47.025-1.99-15.284-.82-30.279 4.77-44.557 12-30.639 34.95-47.505 67.5-49.996 1.79-.138 3.56-.229 5.32-.272"/><path fill="#0097F1" d="M0 0v1078h1079.39V0zm900.543 296.689c31.477-.119 57.181 25.202 57.494 56.608.263 31.238-25.371 57.063-56.824 57.23-31.214.144-57.013-25.202-57.227-56.297-.24-31.429 25.317-57.445 56.557-57.541m-687.625 32.555c28.956.015 57.907.11 86.846.457 25.655.311 50.33 6.373 73.136 18.662 26.637 14.397 44.796 35.981 53.516 65.039 9.27 30.927 9.511 62.044-1.318 92.588-13.487 37.969-40.031 61.974-79.555 71.149-1.176.264-2.347.527-3.523.863-.287.095-.505.43-1.102.957A910345 910345 0 0 1 473.033 751.08H336.607a291266 291266 0 0 0-103.296-161.818c-.67.096-.84.094-.934.142-.169.071-.358.193-.408.313-.12.503-.287 1.005-.287 1.484-.096 53.085-.168 106.196-.264 159.305 0 .12-.215.239-.502.646H122.252V329.701c1.222-.144 2.516-.43 3.785-.43 28.963.024 57.925-.042 86.881-.027m19.996 83.957c-.313.023-.529.383-1.006.766v104.349c12.624.288 24.793.336 36.891-1.484 8.72-1.294 17.154-3.376 25.058-7.305 12.673-6.276 20.767-16.266 23.498-30.088a75.2 75.2 0 0 0 1.295-18.398c-.935-17.32-8.358-30.928-24.386-38.881a73.7 73.7 0 0 0-12.432-4.814c-16.004-4.648-32.463-4.672-48.918-4.145M601.51 454.73c20.778.203 40.761 4.972 59.787 15.159 9.153 4.911 17.345 11.115 24.486 18.685.79.863 1.412 1.869 2.131 2.803.453-.24.935-.479 1.438-.719v-25.969h101.451v286.366H689.4v-32.102c-1.462 1.221-2.205 1.606-2.611 2.205-13.92 20.194-33.802 31.309-57.184 36.412-61.73 13.463-123.875-15.811-154.056-72.322-15.835-29.585-22.087-61.11-18.639-94.504 4.096-39.623 19.812-73.665 49.444-100.662 21.01-19.14 45.876-30.398 74.121-34.064 7.096-.916 14.109-1.355 21.035-1.288m248.894 9.985H951.57V751.15H850.404zm-227.486 78.193a86 86 0 0 0-10.77 1.387c-21.75 4.192-37.441 16.36-45.968 37.105-5.439 13.248-6.516 27.048-3.715 40.942 4.647 23.214 17.943 39.215 40.773 46.713 11.641 3.857 23.572 4.577 35.623 2.756 17.344-2.587 31.884-10.205 42.233-24.793 8.074-11.475 11.402-24.437 11.668-38.307-.17-2.922-.267-5.844-.6-8.744-2.948-24.219-14.784-42.067-37.59-51.817-10.257-4.401-20.906-5.92-31.654-5.242"/></svg>