<svg xmlns="http://www.w3.org/2000/svg" xml:space="preserve" id="Layer_1" x="0" y="0" version="1.1" viewBox="0 0 3048.9 1080"><style>.st0{fill:#4144c5}</style><path d="M0 0h1080v1080H0z" class="st0"/><path d="M903 411.7c-31.4 0-57.2-25.8-57.2-57.2s25.8-57.2 57.2-57.2 57.2 25.8 57.2 57.2-25.9 57.2-57.2 57.2m51 341H851.9V465H954zM244.3 413.9c35.9 0 76.3 6.7 76.3 52.7s-40.4 52.7-76.3 52.7h-10.7V413.9zm231.1 338.8L342.5 579.4c60-10.7 92.5-61.2 92.5-119.5 0-90.3-63.4-130.1-146.9-130.1H123.7v422.9h109.9V590.1h1.1l103.8 162.7zm317.7 0h-102v-32h-1.2c-18 28.6-53.3 41.5-86.9 41.5-85.2 0-145.3-71.2-145.3-153.7s58.9-153.1 144.1-153.1c33.1 0 67.9 12.3 89.2 37.6v-28h102.1zM628.8 544.1c-41.5 0-65.6 29.7-65.6 65.1 0 36.5 24.1 64.5 65.6 64.5s65.6-28.1 65.6-64.5c0-35.4-24.1-65.1-65.6-65.1" style="fill:#fff"/><path d="M1349.2 396v79.1h-153.8V396h37.1V171.2h-37.1V92.7h153.8c44.1 0 79.1.5 108.1 21 32.8 22.6 52.7 62.4 52.7 105.9 0 52.7-26.9 96.8-71.5 118.3l47.4 58.1h36v79.1H1439L1326.6 338v58zm-4.3-126.9c46.8 0 69.4-12.9 69.4-45.7 0-34.4-19.9-44.6-65.1-44.6h-22.6v90.4h18.3zM1676.3 479.4c-82.8 0-144.7-63.5-144.7-152.2S1593.4 175 1676.3 175c39.8 0 68.3 12.4 90.3 41.4v-36.6h112.9v77.5h-32.3V397h32.3v78h-117.2v-32.8c-19.9 25.3-47.9 37.2-86 37.2m15.5-78.6c40.9 0 71-30.7 71-73.7s-30.1-73.7-71-73.7c-40.8 0-71 30.6-71 73.7.1 43.1 30.2 73.7 71 73.7M2034.9 479.4c-82.8 0-144.7-63.5-144.7-152.2S1952.1 175 2034.9 175c39.8 0 68.3 12.4 90.3 41.4v-48.9h-32.3V92.7h112.9V397h32.3v78h-117.2v-32.8c-19.9 25.3-47.9 37.2-86 37.2m15.6-78.6c40.9 0 71-30.7 71-73.7s-30.1-73.7-71-73.7c-40.8 0-71 30.6-71 73.7s30.1 73.7 71 73.7M2298.3 257.3h-36v-77.5h119.4V397h37.1v78h-157.5v-78h37.1V257.3zm0-164.6h83.4v71h-83.4zM2470.2 216.9c29.5-29 69.4-45.2 112.4-45.2s82.3 16.2 111.9 45.2c29.5 29.1 45.2 66.7 45.2 110.2 0 43-15.6 81.2-45.2 110.2s-68.8 44.6-111.9 44.6c-43 0-82.8-15.6-112.4-44.6s-45.2-67.2-45.2-110.2 15.6-81.1 45.2-110.2m112.4 183.4c37.6 0 68.3-32.3 68.3-73.2 0-41.4-30.1-73.2-68.3-73.2-37.6 0-68.8 31.8-68.8 73.2 0 40.9 31.1 73.2 68.8 73.2M3048.9 397.6v77.5h-169.4v-77.5h42.5V163.7h-67.3v-71h156.6v304.9zM1465.2 863.6c0 17-3 32.8-9 47.6-6 14.7-14.6 27.7-26 39s-24.4 19.9-39.2 25.9q-22.2 9-47.7 9c-26.9 0-48.5-8.2-65-24.7v17.7H1205V856h85.5c.2 16.3 3.9 28.5 11.2 36.6s17.2 12.2 29.9 12.2q17.4 0 28.2-9.9c7.2-6.6 10.8-15.3 10.8-26.3q0-15.15-10.5-23.7t-27.3-14.4-43.2-15.9c-17.6-6.6-32.5-14.9-44.8-24.8-28.1-22.7-42.1-50.3-42.1-82.9q0-30.9 15.6-58.2c10.4-18.2 24.7-32.7 42.8-43.4 18.1-10.8 38.1-16.1 59.9-16.1 14.6 0 26.3 2.1 35.1 6.4 8.9 4.2 17.6 9.9 26.3 17V598h70.7v110.2h-83.7q-1.05-18.45-11.1-28.5c-6.7-6.7-15-10-25.1-10-10.4 0-18.9 3-25.6 9s-10 13.8-10 23.5c0 9.9 3 17.5 9.1 23 6 5.4 14.9 10.2 26.6 14.3s24.7 8.5 39.1 13.2c14.4 4.8 27.4 10.6 39 17.5 8.7 4.8 16.5 10.7 23.4 17.5s12.6 14 16.9 21.6c4.3 7.5 7.7 15.8 10 24.8 2.4 9.1 3.5 18.9 3.5 29.5M1732 834.2c0-12.3-3.2-23.8-9.6-34.6s-15-19.2-25.8-25.3c-10.8-6.2-22.7-9.2-35.5-9.2-12.6 0-24.4 3.1-35.2 9.2s-19.5 14.6-25.8 25.5c-6.4 10.8-9.6 22.5-9.6 35q0 18.75 9.6 34.8c6.4 10.8 15.1 19.2 26 25.2 10.9 6.1 22.6 9.1 35.1 9.1 19.4 0 36.1-6.9 50-20.7 13.8-13.8 20.8-30.1 20.8-49m86 1.6c0 26-6.4 50.4-19.1 73.2q-19.05 34.2-51.6 54.6c-21.6 13.6-44.7 20.4-69.1 20.4-13.7 0-25.9-1.7-36.8-5.2q-16.2-5.25-26.1-11.4c-6.6-4.2-14-9.6-22.3-16.4v47.8h30.4v77.7H1478v-77.7h30.1v-230H1478V691h114.9v33.5q28.35-39.3 79.8-39.3c25.8 0 49.9 6.8 72.3 20.3 22.3 13.5 40.1 31.9 53.3 55.1 13.1 23.3 19.7 48.3 19.7 75.2M2058.8 834.2c0-12.5-3-24-9-34.7q-9-16.05-24.3-25.2c-10.2-6.1-21.5-9.2-33.8-9.2q-27.9 0-47.4 20.4c-13.1 13.6-19.6 29.9-19.6 48.7 0 12.3 3 23.8 9 34.6s14.2 19.3 24.6 25.6 21.6 9.5 33.5 9.5c12 0 23.1-3.2 33.5-9.5s18.6-14.9 24.6-25.6c5.9-10.8 8.9-22.3 8.9-34.6m85.7-.5c0 27.6-6.8 53.1-20.5 76.7s-32.2 42.2-55.6 56-49 20.7-76.7 20.7-53.3-6.9-76.8-20.5c-23.5-13.7-42-32.3-55.6-55.8q-20.4-35.25-20.4-76.5 0-41.1 20.4-76.2c13.6-23.4 32.2-41.9 55.8-55.6s49.1-20.5 76.7-20.5 53.1 6.8 76.7 20.4c23.5 13.6 42.1 32.1 55.8 55.4 13.4 23.2 20.2 48.5 20.2 75.9M2360.1 773.7c-15.9.9-29.4 4.2-40.4 10s-19.4 14-25.1 24.6-8.6 23.3-8.6 38.2v53.3h29.9V978h-144.8v-78.2h30.4v-131h-30.4V691h107.6v43.2c11.1-16.8 22.8-28.6 35.2-35.2s27.7-10.7 46.1-12.1v86.8zM2548.5 978h-125.9V768.7h-39.2V691h39.2v-93.1h84.8V691h39.5v77.7h-39.5v131h41.1z" class="st0"/></svg>