<svg xmlns="http://www.w3.org/2000/svg" xml:space="preserve" viewBox="0 0 2902.356 1080"><g fill="#066855"><path d="M1292.153 755.968h-83.099V615.586h97.529c4.222 40.366 16.927 59.028 42.775 59.028 24.162 0 42.2-17.45 42.2-39.726 0-13.842-7.219-26.534-18.675-33.769-19.877-12.003-45.199-18.025-71.697-29.495-62.038-26.495-92.781-66.247-92.781-119.88 0-74.106 57.267-131.321 132.533-131.321 25.335 0 46.438 7.195 66.9 22.897v-12.09h78.929v122.328h-89.199c-4.81-29.547-19.864-45.212-41.536-45.212-21.113 0-36.755 15.666-36.755 34.38 0 15.655 7.235 27.684 18.678 33.73 27.109 13.855 57.839 19.253 84.324 33.719 52.418 27.721 78.328 65.672 78.328 115.096 0 77.103-62.038 140.327-135.543 140.327-25.325 0-48.784-7.781-72.909-23.485v13.855zM1551.547 513.198h-41.565v-86.749h41.565v-97.607h95.206v97.607h61.759v86.749h-61.759v156.619h52.1v87.376h-147.306zM1762.832 467.998c33.142-32.517 77.73-50.634 125.913-50.634 48.222 0 92.17 18.116 125.288 50.634 33.144 32.557 50.594 74.707 50.594 123.491 0 48.196-17.45 90.984-50.594 123.514-33.118 32.57-77.066 50.022-125.288 50.022-48.183 0-92.771-17.453-125.913-50.022-33.118-32.53-50.608-75.318-50.608-123.514s17.49-90.934 50.608-123.491m125.913 205.443c42.15 0 76.491-36.154 76.491-81.952 0-46.359-33.704-81.902-76.491-81.902-42.177 0-77.118 35.543-77.118 81.902-.001 45.798 34.941 81.952 77.118 81.952M2119 513.198h-37.928v-86.749h126.488v48.209c18.691-36.792 47.585-52.431 89.16-53.657v92.196c-61.45 3.01-84.922 29.508-84.922 89.759v66.861h37.913v87.376h-172.886v-87.376H2119zM2368.531 513.185h-40.402v-86.71h133.772V669.83h41.562v87.35h-176.521v-87.35h41.589zm0-184.353h93.37v79.514h-93.37zM2674.641 761.99c-92.771 0-162.08-71.109-162.08-170.501s69.309-170.501 162.08-170.501c44.572 0 76.518 13.905 101.176 46.399v-40.912h126.54v86.71h-36.154V669.83h36.154v87.35H2771.02v-36.755c-22.312 28.285-53.631 41.565-96.379 41.565m17.453-87.938c45.798 0 79.501-34.367 79.501-82.563 0-48.173-33.703-82.54-79.501-82.54-45.774 0-79.504 34.367-79.504 82.54 0 48.196 33.729 82.563 79.504 82.563"/></g><path fill="#066855" d="M0 0h1080v1080H0z"/><path fill="#FFF" d="M902.942 297.271c-31.411 0-57.228 25.803-57.228 57.214s25.816 57.213 57.228 57.213c31.411 0 57.2-25.803 57.2-57.213 0-31.411-25.789-57.214-57.2-57.214M851.891 464.994h102.087v287.744H851.891zM342.518 579.421c60.027-10.665 92.544-61.148 92.544-119.484 0-90.315-63.376-130.134-146.945-130.134H123.759v422.934h109.94V590.071h1.123l103.762 162.667h136.864zm-98.169-60.025h-10.65V413.942h10.65c35.899 0 76.285 6.731 76.285 52.727.001 45.995-40.386 52.727-76.285 52.727"/><path fill="#FFF" d="M691.049 464.994v28.031c-21.33-25.235-56.092-37.574-89.193-37.574-85.26 0-144.15 70.675-144.15 153.138 0 82.447 60.011 153.677 145.272 153.677 33.656 0 68.985-12.894 86.936-41.493h1.136v31.964h102.073V464.994zm-62.27 208.662c-41.509 0-65.621-28.062-65.621-64.514 0-35.346 24.112-65.066 65.621-65.066 41.507 0 65.62 29.721 65.62 65.066.001 36.452-24.112 64.514-65.62 64.514"/></svg>