<svg xmlns="http://www.w3.org/2000/svg" xml:space="preserve" viewBox="0 0 3163.394 1080"><g fill="#F2811C"><path d="M1285.976 755.955h-83.151V615.586h97.581c4.222 40.366 16.865 59.015 42.775 59.015 24.149 0 42.187-17.44 42.187-39.739 0-13.829-7.206-26.508-18.675-33.769-19.875-11.977-45.225-18.012-71.671-29.468-62.101-26.534-92.807-66.26-92.807-119.88 0-74.132 57.241-131.308 132.546-131.308 25.325 0 46.425 7.182 66.861 22.861v-12.081h78.968v122.328h-89.199c-4.847-29.56-19.862-45.225-41.576-45.225-21.087 0-36.729 15.666-36.729 34.37 0 15.653 7.248 27.734 18.678 33.766 27.122 13.829 57.829 19.24 84.324 33.693 52.434 27.721 78.344 65.698 78.344 115.109 0 77.09-62.09 140.316-135.546 140.316-25.325 0-48.849-7.757-72.909-23.462zM1686.706 764.974c-50.007 0-92.197-16.267-125.887-49.957-33.795-33.131-50.621-75.305-50.621-123.54 0-48.173 16.29-88.51 50.621-123.439 31.906-33.158 72.282-50.072 115.044-50.072 36.128 0 66.299 12.692 90.97 37.952v-29.455h74.694v121.651h-89.16c-13.28-25.259-34.916-38.566-63.849-38.566-44.601 0-78.955 35.543-78.955 81.928s33.155 81.952 77.142 81.952c27.135 0 49.97-13.228 62.077-36.729h107.812c-21.713 80.69-84.349 128.275-169.888 128.275M2192.938 670.405h40.376v86.749h-128.923v-43.389c-21.714 33.158-53.058 48.81-95.833 48.81-72.282 0-114.472-43.363-114.472-125.913V513.783h-25.476v-87.347h121.283v181.918c0 46.435 12.63 68.123 52.382 68.123 33.769 0 57.28-24.698 57.28-68.123v-94.571h-38.004v-87.347h131.387zM2282.214 467.998c33.144-32.53 77.716-50.647 125.938-50.647 48.209 0 92.146 18.116 125.275 50.647 33.157 32.57 50.61 74.694 50.61 123.491 0 48.183-17.453 90.997-50.61 123.488-33.129 32.57-77.066 50.022-125.275 50.022-48.222 0-92.794-17.453-125.938-50.022-33.066-32.491-50.595-75.305-50.595-123.488 0-48.209 17.528-90.921 50.595-123.491m125.938 205.43c42.163 0 76.518-36.167 76.518-81.939 0-46.399-33.756-81.902-76.518-81.902-42.187 0-77.092 35.504-77.092 81.902 0 45.772 34.905 81.939 77.092 81.939M2633.854 415.567h-40.364v-86.762h133.746V669.83h41.549v87.324h-176.507V669.83h41.576zM2935.662 761.977c-92.794 0-162.08-71.096-162.08-170.501s69.286-170.501 162.08-170.501c44.562 0 76.481 13.905 101.192 46.399v-40.912h126.54v86.723h-36.18V669.83h36.18v87.323h-131.35v-36.729c-22.339 28.283-53.644 41.553-96.382 41.553m17.44-87.948c45.787 0 79.553-34.318 79.553-82.553 0-48.173-33.766-82.527-79.553-82.527-45.745 0-79.491 34.354-79.491 82.527 0 48.235 33.745 82.553 79.491 82.553"/></g><path fill="#F2811C" d="M0 0h1080v1080H0z"/><path fill="#FFF" d="M902.942 297.271c-31.411 0-57.228 25.803-57.228 57.214s25.816 57.213 57.228 57.213c31.411 0 57.2-25.803 57.2-57.213 0-31.411-25.789-57.214-57.2-57.214M851.891 464.994h102.087v287.744H851.891zM342.518 579.421c60.027-10.665 92.544-61.148 92.544-119.484 0-90.315-63.376-130.134-146.945-130.134H123.759v422.934h109.94V590.071h1.123l103.762 162.667h136.864zm-98.169-60.025h-10.65V413.942h10.65c35.899 0 76.285 6.731 76.285 52.727.001 45.995-40.386 52.727-76.285 52.727"/><path fill="#FFF" d="M691.049 464.994v28.031c-21.33-25.235-56.092-37.574-89.193-37.574-85.26 0-144.15 70.675-144.15 153.138 0 82.447 60.011 153.677 145.272 153.677 33.656 0 68.985-12.894 86.936-41.493h1.136v31.964h102.073V464.994zm-62.27 208.662c-41.509 0-65.621-28.062-65.621-64.514 0-35.346 24.112-65.066 65.621-65.066 41.507 0 65.62 29.721 65.62 65.066.001 36.452-24.112 64.514-65.62 64.514"/></svg>