<svg xmlns="http://www.w3.org/2000/svg" xml:space="preserve" viewBox="0 0 2516.361 1076.434"><path fill="#02AD45" d="M0 0h1076.436v1076.434H0z"/><path fill="#FFF" d="M849.093 463.441h101.758v286.805H849.093zm-375.209 286.8H337.465L234.051 588.102h-1.126V750.24h-109.57V328.673h163.826c83.288 0 146.449 39.691 146.449 129.73 0 58.131-32.409 108.448-92.226 119.073zM243.553 517.658c35.783 0 76.037-6.718 76.037-52.565 0-45.816-40.254-52.537-76.037-52.537h-10.627v105.102zm546.961-54.232v286.805H688.786v-31.846h-1.125c-17.908 28.502-53.128 41.347-86.664 41.347-84.976 0-144.793-71.007-144.793-153.169 0-82.195 58.694-152.639 143.67-152.639 33.002 0 67.661 12.315 88.913 37.441v-27.939zM626.72 671.411c41.378 0 65.41-27.97 65.41-64.285 0-35.255-24.033-64.882-65.41-64.882-41.38 0-65.412 29.627-65.412 64.882-.001 36.315 24.032 64.285 65.412 64.285m273.264-261.096c31.314 0 57.004-25.721 57.004-57.035 0-31.285-25.69-57.006-57.004-57.006-31.316 0-57.036 25.721-57.036 57.006-.001 31.314 25.72 57.035 57.036 57.035"/><path fill="#FE0000" d="M1444.454 666.396v88.258H1259.5v-88.258h41.44v-69.63l-96.07-181.358h-31.252v-87.665h163.326v87.665h-26.378l46.192 90.069 42.659-90.069h-26.44v-87.665h163.327v87.665h-30.596l-99.696 181.358v69.63z"/><path fill="#FFB502" d="M1535.32 466.415c33.004-32.41 77.475-50.412 125.512-50.412 48.035 0 91.881 18.001 124.885 50.412 33.002 32.439 50.442 74.475 50.442 123.133 0 48.037-17.44 90.664-50.442 123.074-33.004 32.409-76.85 49.847-124.885 49.847-48.037 0-92.508-17.438-125.512-49.847-33.034-32.41-50.44-75.038-50.44-123.074 0-48.035 17.406-90.694 50.44-123.133m125.512 204.765c42.003 0 76.255-36.002 76.255-81.632 0-46.253-33.658-81.693-76.255-81.693-42.036 0-76.852 35.44-76.852 81.693 0 45.63 34.816 81.632 76.852 81.632"/><path fill="#02AD45" d="M2020.611 511.464v-86.475h150.731v86.475h-28.847l-117.167 291.058h37.38v80.536h-153.702v-80.536h31.253l17.471-58.975-94.414-232.083h-28.815v-86.475h152.513v86.475H1961.2l42.003 118.479 43.222-118.479z"/><path fill="#05D5ED" d="M2215.522 466.415c33.034-32.41 77.475-50.412 125.512-50.412 48.035 0 91.881 18.001 124.885 50.412 33.065 32.439 50.442 74.475 50.442 123.133 0 48.037-17.377 90.664-50.442 123.074-33.004 32.409-76.85 49.847-124.885 49.847-48.037 0-92.478-17.438-125.512-49.847-32.971-32.41-50.41-75.038-50.41-123.074.001-48.035 17.439-90.694 50.41-123.133m125.512 204.765c42.034 0 76.255-36.002 76.255-81.632 0-46.253-33.595-81.693-76.255-81.693-42.036 0-76.852 35.44-76.852 81.693.001 45.63 34.817 81.632 76.852 81.632"/></svg>