<svg xmlns="http://www.w3.org/2000/svg" width="300.0d" height="208.2508d" viewBox="0 0 450.38 312.64"><path fill="#0f4e9bff" d="M22.21 186.65 0 311.5l427.96 1.14 22.42-124.86z"/><path fill="#fcfcfcff" d="M115.62 224.39a26.6 26.6 0 1 0 26.53 26.67 26.58 26.58 0 0 0-26.53-26.67m-.13 51A24.4 24.4 0 1 1 140 251.05a24.39 24.39 0 0 1-24.46 24.33"/><path fill="#fcfcfcff" d="M115.61 228.61A22.38 22.38 0 1 0 137.93 251a22.38 22.38 0 0 0-22.32-22.43m-9.44 35.72.07-26.67 4.51 2.25-.06 22.17Zm6.9-3.44.1-19.76 19.74 9.91ZM46.11 264.76l10.1-5.82c1.82 4.24 4.95 7.1 10.73 7.11 5.55 0 6.94-2.17 7-4.14 0-3.14-2.91-4.39-10.58-6.53s-15-5.82-15-15.61 8.37-15.54 17.21-15.52c8.4 0 15 4.06 18.68 11.6l-9.88 5.74c-1.75-3.65-4.15-5.92-8.83-5.94-3.65 0-5.48 1.81-5.49 3.86 0 2.34 1.23 4 9.19 6.38 7.74 2.36 16.43 5.09 16.4 15.9 0 9.87-7.93 15.69-19 15.66-10.74 0-17.6-5.16-20.43-12.69M146.48 251.07c0-15.06 11.25-26.57 26.67-26.53A25.51 25.51 0 0 1 195 236.43l-10.1 5.82c-2.26-3.95-6.63-6.3-11.82-6.31-9.06 0-14.92 6-15 15.16S164 266.31 173 266.33c5.18 0 9.65-2.31 11.85-6.25L195 266a25.31 25.31 0 0 1-22 11.77c-15.42 0-26.57-11.61-26.53-26.66M200.412 276.783l.134-51.15 11.69.031-.134 51.15zM250.85 268.88l-19-.05-2.58 8h-12.79L234 225.72h14.9L266.18 277h-12.79Zm-3.47-11-5.95-18.8-6 18.77ZM300.55 265.8l-.03 11.25-29.96-.08.14-51.15 11.69.03-.1 39.9zM358.36 237.31l-13.16-.04-.1 39.9-11.69-.04.1-39.89-13.15-.03.03-11.26 37.99.1zM359.12 226.05l12.78.04 11.23 37.66 11.43-37.6 12.78.03-16.79 51.11-14.91-.04z"/><path fill="#ef3824ff" d="m415.5 24.23-31.85 177.28-166.99-.53 2.55-13.73-149.27-.4L99.19 23.4l21.59.01L125.13 0l219.88.58-4.28 23.41z"/><path fill="#fcfcfcff" fill-rule="evenodd" d="m120.3 152.23.33-128.83 1.88-9.62 28.51.07a67 67 0 0 1 15.5 1.29 20.5 20.5 0 0 1 10.59 6.26 39.1 39.1 0 0 1 7.66 12.93 52.6 52.6 0 0 1 2.81 12.37 75 75 0 0 1 .38 8.35q-.16 12.95-2.81 20.43c-1.78 5-3.84 8.76-6.21 11.29a34.9 34.9 0 0 1-6.43 5.61l17.66 60-25.4-.07-13.09-54.38h-7.59l-.09 54.36Zm24-116.6-.11 39.44h6.7q7 0 10.05-5.24T164 54.78q-.08-10.59-3.58-14.92a11.15 11.15 0 0 0-9.42-4.21ZM197.93 152.38l.36-138.46 22.58.06a84.5 84.5 0 0 1 17.91 1.37 32.4 32.4 0 0 1 14.72 7.43 43.8 43.8 0 0 1 11.81 18.59 97.5 97.5 0 0 1 4.79 22.21 163 163 0 0 1 .88 18q0 20.48-4 36.24t-13.45 25.78a29.3 29.3 0 0 1-9.17 6.07q-5.9 2.67-14.85 2.79Zm23.94-114.32-.24 90.1h7.06c1.47.19 3.69-.18 6.66-1.13s5.29-3.6 7-8a66 66 0 0 0 1.91-11c.44-4.42.76-8.82.93-13.19s.25-7.94.25-10.7q0-20.65-1.87-30.59t-5.59-12.89a12.78 12.78 0 0 0-9-2.65Z"/><path fill="#fcfcfcff" d="m341.44 44.2-18 9.29q-2.19-9.87-5.81-13.17a10.18 10.18 0 0 0-7.55-3.06c-3.19.12-5.51 1.11-7 3a13.5 13.5 0 0 0-2.79 6 22 22 0 0 0-.51 4.51 16.1 16.1 0 0 0 1.58 8.05 18.2 18.2 0 0 0 6.25 6.07q4.58 3 13.11 7.53a57 57 0 0 1 9 6.07 35.4 35.4 0 0 1 9.15 11.94q4 7.8 4.15 20.86-.15 19.63-9.37 31.53T307.27 155q-13.25-.35-20.4-6.74a35.8 35.8 0 0 1-10.18-15 76 76 0 0 1-3.9-15.69l19.21-7.9q2 10.93 5.52 15.71a11.28 11.28 0 0 0 9.78 4.67q5.39-.17 8-3a13.65 13.65 0 0 0 3.36-6.25 21.8 21.8 0 0 0 .69-5.24q-.17-6.89-3.19-10.47a20.5 20.5 0 0 0-6.65-5.33 188 188 0 0 1-17.19-10.84 33.6 33.6 0 0 1-9.92-11.45A41.8 41.8 0 0 1 278.61 67a55.4 55.4 0 0 1-1.42-12.61 56.1 56.1 0 0 1 3.75-20.23 38 38 0 0 1 10.87-15.61 27.14 27.14 0 0 1 17.6-6.22q12 .4 18.63 6.53a37 37 0 0 1 9.61 13.57 69 69 0 0 1 3.79 11.75"/><path fill="#fcfcfcff" fill-rule="evenodd" d="M353.76 57.23v-9.81h3.74a4.55 4.55 0 0 1 2.75.67 2.56 2.56 0 0 1 .94 2.22 2.48 2.48 0 0 1-.73 1.92 2.94 2.94 0 0 1-1.74.71l2.62 4.3h-2l-2.4-4.24h-1.34v4.22Zm1.85-8.42v2.81h1.7a3.14 3.14 0 0 0 1.48-.23c.4-.18.6-.58.62-1.23a1.14 1.14 0 0 0-.67-1.1 3.3 3.3 0 0 0-1.4-.25Zm-7.21 3.34a9.35 9.35 0 0 1 1.26-4.74 8.76 8.76 0 0 1 3.22-3.15 8.9 8.9 0 0 1 4.35-1.13 8.8 8.8 0 0 1 4.35 1.16 8.66 8.66 0 0 1 3.2 3.16 9.66 9.66 0 0 1 0 9.49 8.66 8.66 0 0 1-3.21 3.15 8.93 8.93 0 0 1-4.36 1.13 8.84 8.84 0 0 1-4.35-1.16 8.73 8.73 0 0 1-3.2-3.16 9.37 9.37 0 0 1-1.23-4.75m2.12 0a7.45 7.45 0 0 0 .89 3.68 6.6 6.6 0 0 0 11.56 0 7.55 7.55 0 0 0 .93-3.68 7.46 7.46 0 0 0-.91-3.68 6.7 6.7 0 0 0-2.4-2.49 6.57 6.57 0 0 0-3.36-.92 6.53 6.53 0 0 0-5.8 3.38 7.54 7.54 0 0 0-.91 3.68"/><path fill="#fcfcfcff" d="M121.76 176.82v-12.3h-3.21v-2.74h.17a4.67 4.67 0 0 0 2.77-.71 3.5 3.5 0 0 0 1.38-2.15h2.46v17.92ZM132.05 166.79a16.8 16.8 0 0 1 .28-3.9 1 1 0 0 1 1-.8 1 1 0 0 1 .95.78 14.4 14.4 0 0 1 .25 3.64v2.89a17 17 0 0 1-.26 3.86 1 1 0 0 1-1.94 0 16 16 0 0 1-.25-3.87v-2.6Zm-3.47 6a6.2 6.2 0 0 0 .56 2.21 4.13 4.13 0 0 0 1.66 1.68 5.15 5.15 0 0 0 2.47.58 4.82 4.82 0 0 0 2.92-.87 3.68 3.68 0 0 0 1.54-2.3 15 15 0 0 0 .31-2.37c.05-1 .09-2.42.09-4.37a32 32 0 0 0-.17-4.06 6.2 6.2 0 0 0-.6-2.13 4.1 4.1 0 0 0-1.64-1.62 5.2 5.2 0 0 0-2.41-.57 5.1 5.1 0 0 0-2.41.55 4 4 0 0 0-1.66 1.6 5.9 5.9 0 0 0-.62 2.2 43 43 0 0 0-.19 4.78 45 45 0 0 0 .15 4.69M143.69 166.82a17 17 0 0 1 .27-3.89 1 1 0 0 1 1-.81 1 1 0 0 1 1 .78 15 15 0 0 1 .25 3.64v2.89a16.5 16.5 0 0 1-.28 3.86 1 1 0 0 1-1 .81 1 1 0 0 1-1-.81 17.3 17.3 0 0 1-.25-3.86v-2.61Zm-3.47 6a6.2 6.2 0 0 0 .55 2.2 4.16 4.16 0 0 0 1.67 1.68 5 5 0 0 0 2.46.58 4.9 4.9 0 0 0 2.92-.86 3.78 3.78 0 0 0 1.55-2.31 15 15 0 0 0 .3-2.37c.06-1 .09-2.42.1-4.37a34 34 0 0 0-.17-4.06 6.4 6.4 0 0 0-.61-2.13 4 4 0 0 0-1.63-1.62A5.2 5.2 0 0 0 145 159a5.14 5.14 0 0 0-2.42.55 4 4 0 0 0-1.65 1.6 5.75 5.75 0 0 0-.62 2.2 43 43 0 0 0-.19 4.78 46 46 0 0 0 .15 4.7M163.38 170.73a.77.77 0 0 1 .75-.53.78.78 0 0 1 .76.55 5.5 5.5 0 0 1 .22 1.88 5.6 5.6 0 0 1-.23 1.87.78.78 0 0 1-.76.53.76.76 0 0 1-.75-.52 8.4 8.4 0 0 1 0-3.78m-1.93 5.46a3.9 3.9 0 0 0 5.36 0 8.44 8.44 0 0 0 0-7.15 3.88 3.88 0 0 0-5.35 0 6.14 6.14 0 0 0-.82 3.59 6 6 0 0 0 .8 3.57m-4.6 1.05 7.7-18.25h-2l-7.7 18.22Zm-2.4-15.5a.75.75 0 0 1 .75-.52.77.77 0 0 1 .75.53 8 8 0 0 1 0 3.76.77.77 0 0 1-.75.54.76.76 0 0 1-.75-.54 5.5 5.5 0 0 1-.22-1.89 5.4 5.4 0 0 1 .23-1.88m-1.94 5.46a3.87 3.87 0 0 0 5.35 0 6.1 6.1 0 0 0 .82-3.58 6 6 0 0 0-.8-3.57 3.12 3.12 0 0 0-2.67-1.07 3.17 3.17 0 0 0-2.68 1 8.41 8.41 0 0 0 0 7.16M185.75 167.24v9.75h-2.58l-.16-1.1a4 4 0 0 1-1.25 1.06 3.26 3.26 0 0 1-1.54.35 4 4 0 0 1-1.81-.41 4.2 4.2 0 0 1-1.44-1.17 5.7 5.7 0 0 1-1.07-2.53 33 33 0 0 1-.3-5.37 34 34 0 0 1 .24-4.32 6.8 6.8 0 0 1 .68-2.43 4.3 4.3 0 0 1 1.77-1.75 5.34 5.34 0 0 1 2.6-.58 4.37 4.37 0 0 1 3.56 1.43 6.5 6.5 0 0 1 1.19 4.28v.66h-3.54v-.22a6.2 6.2 0 0 0-.29-2.23 1 1 0 0 0-1-.67 1.09 1.09 0 0 0-1.09.82 14.6 14.6 0 0 0-.31 3.81v3a15 15 0 0 0 .26 3.76 1 1 0 0 0 1 .79 1.16 1.16 0 0 0 1.11-.69 5.4 5.4 0 0 0 .35-2.22v-.9h-1.48v-3.11ZM192.13 162.27h.47a1.77 1.77 0 0 1 2.12 2.1 2.56 2.56 0 0 1-.48 1.75 2.2 2.2 0 0 1-1.65.51h-.47Zm0 14.74v-7.15h.77a1.53 1.53 0 0 1 1.39.61 4.4 4.4 0 0 1 .38 2.24v1.79a11 11 0 0 0 .07 1.31 7.5 7.5 0 0 0 .21 1.17h4.36c-.55-.52-.83-1.78-.85-3.79v-1.06c-.06-2.14-.67-3.5-1.83-4.07a4.1 4.1 0 0 0 1.5-1.71 6.1 6.1 0 0 0 .49-2.58 6.4 6.4 0 0 0-.33-2.17 3.9 3.9 0 0 0-1-1.54 3.2 3.2 0 0 0-1.51-.73 14.2 14.2 0 0 0-3-.23h-4.22v17.83ZM205.67 162.63l1.06 7.78h-2.15Zm-2 14.41.47-3.43h3l.45 3.44h3.75l-3.4-17.84h-4.47L199.91 177ZM213 177.07l.05-17.84h3.9l3.07 11c-.12-1.85-.21-3.45-.26-4.79s-.08-2.48-.08-3.4v-2.81H223v17.86h-3.9l-3.1-11.35c.14 1.47.23 2.9.31 4.29s.1 2.73.1 4v3ZM229.81 162.59h.31a2.6 2.6 0 0 1 1.08.19 1.2 1.2 0 0 1 .62.57 2.3 2.3 0 0 1 .28 1.07c.05.52.07 1.53.06 3v.8c0 1.82 0 3-.09 3.65a3 3 0 0 1-.28 1.25 1.5 1.5 0 0 1-.66.59 2.3 2.3 0 0 1-1 .19h-.55v-11.28a.6.6 0 0 1 .19 0m.14 14.52a9.6 9.6 0 0 0 3.34-.43 3.5 3.5 0 0 0 1.75-1.51 5.9 5.9 0 0 0 .7-2.13 35 35 0 0 0 .23-4.86 37 37 0 0 0-.2-4.87 5.7 5.7 0 0 0-.7-2.12 3.4 3.4 0 0 0-1.73-1.49 9.3 9.3 0 0 0-3.35-.45h-4.12v17.83ZM238.445 177.126l.047-17.83 3.76.01-.047 17.83zM250.45 171.13h3.44v.53a4.9 4.9 0 0 0 .31 2.08 1.09 1.09 0 0 0 1.05.6 1.12 1.12 0 0 0 .94-.45 2.1 2.1 0 0 0 .34-1.25 3.26 3.26 0 0 0-1.68-2.5l-.42-.31-.17-.13a13 13 0 0 1-2.8-2.55 5.5 5.5 0 0 1-.59-1.46 7 7 0 0 1-.21-1.77 5.25 5.25 0 0 1 1.23-3.66 4.3 4.3 0 0 1 3.35-1.33 4.6 4.6 0 0 1 3.54 1.32A5.35 5.35 0 0 1 260 164v.58h-3.36v-.22a3.8 3.8 0 0 0-.32-1.78 1.07 1.07 0 0 0-.95-.61 1 1 0 0 0-.86.43 1.82 1.82 0 0 0-.33 1.12c0 .75.62 1.56 1.85 2.41.22.17.38.29.51.37l.4.29a8.9 8.9 0 0 1 2.46 2.41 5.3 5.3 0 0 1 .52 1.4 7.6 7.6 0 0 1 .18 1.69 6.13 6.13 0 0 1-1.26 4.12 4.45 4.45 0 0 1-3.57 1.43 4.61 4.61 0 0 1-3.65-1.38 6 6 0 0 1-1.22-4.11v-.37a6 6 0 0 1 0-.6M262.38 159.37h3.81v11.16a10 10 0 0 0 .28 3.14 1 1 0 0 0 1 .6 1 1 0 0 0 1-.62 9.8 9.8 0 0 0 .29-3.11v-11.17h3.71v11.38a18.4 18.4 0 0 1-.16 2.88 5.2 5.2 0 0 1-.5 1.66 3.65 3.65 0 0 1-1.66 1.76 6.2 6.2 0 0 1-2.82.56 5.64 5.64 0 0 1-2.62-.54 3.7 3.7 0 0 1-1.59-1.69 6.2 6.2 0 0 1-.6-2.1 37 37 0 0 1-.16-4.34ZM281.82 170.33h3.66a3 3 0 0 1 0 .35v.55a7.63 7.63 0 0 1-1.3 4.85 4.79 4.79 0 0 1-3.94 1.57 5.66 5.66 0 0 1-2.67-.59 4.45 4.45 0 0 1-1.8-1.75 6.6 6.6 0 0 1-.67-2.32 36 36 0 0 1-.2-4.7 37 37 0 0 1 .22-4.69 6.5 6.5 0 0 1 .69-2.3 4.5 4.5 0 0 1 1.78-1.74 5.7 5.7 0 0 1 2.63-.57 4.75 4.75 0 0 1 3.93 1.63 7.6 7.6 0 0 1 1.3 4.84v.18h-3.62a6.5 6.5 0 0 0-.37-2.55 1.21 1.21 0 0 0-1.18-.74 1.23 1.23 0 0 0-1.23.89 19.6 19.6 0 0 0-.34 4.74v.34a22.2 22.2 0 0 0 .31 5.07 1.31 1.31 0 0 0 2.4.26 6.4 6.4 0 0 0 .35-2.52ZM294.73 170.36h3.67v.91a7.67 7.67 0 0 1-1.3 4.84 4.76 4.76 0 0 1-3.94 1.57 5.7 5.7 0 0 1-2.67-.58 4.47 4.47 0 0 1-1.8-1.76 6.6 6.6 0 0 1-.68-2.31 54 54 0 0 1 0-9.39 6.5 6.5 0 0 1 .69-2.31 4.4 4.4 0 0 1 1.78-1.73 5.5 5.5 0 0 1 2.63-.58 4.78 4.78 0 0 1 3.93 1.63 7.7 7.7 0 0 1 1.3 4.85v.17h-3.63a6.35 6.35 0 0 0-.36-2.55 1.24 1.24 0 0 0-1.18-.74 1.23 1.23 0 0 0-1.23.9 19.3 19.3 0 0 0-.35 4.74v.33a22 22 0 0 0 .32 5.07 1.22 1.22 0 0 0 1.22.94 1.19 1.19 0 0 0 1.17-.67 6.3 6.3 0 0 0 .35-2.53ZM301.09 177.3l.04-17.83 8.73.02-.01 3.44-5.01-.01-.01 3.29 4.63.01-.01 3.58-4.63-.01-.01 3.9 5.01.01-.01 3.62zM311.84 171.29h3.43v.52a5.1 5.1 0 0 0 .31 2.08 1.21 1.21 0 0 0 2 .15 2.1 2.1 0 0 0 .34-1.25 3.25 3.25 0 0 0-1.68-2.49l-.42-.32-.18-.13a12.7 12.7 0 0 1-2.79-2.55 5.5 5.5 0 0 1-.6-1.46 7 7 0 0 1-.21-1.77 5.25 5.25 0 0 1 1.23-3.66 4.27 4.27 0 0 1 3.36-1.32 4.6 4.6 0 0 1 3.54 1.31 5.35 5.35 0 0 1 1.21 3.78v.58H318v-.22a4 4 0 0 0-.32-1.78 1 1 0 0 0-1-.6 1 1 0 0 0-.85.42 1.76 1.76 0 0 0-.33 1.12c0 .75.62 1.56 1.85 2.42.22.16.38.28.51.36l.4.3a8.8 8.8 0 0 1 2.51 2.34 6 6 0 0 1 .52 1.39 7.6 7.6 0 0 1 .18 1.7 6.1 6.1 0 0 1-1.27 4.11 4.46 4.46 0 0 1-3.57 1.44 4.65 4.65 0 0 1-3.65-1.39 6 6 0 0 1-1.21-4.11v-.97M323.24 171.32h3.44v.52a4.9 4.9 0 0 0 .31 2.08 1.12 1.12 0 0 0 1.06.61 1.15 1.15 0 0 0 .94-.46 2.1 2.1 0 0 0 .34-1.25 3.24 3.24 0 0 0-1.69-2.49c-.17-.14-.32-.25-.42-.32l-.17-.13a12.4 12.4 0 0 1-2.79-2.55 4.9 4.9 0 0 1-.6-1.46 7 7 0 0 1-.2-1.77 5.2 5.2 0 0 1 1.22-3.66 4.27 4.27 0 0 1 3.36-1.32 4.6 4.6 0 0 1 3.54 1.31 5.35 5.35 0 0 1 1.21 3.78v.58h-3.36v-.22a3.76 3.76 0 0 0-.33-1.77 1 1 0 0 0-.95-.61 1 1 0 0 0-.86.42 1.82 1.82 0 0 0-.32 1.12c0 .75.61 1.56 1.85 2.42.22.16.38.28.51.36l.4.3a8.9 8.9 0 0 1 2.51 2.34 5.6 5.6 0 0 1 .51 1.39 7 7 0 0 1 .18 1.7 6.05 6.05 0 0 1-1.26 4.11 4.46 4.46 0 0 1-3.57 1.44 4.65 4.65 0 0 1-3.65-1.39 6 6 0 0 1-1.22-4.11v-.97M335.118 177.387l.047-17.83 3.76.01-.047 17.83z"/></svg>