<svg xmlns="http://www.w3.org/2000/svg" xml:space="preserve" viewBox="0 0 416.987 410.4"><linearGradient id="a" x1="208.493" x2="208.493" y1="701.704" y2="1112.104" gradientTransform="translate(0 -701.704)" gradientUnits="userSpaceOnUse"><stop offset="0" style="stop-color:#ff6a00"/><stop offset="1" style="stop-color:#ec3d02"/></linearGradient><ellipse cx="208.493" cy="205.2" fill="url(#a)" rx="208.493" ry="205.2"/><path fill="#FFF" d="M273.347 262.707H254.6v29.64c0 15.58-12.667 28.247-28.247 28.247s-28.247-12.667-28.247-28.247v-29.64H131.86c-15.453 0-28.247-12.54-28.247-28.247 0-6.333 2.153-12.16 5.573-16.847h-.127l94.367-125.4c5.067-6.967 13.427-11.653 22.8-11.653 15.58 0 28.247 12.54 28.247 28.247v97.28h18.747c15.58 0 28.247 12.667 28.247 28.247 0 15.706-12.54 28.373-28.12 28.373"/></svg>