<svg xmlns="http://www.w3.org/2000/svg" width="400" height="133.3"><g fill-rule="evenodd"><path fill="#fcfbfb" d="M99.8 37.5a41.4 41.4 0 0 0-8 1.6l-2.3 1.1A14.7 14.7 0 0 0 81.1 51a34.4 34.4 0 0 0 .4 9.7 17 17 0 0 0 1.8 4.4s0 .2.2.2l.4.5a16.4 16.4 0 0 0 6.3 5.1c2.4 1.2 2.7 1.3 6.5 2.3A1077.5 1077.5 0 0 1 104 75l3.1 1.3c5.1 2.4 4.8 8.8-.5 10.9-2.2.9-8.6.9-20.2.1-4.7-.3-4.7-.3-5.2 3.5a793 793 0 0 1-1 5.9c-.1.4.4 1.4 1 1.7 1.2.5 7.6.8 15.6.8 7.5 0 8.1 0 11.8-.7 5.5-1.1 10.4-4 12.7-7.3a14.2 14.2 0 0 0 1.7-3l.2-.4.1-.5.3-.7.3-1.7a30 30 0 0 0-.3-10.2c-.2-1-1-2.5-2-3.9-2-3-5.5-5.3-10.2-6.9-2-.7-2.3-.7-2.6-.7l-.6-.2-1.4-.4a77.6 77.6 0 0 1-2.8-.7 28 28 0 0 0-2.8-.8l-.4-.1c-.6 0-1.8-.4-3.5-1.2-.9-.4-2.6-2.1-2.6-2.6l-.2-.4c-.4-.3-.2-3.7.2-4.6 1.6-3.1 5-3.8 16-3.2 10.2.6 9.9.7 10.3-2.2l.3-1.9c1-6 1-6.1-.5-6.6-2-.6-16.7-1.2-21-.8m-76 .8c-1 .5-1-1.3-1 30 0 29.3 0 29.5.6 30.1.8.8 11.6.8 12.4 0 .5-.6.5-.5.6-25.1V49H42c5.3 0 7.3.1 7.5.4l.4.2c1.5 0 3.7 2.5 4 4.5 1 5.4-.8 9-5.4 10.2-2.4.7-2.3.7-2.7 1.5l-.4.8a1.7 1.7 0 0 0-.1.7l-.2.8c-1.3 4-1.4 6-.3 8a57.8 57.8 0 0 0 2.6 4.6 110 110 0 0 0 3.7 6.8 22.1 22.1 0 0 1 1.2 2l.1.2.4.8a39.4 39.4 0 0 1 2.2 4l.8 1.3.5 1c1 1.9 2 2.1 9 2.1 7.6 0 8.2-.4 6-3.9a65 65 0 0 1-1.6-2.7 26.8 26.8 0 0 0-.6-1 28.3 28.3 0 0 1-1.2-1.9 4 4 0 0 1-.3-.5 132.8 132.8 0 0 0-4.8-8 19.3 19.3 0 0 1-1.4-2.3 5 5 0 0 1-.5-.8l-.7-1.2c-2.6-4-2.6-3.8-.4-5.3 4.4-3.1 7-7.2 7.7-12 .3-2 .1-6.5-.4-8.7a20 20 0 0 0-2.3-5.5 32.2 32.2 0 0 1-.8-1c-.8-1-.8-1-1.8-1.8a32.7 32.7 0 0 1-1-.7 21 21 0 0 0-7.5-3.1 80.1 80.1 0 0 1-2-.3c-1.9-.3-27.3-.3-27.8 0m117.3-.1c-1 .5-.8-1.7-.8 30.2V98l.3.4c.4.4 9.4.7 11.5.3 1.5-.2 1.4 2.9 1.4-30.2 0-31.3 0-29.8-.9-30.3a72 72 0 0 0-11.5 0"/><path fill="#fccc2c" d="m329.2.7-1.6.1c-1 0-1.5.1-1.6.3-.1.2-.6.2-1.4.2-.6 0-1.1.1-1.1.2l-1 .2-1.2.1-1 .3c-1.7.1-2.5.3-2.7.4l-.9.2c-.3 0-.7 0-.8.2a2 2 0 0 1-.8.1c-.3 0-.7.2-.8.3l-.7.2c-.3 0-.6 0-.6.2l-.8.1c-.4 0-.7.1-.6.2 0 .1-.2.2-.7.2l-.7.1-.6.2-.6.1-.6.3-1.2.2c-.3 0-.6.2-.6.3-.1.2-.3.3-.5.3l-.5.1-.7.2c-.3 0-.6 0-.6.2l-.5.2-.5.1c0 .1-.2.2-.5.2l-.6.1-.4.2c-.2 0-.3 0-.3.2l-.4.1c-.4 0-2.1 1.5-2.1 2 0 0 0 .2-.2.2-.3.2-.6 1.4-.6 2.9 0 .8-.1 1.5-.2 1.5s-.2 1-.2 2.3l-.1 2.1c-.1 0-.2.9-.2 2.3s0 2.2-.2 2.2l-.1 2.2c0 1.2-.1 2.2-.2 2.2l-.2 1.7c0 1 .1 1.6.2 1.6 0 0 .2.2.2.5s0 .5.1.4h.2c0 .4.9 1.3 1.3 1.3l.4.1c.2.3 2 .3 2.2 0l.6-.1c.3 0 .5-.1.5-.2 0 0 .1-.2.3-.2a1 1 0 0 0 .6-.2 1 1 0 0 1 .6-.3l.3-.1.5-.2c.2 0 .5 0 .5-.2l.6-.1.6-.2s.2-.2.5-.2l.5-.1.6-.2c.3 0 .6 0 .6-.2l.5-.1c.2 0 .6-.1.7-.3l.7-.2.6-.2.8-.2.7-.1.6-.2c.4 0 .7 0 .7-.2l1-.1.8-.2s.4-.2.9-.2l.9-.1.8-.2c.4 0 .8-.1 1-.3l1.2-.2c.5 0 1 0 1-.2l1.2-.1c.6 0 1-.1 1-.2s.6-.2 1.4-.2l1.5-.1c.1-.1 1-.2 2.4-.2s2.2 0 2.2-.2a17.7 17.7 0 0 1 6.5.3c2.5.1 3.7.2 3.7.4l.6.2.6.1.6.2.6.2c0 .2.3.3.4.3l.4.2.5.1c.2 0 .3.1.3.2 0 0 .1.2.3.2l.4.1c0 .1.1.2.3.2.2 0 .3 0 .3.2l.3.1.2.2.4.2.3.1c0 .3 1.8 2 2 2 0 0 .2.1.2.3l.1.2.2.3.3.6c.2.1.4.3.4.5l.1.3c.1 0 .2.1.2.3 0 .2 0 .4.2.4l.1.5c0 .2.1.3.3.3.1 0 .2.2.2.5s.1.5.2.5c0 0 .2.3.2.7l.1.8c.1 0 .2.5.2 1.2l.2 1.3.1 1.5-.1 1.5c-.1 0-.2.6-.2 1.4 0 .8 0 1.5-.2 1.5l-.1.8c0 .5-.1.8-.2.9l-.2.6c0 .3 0 .5-.2.5s-.3.1-.3.5l-.1.4c-.2-.1-.3.4-.2.8 0 .1 0 .1 0 0-.2 0-1 1.3-1 1.6l-.3.5c-.8.8-1.2 1.4-1.2 1.6 0 .2 0 .2-.2.1l-.1.2a19.6 19.6 0 0 1-4.3 4.2l-1.1.9c-.2 0-.5.3-.9.6l-.7.6-.4.3c-.1.2-.3.3-.5.3-.1 0-.5.2-.7.5s-.6.5-.7.5c-.2 0-.5.2-.7.5l-.6.4-.4.3-.6.3-.3.2s0 .2-.2.2l-.3.1c0 .1 0 .2-.2.2l-.5.4a2.8 2.8 0 0 1-.8.6l-.8.5-.5.3-.6.4-1 .8-.4.3c-.1.2-.3.4-.5.4s-.4.2-.7.5l-.7.5-.5.4-.6.4c-.1 0-.4.1-.5.3-.1.2-.3.4-.5.4h-.2c0 .2-.2.3-.5.4l-.5.4c0 .3-.4.7-.7.7-.1 0-.5.2-.7.5l-.7.5-.8.5c-.3.4-.6.6-.7.6l-.7.5-.6.5-1 .8c-.4.4-.8.7-1 .7l-1.2 1a47.4 47.4 0 0 1-2 1.7 7.7 7.7 0 0 1-1 .6l-.4.4c0 .2-.4.7-.6.7l-.4.3c-.1.2-.3.3-.4.3-.2 0-1 .8-1 1l-.2.2-1 .7-1.6 1.5A66.8 66.8 0 0 0 299 98.2l-.1.4c0 .2 0 .4-.2.4s-.3.1-.3.3c0 .2 0 .4-.2.4l-.1.3c0 .2-.1.3-.2.3 0 0-.2.2-.2.5l-.1.4c-.1 0-.2.2-.2.5l-.2.5-.1.5-.2.6-.2.5c0 .3 0 .5-.2.6-.2 0-.3.3-.3.7l-.1.5c-.1 0-.2.1-.2.6 0 .3 0 .6-.2.6l-.1 1c0 .6-.1.9-.2.9 0 0-.2.4-.2 1l-.1 1.1c-.1 0-.2.7-.2 1.7l-.2 1.7a72 72 0 0 0-.1 7.8 72 72 0 0 0 .3 8.3c0 .2 0 .4.2.4l.1.2c0 .4 1.6 2 2 2l.2.1c0 .1 13.6.2 40.3.2a1838.3 1838.3 0 0 0 40.6-.4c.4 0 2-1.5 2-1.9l.1-.2.2-.6.1-.6.2-1c0-.9 0-1.2.3-1.2.1-.1.2-.4.2-1.3 0-.7 0-1.2.2-1.2l.1-1c0-.6.1-1.1.2-1.1 0 0 .2-.5.2-1.1l.1-1.2.2-1.2c0-.7 0-1.2.2-1.2l.1-1 .2-1.2c.1 0 .2-1 .2-2.5a8 8 0 0 0-.2-2.5s-.2-.1-.2-.3l-.1-.3-.2-.3c0-.4-.4-.9-.6-.9-.1 0-.2 0-.2-.2l-.4-.1-.3-.2s-.1-.2-.3-.2l-.4-.1c0-.1-9-.2-26.6-.2H327v-.4c0-.2 0-.4.2-.4l.1-.4.2-.3s.2-.1.2-.3l.1-.4.5-.5c.1-.4.3-.6.4-.6l.1-.3c0-.2.2-.4.4-.6l.3-.4c0-.1 0-.2.2-.2l.1-.4.2-.3a65.4 65.4 0 0 1 7-6.7.2.2 0 0 1 .2-.1c.2 0 1.3-1.1 1.3-1.4l.3-.1c.2 0 .6-.3.8-.5l.7-.5.8-.6.8-.6.6-.5.7-.5c.2 0 .8-.4 1.6-1.2l.6-.3c.2 0 .3 0 .3-.2l.2-.1c.2 0 .3-.1.3-.2l.4-.3c.6-.3.9-.6.9-.9l.4-.1c.2 0 .5-.2.6-.4l.5-.3c.1 0 .4-.1.5-.3l.4-.4c.2 0 1.3-.7 1.3-1l.3-.1c.2 0 .3-.1.3-.2l.2-.2c.2 0 .4-.1.5-.3.1-.2.3-.3.5-.3s.4-.2.6-.4l1-.8.4-.3c.1-.2.3-.4.5-.4s.4-.2.7-.5l.6-.5.8-.5c.3-.4.7-.6.8-.6.2 0 .3-.1.3-.2l.1-.2c.2 0 .7-.3 1.4-1l.9-.6a4.2 4.2 0 0 0 1-.7c.2-.3.5-.5.6-.5l.2-.2c0-.2.2-.3.3-.3l.5-.3.4-.4.8-.5.7-.5.7-.5c.2-.4.6-.6.7-.6l.5-.4c.1-.1.3-.3.5-.3 0 0 .2-.1.2-.3v-.2c.2.2.6-.2.6-.4l.6-.6c.7-.5 1.6-1.4 2.2-2.2l.7-.6s.3-.2.4-.5a21.2 21.2 0 0 1 1.1-1.4l.6-.7.6-.8.3-.5c.2-.1.4-.3.4-.5l.3-.5c.2-.1.3-.3.3-.5 0-.1.2-.4.5-.6.2-.1.4-.4.4-.6l.1-.3.4-.5c0-.4.3-.6.3-.6l.2-.4.1-.3c.1 0 .2-.1.2-.3 0-.2.1-.4.3-.4l.2-.5c0-.1 0-.3.2-.3l.1-.3.2-.4s.2-.1.2-.3l.1-.4.2-.6c0-.3 0-.5.2-.5l.1-.3.2-.4s.2-.2.2-.5l.1-.6.2-.6.2-.7c.2 0 .3-.3.3-.6 0-.4 0-.7.2-.7l.1-1 .2-.8s.2-.4.2-.9l.1-.9c.1 0 .2-.6.2-1.6s0-1.6.2-1.6l.1-4-.1-4.1c-.1 0-.2-.8-.2-1.9 0-1 0-1.8-.2-1.8l-.1-1-.2-1.2s-.2-.3-.2-.8l-.1-1-.2-.6c0-.4 0-.6-.3-.7l-.2-.6c0-.3 0-.6-.2-.6l-.1-.6-.2-.6s-.2-.2-.2-.5l-.1-.5c-.1 0-.2-.2-.2-.5l-.2-.5-.1-.4-.2-.4s-.2-.1-.2-.3l-.1-.4c-.1 0-.2-.1-.2-.3a.8.8 0 0 0-.2-.5.8.8 0 0 1-.3-.5c0-.2 0-.3-.2-.3l-.1-.3-.2-.2-.2-.4-.1-.3c-.1 0-.2-.1-.2-.3 0-.2-.1-.5-.3-.7l-.4-.5-.4-.5-.4-.6-.4-.7-.4-.5a65.4 65.4 0 0 0-7.1-6.7l-.7-.4A203.3 203.3 0 0 1 366 7c-.2 0-1.4-.7-1.5-.9l-.3-.1c-.2 0-.4 0-.4-.2l-.4-.1c-.2 0-.4-.1-.4-.3a.3.3 0 0 0-.3-.2l-.6-.2c-.8-.4-1-.5-1.3-.5-.1 0-.3 0-.3-.2l-.3-.1-.4-.2-.6-.2-.5-.1c0-.1-.2-.2-.5-.2l-.6-.2c0-.2-.3-.3-.6-.3s-.5 0-.5-.2l-.6-.1-.6-.2-.7-.2-.6-.1c0-.1-.3-.2-.7-.2l-.9-.2-.9-.1-1-.2-1-.2c-.8 0-1.2 0-1.2-.2s-.4-.2-1.5-.2a177.5 177.5 0 0 0-17.6-.2m-53.1.4-.8.2-.5.2s-.2.2-.5.2l-.6.1-.6.2c-.3 0-.6 0-.7.2l-.6.1-.5.2-.6.2-.5.1-.5.2c-.3 0-.6.1-.6.3l-.7.2c-.3 0-.6 0-.6.2l-.7.1-.6.2s-.2.2-.5.2l-.5.1-.6.2c-.3 0-.6 0-.6.2l-.3.1-.6.2-.9.2c-.3 0-.6.2-.6.3l-.6.2-.5.1-.6.2c-.3 0-.5 0-.5.2l-.6.1-.6.2s-.2.2-.5.2l-.6.1-.6.2c-.4 0-.7 0-.7.2l-.5.1-.4.2s-.3.2-.7.2c-.4 0-.6.2-.6.3 0 .1-.1.2-.5.2l-.6.1-.6.2c-.4 0-.7 0-.8.2l-.6.1-.5.2s-.2.2-.5.2l-.6.1c0 .1-.2.2-.5.2l-.6.2c0 .2-.2.2-.5.2a.8.8 0 0 0-.6.2l-.8.2c-.3 0-.5.1-.5.2l-.6.2-.6.1c0 .1-.2.2-.5.2l-.5.2-.6.1-.6.2-1 .3-1.4.5a1 1 0 0 1-.6.2c-.3 0-.5 0-.5.2l-.6.1c-.3 0-.5.1-.5.2l-.6.2-.7.1c0 .1-.3.2-.7.2-.3 0-.5 0-.5.2l-.5.1-.6.2-.5.2c-.3 0-.5 0-.5.2-.1.2-.4.3-.7.3l-.6.1-.6.2c-.4 0-.7 0-.7.2l-.5.1-.6.2-.6.2-.5.1-.6.2c-.3 0-.5.1-.5.2l-.5.1c-.3 0-.6.1-.7.3l-.8.2c-.3 0-.5.1-.5.2l-.5.2-.5.1-.6.2c-.3 0-.6 0-.6.2l-.5.1-.6.2-.6.2c-1.3.3-1.7.4-1.7.6l-.7.2c-.3 0-.6 0-.6.2l-.5.1c-.3 0-.5.1-.5.2l-.6.2-.8.1-.6.2c-.2 0-.5 0-.5.2l-.5.1c-.4 0-.6.1-.6.2l-.4.2c-.4 0-1 .2-1.8.6l-.8.2c-.2 0-.5 0-.5.2l-.6.1-.6.2-.6.2-.6.1c0 .1-.2.2-.5.2l-.5.2-.5.1c-.4 0-.7.1-.7.2l-.5.2a1 1 0 0 0-.7.2c-.1.2-.4.3-.7.3l-.5.1-.5.2c-.2 0-.5 0-.5.2l-.4.1c-.3 0-.5.1-.5.2 0 0-.1.2-.3.2-.2 0-.3 0-.3.2s-.1.2-.2.2h-.2l-.3.5-.4.8c0 .2 0 .4-.1.3a201 201 0 0 0 .2 23.2l.1.3c.1 0 .2 0 .2.2s.6.7 1.3 1c.4.2.7.4 1 .4l.7.2c.3 0 .5.1.6.3l.6.2c.2 0 .5 0 .5.2l.5.1.6.2.5.2.5.1c0 .1.3.2.7.2.4 0 .7 0 .8.2l.5.1c.3 0 .5.1.5.2l.6.2c.3 0 .6 0 .7.2 0 .2.2.3.4.3l.6.1.8.2.6.2.5.1c.3 0 .5.1.5.2l.6.2.6.1c0 .1.2.2.5.2l.5.2.5.1c.3 0 .6.1.7.3l.8.2.5.2s.2.2.6.2l.5.1.5.2c.2 0 .5 0 .5.2l.6.1.6.2s0 .2.1.1c.5 0 1.2 0 1.2.2-.1.1.1.2.5.2s.7 0 .8.3c0 0 .2.2.5.2.2 0 .4 0 .5.2l.6.1.5.2s.2.2.6.2l.5.1.6.2c.3 0 .6 0 .7.2l.6.1.5.2s.2.2.6.2l.5.1c0 .1.2.2.5.2s.6.1.7.3l.7.2c.2 0 .5 0 .6.2l.6.1.6.2s.2.2.5.2l.5.1.6.2c.3 0 .6 0 .6.2l.5.1c.3 0 .5.1.5.2 0 0 .3.2.7.2.6 0 .8 0 .8.2s.1.3.5.3l.5.1c0 .1.2.2.6.2.3 0 .5 0 .5.2l.5.1.6.2.6.2.6.1c0 .1.3.2.7.2.3 0 .5 0 .5.2l.6.1c.3 0 .6.1.7.3l.4.2.6.2.8.2c.3 0 .6 0 .6.2l.5.1c.3 0 .5 0 .5.2l.6.1.6.2s.2.2.5.2l.5.1c0 .1.2.2.5.2s.6.1.7.3l.8.2c.2 0 .5 0 .6.2l.5.1c.3 0 .5.1.5.2l.5.2.6.1.6.2c.3 0 .5 0 .5.2l.6.1.6.2.6.2c.4 0 .7 0 .8.2 0 .2.3.3.6.3l.5.1c0 .1.2.2.5.2l.5.2.6.1c.3 0 .5.1.5.2 0 0 .3.2.7.2 1.5.3 1.8.3 1.8.5l.5.1c.3 0 .5.1.6.3l.7.2.5.2.6.2.6.1.6.2c.3 0 .6 0 .6.2l.5.1c.3 0 .5.1.5.2l.6.2.6.1c0 .1.2.2.5.2.2 0 .5 0 .6.2l.6.1c.4 0 .6.1.7.3 0 .2.3.2.8.2l.8.2s.4.2 1 .2l1-.2s.1-.2.3-.2c.6 0 1.8-1.2 1.8-1.7l.2-.5a88.9 88.9 0 0 0-.2-14.1l-.1-.6-.2-.4c0-.2-.1-.4-.3-.5l-.4-.4c0-.3-1.7-1.3-2.2-1.3l-.4-.1c0-.1-.3-.2-.7-.2-.4 0-.7 0-.7-.2l-.5-.1c-.3 0-.6-.1-.7-.3l-.8-.2-.5-.2-.7-.2-1.2-.2c-.3 0-.6-.2-.6-.3l-.6-.1-.8-.2-.6-.2-.5-.1c0-.1-.3-.2-.7-.2-.5 0-.8 0-.8-.2a.4.4 0 0 0-.4-.3 74 74 0 0 1-.2-13.4c0-15-.1-14 1-14l.7-.1.8-.2.6-.1.6-.2c.3 0 .6 0 .6-.2l.6-.1c.4 0 .6-.1.7-.3 0-.1.3-.2.7-.2l.8-.2.5-.2.5-.1.8-.2c.4 0 .7 0 .7-.2l.6-.1.7-.2.5-.2c.4 0 1.4-.5 1.4-.7l.2-.1c.2 0 1.3-1.1 1.3-1.4 0-.2 0-.3.2-.3l.1-.5c0-.3.1-.6.3-.7.2-.3.2-1.3.2-7.4 0-6.1 0-7-.2-7.1-.2 0-.3-.3-.3-.6 0-.6-1-1.7-1.4-1.7a.8.8 0 0 1-.5-.2c-.3-.3-2.5-.3-2.8 0M.5 68.3v64.9h177V3.5H.5v64.8m249-29.8c0 5.8 0 8.8-.2 8.8a.2.2 0 0 1-.1-.1l-.5-.2c-.3 0-.6 0-.6-.2l-.7-.1-.7-.2-.5-.2-.6-.1-.8-.2c-.3 0-.6-.1-.5-.2l-.6-.1c-.5 0-.7-.1-.7-.3 0-.1-.2-.2-.5-.2l-.6-.2-.7-.2-.7-.1c0-.1-.2-.2-.5-.2s-.5 0-.6-.2l-.7-.1-.7-.2s-.2-.2-.5-.2l-.6-.1-.6-.2-.6-.2c-.1-.1-.4-.3-.7-.3-.3 0-.6 0-.6-.2l-.7-.1c-.4 0-.6-.1-.6-.2l-.7-.2-.6-.1c0-.1-.2-.2-.5-.2-.2 0-.5 0-.6-.2l-.7-.1c-.4 0-.7-.1-.7-.2 0 0-.2-.2-.5-.2-.2 0-.5 0-.5-.2l-.7-.2c-.4 0-.7-.2-.7-.2l-.7-.2c-.3 0-.5 0-.5-.2l-.6-.1-.7-.2s-.3-.2-.7-.2l-.5-.1-.5-.2c-.3 0-.6 0-.6-.2l-.8-.1c-.4 0-.6-.1-.7-.3l-.4-.2c-.5 0-.9-.2-.9-.5 0-.1.2-.2.7-.2.4 0 .7 0 .7-.2l.5-.1c.4 0 .6-.1.6-.2 0 0 .3-.2.7-.2l.7-.1c0-.1.2-.2.5-.2.4 0 .6-.1.7-.3 0-.1.3-.2.7-.2.3 0 .6 0 .6-.2l.7-.1.7-.2s.3-.2.7-.2l.5-.1c0-.1.3-.2.7-.2.4 0 .7 0 .7-.2l.5-.1c.4 0 .6-.1.6-.2l.6-.2c.4 0 .6 0 .7-.2 0-.2.3-.3.7-.3l.5-.1c0-.1.3-.2.7-.2.4 0 .7 0 .7-.2l.6-.1.6-.2.8-.2.6-.1.5-.2.5-.1c0-.1.3-.2.7-.2l.7-.2.7-.2c.3 0 .5 0 .7-.2.1-.2.4-.3.7-.3l.5-.1c0-.1.3-.2.7-.2.4 0 .7 0 .7-.2l.6-.1c.3 0 .5-.1.5-.2 0 0 .3-.2.7-.2l.7-.1.6-.2c.3 0 .5 0 .5-.2l.6-.1c.3 0 .7-.1.8-.3.8-.9.8-.9.8 8.6M116 37.3c6.2.5 6.4.6 6.4 3l-.2 2.1-.4 1.8a19 19 0 0 1-.9 4.5c-.6 1.3-.6 1.3-8.2.8a72 72 0 0 0-15 .5s-.1.2-.3.2c-.5 0-2 1.5-2.3 2.2-.7 1.9-.8 2.7-.3 4 .4 1 1.4 2.4 1.9 2.6.2 0 .3.1.3.2l.3.1.4.2c0 .1 2.3 1 2.7 1 .1 0 .3 0 .3.2l.7.1.7.2s.3.2.7.2l.6.1.7.2.6.1.8.3 1.5.3 1.5.4c.3 0 .5.2.6.3l.6.1c.2 0 .5 0 .6.2l.5.1.6.2.4.2.7.1a13.6 13.6 0 0 0 1.5.7l.5.3a17 17 0 0 1 7 5.1c1.2 1.5 2 3.3 2.6 5.2.6 2 .8 6.4.5 8.4a18.2 18.2 0 0 1-1 3.9v.6c-.2.1-.5.8-.8 1.4-1 2.3-4.7 6.3-5.8 6.3l-.2.1A25.2 25.2 0 0 1 108 99c-3.4 1-22.2 1-25.7 0a4 4 0 0 0-.9-.2c-1 0-1.6-1-1.4-2.4l.6-3.6.2-1.2.1-1 .2-1c0-.5 0-1 .2-1l.1-.5c0-1.1 1.6-1.6 4.5-1.3 5.7.6 16.4.8 18.9.4 2.7-.5 5.1-2 5.1-3.3l.2-.3c.1 0 .2-.9.2-2 0-1-.1-1.8-.2-1.9l-.2-.3c0-.3-1.2-1.7-2-2.3-.5-.4-2.2-1.1-3.1-1.4a346.3 346.3 0 0 1-2-.6l-1.6-.4-.3-.2-.8-.2-.7-.1-.6-.2c-.4 0-.7 0-.8-.2l-.4-.1-.9-.2a45.4 45.4 0 0 0-1.3-.3 20.5 20.5 0 0 1-3.9-1.4l-.5-.1-.3-.2a12.3 12.3 0 0 1-3-1.7c-.2 0-.4-.3-.4-.3l-.2-.2a14.2 14.2 0 0 1-3.7-3.6l-.1-.4c0-.2-.1-.3-.2-.3l-.8-1.3a134.4 134.4 0 0 0-.7-1.6 1.8 1.8 0 0 1-.2-.7l-.1-.5-.2-.7c0-.4 0-.7-.2-.8a26.5 26.5 0 0 1 .4-10.2l.1-.4c0-.3 0-.3 1-2.2l.7-1.3c.1 0 .2 0 .2-.2a18.1 18.1 0 0 1 4.3-4.3l2.2-1.2L91 39a1.6 1.6 0 0 1 .7-.2l.4-.1.5-.2L94 38c1.2-.4 2.3-.6 3.8-.7L99 37c.2-.2 14.1 0 16.9.2M52 38a27.8 27.8 0 0 1 2.9.6c.2 0 .5 0 .5.2l.6.1.6.2.4.2.6.1a56.4 56.4 0 0 0 3.4 1.8l.6.4c1.7 1 5.2 5.8 5.2 7.2l.2.4.2.6.1.7.2.8a45.3 45.3 0 0 1-.2 10.5l-.1.6-.2.7-.6 1.3-.6 1-.1.4-.2.3-.2.2-.1.3a28.4 28.4 0 0 1-6.2 5.8c-.7.4-.7 1.3 0 1.9.2.1 1.3 2.1 1.3 2.3l.2.2s.2 0 .2.2l.1.3a.2.2 0 0 1 .2.1l.7 1.3 1.4 2.4c0 .2.2.3.3.3l.1.2.4.7c.5.7 1 1.5 1 1.8l.3.3.2.3 1 1.8c.5.7 1 1.5 1 1.8l.3.3.1.2.8 1.3.7 1.3.2.2s.2.1.2.3l.1.4c.1 0 .3.2.4.5l1.2 2 .4.8.2.2c.2 0 .6 1.2.6 1.8 0 .7-.4 1.2-1 1.5-.7.3-13.1.4-13.5 0a.8.8 0 0 0-.4-.2c-.6 0-2-1.7-3-3.9l-.5-.9-1-1.9-.5-.8-.4-.6-.3-.5-.2-.4v-.3c-.2 0-.3-.2-.4-.4L50.1 87l-.1-.4c0-.2 0-.3-.2-.3a.2.2 0 0 1-.1-.2l-.6-1a23 23 0 0 1-1.4-2.7l-.4-.6a21 21 0 0 0-.8-1.3l-.5-1.2-.1-.2-.3-.3-.7-1.3a21.7 21.7 0 0 1-.8-1.6 20.8 20.8 0 0 0-.4-.8c-.3-.4-.2-2.8 0-3l.1-.5.2-1 .6-2.4c.5-2 .9-2.9 1.6-3.4.4-.3.6-.4 2-.6l.9-.3a97.4 97.4 0 0 1 1.6-.8c.4 0 2.1-1.8 2.1-2.2l.2-.4c1-1.1.8-6.2-.3-8.1-.5-1-2-2.1-2.6-2.1l-.3-.2-.7-.2-.7-.1c0-.1-2.2-.2-5.8-.2h-5.8v23.6c0 27.2 0 25.6-1.6 26-1 .3-11 .2-11.5-.1-1.2-.6-1.1 1.8-1.1-30.6 0-31.7 0-29.9.9-30.4.6-.5 26.3-.5 28.5 0m101.1 0 .6.8.1.4c.1.1.2 10 .2 29.2a979 979 0 0 1-.3 29.6c0 .2-.3.5-.6.7l-.5.5h-5.8c-6.4 0-6.3 0-6.9-1.3-.4-1-.4-58 0-59 .6-1.2.5-1.2 7-1.2h5.7l.5.4m110.3 40.8c0 .2-.2.3-.4.3-.4 0-1.2.7-1.2 1.1l-.1.4c-.1.1-.2 5.6-.2 16v16h-30.2a1043.5 1043.5 0 0 0-30.7.3c-.3 0-1.4 1-1.4 1.5l-.3.4c-.2.3-.2 1.4-.2 8.1 0 6.8 0 7.9.2 8 .2 0 .3.2.3.3 0 .2.1.4.3.5l.3.4c0 .2.5.6.8.6l.2.2c0 .1 13.2.2 39.1.2a1726.3 1726.3 0 0 0 39.3-.4c.3 0 1.3-.9 1.3-1.2 0-.1 0-.3.2-.3l.1-.4c0-.2.1-.5.3-.7.2-.2.2-2.9.2-22.2a221.9 221.9 0 0 0-.5-22.7c0-.3-.3-.9-.6-1.3a14.4 14.4 0 0 1-.5-.6c-.3-.4-1.4-1-1.8-1l-.2-.2-.6-.2c-.3 0-.6 0-.6-.2l-.6-.1-.6-.2-.6-.2c-.5 0-.7 0-.7-.2s-.2-.3-.5-.3l-.6-.1-.6-.2c-.2 0-.5 0-.5-.2l-.5-.1c-.4 0-.7-.1-.7-.2l-.7-.2-.6-.1c0-.1-.2-.2-.5-.2l-.5-.2-.5-.1c-.3 0-.6-.1-.7-.3-.4-.3-3.6-.3-3.7 0"/><path fill="#fcd97c" d="M99.8 37.3h.7-.7m11 0h1.3-1.2m-12.5.1h.6-.6m15.2 0h1-1m3.1.2h.8-.8M23.5 38.1l-.3.2c.1 0 .4 0 .6-.2.3-.1.4-.3.3-.3l-.6.3m26.3-.2 1 .1h.5l-1.5-.1m70 0 .7.2c.4 0 .5 0 .3-.1l-1-.1m-67.1.3.6.2h.2c-.2-.2-1-.3-.8-.2m69 .3c.3.2.4.5.5 1.4v1l.1-1c0-.9-.4-1.7-.8-1.7l.2.3M153.7 68.4V83v-29 14.5M60 40.7l1.7 1a7 7 0 0 0-1.6-1c-.1 0-.1 0 0 0m26.8.7-.5.5.6-.4.5-.4c0-.2 0-.1-.6.3m35 .6v.6l.2-.5c.1-.6 0-.8-.2-.1m-60-.1.5.5.5.5-.5-.5c-.4-.5-.6-.6-.6-.5m24 .5-.6.5.6-.5.5-.5-.6.5m-21.6 1.8.7.8c.1 0-.6-1-1-1.3-.2-.1 0 0 .3.5m57.5-.1v.7l.2-.5v-.7l-.2.5m-.2 1.7a7.3 7.3 0 0 1-.2.7c0 .4 0 .4.1.1.1-.1.2-.4.1-.6v-.2m-.4 2v.4c.1 0 .2-.3.1-.6 0-.3 0-.3-.1.2m-39.8 1.6a3 3 0 0 0-.2.8l.3-.5.2-.8-.3.5m27.6-.3h1.3H108.8m-72.2.2H40c6.3 0 6.9 0 1.8-.1h-5m74.7 0h.9-.9m-63.7.2h.6-.6m50.4.2c-.7.3-.4.3.5 0 .3-.1.5-.2.3-.2s-.5 0-.8.2m16.2-.1h1.2l-.6-.1h-.6m2.4.2h.6-.6m1.4.2h.8-.8m-67.4.4c.2.3 1.3 1 1.1.7a2.8 2.8 0 0 0-1.1-.7m30 .9v.7c0 .3 0 .3.1-.2.2-.7.1-1 0-.5m-13.4.4v.3a1.4 1.4 0 0 0 0-.6v.3m.3 2.8v.5a6.2 6.2 0 0 0 0-1.2v.7m12.9.5v.8V54v.8m13.8 0v.6a5.3 5.3 0 0 0 0-1.1v.5m-40.7 1.8c0 2 0 2 .2 1v-2.1c-.1-1-.2-.8-.2 1m14 1.7v.6a7.2 7.2 0 0 0 0-1.3v.7m13 0 .1.9v-.5c0-1-.1-1.2-.1-.4m15 .2.6.6-.5-.6-.6-.6.5.6m-28.3 2.3v.3-.6.3m33.4.2.6.2h.3c-.3-.2-1-.4-.9-.2m-51.7 3c-.3.1-.4.3-.3.3l.7-.3c.5-.3.2-.3-.4 0m33.7.7a7 7 0 0 0 1.1 1.6l-.4-.8c-.7-1-.7-1-.7-.8m-37.1.7-.3.6.4-.5c.5-.7.4-.8-.1 0m69.6 0c.6.3 1 .4.5.1l-.6-.3.1.1m-30.3 2c.6.7 1.4 1.5 1.8 1.7l-1.4-1.3c-1.3-1.3-1.4-1.3-.4-.3M62.7 69l-1.3 1.4 1.4-1.3m56.6-1 .8.7.7.6-.6-.7a3 3 0 0 0-.9-.7m1.6 1.6c0 .1.2.4.5.6l.4.4-.4-.5a13.4 13.4 0 0 1-.5-.6v.1m-77 1v.5s.2-.1.2-.4v-.5l-.1.4m15.8.8-.5.5.6-.4.5-.4c0-.2 0-.1-.6.3m62.5.3.4.5s0-.3-.2-.5l-.4-.5.2.5m-31.2-.1c0 .1 1.2.6 1.3.5l-.6-.3-.7-.2m-47.7 1.9c0 .4 0 .6.1.4a2.4 2.4 0 0 0 0-.8v.4m14.7 0c.3.5.5.8.5.6l-.3-.6c-.2-.3-.3-.3-.2 0m39.2 0 .6.2c.3.1.4.1.2 0-.2-.2-1-.3-.8-.1m2.2.6.5.1c.5 0 .3 0-.3-.2h-.2m1.3.4.6.2c.4 0 .3-.1-.3-.3h-.3m23 1.4c0 .5.3 1.2.3.8a2 2 0 0 0-.1-.7c-.1-.2-.2-.2-.2 0m-79 1.3c0 .2.2.5.3.5 0 0 0-.3-.2-.5l-.4-.5.2.5m64 .5c.2.4.5.6.6.6l-.5-.6-.6-.5.4.5M46 79.1c.3.5.5.8.5.6l-.3-.5c-.3-.3-.3-.3-.2-.1m78.5 1.2v2.3l-.2.8.2-.8c.1-.4.2-1.5.1-2.3v-1.6 1.6m-14.2 1.2v.4-.8.4m-62.6.9.8 1.3-.2-.5c-.3-.6-.6-1-.6-.8m62.4.6v.3a1.4 1.4 0 0 0 0-.6v.3m14 1.5a3 3 0 0 1-.1.6c-.1.3-.1.3 0 0 .2-.1.2-.4.2-.6 0-.2-.1-.2-.1 0m-59 .3c.2.5.5.8.5.6l-.4-.6c-.2-.2-.3-.3-.1 0m43.8.7c-.4.4-.6.6-.3.5.3-.2 1.3-1.3 1.1-1.3l-.8.8M66.6 87c0 .3.3.6.5.8l-.1-.3c-.5-.8-.8-1.2-.4-.5m16-.1h3.5c-.9-.2-3.4-.2-3.5 0m-31.8.7c0 .2.2.5.3.5 0 0 0-.3-.2-.5l-.3-.5.2.5m31-.3c-.2.3-.3.7 0 .4 0-.2.3-.4.4-.5.1 0 .2-.1 0-.1 0 0-.2 0-.3.2m6.6-.1h1-1m15.8 0c-.5.2 0 .2.8 0 .4 0 .4 0 0-.1a3.2 3.2 0 0 0-.8.1m-13.7.2h.7l-.4-.1h-.3m10.1.2h1.8-1.8m-19.6 1.5v.8-.2c.2-.8.2-1 0-.6m-.3 2.1-.1.8.1-.3c.2-.8.1-1.1 0-.5m-11.3.7c.3.6.5.9.5.7l-.3-.6c-.3-.3-.3-.3-.2 0m49.8 1.7-.9.8 1-.8c.8-.6 1-.9.9-.9l-1 .9m-38.9-.3a2 2 0 0 0 0 .7l.1-.2c.2-.6.1-1 0-.5m-9.7.7c0 .2.7 1.2.8 1.2l-.3-.6c-.4-.8-.5-.8-.5-.6m46.2 1.3c-1 .7-1.3 1-.5.5l1-.6.3-.3c0-.2 0-.2-.8.4m-61.1 1.4.6 1s0-.3-.3-.8c-.7-1-.9-1.1-.3-.2m16.4.5.1.8v-1.4.6m-36 .3c0 .2-.3.6-.5.8l-.2.4c.2 0 .8-1 .7-1.3v.1m43.6-.2c0 .2.4 1 .6 1 .3.1.3 0 0-.2a4.6 4.6 0 0 1-.4-.6l-.2-.2m30 1c-.3 0-.4 0 0 0h.5c.3-.3 0-.3-.5 0m42.8.2-.5.4h-5.7a57.4 57.4 0 0 0 .2.2c5.6 0 6 0 6.5-.8.3-.3.2-.3-.5.2m-44.2 0c-.5.2-.5.2-.1.2l.7-.1c.2-.2.1-.2-.6 0m-43.7.3h-6.3l6.2.1a60.2 60.2 0 0 0 .1-.1m18.8.1h1-1m3 .2h.8-.7m17.3 0-.8.1h1.9c.5-.2 0-.2-1.1 0m-15.6 0a8.3 8.3 0 0 0 1.3 0H88.5m7 .3"/><path fill="#fce9b4" d="m100 37.3 6.2.1h5.4c-2-.2-10.6-.2-11.7 0m-3 .3c-1.9.3-4 .9-3.7 1l.8-.2 3.3-.7c1.8-.2 1.9-.3 1-.3a9.3 9.3 0 0 0-1.5.2m17.3 0 2.8.1c4.1.4 4.8.6 5.1 1.5.1.3.1.4.2.1 0-.5-.5-1-1.2-1.2a44.8 44.8 0 0 0-7-.6m-90.3.5c-1.1.6-1-1.5-1 30.4a417 417 0 0 0 .3 29.3L23 68.6c0-31.8-.1-29.8 1-30.4a412.4 412.4 0 0 1 29.4.2c-2.5-.5-4.1-.6-16.6-.6-11 0-12.5 0-13 .3m117.1.1c-.8.6-.8-.3-.8 30.6V98l.5.5.5.4h5.6a68.4 68.4 0 0 0 .2-.2H141l-.4-.3-.3-.4V68.4c0-26.2 0-29.5.2-29.8.6-.6.9-.6 6.4-.6 5.7 0 5.9 0 6.4.9.2.3.2.3.2 0 0-.2-.3-.5-.7-.7a41 41 0 0 0-12 0m-86.2.6.5.2c.4 0 .4 0 .1-.2-.4-.2-.7-.2-.6 0m1.2.4.5.1c.3 0 .3 0 0-.1a1.1 1.1 0 0 0-.5-.2c-.2 0-.2 0 0 .2m1.1.3a.4.4 0 0 0 .3.2 17.6 17.6 0 0 1 3.7 1.8c.2-.2-1.7-1.2-3.1-1.8-1-.4-1-.4-.9-.2m32.5.5-1.9 1.1-.4.4.5-.3 1.9-1c1.5-.7 1.7-.9 1.4-.9l-1.5.7m64.2 28.4V83a5907.7 5907.7 0 0 0 0-14.5m-31.6-28a25.7 25.7 0 0 1 0 1.3c.1-.3.2-.7.1-1.1v-.3m-61 1.3.6.5c.8.6 2 1.7 2.5 2.5l.5.6c.1 0 0-.4-.4-.7-1-1.3-3.1-3.3-3.1-2.9m24.8.6-.7.8 1.7-1.5-1 .7m35.6.8a74.5 74.5 0 0 1-.3 2c-.3 1.6-.3 2.5 0 1.2.4-2.2.6-3.5.5-3.8l-.2.6m-36.9.5c-.8.7-2.9 4-2.9 4.6 0 0 .3-.3.6-1 .6-1.2 1-1.8 2-3 .8-1 .9-1.1.3-.6m-19.9 2 .2.2c.2.2 1.1 2.1 1.5 3.4l.5 1c.1-.1-.6-2.2-1.3-3.4-.6-1.2-.9-1.6-.9-1.2m56 2.5c-.1.2-.1.4 0 .4l.1-.2v-.5l-.2.3m-39 .4-.2.4c0 .2 0 .2.2 0l.1-.3c0-.1-.1-.1-.2 0m20 .3 3.2.1h2.3c-2.3-.2-4.2-.2-5.5 0m18.7.1-.2.3c.1 0 .6-.5.5-.6l-.3.3m-83.9.1v48.3l.1-24V49.1h11.1c-.5-.2-11-.2-11.2 0m62.8 0c-.4.2 0 .2.6 0l.5-.2h-.5c-.2 0-.5 0-.6.2m12.5 0h3.1-.8l-2-.2h-1.4l1.2.2m-63 .3c.4.2.7.2.6 0l-.5-.2c-.4 0-.4 0-.1.2m32.5.2c-.1.2-.1.4 0 .4l.1-.3v-.4l-.2.3m36.2-.2c1 .2 1.6.2 2 0 .4-.1.1-.1-1.5-.1h-2l1.5.1m-66.8.6c1.4.7 2.5 2 2.9 3.4l.3 1V54c0-1.5-2.6-4.4-4-4.4l.8.4m45.3.6c-.8.7-1.6 2-1.5 2.8 0 .3 0 .3 0 0a5.7 5.7 0 0 1 2-3l.5-.5-1 .7m-28.9 0c0 .2 0 .5.2.6.2.4.2-.2 0-.7-.2-.3-.2-.3-.2 0m14 0a17 17 0 0 1 0 .8c-.2.4-.2.5 0 .2.1-.1.2-.5.1-.8v-.3m-13.7 2 .1 1.2c.2.5.2-.6 0-1.3-.1-.5-.1-.5-.1.2m13.3 2.3v1.5a44.6 44.6 0 0 0 0-1.5m-26.8.7c.4 3.6-1 6.5-3.6 8-1.2.5-1.4.8-.4.3 2.6-1.3 3.5-2.5 4.1-5.5.2-1 .2-2.8 0-3.4v.6m13.7.6v.4a3.7 3.7 0 0 0 0-.9v.5m26.6 0 .2.6.2.4c0 .5 1.8 2.2 2.9 2.7a28.9 28.9 0 0 1 1.9.8c.1 0-.2-.3-.8-.5-2.7-1.1-3.4-1.7-4-3.6-.3-.7-.4-.8-.4-.4M81 58.3l.1 1 .1.5v-.6l-.1-1c-.1-.3-.1-.2-.1.1m-13.4.5c-.1.3-.2.7-.1 1v.5l.1-.6c.1-.3.2-.7.1-1 0-.3 0-.3-.1.1m13.7 1.4c0 .4.3.8.3.4 0-.2 0-.5-.2-.5l-.1.1m-14 .7c-.3.5-.2 1 0 .6l.1-.6c0-.3 0-.3-.2 0m32.9 0H100.9h-.3c-.5-.3-1-.3-.6 0m1.2.3.5.1c.4 0 .4 0 0-.1-.4-.2-.6-.2-.5 0m1.3.3.6.2h.3l-.3-.2c-.5-.2-1-.2-.6 0m1.2.3a35.8 35.8 0 0 0 4.5 1.2l.7.2c.3 0 .3 0-.2-.2a28 28 0 0 0-2.3-.7 61.2 61.2 0 0 1-1.6-.4c-1-.2-1.6-.3-1 0m-37.1.6c-1 3.1-3.6 6.5-7 8.9-2.2 1.5-2 1.1-.7 3.5a49.7 49.7 0 0 0 1.1 1.8l.7 1.2.5.9.5.8.3.4c.4.3.3.1-1-2a22.2 22.2 0 0 1-1.4-2.3l-.2-.2-.7-1.3c-1-1.5-1-1.4.7-2.5 1.6-1 4-3.3 5-4.6A15 15 0 0 0 67 62c0-.1-.2.1-.3.5m15.1-.3c0 .4 1.3 2.9 1.5 2.7 0 0 0-.3-.3-.5l-.7-1.4c-.3-1-.5-1.2-.5-.8m27.7 1.1.6.2h.3l-.3-.2c-.5-.2-1-.2-.6 0m1.2.4.5.1c.2 0 .2 0 0-.1a1.1 1.1 0 0 0-.5-.2c-.3 0-.3 0 0 .2m.8.2.6.3 2.8 1.2.7.2c.1-.1-1.4-.8-2.9-1.4-1-.4-1.2-.4-1.2-.3m-63.5.4-1.1.4c-.7.2-1.3.6-1 .6l.3-.1.6-.3c1.8-.5 2.3-.7 2-.7a3 3 0 0 0-.8.1M83.8 66C84.6 67 88 70 88 69.7c0 0-.2-.3-.5-.4a17.3 17.3 0 0 1-4-4.1c-.1 0 0 .3.3.7m-38.4.2-.2.7s.2 0 .2-.2l.3-.7c0-.1.1-.3 0-.4l-.3.6M44.7 68.7l-.3 1.7.3-.9c0-.5.2-1.1.3-1.4.1-.2.2-.6.1-.8l-.4 1.4m74.8-.5 1.4 1.4s-.2-.4-.7-.8a3 3 0 0 0-.7-.6M88.3 70l1.8 1s-.1-.2-.4-.3a10 10 0 0 1-.9-.6c-.4-.3-.8-.4-.5-.1m33.4.8.7 1c.2 0-.6-1.3-1-1.7-.3-.2-.2 0 .3.7m-77.6.4v.6l.1-.5v-.6l-.1.5m46.2-.1c0 .1 1.2.6 1.3.5l-.5-.3c-.7-.3-.8-.3-.8-.2m2.7 1.1c.6.3 2.7.8 3.3.9.4 0-.4-.2-1.9-.6l-1-.4c-.6-.2-1-.1-.4.1m-49.2.3c-.2.5-.1 1.7 0 2l.1-1c0-1.4 0-1.5-.1-1m53.2.8.6.2h.3l-.3-.2c-.5-.2-1-.2-.6 0m1.3.4.5.1c.3 0 .3 0 0-.1a1.1 1.1 0 0 0-.5-.2c-.2 0-.2 0 0 .2m1.3.3c.5.2.9.2.6 0a1.2 1.2 0 0 0-.6-.2h-.3l.3.2m1.2.3c.7.2 1 .2.7 0l-.7-.1h-.4l.4.1m22.8.3.2 1.2.4 1.7c0 .7.1.8.1.3 0-.6-.3-2.3-.6-3.2l-.2-.5v.5m-21.7 0c.2.1 1 .2 1 0l-.6-.1h-.4m2 .6 1.1.4.4.2.2-.1a8 8 0 0 0-2.2-.8c-.2 0 0 .2.6.3m-59.9 0 1.1 2-.5-1c-.5-1.1-.6-1.2-.6-1m62.5 1 .8.5c1.2.6 2.1 1.4 2.6 2.4.2.5.4.8.4.6 0-.4-.9-1.7-1.6-2.3-.8-.7-2.2-1.5-2.2-1.2m-61 1.7c0 .3.2.5.3.5l-.3-.6-.4-.5.3.6m.4.8.2.3.8 1.3c.5 1.2.9 1.7.9 1.4l-.4-.7c-1.3-2.3-1.5-2.6-1.5-2.3m78.6 1.9v1a18 18 0 0 0 0-1m-14 1.2c0 1 0 1.5.1 1.3a8 8 0 0 0 0-2.7l-.1 1.4M62.7 81a190.1 190.1 0 0 1 2.4 4c.1 0 0-.4-1.4-2.5-1-1.8-1.8-2.9-1-1.5M48 82.5a114.3 114.3 0 0 1 1.7 3.1l.4.5-.4-.9a28.4 28.4 0 0 0-1.7-2.7m76.2.8-.3 1.7c-.4 1.7-.5 2.2-.2 1.5.3-.9.7-2.9.6-3.3 0-.4 0-.3-.1.1m-14.2.8c-.4 1.3-1.7 2.4-3.5 2.9l-1 .3h.4l.7-.1 1-.5c1.4-.6 3-2.3 2.7-3 0-.2-.2 0-.3.4m-44.8 1 1 1.8a49 49 0 0 1 1.8 2.8c0 .2 1.2 2.1 1.4 2.2.2.2-.1-.4-.6-1a15.5 15.5 0 0 1-.6-1c-1.2-2.2-3-5.1-3-4.9m17.1 2.2-.4.4.4-.1c.2-.2.9-.2 3-.2 2.3 0 2.6 0 1.4-.1-2.4-.3-3.9-.2-4.4 0m41 0-.1.5c0 .4 0 .4.1 0 .2-.4.2-.6 0-.4m-34.2.2 3.7.1a22.5 22.5 0 0 0-3.7-.1m14.9 0-.8.1h.9l1-.1c.4-.2.1-.2-1.1 0m-9 .3c1.2.2 5.7.2 6.7 0H95m-13.8 1.3v.7c0 .1.3-.7.2-1 0-.1-.2 0-.2.3m41 .4c-1 2-3.2 4.4-5.3 5.7a6 6 0 0 0-1.3 1c.2 0 3.1-2 4-3 1.3-1.2 3.3-4 3-4.3l-.4.6m-70 .7.9 1.5.8 1.6c0 .1.7 1.2.8 1.1v-.3a15 15 0 0 1-.9-1.4c-1-2-1.6-2.8-1.6-2.5m28.6 1v1c.1 0 .3-1.1.2-1.6l-.2.5m-11.4 1.2.3.5.4.6.5.9c.3.4.8 1.3 1 1.9.4.6.6 1 .6.8 0-.3-.3-1-1.6-3-1-1.7-1.2-2-1.2-1.7m11.1.8a130.9 130.9 0 0 1-.3 2.5c-.4 2 .1 3.1 1.2 3l-.3-.2c-.7-.3-1.1-1.2-.9-2a5.5 5.5 0 0 0 .2-1.3c0-.3 0-.8.2-1l.1-1.2c0-.6 0-.6-.2.2m-25.8 1.6c0 .2 1.4 2.5 1.5 2.4v-.3a11 11 0 0 1-.7-1c-.5-.9-.8-1.3-.8-1.1m58.7 2.3-1 .4c-.3.1-.5.3-.3.3l.6-.2a25 25 0 0 1 1.2-.6 1.2 1.2 0 0 0-.5.1m-57 .6 1 1c.2 0 0-.2-.3-.6-.8-.7-1-.9-.7-.4m96.6.6-.3.5.4-.3.3-.5c0-.1-.2 0-.4.3m-81.1 0a2 2 0 0 1-1 .6l-.6.2h.6c.6-.2 1.5-.9 1.3-1 0-.1-.2 0-.3.2m38 0c-.3.2 0 .2.6 0l.3-.2h-.3a1.2 1.2 0 0 0-.6.2m-1.4.3-.3.1h.3l.7-.1.5-.1h-.5a2.2 2.2 0 0 0-.7.1m-84.7.3.9.2h.4l-.4-.2-.9-.1h-.3l.3.1m10.5 0-.5.2h.6c.3 0 .7 0 .8-.2.3-.2-.1-.2-.9 0m23.9 0 .9.2h.5l-.5-.2c-.7-.2-1.4-.2-1 0m24.4 0a11 11 0 0 0 1.4.2h.6l-.5-.2h-2.4.9m24.2 0c-.5.2.2.2 1 0h.5l-.6-.1-1 .1m-20.2.4h3.6-1l-2.6-.2h-1.6l1.6.2m17.5 0h-.6l.6.1 1.5-.1 1-.2h-1a9 9 0 0 0-1.5.2m-9.8.3"/><path fill="#fcd459" d="M99 37.2h1l1.7-.1c.1-.2-2.5 0-2.8 0M96.5 37.6h.7l1-.1-1.7.1m18.6 0h3.1l-1.8-.1h-1.3m-91.5.5-.1.2 1-.3h.6l-.6-.1c-.3 0-.7 0-1 .2m25.7 0a45.3 45.3 0 0 1-.2-.2h-2l2.2.1m45.4.1c-.4.2-.4.3-.1.2l1-.3h.7l-.5-.1a2.9 2.9 0 0 0-1.1.2m25.1 0 1.5.2c.3 0 .3 0-.1-.2l-1.4-.2h-1l1 .1m21 .2c-1 .8-1-1.1-1 30.4 0 30.9 0 29.6.7 30.3.3.2.3.2 0-.1-.6-.9-.6-.2-.6-30.2 0-31.3 0-29.7 1-30.3.1-.1.6-.3 1-.3h.6l-.7-.1c-.4 0-.8 0-1 .3m11.2-.2c.8 0 1.4.5 1.6 1 .1.2.1.2.2 0 0-.5-1-1.1-1.8-1.1h-.6.6m-129 .8-.2.4s.2 0 .3-.2c.1-.2.2-.4.1-.5l-.2.3m30.6-.2.5.2c.2 0 .2 0 0-.2a1.1 1.1 0 0 0-.5-.1c-.2 0-.2 0 0 .1m100.3 30.1v29.2a3473.3 3473.3 0 0 0 0-29.2m-31.4-28.6v.3-.6.3M58 39.6l1.1.6.8.3c-.1-.2-1.7-1-2-1v.1M22.7 68.4v14.4a5773.2 5773.2 0 0 0 0-14.4m99.6-27.2a7.2 7.2 0 0 1-.1 1c-.1.3-.1.3 0 0 .2 0 .2-.5.2-.8 0-.6 0-.6-.1-.1M62 42c.4.5.9.8 1 .8l-.6-.5c-1-1-1.3-1-.4-.3m23.8.1-.8.8.7-.7 1-.9-1 .8m36 1.2c0 .4.1.6.2.4V43l-.1.3m-37.6.3-.6.7.7-.6.6-.6c0-.2-.1 0-.7.5M64 44c.4.3.8 1 1 1.4l.6.7c.1 0-1-1.8-1.6-2.4-.6-.6-.6-.4 0 .3m19.4.7c-.4.5-.2.6.2 0l.1-.4-.3.4m38.2.1v.6l.1-.4c.2-.7 0-.8-.1-.2m-39.3 1.7c-.4.6-.6 1.2-.6 1.4l.4-.7.7-1.4c.2-.2.3-.5.2-.5l-.7 1.2m39 .3v.5l.1-.3v-.4l-.2.2M66.5 48l.4.8-.7-1.7s0 .4.3 1m54 1.2-.2.3c.2 0 .7-.5.6-.6 0 0-.2 0-.4.3m-53.6 0c0 .3.3.7.4.4L67 49h-.2m32.8.2-.5.2h.5c.3 0 .6 0 .7-.2.3-.2 0-.2-.7 0m10.6 0c.7.2 3.8.3 3.6.1a23.5 23.5 0 0 0-3.6 0m-73.6 0a1298.1 1298.1 0 0 0 0 47.4c.1-.2.2-11 .2-23.8V49.5h10.8l-5.4-.1h-5.6m11.8.3.5.1c.3 0 .3 0 0-.1-.4-.2-.6-.2-.5 0m67.4 0c.3.1 2.2.2 2 0l-1.1-.1h-.9m3.6 0c-.3.2-.3.2 0 .2l.5-.1c.1-.2 0-.2-.5 0m-23.2 1a3 3 0 0 0-.7.8l.5-.4.8-.6c.2 0 .2-.2.2-.2s-.4.1-.8.5m-43.7 1 .3.6c.3.5.5 1.3.7 2.3.1.7.1.7.1.1s-.4-2-.8-2.7l-.3-.2m15.1.6c.1.8.2.8.2.2l-.1-.6c-.1 0-.2 0 0 .4m12.7.4v4a50.8 50.8 0 0 0 0-4m14.2.4v.5l.1-.3c.1-.2.1-.4 0-.4l-.1.2m-40.9 3.3v.4-1 .6m41.5 1c0 .1.3.5.7.8l.7.7-.7-.8c-.7-.8-.7-.9-.7-.7m-41.7.9c0 .4 0 .6.1.4a2.4 2.4 0 0 0 0-.8v.4m14 1a2.8 2.8 0 0 1 0 .6c-.1.2-.1.3 0 .1.2 0 .2-.3.2-.6 0-.2-.1-.2-.1 0m35.2 1.7c.5.2.6.2.5 0l-.5-.1c-.3 0-.3 0 0 .1m-21.6.3.2.5c.2.1.2 0 0-.5-.1-.3-.1-.3-.2 0m23 0c.4.3.6.3.5 0h-.5c-.4 0-.4 0 0 0m1.5.5c1 .3 1.5.3.6 0l-1-.3c-.2 0 0 .2.4.3m-54.4.4-.5.5.6-.4.7-.5c0-.2-.3 0-.8.4m30.6.7c0 .2.7 1.5.8 1.4l-.4-.8-.4-.6m-34.3 1c-.4.2 0 .2.6 0l.4-.2h-.4c-.2 0-.5 0-.6.2m18.5.2c-.3.6-.2.8 0 .2l.3-.5s-.2 0-.3.3m-19.9.2c-.2.2-.2.3 0 .2a3.7 3.7 0 0 1 .7-.3l.4-.1H47a1 1 0 0 0-.7.2m69.7 1 .5.3.6.3-.4-.4c-.4-.3-.7-.4-.7-.2m-32.2.6c.4.6 1.8 2 2.4 2.5a23.8 23.8 0 0 0-2.4-2.5m33.5.1c.5.5 1.4 1 1.4 1 0-.2-1.3-1.1-1.5-1.1v.1m-52.6.8a22.2 22.2 0 0 1-2 2.3c1.3-1.2 2.5-2.5 2.4-2.7l-.4.4m-19.8.2v.5l.1-.4V67l-.1.4m-.3 1a3.4 3.4 0 0 1-.1.6c0 .3 0 .3.1 0 .1-.1.2-.4.1-.6 0-.4 0-.4 0 0m75.6.4.8.8-.6-.8-.8-.8.6.8m-31 2.1 1.4.7-1-.7c-1.6-.8-1.9-.8-.4 0M44 70.6v.7c0 .3 0 .3.1-.2v-.5m16.7.3c-.5.5-.5.6-.1.3.5-.3 1-.9.9-.9l-.8.6m61.5.1c.5.7.5.8.5.6l-.5-.7-.4-.5.4.6m-78.6 1.1v.5c0 .3 0 .3 0 0 .2-.5.2-.7 0-.5m14.6.7v.4c.2 0 .2 0 .2-.3 0-.5 0-.5-.2-.1m36.6.2a8.6 8.6 0 0 0 1.1.3c.5 0 .5 0 0-.1a8.6 8.6 0 0 0-1.2-.3c-.4 0-.4 0 .1.1m1.9.5.5.2c.5 0 .3-.1-.3-.3h-.2m1.2.4.5.2c.3 0 .3 0 0-.2-.4-.2-.6-.2-.5 0m-38.6 1c.5.9.7.9.2 0l-.5-.6c-.1 0 0 .3.3.6m44 .5.9.2-.5-.3-.9-.2.4.3m-59.4 0 1 2c.2 0 .1 0 0-.3l-.6-1.2-.4-.5m80.5 1.4c0 1.2.2 1.4.2.4l-.1-1c-.1-.2-.2 0-.1.6m-16.6.3s.1.2.3.2a5 5 0 0 1 1.5 1.7s.2.1.2 0l-.5-.7c-.6-.8-1.5-1.5-1.5-1.2m16.9 3.6c0 1.4 0 2.4.1 2.3l.1-2.3-.1-2.3-.1 2.3m-63.3-2.4.6 1 .6.7-.6-1-.6-.7M46 79.4l.4.7c.5.8.6.6 0-.2-.2-.5-.4-.7-.4-.5m64.2 2.2v.4-1 .6M64 82.8c.5.7 1 1.5 1 1.3l-.3-.6-.4-.6c0-.1 0-.3-.2-.4-.3-.2-.3-.2 0 .2m-16 .5 1 1.7c.4.6.2.1-.3-.8-.5-1-.6-1-.6-.9m76.2.9v.4a3 3 0 0 0 0-.9v.5m-15.1.9-.4.7c.1 0 1-1.2.9-1.3 0 0-.3.2-.5.6m14.8.3a1.9 1.9 0 0 0 0 .6v-.2c.2-.7.2-.9 0-.4m-16 .7-1 .5-.5.3a5 5 0 0 0 2-.9c.2-.3 0-.3-.4 0m-41.9.6.5.6-.4-.7-.4-.5.3.6m17.2.3h1-1m2.7.2 2.1.1-1.4-.2c-1 0-1.1 0-.7.1m19.5 0c-.4.1-.4.1-.1.1l.6-.1c.3-.2 0-.2-.5 0m-24.1.6c-.2.2-.3.4-.2.5l.3-.4c.3-.6.2-.7-.1-.1m8.4-.4a9.6 9.6 0 0 0 2.3.1c-.6 0-2.4-.2-2.3 0m13.7 0c-.4.2 0 .2.6 0l.5-.1h-.5l-.6.1m-6.4.3H99h-1.8m-46.5.1c0 .2.7 1.3.8 1.2l-.4-.7-.4-.5M68.4 90c.3.6 1 1.4 1 1.3 0-.1-1-1.8-1.2-1.8l.2.5m53.8.3c-.4.6-.5.8-.2.6.2 0 .7-1 .6-1.2l-.4.6m-41.4.3-.1.5c0 .3 0 .3.1 0 .2-.5.2-.7 0-.5m-28 1 1 1.8c.3.3.2-.2-.1-.6l-.4-.5c0-.2-.5-1-.5-.8m67 1.8-.9 1c.6-.4 2.5-2.3 2.2-2.3l-1.3 1.3M80.4 93v.4l.2-.2v-.5l-.2.3m-.3 1.7c-.3 2.2-.3 2.9 0 3.2.2.3.2.3 0 0-.2-.5-.1-1.6 0-2.5.2-.4.2-.9.2-1.2 0-.3 0-.2-.2.5m-25.4.2.8 1.5-.2-.7c-.5-.8-.6-1-.6-.8m57.6 2.8-.8.4h.6l1-.5c1-.4.3-.3-.8.1m-56 0c.4.5 1 1.1 1.3 1.1a39.7 39.7 0 0 1-.8-.8c-.4-.3-.6-.4-.5-.2m15.8.6-.1.4c.1 0 .6-.6.5-.7l-.4.3m8.5.2.5.2-.2-.2-.5-.3.2.3m1.6.4.7.2c.6 0 .5-.1-.3-.3h-.4m25.2.1-.3.1h.3l.6-.1c.3-.2 0-.2-.6 0m-21.8.3c1.4.2 2.7.2 1.5 0a12 12 0 0 0-1.7 0h-.8 1m19.6 0c-.6.2 0 .2.7 0 .5 0 .5 0 .1-.1a3.2 3.2 0 0 0-.8.1m-15.7.3a31.4 31.4 0 0 0 2.4 0h-2.4m12.9 0a10.9 10.9 0 0 0 1.5 0h-1.5M99.4 99.8h1.5-1.5"/></g></svg>