<svg xmlns="http://www.w3.org/2000/svg" width="400" height="133.3"><g fill-rule="evenodd"><path fill="#fcfaf9" d="M101 36.7a31.8 31.8 0 0 0-11.1 2.6c-1.6 0-6 4.3-7.4 7.2a15.6 15.6 0 0 0-1.7 7.9c0 2.5.4 5.2.9 6.3l.6 1.5a15.2 15.2 0 0 0 2 3.7c1 1.2 4.7 4.3 5.3 4.3l1.3.5a28 28 0 0 0 6.7 2.2 151.7 151.7 0 0 0 6 1.6c3.2.9 6.7 3.1 6.7 4.3l.2.4c.2.2.2 3.5 0 4.3-1.2 3.8-7.1 4.8-21 3.7-8-.7-7.7-1-8.5 4.5a54 54 0 0 1-.3 2c-.9 4.2-.2 5 4 5l2.4.1a84.4 84.4 0 0 0 25.2-1.4 16.1 16.1 0 0 0 1.9-.8c6.7-2.6 10.5-8.6 10.5-16.3 0-5.3-1.7-9.6-4.7-12.2a41.6 41.6 0 0 1-.7-.7c-1-.9-3.9-2.5-6.1-3.4a11.8 11.8 0 0 1-.7-.4 1.5 1.5 0 0 0-.6-.1l-.5-.1-1-.4a78.7 78.7 0 0 1-1.6-.4c-.7-.3-4.8-1.3-6-1.6l-1.3-.3C99.1 60 97 59 95.8 58c-2.5-2.6-1.7-7.3 1.6-8.7 1.2-.6 1.5-.6 2.9-.9 2.3-.4 11.3-.2 17 .5 3.5.3 3.6.2 4.5-5.5l.5-3.5c.5-2.4-.5-2.7-10.1-3-7-.3-9.1-.4-11.3-.2m-77.5 1c-.8.4-.7-1.2-.7 30.7s0 29.6 1 30c.4.3 10.6.3 11.4 0 1-.3 1 1.5 1-25.3l.2-24.6h6c6 .1 6.2.1 7.8.7 5.2 2 5.3 11.5.1 14-1.2.5-1.3.6-2.7.9-1.8.4-1.9.5-2.9 4.5a57 57 0 0 0-.8 3.2c-.6 1.5-.1 2.7 3.3 8.6a38 38 0 0 1 1.5 2.7 103.5 103.5 0 0 1 4 7.4l1.2 2c2.6 4.8 3 5.3 4.2 5.9.8.3 12.7.4 13.4 0 1.4-.6 1.2-1.6-1.3-5.5l-.6-1-1-1.5-.8-1.5-1.1-1.8a184.2 184.2 0 0 1-1.4-2.4 166 166 0 0 0-4.3-7.2 14.7 14.7 0 0 1-.7-1L59 74.2c-1.3-2-1.3-1.9-.2-2.6 5-3.2 8-7.6 8.7-12.6a32 32 0 0 0-.3-8.4c-1.9-7.6-5.8-11-14.5-12.9-2.3-.5-28.5-.5-29.2 0m118-.2c-1.1.4-1-.6-1 30.5 0 30.6 0 29.8.8 30.4 1 .5 11.2.4 12-.1.8-.6.8.3.8-30.8 0-31.9 0-29.6-1-30-.6-.2-11-.2-11.6 0"/><path fill="#fc9423" d="m276.3.3-.6.2c-.2 0-.4 0-.4.2l-.5.1a1 1 0 0 0-.7.3l-.7.2-.6.2-.6.2-.5.1-.6.2c-.3 0-.6 0-.6.2l-.6.1-.6.2s-.2.2-.5.2l-.5.1c0 .1-.2.2-.6.2-.3 0-.6 0-.6.2-.1.2-.4.3-.7.3-.3 0-.6 0-.6.2l-.5.1-.6.2-.5.2-.5.1-.5.2-.8.1c-.5.3-1.5.6-1.9.6-.2 0-.4 0-.4.2s-.3.3-.6.3l-.5.1-.6.2-.6.1c0 .2-.4.3-1.8.5-.4 0-.7.2-.7.3l-.5.1c-.2 0-.5 0-.6.2l-.5.1c-.3 0-.5.1-.6.3l-.3.2-.5.1c-.2.2-.6.3-1 .3l-.6.1-.5.2c-.2 0-.5 0-.5.2l-.6.1-.6.2-.6.2-.6.1-.4.2c-.3 0-.6 0-.7.2l-.7.2c-.3 0-.6.2-.6.3l-.6.1-.5.2s-.2.2-.6.2l-.5.1-.5.2c-.2 0-.5 0-.5.2l-.5.1a2 2 0 0 0-.8.2l-1.4.4-1 .5-.5.1c-.3 0-.5 0-.5.2l-.6.1-.7.2-.6.2-.6.1-.6.2c-.3 0-.6 0-.6.2l-.5.1c-.3 0-.5.1-.5.2 0 0-.1.2-.4.2a1 1 0 0 0-.6.2c-.2.2-.5.3-.9.3l-.6.1c0 .1-.2.2-.6.2-.3 0-.5 0-.5.2l-.5.1-.6.2-.6.2-.5.1c0 .1-.2.2-.5.2l-.6.1-.7.3c-.4 0-.7.2-.7.3l-.6.1c-.3 0-.5.1-.5.2s-.1.2-.5.2l-.6.1c0 .1-.2.2-.5.2-.2 0-.5 0-.6.2l-.5.1-.6.2-.7.2-.7.1-.4.2a1 1 0 0 0-.5.3l-.8.2c-.3 0-.5 0-.5.2l-.5.1c-.3 0-.5.1-.5.2l-.7.2c-.4 0-.7.1-.7.2l-.5.1c-.2 0-.5 0-.5.2l-.7.1-.6.2s-.1.2-.4.2c-.2 0-.4 0-.5.2l-.8.2-.6.2-.6.2c-.3 0-.6 0-.6.2l-.5.1-.6.2-.5.2-.5.1-.6.2c-.3 0-.6 0-.6.2l-.5.1-.6.2-.5.2c-.2 0-.5 0-.6.2 0 .2-.4.3-.6.3l-.4.1c0 .1 0 .2-.2.2s-1.3 1.2-1.3 1.5l-.1.3c-.1 0-.2.4-.2 1s0 .9-.2.9l-.1 9.6a108.7 108.7 0 0 0 .5 11.5l.1.3c0 .2.3.5.5.8.3.2.5.5.5.6 0 .1.1.2.3.2l.2.1.4.2c.1 0 .3 0 .3.2l.5.1.6.2.6.2.5.1c0 .1.2.2.5.2s.6.1.7.3l.8.2c.2 0 .5 0 .5.2l.6.1c.3 0 .5.1.5.2l.5.2.5.1.6.2c.3 0 .6 0 .6.2l.7.1.6.2.6.2c.3 0 .6 0 .7.2 0 .2.2.3.5.3l.5.1.6.2c.2 0 .5 0 .5.2l.5.1c.4 0 .7.1.7.2l.7.2.6.1c0 .1.2.2.5.2l.5.2.5.1c.3 0 .6.1.7.3l.7.2.5.2s.3.2.7.2l.5.1.5.2c.2 0 .5 0 .5.2l.6.1.6.2s.2.2.5.2l.6.1.6.2c.4 0 .6.1.7.3 0 .1.3.2.7.2.3 0 .6 0 .6.2l.5.1c.3 0 .5.1.5.2 0 0 .2.2.5.2l.5.1.6.2c.3 0 .5 0 .5.2l.8.1c.4 0 .7.1.7.2l.5.2.5.1.6.2c.4 0 .6 0 .6.3 0 .1.2.2.5.2s.5 0 .6.2l.7.1c.3 0 .5.1.5.2l.6.2.6.1.6.2c.3 0 .6 0 .6.2l.5.1c.3 0 .5.1.5.2 0 0 .2.2.5.2s.6 0 .7.2c.2.2.5.3.7.3l.5.1c0 .1.3.2.7.2.3 0 .5 0 .5.2l.5.1.5.2.6.2.6.1c0 .1.2.2.5.2s.5 0 .6.2l.7.1c.5 0 .7.1.7.3 0 .1.2.2.5.2l.6.2.6.2.5.1c0 .1.2.2.5.2.2 0 .5 0 .5.2l.6.1.6.2.7.2.6.1c0 .1.2.2.5.2.4 0 .6.1.7.3l.6.2c.3 0 .5 0 .5.2l.6.1.6.2.6.2.7.1c0 .1.2.2.5.2l.5.2.6.1.6.2.4.2c.2 0 .6 0 .7.2.1.2.5.3.7.3l.6.1.6.2c.2 0 .5 0 .5.2l.5.1c.4 0 .6.1.6.2l.5.2.5.1.6.2c.3 0 .6 0 .6.2l.6.1c.3 0 .7.1.8.3l.7.2.4.2s.2.2.5.2l.6.1.6.2c.2 0 .5 0 .5.2l.6.1c.3 0 .5.1.5.2 0 0 .3.2.7.2l.7.1c0 .1.2.2.5.2.2 0 .5 0 .6.2l.6.1c.4 0 .8.2 1 .3.4.3 1.4.2 1.4-.1l.6-.2.6-.1.3-.2c.2 0 .4 0 .4-.2l.2-.1c.2 0 .3-.2.3-.4l.1-.3.2-.6c0-.3 0-.6.2-.6l.1-6.5a51.2 51.2 0 0 0-.5-7.8l-.1-.3c0-.4-2-2.2-2.6-2.2-.2 0-.4 0-.4-.2l-.5-.1a1 1 0 0 1-.6-.3l-.9-.2-.6-.2-.5-.2-.5-.1-.8-.2c-.3 0-.6 0-.6-.2l-.6-.1-.6-.2s-.3-.2-.7-.2l-.6-.1-.5-.2-.8-.2c-.1-.2-.5-.3-.7-.3-.3 0-.5 0-.6-.2l-.8-.2h-.5V38c-.1-14.7-.2-14 .8-14 .2 0 .4 0 .5-.2l.7-.1c.4 0 .7-.1.8-.3 0-.1.3-.2.7-.2.4 0 .7-.1.7-.2 0 0 .2-.2.5-.2l.6-.1.7-.2c.3 0 .7 0 .7-.2l.6-.1.7-.2.6-.2.6-.1.6-.2.7-.2c.1-.2.5-.3.7-.3.3 0 .5 0 .6-.2l.4-.1c.2 0 .3-.1.3-.2 0 0 .1-.2.3-.2.6 0 1.9-1.8 1.9-2.6 0-.3 0-.5.2-.5l.1-7.3a61.9 61.9 0 0 0-.5-8.2l-.1-.4-.2-.3c-.1 0-.3 0-.4-.2a23 23 0 0 0-.5-.4c-.3-.3-4.2-.3-4.3 0M.2 67.8v65.3h177.6V2.7H.2v65.2M342.7 3l-1 .1c-.6 0-.9 0-1 .2 0 .2-.3.3-.7.3-.4 0-.7 0-.7.2l-.5.1c-.4 0-.6.1-.6.2l-.6.2-.6.1-.6.2c-.3 0-.6 0-.7.2l-.5.1-.5.2-.5.2c-.3 0-.6 0-.6.2s-.3.3-.6.3l-.5.1c0 .1-.3.2-.7.2-.3 0-.7 0-.7.2l-.6.1c-.3 0-.5.1-.4.2 0 .1-.2.2-.5.2l-.7.1-.6.2c-.2 0-.5 0-.5.2l-.5.1-.6.2c0 .2-.3.3-.7.3l-.6.2-.7.2-.5.1-.5.2c-.2 0-.5 0-.5.2l-.6.1-.6.2-.6.2-.7.1-.4.2-1 .2-.7.3c-.1 0-.3 0-.3.2l-.5.1c-.3 0-.5.1-.5.2 0 0-.2.2-.5.2l-.6.1-.6.2c-.3 0-.6 0-.6.2l-.5.1-.6.2-.6.2-.7.1c0 .1-.2.2-.5.2s-.5.2-.6.3l-.5.2-.5.1-.6.3c-1.5.2-1.9.3-1.9.5l-.5.1c-.3 0-.5 0-.6.2l-.6.1-.5.2s-.2.2-.5.2c-.2 0-.6 0-.7.2-.1.2-.5.3-.8.3l-.5.1c0 .1-.2.2-.5.2-.2 0-.5 0-.6.2l-.5.1c-.3 0-.5.1-.5.2l-.6.2-.6.1-.3.2c-.2 0-.4 0-.4.2l-.2.1a8.6 8.6 0 0 0-2.4 2.4c-.2 0-.7 1.1-.7 1.6 0 .3 0 .5-.2.5s-.1 16 .1 16.9c0 .3.2.6.3.7l.6.9c0 .1 1 .9 1.2.9l.2.1c0 .1.2.2.5.2.4 0 .6 0 .6.2l1.4.1 1.5-.1.6-.2c.4 0 .7 0 .7-.2l.6-.1.6-.2s.2-.2.5-.2l.5-.1.5-.2c.3 0 .5 0 .5-.2l.6-.1c.3 0 .6-.1.8-.3l.7-.2c.3 0 .5-.1.5-.2l.6-.2.6-.1c0-.1.2-.2.5-.2l.5-.2.5-.1.6-.2.6-.2.7-.1.5-.2c.2 0 .5-.1.7-.3l.6-.2c.3 0 .5 0 .5-.2l.5-.1c.4 0 .6-.1.6-.2s.2-.2 1.7-.4c.4 0 .7-.2.8-.3l.5-.1c.3 0 .5-.1.5-.2l.5-.2c.3 0 .6 0 .6-.2s.3-.3.6-.3l.5-.1c0-.1.3-.2.7-.2.3 0 .7 0 .7-.2l.6-.1c.3 0 .5-.1.5-.2l.6-.2.6-.1c0-.1.2-.2.5-.2l.5-.1.5-.3c1-.1 1.9-.4 2-.6l.6-.2.5-.1c0-.1.2-.2.5-.2h.4v48.8a2667.7 2667.7 0 0 0 .3 49.6c0 .5 0 .7.2.7l.1.2c0 .4 1.2 1.7 1.5 1.7l.5.3c.4.4.8.4 12.2.4h11.8l.8-.5c.7-.4 1.2-.8 1.9-1.7a.8.8 0 0 0 .2-.4l.1-.3c.1 0 .2-20.9.2-62.3a4388.1 4388.1 0 0 0-.3-62.7l-.2-.5c-.7-.9-1.2-1.3-1.4-1.3l-.3-.2c0-.2-.1-.3-.3-.3-.2 0-.4 0-.4-.2-.2-.2-16.4-.2-16.4 0m-92.4 35c0 7.8 0 8.9-.2 8.9s-.3-.1-.3-.2l-.6-.2-.7-.1-.6-.2c-.3 0-.6 0-.6-.2l-.6-.1c-.4 0-.7-.1-.8-.3l-.6-.2-.5-.2s-.2-.2-.5-.2l-.7-.1-.7-.2c-.3 0-.6 0-.6-.2l-.5-.1c-.4 0-.7-.1-.7-.2l-.7-.2-.6-.1c0-.1-.2-.2-.5-.2l-.7-.2c-.2-.2-.5-.3-.8-.3-.2 0-.5 0-.5-.2l-.6-.1c-.3 0-.5-.1-.5-.2l-.6-.2-.7-.1c0-.1-.3-.2-.7-.2-.3 0-.5 0-.5-.2l-.6-.1-.6-.2-.6-.2c-.4 0-.7 0-.8-.2 0-.1-.3-.3-.7-.3l-1.2-.2c-.3 0-.5-.2-.5-.3l-.6-.1-.6-.2s-.3-.2-.7-.2l-.6-.1-.6-.2c-.3 0-.6 0-.6-.2l-.5-.1-1-.3a1.4 1.4 0 0 0-.6-.2l-.4-.2-.6-.2-.6-.1s-.2-.2-.6-.2c-1 0-.8-.7.2-.7l.5-.1.7-.2c.4 0 .6 0 .7-.2 0-.2.3-.3.6-.3s.6 0 .6-.2l.7-.1.6-.2s.3-.2.7-.2l.7-.1.6-.2c.3 0 .6 0 .6-.2l.7-.1.6-.2.6-.2c.3 0 .6 0 .6-.2.1-.2.4-.3.7-.3l.6-.1.7-.2c.3 0 .6 0 .6-.2l.7-.1.6-.2.6-.2.6-.1.6-.3 2-.4.6-.2c.2 0 .6 0 .7-.2.1-.2.5-.3.7-.3l.6-.1.7-.2c.3 0 .6 0 .6-.2l.7-.1.6-.2.6-.2.6-.1.6-.3 1.2-.2c.3 0 .6-.2.6-.3.1-.2.4-.2.9-.2.4 0 .7-.1.7-.2 0 0 .2-.2.5-.2l.5-.1.4-.2h.4v8.8m-134.8-1.1a23.7 23.7 0 0 1 6 .6c1.2 0 1.4 2.3.6 6.5a102.4 102.4 0 0 0-1 4.3l-.4.6-.5.5h-2.9a167.7 167.7 0 0 1-4-.3 40.4 40.4 0 0 0-16 .8l-.2.1c-.2 0-.6.3-1 .7a5.3 5.3 0 0 0 1.6 8.5c1.3.6 1.4.6 3.1 1l2 .7.7.1.6.2.5.2 1 .1a34.9 34.9 0 0 0 2.5.7 20.6 20.6 0 0 1 3.4 1c.2 0 .4 0 .4.2l.4.1.7.2.7.3A14 14 0 0 1 116 65l.4.2.3.1.2.2a19 19 0 0 1 6 5.8c0 .2 0 .4.2.4l.1.2.4 1 .6 1.7.4 1.4c0 .5.4 3.4.3 4.2a28 28 0 0 1-1.2 7.2 19 19 0 0 1-1.5 3c0 .5-2.4 3.1-3.5 4a7.5 7.5 0 0 0-.7.5l-.5.3s-.2 0-.3.2a29.3 29.3 0 0 1-7.9 3.1c-.3 0-.7 0-.8.2l-1 .2-2.1.2c-4 .6-6.6.6-11.8.4a304 304 0 0 1-12.6-1c-.4 0-1-.7-1.2-1.3-.1-.4 0-1 .4-3.1l.3-2.3.2-1.2.2-1.1c0-.5 0-1 .2-1l.1-.6.2-.4s.2-.1.2-.3c.2-.6 1.5-1 2.8-.8 10.7 1 19.3 1 22 0 1.7-.5 3.3-1.7 3.3-2.3l.2-.3c.3 0 .6-3.4.3-3.7a.9.9 0 0 1-.1-.5c0-.8-2-3.1-2.6-3.1l-.3-.1-.5-.4c-.3 0-.7-.2-.8-.3l-1.8-.6-1.7-.6-.8-.2-.6-.1-.7-.2-.6-.1-.8-.3c-1-.1-5.3-1.3-5.9-1.6a1.4 1.4 0 0 0-.5-.2 1.4 1.4 0 0 1-.6-.1 125.4 125.4 0 0 0-4.2-2.2 14 14 0 0 0-.7-.6 21.6 21.6 0 0 1-4-4.4l-.8-1.4-.8-1.6a1.8 1.8 0 0 1-.2-.7l-.1-.5-.2-.8-.1-.7a25.6 25.6 0 0 1 .6-11c0-.3.3-.8.6-1.4a14.5 14.5 0 0 1 5-5.9 13 13 0 0 1 3.4-1.8l.8-.4c.4 0 .9-.3 1-.3a25.6 25.6 0 0 1 6-1.3l1.3-.2c.2-.2 12.8 0 15.9.2m-63.3.6c2.2.4 3.4.7 4.2 1l.6.2c.2 0 .3 0 .3.2l.4.1a15.6 15.6 0 0 1 4.1 2.3 13 13 0 0 1 3.7 4.3 10.8 10.8 0 0 1 1.5 3.2c.1 0 .3.7.4 2a50.7 50.7 0 0 1 0 9.5c.1.6-.1 1.6-.4 2.1a1.4 1.4 0 0 0-.2.5 17.2 17.2 0 0 1-7 8.5 51 51 0 0 0-1.5 1.1c-.1.1 0 .4.2.7.2.2.3.6.3.7l.2.1.2.2.5 1.1.6 1c0 .2 0 .2.2.2l.3.4a50.3 50.3 0 0 0 2.7 4.6l.1.4c.2 0 1 1.4 1 1.6l.2.2.4.6c0 .3.3.6.3.6.1 0 .2 0 .2.2 0 0 .1.4.4.7l.4.7a159.3 159.3 0 0 0 5.6 9.3c1 1.8.4 3.1-1.5 3.3a94 94 0 0 1-13-.3 7.4 7.4 0 0 1-2.4-2.9l-.7-1.2-.2-.3-.1-.4-.2-.1-.3-.7c-.2-.2-.7-1-1-1.8a56 56 0 0 0-1.2-2A19.8 19.8 0 0 1 51 88l-.4-.7-.5-.9-.5-.9-1-1.9a73.1 73.1 0 0 0-2.2-3.8 14.3 14.3 0 0 1-.6-1.2l-.5-1c-.7-.6-2-3.6-1.9-4.5 0-.9.3-2.1.4-2.2l.1-.6a2.9 2.9 0 0 1 .2-.8l.3-1.3c.5-2 1.1-3.6 1.7-4 .5-.2 1.4-.5 1.9-.5l.7-.2 1.2-.5c2.7-1.3 3.7-3 3.7-7 0-3.8-1-5.4-4-6.7-.8-.3-2-.3-7.4-.4h-5.6v24.3a676.3 676.3 0 0 1-.3 24.7c0 .1-.2.4-.5.6l-.4.4h-5.8c-6.4 0-6.5 0-7-1-.3-.7-.4-58.4-.1-59.5 0-.2.3-.7.6-1l.5-.4h13.8l14.9.3m101-.1.1.1c.3 0 .6.4.8 1 .4.7.3 58.8 0 59.5-.6 1.2-.3 1.1-6.8 1.1-6.3 0-6.4 0-7-1-.2-.5-.2-2.3-.3-29.5 0-31.2 0-30 .9-31l.5-.4h5.9c3.8 0 5.9 0 5.9.2m111 41.4c-.1.1-.3.2-.4.1l-.1.2-.2.3c-.3 0-.7.4-.7.7l-.1.3c-.1 0-.2 5.4-.2 16v16.1h-29.8a1030.6 1030.6 0 0 0-30.7.4l-.6.1-.1.2c-.3 0-1.5 1-1.5 1.3l-.1.2c-.1 0-.2.3-.2.7 0 .3 0 .7-.2.7l-.1 7a56.2 56.2 0 0 0 .3 7.6c0 .6.1.8.5 1.2.3.2.5.5.5.6l.6.5.6.4H280l.4-.4c1.3-1.2 1.6-1.6 1.6-2.1 0-.3 0-.5.2-.5l.1-22.3a566 566 0 0 0-.3-22.8c0-.3 0-.6-.2-.6l-.1-.3c0-.3-.4-.7-.7-.7a.2.2 0 0 1-.2-.2c0-.2-.8-1-1-1l-.3-.1-.4-.2-.4-.1c0-.2-.4-.3-2-.5-.3 0-.5-.2-.5-.3 0-.2-.2-.3-.5-.3l-.6-.1-.6-.2c-.3 0-.5 0-.5-.2l-.5-.1-.6-.2-.7-.2-.7-.1c0-.1-.2-.2-.5-.2l-.5-.2-.6-.1c-.3 0-.6 0-.6-.2 0-.5-4.6-1-5.1-.4"/><path fill="#fcb474" d="M111.3 36.6h.7-.7m-13.2.2h.7-.7m16.5 0h1-1M118.8 37h.7-.7m-95.7.4-.1.2.6-.3c.2-.1.2-.2.1-.2l-.6.3m117.9 0-.2.2.6-.3.2-.2-.6.3m-118.6 1a1.6 1.6 0 0 0 0 .6l.1-.2c.2-.5.1-.8 0-.3m100 .6c0 .4 0 .5.1.3a2.4 2.4 0 0 0 0-.7v.4m31.6 28.7v14.5-29 14.5M63.1 42.5l1 1c.1 0-.3-.5-.9-1l-1-1s.3.5.9 1m21.9 0-.7.7.9-.8.6-.7-.8.7m16.6 6h.7-.7m4.9 0h1-1m2.8.2h1-1m4.4.2h.6-.6M36.4 72.9v12a4055.5 4055.5 0 0 0 0-12m78.8-24h.6-.6m3 .2h1-1m-66.7 1.1.5.6.6.5-.5-.6-.6-.5m29.3.6a1.6 1.6 0 0 0-.1.5l.1-.2c.2-.5.1-.8 0-.3m-13 2.5v.4-.7.3m-14 2.8v.4-1 .6m14 2v.3a1.8 1.8 0 0 0 0-.7v.4m52.6 10.2 1 1-.8-1-1-1 .8 1m-11.3 9.2.7.7-.5-.7-.8-.7.6.7m15.6.3v.4-.7.3m-14.1 3.5v.5a6.2 6.2 0 0 0 0-1.2v.7m14.1 1.2v.4c.1-.2.1-.6 0-.8v.4m-40.2 4.1h.6-.6m4.8.4h.7l-.4-.1h-.3m15.3.1c-.2 0-.3.1-.1.1l.6-.1c.2 0 .2-.1 0-.1l-.5.1m-10.2.3h1.2-1.2m7 0h1.1-1m-21 6.1a1.6 1.6 0 0 0-.2.6l.2-.2c.2-.6.1-.8 0-.4M22.2 97l.2.6v-.3c0-.6-.2-.7-.2-.3m60.4 1.9h.6l-.3-.1h-.3m4 .4h.8-.8m4.3.2h.7-.7m8.9.2a10.9 10.9 0 0 0 1.5 0l-.8-.1h-.7"/><path fill="#fca450" d="M332 80a16447.8 16447.8 0 0 0 0 0M99.6 36.6h.6l.9-.1-1.5.1m10.2-.1a17.2 17.2 0 0 0 3.3.1l-3.3-.1m-12.9.4c-.1.2 0 .2.4 0 .7 0 .8-.1.3-.1l-.7.1m19.2 0h2.1c-.3-.1-2.2-.2-2 0m-67.3.3a8.9 8.9 0 0 0 2.3 0 7 7 0 0 0-2.3 0M95 37c-.2.2 0 .2.3.1.8-.1.9-.2.4-.2-.3 0-.6 0-.7.2m24.7-.1c.1.1 1.5.2 1.4 0l-.8-.1h-.6m-67.9.4 1 .1h.5c-.2-.2-1.6-.2-1.5-.1m41.9.1h.3c.7 0 .9-.2.3-.2l-.6.2m28 0 .7.7.3.2c0-.2-.9-1-1-1-.2 0-.1 0 0 .2m31.9 0c.2.3.3.4.4.3 0 0-.4-.6-.6-.6l.2.4m-61.2.2c-.2.1-.2.3-.1.3a.5.5 0 0 0 .3-.2l.5-.2c.3 0 .3 0 0-.1-.2 0-.5 0-.7.2m47.7 30v14.5-29 14.5M22.2 68v14.5a5806.5 5806.5 0 0 0 0-14.5m37.3-28.3 1.3.8c0 .1.2.1.2 0l-2.4-1.3.9.5M88 40l-.7.5c-.1 0-.2 0-.1.1l.9-.4.6-.6-.7.4m34.5.3-.1.8c0 .4 0 .4.1.1.1-.1.2-.5.1-.8v-.1m-60.8 1c.9.8 2 1.8 1.5 1.2L62 41.3l-.3-.2m23.6.9-.2.2 1.3-1.2s-.6.4-1.1 1m36.8.2a7.2 7.2 0 0 1-.1 1c-.1.3-.1.3 0 0 .2 0 .2-.5.2-.8 0-.6 0-.6-.1-.1m-.3 2v.2-.6.3m-39.6 1.6-.3.8.5-.7c.4-1 .3-1-.2 0m39.3-.2v.6l.1-.5c.2-.7 0-.8-.1-.1M66.3 47l.3.7.2.3c0-.1 0-.4-.2-.7l-.3-.3m54.4 1.5-.8.4-.5.1h.4c.3 0 .6-.1 1-.4l.3-.5-.4.4m-17.3-.1h1.8l-1-.1h-.8m-36.6.2c0 .4.3.8.4.5l-.2-.5h-.2m34.5 0h.7-.7m5.7 0h1.3H107M99.8 48.8h.7-.7m10.4 0a26.4 26.4 0 0 0 2.3 0h-2.2m-11.6.2c-.4.1-.4.1-.1.1l.6-.1c.3-.2 0-.2-.5 0m15.5 0h.6l-.3-.1h-.3m-66 .2h.6-.6m67.6 0a9.6 9.6 0 0 0 1.4 0h-1.4m-64 1.6c.3.4.6.6.7.6l-.5-.5-.6-.6.4.5M67.6 52c.2.8.2.8.2.2l-.1-.6c-.1 0-.2 0 0 .4m-14.9 0 .3.8c.1.3.2.5.2.3 0-.3-.4-1.4-.5-1.1m27.6 1v2.6c.2.5.2.2.2-1.1 0-2 0-2-.2-1.5m14.2.4a4 4 0 0 0 0 1.8c.1.2.2-.2.2-1 0-1.3 0-1.4-.2-.8M53.4 56a25 25 0 0 1 0 2.8c.3-.8.4-4.7.1-5V56m42 1.3.7.8-.3-.5c-.7-.8-1-1-.4-.3m-14.8 1 .1.4c.2.2.2 0 0-.5-.1-.3-.1-.3-.1 0m-13 .7a2.8 2.8 0 0 1-.1.5c-.1.3-.1.3 0 .2.2-.1.2-.4.2-.6 0-.2-.1-.3-.1-.1m32.3 1c.1.2.4.3.6.3.4 0 .3-.1-.3-.3h-.3m-18.7 1 .2.5c.2.1.2 0 0-.5-.1-.3-.1-.3-.2 0m24.7.7.6.1c.3.1.4.1.2 0-.2-.2-1-.3-.8-.1m-55 .7-.4.4.5-.4.6-.4-.6.4m56.8-.2 1 .2-.5-.2a4 4 0 0 0-.9-.3c-.1 0 0 .2.4.3M47 63.8c-.2.2-.1.2.3.1.6-.1.7-.2.3-.2a1.2 1.2 0 0 0-.6.1m-1 .5c-.5.3-.3.3.3 0l.2-.3-.6.3m69.2.3.5.2-.2-.2-.5-.3.2.3m2.6 1.3.7.6.8.4-.8-.6-.7-.4m-33.5.2 1 1.2 1 1-1-1.1a35.6 35.6 0 0 1-1-1.1M64 67.3c-.3.3-.4.5-.3.5.2-.2 1-1.1.8-1.1 0 0-.3.2-.5.6m-19.6 0a3.4 3.4 0 0 1-.1.6c0 .3 0 .3.1 0 .1-.1.2-.4.1-.6 0-.4 0-.4 0 0m76 1c.8.8.9 1 .9.8l-.8-.8-.8-.7.8.8m-58.4.7-.5.6.5-.4c.4-.3.8-.8.6-.8l-.6.6m-18.4.5a1.9 1.9 0 0 0 0 .6l.1-.2c.2-.6.1-.9 0-.4m77.8.2.5.4-.4-.5-.5-.4.4.5m-60.9.5c-.1 0-.3.2-.2.3l.4-.2.2-.3-.4.2m28-.2.4.3.5.2-.5-.3c-.2-.2-.5-.3-.5-.2M60 71l-.5.4.6-.3.5-.5-.6.4m-16.3-.2v.5c0 .3 0 .3 0 0 .2-.5.2-.7 0-.5m-.3 1.9v.6c.1.3.2.2.2-.3 0-.6 0-.8-.2-.3m52.7 0 .7.3c.4 0 .5 0 .3-.1l-1-.1m2.3.6.7.2c.5 0 .4-.1-.3-.3-.4 0-.5 0-.4.1m25.7.4c0 .2 0 .5.2.6.1.2.1.1 0-.2-.1-.7-.2-.8-.2-.4m-19.2 1.4.8.2-.4-.3-.8-.2.4.3m-45 .1c.3.6.5.9.5.7l-.3-.6c-.2-.3-.3-.3-.2 0m64.8 1c.1.7.2.9.2.2l-.1-.7c-.1-.2-.2 0 0 .4M109 77.5l.8.8-.8-.8-.7-.8.7.8m-47.7.4 1 1.4-.7-1.2-.3-.2m63.6 2.3v.8a6.9 6.9 0 0 0 0-1.6v.8m-78.9-1 .4.8c.5.7.6.6 0-.2-.2-.6-.4-.8-.4-.5m64.2.3.1.5c.2.1.2 0 0-.5-.1-.3-.1-.3-.1 0m-47.5.7.4.5c.2 0 0-.2-.3-.6l-.3-.5.2.6m1.4 2.3.6.7-.4-.6-.1-.1m60.5 1a3.3 3.3 0 0 1-.1.7c-.1.2-.1.2 0 .1.2-.1.2-.4.2-.8s0-.4-.1 0m-76.2.1.8 1.3-.2-.5c-.3-.6-.6-1-.6-.8m60.5 1.5-.3.4s.3-.1.5-.4c.4-.4.4-.5-.2 0m-1.6 1-.5.2c-.2 0-.2 0 0 0l.6-.1.2-.3a.4.4 0 0 0-.3.2m-24 .3h1.1c.3 0 .1-.1-.5-.1h-.5m-1.3.3a1 1 0 0 0-.4.4c-.1.3-.1.3.2 0l.6-.4c.4-.2.1-.2-.4 0m3.3 0h.6c.2-.1 0-.2-.3-.2s-.4 0-.3.1m1.6.2h1.4H87m3.7.2 2.2.1a10.7 10.7 0 0 0-2.2-.1m13.1 0c-.4.1-.4.1 0 .1l.7-.1c.4-.2 0-.2-.7 0m-36.8.5.3.5-.2-.5-.3-.5.2.5M81 88.4v.5c0 .3 0 .3 0 0 .2-.5.2-.7 0-.5m-.3 2.2-.1.5c0 .3 0 .3.1 0 .2-.5.2-.7 0-.5m-28.3.3 1 2-.2-.9c-.5-.7-.9-1.4-.8-1m67.6 2c-.7.8-.9 1-.4.6 1.2-1.1 2-2 1.7-2l-1.3 1.4m-39.7 0v.4l.2-.2v-.5l-.2.3m-.3 1.8c-.3 2-.3 2.4 0 2.8.2.3.2.3 0 0v-2.2c.2-.4.2-.9.2-1 0-.3-.1-.2-.2.3m-25.1.7 1 1.7c.1 0 0-.3-.3-.8l-.7-1m1.7 2.6.6.6-.5-.6-.6-.6.5.6m55.5-.3c-.4.1-.5.2-.3.2.1 0 .5 0 .8-.2.7-.3.3-.3-.5 0m-76.6.8c-.3.2-.4.4-.3.4l.5-.4c.5-.5.4-.5-.2 0m117.8 0c-.3.2-.4.4-.3.4l.6-.4c.5-.5.4-.5-.3 0m-43.7 0c-.3 0-.3 0 0 0h.5c.2-.3 0-.3-.5 0m-28.1.3.5.1c.5 0 .5 0-.2-.2h-.3m3 .4 1.7.1-1-.2c-.7 0-1 0-.7.1m21.6 0c-.4.1-.4.1-.1.1l.6-.1c.3-.2 0-.2-.5 0m-16.5.3a27.3 27.3 0 0 0 2.1.2c1 0 1 0-.2-.2a24.4 24.4 0 0 0-2.2 0h-1 1.3m13 0c-.7.1-.7.2-.2.2.3 0 1 0 1.3-.2h-1.1m-6.4.3"/><path fill="#fcc496" d="M99.8 36.7h-.9 3l1.2-.1h-3.3m8.5 0 4.1.2h1.8l-1.8-.1a77 77 0 0 0-4.2-.1H106h2.3M97 37c-.4.1-.4.1 0 .1l1-.1c.4-.2-.4-.2-1 0m19 0 1.6.1h1l-1-.1a14.6 14.6 0 0 0-1.6-.1h-.8l.7.1m-92.6.5c-.3.3-.6.6-.6.8 0 .2 0 .2.1 0 .4-1 0-1 14.8-1a338.3 338.3 0 0 0-.8-.1h-13l-.5.3m72-.2-.4.2h.4c.1 0 .5 0 .7-.2l.4-.1H96a2.2 2.2 0 0 0-.7.1m24.3 0 1.2.2h.5l-.5-.2h-1.2l-.7-.1.7.1m22 0h5.2c3.5 0 5.7 0 6 .2 1.2.3 1.1-2 1.1 30.6a2938.1 2938.1 0 0 0 0-29.7c-.3-1.2-.4-1.2-6.7-1.2h-5.6m-89.5.5a4.7 4.7 0 0 0 .9.1h.4l-.4-.1a3.6 3.6 0 0 0-1-.2h-.4l.5.2m41.8 0h.6c.3-.1.4-.2 0-.2a2 2 0 0 0-.6.2m28 .2.5.8c0 .4 0 .4 0 0 .1-.3-.6-1.2-1-1.2l.4.4m19-.1-.4.8c-.3.9-.3 57.6 0 58.7.1.7.7 1.4 1.2 1.4 0 0 0-.2-.4-.3-.9-.6-.9.2-.9-30.4 0-28.8 0-29.5.7-30.2l.1-.3-.3.3m-86.2.4a30.3 30.3 0 0 1 2.8.8 15.4 15.4 0 0 0-3.6-1.2c-.2 0 .1.2.8.4m37 .2c-1 .4-1.3.6-1.1.6 0 0 .3 0 .5-.2l1-.4c.3-.1.5-.2.3-.2l-.7.2m-69.2.8c-.1.8 0 57.3.1 57.8l.1-29a3444.2 3444.2 0 0 0-.2-28.8m35.3-.1 1 .5c3.8 1.8 6.5 4.9 7.8 8.8.2.7.4 1 .5 1A15.6 15.6 0 0 0 57.7 39M88 40l-1.6 1.2 3-1.9-1.4.8m34.2 0v1s.3-1.5.2-1.7c0-.2-.2.1-.2.6m-37.1 2.3a5 5 0 0 0-.8 1l1.7-1.8-1 .8m36.8-.2v1c.1 0 .3-1.1.2-1.5l-.2.5m-38.5 2.3c-.8 1.2-1.6 2.8-1.5 3l.7-1.2 1.1-2 .5-.8-.8 1m38.2-.2v1c0 .1.3-1.4.2-1.7l-.2.7m-40 3.7v.4l.2-.2c.2-.2 0-.4 0-.5 0 0-.2.1-.2.3m39.1.2c0 .2-.4.4-.7.5-.3.2-.5.3-.3.3.4 0 1-.4 1.2-.8.1-.3 0-.3-.2 0m-20.3.2c-.6 0-1 .2-1 .2l1.5-.1a70 70 0 0 1-.5-.1m-64.1.5a3510.9 3510.9 0 0 0 0 24.2l.1-24.4H42l5.6-.1H42l-5.7-.1v.4m11.7 0h1.1-.4a2.2 2.2 0 0 0-.7-.2h-.4l.4.1m33.3.3v.5l.1-.3v-.6l-.1.4m17.2-.3c-.2.2-.2.2 0 .2.1 0 .4 0 .5-.2.2-.1.2-.1 0-.1a1.1 1.1 0 0 0-.5.1m16.8 0 1.9.2h.9l-1-.2a15.5 15.5 0 0 0-1.8 0h-.9 1m-64.6 1c2.7 1.5 3.6 4.7 2.6 9.5 0 .4 0 .3.2-.2.4-1.1.4-5 0-6.3-.7-1.6-2.4-3.5-3.3-3.5l.5.5m45.6 0-1 1c-.2.4-.1.3.5-.2l1-1c.3-.1.4-.3.3-.3l-.8.5M67 50c0 .2 0 .5.2.7.2.3.2 0 0-.7l-.2-.4v.4M81 51c-.2.8-.2 2.2-.2 3.8v2.5l.1-2.8a25.2 25.2 0 0 1 .3-4.4l-.2.9m-13.5.8c0 .8.2 1.9.2 1.2v-1l-.2-.7v.5m27.1.8a6 6 0 0 0 1 5c.4.6 2.2 1.9 2.6 1.9l-1-.6c-2-1.3-3.2-4-2.4-6l.1-.8-.3.5m-26.8 3.1v1-2 1M81 57.6v1c.2.5.2.6.2.1l-.2-1.1m-13.5 1.1v1l.2-.7v-1l-.2.7m13.8.8.1.6.2.3v-.3a1.2 1.2 0 0 0-.2-.6c-.1-.2-.1-.2-.1 0m18 .5c.5.2.7.2.6 0l-.5-.2c-.4 0-.4 0 0 .2m1.3.4 1 .3c.2 0 0-.2-.4-.3-1-.3-1.5-.3-.6 0m-33.5.2a1.7 1.7 0 0 0 0 .5c0 .2 0 .2 0 0 .2-.3.2-.6.2-.7l-.2.2m-14.5.3-.1.4c.1 0 .6-.6.5-.7 0 0-.2 0-.4.3m49.6 0 .6.1c.6 0 .4 0-.3-.2h-.3m1.3.4.6.1c.4 0 .3 0-.3-.2h-.3m1.3.4.6.1c.3 0 .3 0 0-.1-.6-.2-1-.2-.7 0m-53 .5-1.4 1c-.6.2-1 .5-.9.5.5 0 3.4-2 3-2-.1 0-.4.2-.6.5m15-.2v.5l.1-.3v-.4l-.1.2m15-.2c0 .4 1.3 2.9 1.8 3.6.8 1 2.1 2.5 2.2 2.4l-.5-.6a14.7 14.7 0 0 1-1-1.2 13 13 0 0 0-.5-.6c-.2-.3-1.1-1.9-1.4-2.7-.5-1-.6-1.2-.6-.9m24.3.2.6.2-.1-.2a1.8 1.8 0 0 0-.6-.1c-.2 0-.1 0 0 .1m1.3.4h.6a2 2 0 0 0-.6-.2c-.3 0-.3 0 0 .2m1 .2 2.5.7c.4 0-.2-.2-1.6-.6-.5-.2-1-.2-.8 0m3 .8.5.2c.3 0 .3 0 0-.2-.4-.2-.6-.2-.5 0M66 64a23.2 23.2 0 0 1-3.2 4.6 17.2 17.2 0 0 0 3.2-4.6m-17.4-.2c-.3.1-.3.1 0 .1l.5-.1c.1-.2 0-.2-.5 0m-1.4.3-.3.1h.4l.6-.1.4-.1h-.4a2 2 0 0 0-.6.1m65.9 0s1.2.5 1.3.4l-.6-.3-.7-.2m-67.3.8c-.6.5-1 2-1.5 4v.5l.1-.4.3-1c.5-2.2.9-3 1.6-3.4.3-.1.4-.2.2-.2-.1 0-.5.2-.7.5m69.8.4 1 .5-2-1.1 1 .6m1.8 1 .8.6a12.7 12.7 0 0 1 1.6 1.3l.7.6-.5-.6c-.6-.7-2.6-2.2-2.6-2M86.1 68c.4.5 3.2 2.4 3.2 2.2l-1-.7a27.6 27.6 0 0 1-1.6-1.2c-.4-.3-.7-.5-.6-.3m-24.6 1.6a25 25 0 0 1-2.3 1.8l-1.4 1a21 21 0 0 0 2 3.3l-.9-1.5c-1-1.9-1-1.7-.1-2.3 1.3-.9 4-3.1 3.8-3.1l-1.1.8m60 .3 1.4 2.1c.5 1 .7 1.2.4.5-.3-.8-1.6-2.8-2.1-3.3-.4-.4-.3-.1.3.7m-77.4.2v.6l.1-.4v-.6l-.1.4m45.4.2 1.5.8c.3 0-1.1-.8-1.4-.8 0 0-.1 0 0 0m-45.8 1.2v.6l.1-.4v-.5l-.1.3m48.2 0c0 .1 2.7 1 2.8.9l-2.7-1-.1.1m-48.5 1.8c0 .5 0 .7.1.4a3.6 3.6 0 0 0 0-.9v.5m51.4-.8c.1.1 3 .8 3.1.7l-1-.3c-1.5-.4-2.2-.5-2.1-.4m28.5.7.2.8.3.3-.2-.7-.3-.4m-25 .2c.6.2 1 .2.7 0a1.2 1.2 0 0 0-.6-.1h-.3l.3.1m1.3.4c.5.2 1 .2.6 0a1.2 1.2 0 0 0-.6-.2h-.3l.3.2m1.3.3c.5.2 1 .2.5 0a2 2 0 0 0-.6-.1c-.3 0-.3 0 0 .1m1.7.4 1.8.6 1.2.3-1.2-.5a39.3 39.3 0 0 1-1.6-.5l-.6-.1.4.2m21.2.3c0 .2 0 .5.2.7l.1.3v-.3l-.1-.7-.2-.3v.3m-80 .4 1.6 3c.4.5.3.1-.3-.8-.9-1.7-1.3-2.4-1.3-2.2m64 1.5c1 .6 1.7 1.3 2 2 .2.3.3.4.3.2 0-.5-2.3-2.8-3-2.8l.8.6m16.3-.4v1l.2.7v-.6l-.1-1c-.1-.3-.1-.3-.1 0m-64.2 0 .5 1 .5.8a8 8 0 0 0 1 1.7 29.8 29.8 0 0 0-2-3.4m64.5 3.8v.8a15.5 15.5 0 0 0 0-1.7v.9m-14.3-.6c.2.7.3.7.3.2l-.2-.6c-.1 0-.1.1 0 .4m0 2.9a7 7 0 0 1-.1.7c0 .3 0 .3.1 0 .1 0 .2-.4.1-.6v-.1m13.8.9v.9c.1.1.3-1 .2-1.4l-.2.5M110 84c-.2.6-1.5 1.8-2.1 2l-.3.3c.3.4 2.9-2 2.7-2.6 0-.1-.2 0-.3.3m-44.8.6 1.4 2.3c.2.1 0-.1-.7-1.3-.6-1-.7-1.2-.7-1m58.9.6v.5l.2-.4V85l-.2.4m-74 .8.3.6c.2 0 0-.3-.2-.7l-.4-.4.3.5m73.7.2-.2.9.1-.2.3-.8c0-.2-.1-.1-.2.1m-41 .4c-.3 0-.7.3-.8.4-.3.3 0 .3.4 0 .2-.2.8-.3 1.8-.3h1.5c-.2-.2-2.4-.3-2.9-.1m23.9 0c-.3.1-.3.1 0 .1l.5-.1c.2-.2.2-.2 0-.2s-.4 0-.5.2m-55.4 1.6c.7 1.3 1 1.9 1 1.7l-1.7-3.2s.2.7.7 1.5m54-1.3-1.3.2c-1 0-1 0-.3.1a8 8 0 0 0 1.8-.2c.7-.2.8-.2.4-.3l-.6.1m-38.3.9.7 1.2 1.7 2.7c.1 0-.4-1-1-1.7l-.2-.6a16 16 0 0 0-1.5-2.2l.3.6m29.1-.3h4.3c2.3-.1 2.2-.1-2-.1-4 0-4.2 0-2.3.1M81.3 89c-.1.4-.1.7 0 .8l.1-.6c.1-.3.1-.8 0-.8l-.2.6m41.4.2c-.6 1.3-1.3 2.2-2.7 3.6l-1.2 1.4c.3 0 2.4-2.3 3-3.3a9 9 0 0 0 1.4-2.4l-.5.7M81 91.5a92.7 92.7 0 0 1-.4 2.4c-.5 2.8-.5 2.9-.3 3.4s.6 1 .8 1c.1 0 0-.2-.3-.4-.5-.5-.5-2 0-4.2.3-1.8.5-3.1.4-3.5l-.2 1.3m-28.2-.7a133.7 133.7 0 0 1 1.7 2.8 48.7 48.7 0 0 1-1-1.8 10 10 0 0 0-.8-1.3c-.2-.3-.2-.2.1.3M69.5 92c0 .2 1 1.8 1.1 1.7l-.5-1c-.4-.7-.6-.9-.6-.7m1.5 2.5.3.6.6 1c.2.4.3.7.4.6l-.5-1.2c-.6-1-.8-1.2-.8-1m46.5.5c-.5.2-.8.5-.8.6l1.6-1c0-.2 0-.2-.8.4m-62.2.7 1.3 2c0-.3-1.6-3-1.7-3l.4 1m60.7.2c-.7.3-.6.4 0 .1l.5-.3-.5.2m-2 .9-.8.4c-.4 0-.5.2-.4.2l1.1-.4c.5-.2.7-.4.6-.4a1.2 1.2 0 0 0-.5.2m-2.2.8c-.2.1-.2.2 0 .2l.5-.2c.3-.1.3-.2 0-.2l-.5.2m-89.1.2c0 .3.7 1 1 1l-.1-.2c-.4-.3-.7-.5-.8-.8 0-.2-.1-.2-.1 0m34.1 0c0 .3 1.2 1 1.6 1 0 0 0-.2-.4-.3a4 4 0 0 1-.9-.5c-.1-.2-.3-.2-.3-.1m15.3.1c0 .2-.3.4-.6.5-.2.1-.3.3-.2.3.3 0 1.1-.8 1-1 0 0-.2 0-.2.2m38.6 0h.5l.4-.2h-.3a1.2 1.2 0 0 0-.6.1m42.6.4c-.5.4-.7.4-6 .5h-5.6H153l.5-.4c.5-.6.4-.6-.2 0m-43.9-.1h.6c.3-.1.4-.2 0-.2a2 2 0 0 0-.6.2m-74.3.3-5.7.2H24h5.6c4.3 0 5.7 0 5.9-.2v-.2a.5.5 0 0 0-.3.2m46.7 0 1 .1h.6l-.7-.1c-.8-.2-1.7-.2-1 0m26 0-.3.1h.3l.9-.1.5-.1h-.5l-.8.1m-24.3.3a19.6 19.6 0 0 0 3.3 0 15 15 0 0 0-3.3 0m22 0h1.8c.2-.2-1.4-.1-1.8 0m-15 .4"/></g></svg>