<svg xmlns="http://www.w3.org/2000/svg" xml:space="preserve" viewBox="0 0 500 500"><circle cx="250" cy="250" r="250" fill="red"/><path d="M249.3 500 48.8 102.3h402.6z"/><g fill="#FFF"><path d="M99.2 134.7h55.3c28.4 0 52.5 12 52.5 43.8 0 19-7.4 27.1-24.4 32.8v1c2.3 1.8 5.2 3.9 7.7 7.5l27.4 41h-52.8l-20.1-40.5h-.8v40.5H99.2zm44.8 55.8h3.2c7.5 0 15-1.2 15-10.5 0-9.7-6.8-10.8-14.7-10.8H144zM210.5 134.7h96.3v41l-25.2-1.2v86.2h-45.8v-86.3l-25.2 1.2zM316 134.7h45.8v85.6h38.5v40.5H316z"/></g><g fill="#FFF"><path d="m99.8 280.2 38.7-1.2v75.2h-27.1v-51.1l-11.6.9zM217.4 315.9c0 22.5-12.7 39.5-35.9 39.5s-35.9-16.9-35.9-39.5c0-21.3 13.2-38.1 35.9-38.1s35.9 16.8 35.9 38.1m-45.7.7c0 5.8 2.1 16.6 9.8 16.6s9.8-10.8 9.8-16.6c0-6.2-1.6-15.5-9.8-15.5-8.2.1-9.8 9.3-9.8 15.5M215.8 354.3l30-26.6c4.7-4.2 16.6-14.8 16.6-21.5 0-3.4-2.8-6-6.2-6-5.8 0-6.5 4.9-6.7 9.4h-26.7c2-21.9 11.8-31.8 34.4-31.8 15.6 0 32.2 9.1 32.2 26.5 0 15.2-13.2 24.5-26.4 28.6v.8l12.8-1.8 14.7-.9v23.2h-74.7zM330.4 343.1c0 7.9-7.6 12.4-14.8 12.4-7.3 0-14.8-4.5-14.8-12.4 0-8 7.6-12.7 14.8-12.7s14.8 4.7 14.8 12.7M400.2 279v21H368c-.5 2.9-1.1 6-2.4 8.7h.7c2.5-3.3 9-4 12.8-4 13.8 0 25.7 9.2 25.7 23.6 0 18.4-20.1 27.1-36 27.1-7.9 0-22.9-2.6-30-6.1l3-20.3c5.5 3 16.2 6.2 22.4 6.2 4.6 0 13.3-1.6 13.3-7.5 0-6.1-10.8-7.5-15-7.5-6.8 0-13.6 1.1-19.9 3.3l6.6-44.5z"/></g></svg>