<svg xmlns="http://www.w3.org/2000/svg" width="1252" height="500" fill="none"><path fill="#FF510C" d="M500 0H0v500h500z"/><path fill="#fff" d="M219.6 315.6h-63l-48.4-75v75H57.6V120.8h78.8c10.8 0 22.8 1.6 30.8 4.8s14.8 7.6 20 13c5.2 5.6 9.2 11.8 11.8 19.2 2.6 7.2 4 15 4 23.2 0 14.8-3.6 28.2-10.8 37.6-7.2 9.2-18.2 16.4-32.2 19.8zM108.2 207.8h10.6c10 0 17.6-2 23-6.2s8-10 8-17.8-2.6-13.6-8-17.8-13-6.2-23-6.2h-10.6zM392.2 182.6l-29.8 77-29.8-77h-56.8v-40.8h-46.6v40.8h-20.4v33.6h20.4v99.4h46.6v-99.4h22l45 99.4h37.4l61.4-133zM82 349c-1.2-1-2.4-1.6-3.6-2.2-1.2-.4-2.4-.6-3.4-.6-1.4 0-2.6.4-3.4 1s-1.4 1.6-1.4 2.6q0 1.2.6 1.8c.4.4 1 1 1.8 1.2.8.4 1.6.6 2.4 1 1 .2 1.8.6 2.6.8q5.4 1.8 7.8 4.8t2.4 7.8c0 2.2-.4 4.2-1 5.8-.8 1.8-1.8 3.2-3.2 4.4s-3 2.2-5.2 2.8c-2 .6-4.4 1-6.8 1-5.4 0-10.2-1.6-14.8-4.8l4.6-8.8c1.6 1.4 3.2 2.6 4.8 3.2 1.6.8 3.2 1 4.8 1 1.8 0 3.2-.4 4-1.2s1.4-1.8 1.4-2.8c0-.6-.2-1.2-.4-1.6q-.3-.6-1.2-1.2c-.6-.4-1.2-.8-2-1q-1.2-.6-3-1.2c-1.4-.4-2.8-1-4.2-1.4-1.4-.6-2.6-1.2-3.6-2.2-1-.8-2-2-2.6-3.4s-1-3-1-5.2c0-2 .4-4 1-5.6s1.6-3.2 2.8-4.4 2.8-2.2 4.6-2.8 3.8-1 6-1c2 0 4.2.2 6.6.8 2.2.6 4.4 1.4 6.6 2.6zM117 373h-15.6l-2.6 7.2H87.2l16-42h12l16 42h-11.6zm-3-8.4-4.8-14-4.8 14zM133.4 338.2h11l20.2 25.8v-25.6h10.8v42h-10.8l-20.2-25.6v25.6h-11zM195.8 380.2l7.2-42h10.8l8.4 22.4 8.4-22.4h10.8l7.2 42h-10.8l-3.6-24.2-10 24.2h-4.4l-9.4-24.2-3.6 24.2zM279 373h-15.6l-2.6 7.2h-11.6l16-42h12l16 42h-11.6zm-2.8-8.4-4.8-14-4.8 14zM330 380.2h-13.6L306 364v16.2h-11v-42h17c2.4 0 4.4.4 6.2 1s3.2 1.6 4.4 2.8 2 2.6 2.6 4.2.8 3.2.8 5q0 4.8-2.4 7.8c-1.6 2-3.8 3.4-6.8 4zM306 357h2c2.2 0 3.8-.4 5-1.4 1.2-.8 1.8-2.2 1.8-3.8s-.6-3-1.8-3.8-2.8-1.4-5-1.4h-2zM343 338.2v42h-11v-42zM349.2 380.2v-42h11l20.2 25.6v-25.6h10.8v42h-10.8L360 354.6v25.6zM395.6 359.2c0-3.2.6-6 1.8-8.8 1.2-2.6 2.8-5 4.8-7s4.4-3.6 7.4-4.8c2.8-1.2 6-1.6 9.4-1.6s6.4.6 9.4 1.6c2.8 1.2 5.4 2.6 7.4 4.8 2 2 3.6 4.4 4.8 7s1.8 5.6 1.8 8.8-.6 6-1.8 8.8c-1.2 2.6-2.8 5-4.8 7s-4.6 3.6-7.4 4.8-6 1.6-9.4 1.6-6.6-.6-9.4-1.6c-2.8-1.2-5.2-2.6-7.4-4.8-2-2-3.6-4.4-4.8-7s-1.8-5.6-1.8-8.8m11.4 0c0 1.6.4 3.2 1 4.6s1.4 2.6 2.6 3.6c1 1 2.4 1.8 3.8 2.4s3 .8 4.6.8 3.2-.2 4.6-.8 2.6-1.4 3.8-2.4c1-1 2-2.2 2.6-3.6s1-3 1-4.6-.4-3.2-1-4.6-1.4-2.6-2.6-3.6c-1-1-2.4-1.8-3.8-2.4s-3-.8-4.6-.8-3.2.2-4.6.8-2.6 1.4-3.8 2.4c-1 1-2 2.2-2.6 3.6s-1 3-1 4.6"/><path fill="#FF510C" d="M595.729 317.602h-38.478v-65.069h45.121c2.006 18.681 7.897 27.332 19.804 27.332 11.155 0 19.553-8.15 19.553-18.43 0-6.395-3.385-12.287-8.649-15.672-9.149-5.517-20.931-8.4-33.214-13.666Q557 214.043 557 176.807C557 142.454 583.446 116 618.416 116c11.656 0 21.433 3.385 30.958 10.657v-5.517h36.474v56.544h-41.237c-2.256-13.666-9.149-20.937-19.176-20.937-9.777 0-17.046 7.271-17.046 15.922 0 7.272 3.384 12.789 8.648 15.672 12.534 6.394 26.697 8.902 38.98 15.672 24.316 12.788 36.223 30.466 36.223 53.284 0 35.732-28.703 64.944-62.795 64.944-11.656 0-22.56-3.636-33.716-10.907zM714.675 205.267H697.88v-40.12h58.533v18.931c10.904-14.167 25.318-21.439 46.876-21.439 42.991 0 74.702 32.974 74.702 78.986s-31.711 78.986-74.702 78.986c-19.803 0-34.593-6.143-44.871-19.182v25.075h15.041V367H697.88v-40.496h16.795zm80.217 74.472c21.182 0 36.849-15.922 36.849-38.239s-15.542-38.239-36.849-38.239c-21.182 0-36.85 15.922-36.85 38.239s15.668 38.239 36.85 38.239M909.827 184.329c15.291-15.045 35.972-23.445 58.282-23.445s42.611 8.4 58.031 23.445c15.29 15.045 23.44 34.604 23.44 57.171 0 22.317-8.15 42.126-23.44 57.171-15.42 15.045-35.721 23.194-58.031 23.194s-42.991-8.149-58.282-23.194-23.438-34.854-23.438-57.171 8.147-42.126 23.438-57.171m58.282 95.16c19.553 0 35.471-16.675 35.471-37.989 0-21.439-15.668-37.988-35.471-37.988-19.553 0-35.721 16.424-35.721 37.988 0 21.188 16.168 37.989 35.721 37.989M1074.65 205.267h-17.55v-40.12h58.53v22.317c8.65-17.051 22.06-24.323 37.23-24.825v42.628c-24.44 1.379-35.22 13.666-35.22 41.499v30.967h17.54v40.496h-79.96v-40.496h19.43zM1180.68 205.267h-13.91v-40.12h13.91v-45.26h44.12v45.26h27.2v40.12h-27.2v72.466h22.69v40.496h-66.81z"/></svg>