<svg xmlns="http://www.w3.org/2000/svg" xml:space="preserve" viewBox="0 0 250 250"><path fill="#00549F" d="M0 0h250v250H0z"/><g fill="#FFF"><path d="M109.8 157.8H78.3l-24.2-37.5v37.5H28.8V60.4h39.4c5.4 0 11.4.8 15.4 2.4s7.4 3.8 10 6.5c2.6 2.8 4.6 5.9 5.9 9.6 1.3 3.6 2 7.5 2 11.6 0 7.4-1.8 14.1-5.4 18.8-3.6 4.6-9.1 8.2-16.1 9.9zm-55.7-53.9h5.3c5 0 8.8-1 11.5-3.1s4-5 4-8.9-1.3-6.8-4-8.9-6.5-3.1-11.5-3.1h-5.3zM196.1 91.3l-14.9 38.5-14.9-38.5h-28.4V70.9h-23.3v20.4h-10.2v16.8h10.2v49.7h23.3v-49.7h11l22.5 49.7h18.7l30.7-66.5z"/></g><g fill="#FFF"><path d="M41 174.5c-.6-.5-1.2-.8-1.8-1.1-.6-.2-1.2-.3-1.7-.3-.7 0-1.3.2-1.7.5s-.7.8-.7 1.3q0 .6.3.9c.2.2.5.5.9.6.4.2.8.3 1.2.5.5.1.9.3 1.3.4q2.7.9 3.9 2.4t1.2 3.9c0 1.1-.2 2.1-.5 2.9-.4.9-.9 1.6-1.6 2.2s-1.5 1.1-2.6 1.4c-1 .3-2.2.5-3.4.5-2.7 0-5.1-.8-7.4-2.4l2.3-4.4c.8.7 1.6 1.3 2.4 1.6.8.4 1.6.5 2.4.5.9 0 1.6-.2 2-.6s.7-.9.7-1.4c0-.3-.1-.6-.2-.8q-.15-.3-.6-.6c-.3-.2-.6-.4-1-.5q-.6-.3-1.5-.6c-.7-.2-1.4-.5-2.1-.7-.7-.3-1.3-.6-1.8-1.1-.5-.4-1-1-1.3-1.7s-.5-1.5-.5-2.6c0-1 .2-2 .5-2.8s.8-1.6 1.4-2.2 1.4-1.1 2.3-1.4 1.9-.5 3-.5c1 0 2.1.1 3.3.4 1.1.3 2.2.7 3.3 1.3zM58.5 186.5h-7.8l-1.3 3.6h-5.8l8-21h6l8 21h-5.8zm-1.5-4.2-2.4-7-2.4 7zM66.7 190.1v-21h5.5L82.3 182v-12.8h5.4v21h-5.4l-10.1-12.8v12.8h-5.5zM97.9 190.1l3.6-21h5.4l4.2 11.2 4.2-11.2h5.4l3.6 21h-5.4l-1.8-12.1-5 12.1h-2.2l-4.7-12.1-1.8 12.1zM139.5 186.5h-7.8l-1.3 3.6h-5.8l8-21h6l8 21h-5.8zm-1.4-4.2-2.4-7-2.4 7zM165 190.1h-6.8L153 182v8.1h-5.5v-21h8.5c1.2 0 2.2.2 3.1.5s1.6.8 2.2 1.4 1 1.3 1.3 2.1.4 1.6.4 2.5q0 2.4-1.2 3.9c-.8 1-1.9 1.7-3.4 2zm-12-11.6h1c1.1 0 1.9-.2 2.5-.7.6-.4.9-1.1.9-1.9s-.3-1.5-.9-1.9-1.4-.7-2.5-.7h-1zM171.5 169.1v21H166v-21zM174.6 190.1v-21h5.5l10.1 12.8v-12.8h5.4v21h-5.4L180 177.3v12.8zM197.8 179.6c0-1.6.3-3 .9-4.4.6-1.3 1.4-2.5 2.4-3.5s2.2-1.8 3.7-2.4c1.4-.6 3-.8 4.7-.8s3.2.3 4.7.8c1.4.6 2.7 1.3 3.7 2.4 1 1 1.8 2.2 2.4 3.5s.9 2.8.9 4.4-.3 3-.9 4.4c-.6 1.3-1.4 2.5-2.4 3.5s-2.3 1.8-3.7 2.4-3 .8-4.7.8-3.3-.3-4.7-.8c-1.4-.6-2.6-1.3-3.7-2.4-1-1-1.8-2.2-2.4-3.5s-.9-2.8-.9-4.4m5.7 0c0 .8.2 1.6.5 2.3s.7 1.3 1.3 1.8c.5.5 1.2.9 1.9 1.2s1.5.4 2.3.4 1.6-.1 2.3-.4 1.3-.7 1.9-1.2c.5-.5 1-1.1 1.3-1.8s.5-1.5.5-2.3-.2-1.6-.5-2.3-.7-1.3-1.3-1.8c-.5-.5-1.2-.9-1.9-1.2s-1.5-.4-2.3-.4-1.6.1-2.3.4-1.3.7-1.9 1.2c-.5.5-1 1.1-1.3 1.8s-.5 1.5-.5 2.3"/></g></svg>