<svg xmlns="http://www.w3.org/2000/svg" width="396" height="283" fill="none"><path fill="#fff" fill-rule="evenodd" d="M19.1 2.9c-1.3 1.3-5.1 5.3-7.3 9.4-.4.7-1.4 2.8-1.5 3-.1.1-.4.9-.8 1.6s-.6 1.4-.6 1.5-.1.2-.2.2-.1 0-.1.1c.1.1-.2.8-.6 1.8-.4.9-.7 1.8-.7 1.9s-.3.9-.6 1.8-.6 1.7-.6 1.9-.4 1.4-.8 2.7-.8 2.5-.8 2.7-.3 1.4-.6 2.6c-.3 1.3-.6 2.6-.7 3.1 0 .4-.3 1.7-.5 2.8-.5 2.4-.6 3.3-.7 3.7 0 .1-.1.5-.1.8-.1.3-.1 1.3-.2 2.1s-.2 2.6-.4 4c-.6 5.6-.5 14.9.2 19.9.1 1 .2 2 .1 2.2-.1.3 0 .5.1.5s.2.1.1.3c-.1.3.5 3.9 1 5.7.1.5.3 1.3.3 1.7s.4 1.8.7 3c.4 1.2.6 2.3.6 2.4s0 .1.1.1.1.1.1.2c-.1.1.2 1 .6 2s.7 2 .8 2.3c0 .2.4 1.1.7 1.9.4.8.7 1.6.7 1.7s.3.8.7 1.5.6 1.4.6 1.4c-.1.1 0 .1.1.1s.2 0 .1.1.2.7.6 1.5c.4.7.7 1.4.7 1.5s.3.7.7 1.3.6 1.1.6 1.2 0 .1.1.1.1.1.1.2.3.6.6 1.2c.3.5.6 1 .6 1.1s.1.2.2.2.2.1.1.1c0 .1.3.9.5 1 .1 0 .5.7.9 1.4.5.7.9 1.4 1 1.4s.1.2.1.3.1.2.2.2.1 0 .1.1.3.5.7 1.1c.5.5.8 1.1.7 1.1-.1.1 0 .2.1.2s.5.4.9 1c2.8 3.9 9.3 10.3 12.6 12.5.2.1 1.1.8 1.9 1.4 1.9 1.5 2.7 2 4.6 3.3.8.6 1.5 1.1 1.6 1.2s.1.1.2.1.2.1.4.2.9.6 1.6 1.1 1.6 1 1.9 1.2l.6.4.8.4c.4.2.9.5 1.1.6s.4.3.4.4 0 .1.1.1c.1-.1.3 0 .5.2s1 .6 1.6.9 2 1.1 3 1.6 1.9 1 2 1 .2.1.2.1c0 .1.1.1.1.1.2 0 3.1 1.4 3.2 1.6.1.1.1.1.1 0s.6.2 1.3.5c.7.4 1.4.6 1.4.6.1-.1.1 0 .1.1s0 .2.1.1.8.2 1.7.6 1.6.7 1.7.6.1 0 .1.1.1.2.1.1c.1 0 .8.2 1.5.5.8.3 1.5.6 1.6.6s.2.1.2.1l.1.1c.1 0 .9.2 1.9.6s1.9.7 2 .7c.2 0 .3 0 .3.1s.1.1.3.1 1 .3 1.8.5c.8.3 1.6.5 1.8.6.2 0 .3.1.3.2s.1.1.2.1 1.2.2 2.3.6 2.3.7 2.6.7 1.5.3 2.7.7c1.2.3 2.2.6 2.3.5s.2 0 .2.1.1.2.3.1c.2 0 .3 0 .3.1s.1.1.2.1 1.3.2 2.5.5c1.3.3 2.4.5 2.5.5s.2 0 .2.1.2.1.4.1c.2-.1.4 0 .4 0s.2.1.5.1 1.7.3 3.3.6c1.5.3 2.9.6 2.9.5.1-.1.2 0 .3.1s.2.1.4.1c.1-.1.3 0 .4 0 .1.1.4.1.6.1s1.8.3 3.5.6 3.1.6 3.2.5.2 0 .3.1.2.1.3.1 1.6.2 3.2.5 3.3.6 3.7.6.8.1.9.2q.15.15.3 0c.1 0 2.1.2 4.5.6s4.5.6 4.7.6.5 0 .6.1q.3.15.6 0c.1-.1.4 0 .5.1s.4.1.6.1 2.3.2 4.8.6c2.4.4 4.6.6 4.7.6.2-.1.3 0 .3.1s.2.2.5.2c.6 0 .8 0 4.8.6 1.5.2 2.8.4 2.8.3 0 0 .3 0 .5.1q.45.3.6 0t.3 0c.1.1.3.2.6.1s.4 0 .4.1.2.2.4.1c.2 0 2.1.2 4.1.5s3.8.5 3.9.5.3 0 .3.1c.1.1.3.1.7.1.3-.1.6 0 .6 0 0 .1.4.2.8.2s2.9.3 5.5.6 4.9.6 5.1.5.4 0 .4.1.5.2 1 .2c.6 0 3.2.3 5.9.6s5.2.6 5.5.6c.4 0 .7.1.7.2s.2.1.5.1 2.4.2 4.8.6 4.4.6 4.5.6c.1-.1.3 0 .4.1s.4.2.6.1c.2 0 2.2.2 4.5.5s4.2.5 4.3.5.3 0 .3.1c.1.1.3.1.7.1.4-.1.6 0 .6.1s.2.2.6.1.6 0 .6.1.2.1.5.1c.2 0 2 .2 3.9.5s3.5.5 3.6.5c.1-.1.2 0 .2.1s.2.2.4.2.5 0 .7.1.4.1.4 0c.1-.1 1.5.2 3.1.6s3.2.7 3.6.7c.3 0 1.7.3 3.1.7 1.4.3 2.7.6 2.9.6s.4.1.4.1c0 .1.2.1.5.1s1.4.3 2.5.6 2 .6 2.1.5.2 0 .2.1.1.1.2.1c.1-.1.9.2 1.7.5.9.3 1.7.6 1.8.6s.3.1.3.2c.1.1.3.2.5.2.9.2 10.8 4.7 10.8 4.7V83.3s-9.7-2-12.9-2.6c-2-.4-8.1-1.3-8.2-1.2s-.3 0-.4-.1-.4-.2-.5-.1-2.3-.2-4.9-.6c-2.5-.4-4.7-.6-4.8-.6s-.3 0-.4-.1-.4-.2-.6-.1c-.2 0-2.4-.2-4.9-.6s-4.6-.6-4.7-.6c-.1.1-.3 0-.4-.1s-.4-.1-.7-.1c-.3.1-.4 0-.4-.1s-.1-.2-.4-.1c-.2.1-2.3-.2-4.6-.6s-4.3-.6-4.4-.6c-.1.1-.3 0-.4-.1s-.3-.2-.4-.1-1.9-.2-4-.6-3.9-.6-4-.6c0 0-.2 0-.3-.1s-.3-.1-.4-.1-.6 0-1-.1c-2.6-.5-6.3-1.2-6.7-1.2-.3 0-.5-.1-.6-.1h-.2c-.1 0-1.6-.3-3.3-.6-1.8-.4-3.3-.6-3.3-.6-.1 0-.2 0-.2-.1-.1-.1-.2-.1-.3-.1s-1.5-.2-3.2-.6c-1.6-.4-3-.6-3.1-.6s-.2 0-.2-.1c-.1-.1-.3-.1-.4-.1-.2.1-.3 0-.3-.1s-.1-.2-.3-.1c-.1.1-1.5-.2-3.1-.6s-3-.6-3.1-.6-.2 0-.2-.1-.3-.2-.6-.2-1.5-.3-2.5-.6c-1.1-.3-2.1-.6-2.3-.7-.6-.1-2.2-.8-2.2-1 0-.1 0-.1-.1-.1-.1.1-.3 0-.6-.1s-.5-.2-.6-.1-.1 0-.1-.1 0-.2-.1-.1-1.2-.5-1.4-.8c-.1-.1-.1-.1-.2-.1s-1.1-.4-1.9-.9c-.2-.1-.4-.3-.4-.3s-.1-.1-.2-.1c-1.2 0-7.1-6.4-7.2-7.9 0-.2-.2-.6-.3-1-.9-2.1-1-5.2-.2-7.8.3-.8.5-1.5.5-1.7.1-.4 1-2.1 1.3-2.4.1-.1.2-.3.1-.3 0-.1.1-.3.2-.4.4-.5 1.1-1.4 1-1.4 0 0 .2-.3.6-.7s.7-.8.7-.8c0-.1.1-.1.2 0s.1 0 .1-.1c-.1-.2 1.5-1.8 3.1-3 .6-.5 1.2-.9 1.3-1s.3-.2.4-.2.4-.1.6-.3c.8-.6 4.4-2.3 5.1-2.4.2 0 1.2-.3 2.2-.7 1-.3 2-.6 2.3-.6s.5-.1.5-.2.1-.1.1-.1c.1 0 1-.1 2.1-.3 2.9-.6 6.2-1.1 6.6-1 .2 0 .4 0 .6-.1.1-.1.3-.1.3-.1s1.4-.1 3.1-.2c9-1 18.9-1 27.6-.1 1.3.1 2.6.3 2.9.4.4.1.5.1.5 0s.1-.1.2 0 .4.2.6.1c.3-.1 3.5.4 6.1 1 .7.1 1.3.2 1.4.2.1-.1.2 0 .2.1s.1.2.4.1.4 0 .4.1.1.1.2.1 1.2.2 2.5.5c1.2.3 2.4.6 2.6.6s.4.1.4.2.1.1.2.1 1 .2 2 .6c1 .3 1.9.6 2 .5.1 0 .1 0 .1.1s.1.1.1.1c.1 0 1 .3 2 .7s1.9.8 1.9.7 2.2 1 3.1 1.5c1.6.9 3.2 1.8 3.5 2.1.2.2.5.3.6.3s.2.1.2.2.1.2.2.2.4.2.7.5.6.5.6.5c.2 0 2.2 1.9 3.3 3.1 1.1 1.1 2.4 2.8 2.2 2.8-.1 0 0 .1.2.3.5.6 1.1 1.3 1.3 1.7.1.2.3.5.4.7.3.3 2.2 4.3 2.3 4.7 0 .1.4 1.1.7 2 .4 1 .8 2.5.8 2.5h5.6V2.9M273.2 84.3v96.3l122.2.2v-72s-3.9-2.1-5.3-2.7c-.4-.2-.9-.3-1.8-.7-.8-.3-1.7-.6-1.8-.7-.2 0-1.1-.4-2-.7-.9-.4-1.7-.7-1.9-.7-.1 0-1-.3-1.9-.7s-1.9-.7-2.2-.8c-.3 0-1.2-.4-2-.7-.9-.3-1.7-.6-1.8-.6-.2 0-.3-.1-.3-.2s-.1-.1-.1-.1c-.1.1-1-.2-2-.6s-2.1-.7-2.3-.7-1.2-.3-2.2-.7c-1-.3-2-.6-2.2-.6s-1.3-.3-2.4-.7-2.1-.7-2.3-.7-.3-.1-.3-.1-.2-.1-.4-.1-1.4-.3-2.5-.7c-1.1-.3-2.3-.6-2.7-.7s-1.8-.4-3.3-.8-2.8-.6-3-.6c-.1.1-.3 0-.3-.1s-.2-.2-.5-.2-1.8-.3-3.3-.6c-1.6-.3-3-.6-3.1-.5s-.3 0-.3-.1-.3-.2-.6-.2-2.3-.3-4.3-.6-3.7-.6-3.8-.5-.3 0-.4-.1-.3-.2-.5-.1c-.1.1-2.3-.2-4.9-.6-2.5-.4-4.7-.7-4.8-.6s-.3 0-.4-.1-.3-.2-.4-.1-2.1-.2-4.4-.6-4.4-.6-4.5-.6c-.2.1-.3 0-.3-.1s-.2-.2-.4-.1c-.2 0-2.7-.2-5.5-.6s-5.2-.7-5.3-.6c-.2.1-.4 0-.5 0-.1-.1-.5-.1-1-.2-.4 0-3-.3-5.8-.6s-5.2-.6-5.4-.5-.4 0-.6-.1c-.1-.1-.4-.2-.7-.1-.3 0-2 0-3.9-.2s-4.2-.4-5.2-.4c-1-.1-2.2-.1-2.6-.2-.4 0-1.1 0-1.4.1M5.3 282.1H394v-86.5H5.3m383.3 81.2h-378V201h378" clip-rule="evenodd"/><path fill="#fff" d="M30.8 257.8c-2.5-1-4.5-2.4-5.8-4.1s-2-3.6-2.1-5.6c0-.3.1-.6.4-.8q.3-.3.9-.3h7.4c.4 0 .8.1 1.1.2s.6.4.9.8c.5.9 1.2 1.6 2.3 2.2 1 .6 2.4.9 4.1.9 2 0 3.6-.3 4.6-.9 1.1-.6 1.6-1.5 1.6-2.5 0-.8-.3-1.4-.8-1.9s-1.5-1-2.7-1.3c-1.2-.4-3-.8-5.3-1.3-4.5-.9-7.9-2.3-10.1-4.1s-3.4-4.4-3.4-7.8c0-2.3.6-4.4 1.9-6.2s3.1-3.2 5.5-4.2 5.1-1.5 8.3-1.5c3.3 0 6.1.6 8.5 1.7s4.3 2.6 5.5 4.3c1.3 1.7 2 3.4 2 5q0 .45-.3.9c-.2.2-.5.4-.8.4h-7.8c-.8 0-1.5-.3-1.9-1-.2-.8-.8-1.4-1.7-2-.9-.5-2.1-.8-3.5-.8-1.6 0-2.8.3-3.6.8-.9.6-1.3 1.4-1.3 2.5s.6 1.9 1.7 2.5 3.2 1.2 6.3 1.9q5.25.9 8.4 2.4c2.1 1 3.6 2.2 4.6 3.7q1.5 2.25 1.5 5.7c0 2.5-.7 4.7-2.2 6.6s-3.5 3.3-6 4.3c-2.6 1-5.5 1.5-8.8 1.5-3.8-.5-6.9-1-9.4-2M65.8 255.5c-3.1-2.6-4.7-6.4-4.9-11.4 0-1-.1-2.7-.1-4.8 0-2.2 0-3.8.1-4.9.1-4.9 1.8-8.7 4.9-11.4s7.3-4 12.5-4 9.3 1.3 12.5 4c3.1 2.7 4.8 6.5 4.9 11.4.1 2.2.1 3.8.1 4.9s0 2.7-.1 4.8q-.3 7.5-4.8 11.4c-3 2.6-7.2 3.9-12.5 3.9q-7.95-.15-12.6-3.9m17.2-6.3q1.8-1.8 1.8-5.4c.1-2.2.1-3.7.1-4.6s0-2.4-.1-4.5q-.15-3.6-1.8-5.4c-1.2-1.2-2.7-1.8-4.6-1.8-2 0-3.5.6-4.7 1.8q-1.8 1.8-1.8 5.4c0 1-.1 2.6-.1 4.5 0 2 0 3.6.1 4.6q.15 3.6 1.8 5.4c1.2 1.2 2.7 1.8 4.7 1.8 1.9-.1 3.5-.7 4.6-1.8M101.8 258.4c-.3-.3-.4-.6-.4-1V221c0-.4.1-.7.4-1s.6-.4 1-.4h7.8c.4 0 .7.1 1 .4s.4.6.4 1v29h16.8c.4 0 .8.1 1 .4.3.3.4.6.4 1v5.9c0 .4-.1.7-.4 1s-.6.4-1 .4h-26c-.4.1-.8-.1-1-.3M138.1 255.5c-3.1-2.6-4.7-6.4-4.9-11.4 0-1-.1-2.7-.1-4.8 0-2.2 0-3.8.1-4.9.1-4.9 1.8-8.7 4.9-11.4s7.3-4 12.5-4 9.3 1.3 12.5 4c3.1 2.7 4.8 6.5 4.9 11.4.1 2.2.1 3.8.1 4.9s0 2.7-.1 4.8q-.3 7.5-4.8 11.4c-3 2.6-7.2 3.9-12.5 3.9q-7.95-.15-12.6-3.9m17.2-6.3q1.8-1.8 1.8-5.4c.1-2.2.1-3.7.1-4.6s0-2.4-.1-4.5q-.15-3.6-1.8-5.4c-1.2-1.2-2.7-1.8-4.6-1.8-2 0-3.5.6-4.7 1.8q-1.8 1.8-1.8 5.4c0 1-.1 2.6-.1 4.5 0 2 0 3.6.1 4.6q.15 3.6 1.8 5.4c1.2 1.2 2.7 1.8 4.7 1.8 1.9-.1 3.4-.7 4.6-1.8M177.3 255.5c-3-2.6-4.7-6.3-4.8-11.3 0-1-.1-2.7-.1-4.9 0-2.3 0-4 .1-5 .2-4.9 1.8-8.6 4.9-11.2s7.3-3.9 12.5-3.9c3.3 0 6.3.5 8.9 1.6s4.7 2.7 6.2 4.7c1.5 2.1 2.3 4.5 2.4 7.3 0 .3-.1.6-.4.8q-.3.3-.9.3h-8c-.5 0-.9-.1-1.1-.3s-.5-.6-.6-1.1c-.5-1.8-1.3-3.1-2.4-3.8s-2.5-1.1-4.2-1.1c-4.2 0-6.4 2.4-6.6 7.1 0 1-.1 2.6-.1 4.6 0 2.1 0 3.7.1 4.8.1 4.7 2.3 7.1 6.6 7.1 1.7 0 3.1-.4 4.2-1.1s1.9-2 2.4-3.8c.1-.6.4-.9.6-1.1q.45-.3 1.2-.3h8q.45 0 .9.3c.2.2.4.5.4.8-.1 2.8-.9 5.2-2.4 7.3s-3.6 3.6-6.2 4.7-5.6 1.6-8.9 1.6c-5.4-.3-9.6-1.6-12.7-4.1M209.3 258.4c-.2-.2-.4-.5-.4-.8 0-.2 0-.4.1-.5l13-35.9c.4-1.1 1.1-1.6 2.2-1.6h8.7c1.1 0 1.9.5 2.2 1.6l13 35.9c0 .1.1.3.1.5 0 .3-.1.6-.4.8-.2.2-.5.4-.8.4h-7.3c-.9 0-1.5-.4-1.9-1.2l-2-5.4h-14.7l-2 5.4c-.4.8-1 1.2-1.9 1.2h-7.3c-.1 0-.3-.2-.6-.4m14.4-14.7h10l-5-14.3zM252.7 258.4c-.3-.3-.4-.6-.4-1V221c0-.4.1-.7.4-1s.6-.4 1-.4h7.8c.4 0 .7.1 1 .4s.4.6.4 1v29h16.8c.4 0 .8.1 1 .4s.4.6.4 1v5.9c0 .4-.1.7-.4 1s-.6.4-1 .4h-26c-.4.1-.7-.1-1-.3M289.1 255.5c-3-2.6-4.7-6.3-4.8-11.3 0-1-.1-2.7-.1-4.9 0-2.3 0-4 .1-5 .2-4.9 1.8-8.6 4.9-11.2s7.3-3.9 12.5-3.9c3.3 0 6.3.5 8.9 1.6s4.7 2.7 6.2 4.7c1.5 2.1 2.3 4.5 2.4 7.3 0 .3-.1.6-.4.8q-.3.3-.9.3h-8c-.5 0-.9-.1-1.1-.3s-.5-.6-.6-1.1c-.5-1.8-1.3-3.1-2.4-3.8s-2.5-1.1-4.2-1.1c-4.2 0-6.4 2.4-6.6 7.1 0 1-.1 2.6-.1 4.6 0 2.1 0 3.7.1 4.8.1 4.7 2.3 7.1 6.6 7.1 1.7 0 3.1-.4 4.2-1.1s1.9-2 2.4-3.8c.1-.6.4-.9.6-1.1q.45-.3 1.2-.3h8q.45 0 .9.3c.2.2.4.5.4.8-.1 2.8-.9 5.2-2.4 7.3s-3.6 3.6-6.2 4.7-5.6 1.6-8.9 1.6c-5.5-.3-9.7-1.6-12.7-4.1M324.5 258.4c-.3-.3-.4-.6-.4-1V221c0-.4.1-.7.4-1s.6-.4 1-.4h8c.4 0 .7.1 1 .4s.4.6.4 1v36.4c0 .4-.1.7-.4 1s-.6.4-1 .4h-8c-.4 0-.7-.2-1-.4M345.4 255.5c-3.1-2.6-4.7-6.4-4.9-11.4 0-1-.1-2.7-.1-4.8 0-2.2 0-3.8.1-4.9.1-4.9 1.8-8.7 4.9-11.4s7.3-4 12.5-4 9.3 1.3 12.5 4c3.1 2.7 4.8 6.5 4.9 11.4.1 2.2.1 3.8.1 4.9s0 2.7-.1 4.8q-.3 7.5-4.8 11.4c-3 2.6-7.2 3.9-12.5 3.9q-8.1-.15-12.6-3.9m17.2-6.3q1.8-1.8 1.8-5.4c.1-2.2.1-3.7.1-4.6s0-2.4-.1-4.5q-.15-3.6-1.8-5.4c-1.2-1.2-2.7-1.8-4.6-1.8-2 0-3.5.6-4.7 1.8q-1.8 1.8-1.8 5.4c0 1-.1 2.6-.1 4.5 0 2 0 3.6.1 4.6q.15 3.6 1.8 5.4c1.2 1.2 2.7 1.8 4.7 1.8 1.9-.1 3.4-.7 4.6-1.8M328.9 77.4c35.07 0 63.5-17.327 63.5-38.7S363.97 0 328.9 0s-63.5 17.327-63.5 38.7 28.43 38.7 63.5 38.7"/></svg>