<svg xmlns="http://www.w3.org/2000/svg" width="131" height="32" fill="none" viewBox="0 0 131 32"><path fill="url(#a)" d="M128.277 0H52.483c-1.156 0-2.103.96-2.103 2.133v27.734c0 1.173.947 2.133 2.103 2.133h75.794c1.156 0 2.102-.96 2.102-2.133V2.133c0-1.173-.946-2.133-2.102-2.133"/><path fill="url(#b)" d="M51.878 15.867h.21c6.23-.214 76.715-2.72 76.715-2.72.788-.027 1.576-.614 1.576-1.627V2.133c0-1.173-.946-2.133-2.102-2.133H52.483c-1.156 0-2.103.96-2.103 2.133v15.414c0-.187.027-1.52 1.498-1.68" opacity=".35"/><path fill="#ebebeb" fill-rule="evenodd" d="M19.92 22.16c0 1.467-.577 2.32-3.416 2.32a6 6 0 0 1-1.025-.08V4.88c0-1.493.5-3.04 3.364-3.04.368 0 .736.027 1.078.107zm11.59 7.547c.369.186 1.13.426 2.103.453 1.656.027 2.55-.613 3.206-2.107l8.83-19.946c-.367-.187-1.182-.427-1.839-.427-1.13-.027-2.654.213-3.627 2.56l-2.864 6.827-5.598-9.254c-.368-.106-1.262-.266-1.892-.266-1.998 0-3.101.746-4.231 2l-5.467 6.026 4.389 6.987c.815 1.28 1.866 1.92 3.6 1.92 1.13 0 2.077-.267 2.523-.48l-5.282-8.027 3.732-4.026 6.15 9.76zM8.7 24.347c3.6-.4 5.361-2.4 5.361-5.147 0-2.373-1.445-4.293-4.757-4.853l-3.258-.614c-1.052-.186-1.709-.426-1.709-1.04 0-.586.684-1.04 2.34-1.04.948 0 1.819.053 2.563.098.554.033 1.038.062 1.431.062 1.209 0 2.444-.506 2.444-2.906 0-.32-.052-.64-.105-.934-1.787-.24-5.046-.56-7.7-.266C1.787 8.08 0 10.24 0 12.8c0 2.107 1.524 4.107 4.363 4.64l3.416.667c1.262.266 1.892.533 1.892 1.226 0 .507-.499 1.067-2.102 1.067-.768 0-1.672-.058-2.537-.114-.792-.05-1.55-.1-2.141-.1-1.209 0-2.47.534-2.47 2.934 0 .293.052.667.105.96 1.787.213 5.571.56 8.173.267" clip-rule="evenodd"/><path fill="url(#c)" fill-rule="evenodd" d="M18.843 1.84c-2.864 0-3.337 1.547-3.337 3.04v13.387c0-.534.42-1.094 1.077-1.12.227-.013.651-.026 1.076-.039.463-.014.926-.027 1.132-.041.447-.027 1.104-.32 1.13-1.147V1.947a7 7 0 0 0-1.078-.107m12.878 5.973 5.466 9.014c-.21-.294-.473-.427-.71-.427-.082 0-1.019.037-1.913.071-.817.032-1.598.062-1.66.062-.158 0-.841 0-1.288-.613l-2.523-4-3.732 4.027.972 1.493c-.262-.347-.683-.64-1.366-.613-.1 0-.737.023-1.411.049-.754.028-1.552.057-1.69.057-.736.027-1.104-.4-1.288-.666l-.447-.694 5.467-6.026c1.13-1.254 2.233-2 4.23-2 .631 0 1.525.16 1.893.266m10.696 7.6 3.233-7.306c-.368-.214-1.183-.427-1.813-.427-1.13-.027-2.655.213-3.627 2.56l-2.774 6.637-.005.013-.003.007-.004.01.012-.03c.049-.108.249-.48.697-.504 0 0 2.734-.106 2.944-.106.876-.026 1.222-.642 1.334-.842zM6.018 13.68l3.26.613c3.337.614 4.782 2.534 4.808 4.907 0 .167 0 .312-.018.455.04-1.233-.767-2.4-2.163-2.348-.258.01-.89.03-1.575.052-.987.03-2.082.065-2.314.081-1.262.053-2.918-.053-3.653-.187-.894-.16-1.761-.4-2.628-.96C.578 15.387 0 14.107 0 12.8c0-2.56 1.787-4.72 5.282-5.147 2.681-.293 5.914.054 7.7.267.08.32.106.613.106.933 0 2.4-1.235 2.907-2.444 2.907-.395 0-.886-.03-1.447-.063a42 42 0 0 0-2.548-.097c-1.656 0-2.339.48-2.339 1.04 0 .613.657.853 1.708 1.04m8.05 5.975-.008.052v.08q.005-.066.008-.132" clip-rule="evenodd"/><path fill="#fff" d="M70.17 14.773v8.134c0 .586-.342.986-1.367.986-.42 0-.92-.053-1.182-.133v-8.64c0-3.013-1.446-4.453-3.653-4.453-1.709 0-3.548 1.2-4.31 2.613v9.653c0 .587-.342.987-1.367.987-.42 0-.92-.053-1.183-.133V8.64a6 6 0 0 1 1.183-.133c1.025 0 1.367.373 1.367.986v1.28c1.077-1.36 2.733-2.426 4.914-2.426 3.049 0 5.598 1.946 5.598 6.426"/><path fill="#fff" fill-rule="evenodd" d="M75.794 17.12h11.511c.079-.533.105-1.067.053-1.52 0-3.653-2.26-7.253-6.833-7.253-4.048 0-7.359 3.253-7.359 7.786 0 4.72 3.127 7.894 7.78 7.894 2.154 0 4.178-.667 5.518-1.254.132-1.386-.341-1.973-1.051-1.973-.215 0-.43.071-.858.213l-.325.107c-.92.32-1.918.56-3.18.56-2.943 0-4.914-1.627-5.256-4.56m9.146-2h-9.146c.394-2.987 2.47-4.587 4.783-4.587 2.628 0 4.258 2 4.363 4.587" clip-rule="evenodd"/><path fill="#fff" d="m110.748 8.88-3.943 13.893c-.236.88-.893 1.094-1.839 1.094-.526 0-1.051-.107-1.498-.214L99.71 11.44l-3.522 11.333c-.289.88-.972 1.094-1.787 1.094-.526 0-1.104-.107-1.55-.214L88.644 8.88a4.1 4.1 0 0 1 1.604-.373c.71 0 1.077.213 1.261.906l2.97 11.6h.026l3.68-12.133c.42-.24.998-.373 1.576-.373.973 0 1.498.213 1.761 1.12l3.416 11.36h.027l2.891-11.6c.184-.694.552-.907 1.261-.907.631.027 1.262.213 1.63.4M112.43 22.987c-.184-1.307.21-2 .972-2 .71 0 2.444.773 4.862.773 2.549 0 3.495-.907 3.495-2.107 0-.853-.368-1.6-2.654-2.24l-2.628-.72c-2.917-.773-4.047-2.266-4.047-4.08 0-2.266 1.76-4.266 5.755-4.266 1.787 0 4.021.4 5.388.933.236 1.28-.158 1.973-.92 1.973-.684 0-2.234-.666-4.415-.666-2.366 0-3.233.826-3.233 1.893 0 .747.342 1.44 2.444 2.053l2.681.747c2.996.853 4.205 2.267 4.205 4.267 0 2.346-1.787 4.453-6.124 4.453-1.944.027-4.336-.453-5.781-1.013"/><defs><linearGradient id="a" x1="50.37" x2="50.37" y1="0" y2="32" gradientUnits="userSpaceOnUse"><stop offset=".4" stop-color="#e90e10"/><stop offset="1" stop-color="#bc0000"/></linearGradient><linearGradient id="b" x1="126.877" x2="126.85" y1="14.955" y2="-.983" gradientUnits="userSpaceOnUse"><stop stop-color="#fff"/><stop offset="1" stop-color="#fff" stop-opacity=".25"/></linearGradient><linearGradient id="c" x1="36.675" x2="36.618" y1="16.772" y2="6.053" gradientUnits="userSpaceOnUse"><stop stop-color="#fff"/><stop offset="1" stop-color="#fff" stop-opacity=".25"/></linearGradient></defs></svg>