<svg xmlns="http://www.w3.org/2000/svg" xml:space="preserve" viewBox="0 0 962.2 250"><linearGradient id="a" x1="680.729" x2="680.729" y1="1026" y2="1276" gradientTransform="translate(0 -1026)" gradientUnits="userSpaceOnUse"><stop offset=".4" style="stop-color:#e90e10"/><stop offset="1" style="stop-color:#bc0000"/></linearGradient><path fill="url(#a)" d="M962.1 233.4V16.7c0-9.2-7.5-16.7-16.7-16.7H416c-9.2 0-16.7 7.5-16.7 16.7v216.7c0 9.1 7.5 16.6 16.7 16.6h529.5c9.2 0 16.6-7.5 16.6-16.6"/><linearGradient id="b" x1="682.209" x2="677.86" y1="1144.518" y2="1019.991" gradientTransform="translate(0 -1026)" gradientUnits="userSpaceOnUse"><stop offset="0" style="stop-color:#fff"/><stop offset=".12" style="stop-color:#fff;stop-opacity:.8347"/><stop offset=".269" style="stop-color:#fff;stop-opacity:.6576"/><stop offset=".419" style="stop-color:#fff;stop-opacity:.5107"/><stop offset=".568" style="stop-color:#fff;stop-opacity:.3965"/><stop offset=".716" style="stop-color:#fff;stop-opacity:.3152"/><stop offset=".86" style="stop-color:#fff;stop-opacity:.2664"/><stop offset="1" style="stop-color:#fff;stop-opacity:.25"/></linearGradient><path fill="url(#b)" d="M411.2 124s.5-.1 1.6-.1c49.3-1.8 536.9-18.6 536.9-18.6 7-.1 12.5-5.8 12.5-12.7V16.7c0-9.2-7.5-16.7-16.7-16.7H415.9c-9.2 0-16.6 7.5-16.6 16.7V137c-.3-6.8 5.1-12.6 11.9-13" opacity=".35"/><path fill="#FFF" d="M249.8 232.1c5.2 2.3 10.9 3.6 16.6 3.6 13 .3 20.2-4.7 25.5-16.4l70.1-156c-4.5-2-9.5-3.2-14.5-3.3-9-.2-21.1 1.7-28.8 20L296 133.4l-44.5-72.3q-7.35-1.95-15-2.1c-15.8 0-24.5 5.8-33.6 15.7l-43.2 47.2 34.7 54.7c6.4 9.9 14.9 15.1 28.6 15.1 6.9.1 13.6-1.1 20-3.8l-41.9-63 29.7-31.4 48.7 76.3zm-91.8-59c0 11.5-4.5 18.1-27 18.1q-4.05 0-8.1-.6V38.1c0-11.6 3.9-23.7 26.6-23.7q4.35 0 8.4.9v157.8zm-46.4-23c0 21.5-14.1 37.1-42.6 40.2-20.7 2.2-50.6-.4-64.8-2q-.75-3.6-.9-7.5c0-18.7 10.1-23 19.6-23 9.9 0 25.5 1.8 37 1.8 12.8 0 16.6-4.3 16.6-8.4 0-5.4-5.1-7.6-15-9.5l-27.1-5.2C12 132.1 0 116.5 0 100c0-20 14.2-36.8 42.2-39.9 21.2-2.3 46.9.3 61 2 .5 2.4.8 4.8.8 7.2 0 18.7-9.9 22.8-19.4 22.8-7.3 0-18.7-1.3-31.6-1.3-13.2 0-18.7 3.7-18.7 8.1 0 4.7 5.2 6.6 13.5 8.1l25.9 4.8c26.4 4.7 37.9 19.8 37.9 38.3"/><linearGradient id="c" x1="182.74" x2="179.815" y1="1157.579" y2="1073.83" gradientTransform="translate(0 -1026)" gradientUnits="userSpaceOnUse"><stop offset="0" style="stop-color:#fff"/><stop offset=".12" style="stop-color:#fff;stop-opacity:.8347"/><stop offset=".269" style="stop-color:#fff;stop-opacity:.6576"/><stop offset=".419" style="stop-color:#fff;stop-opacity:.5107"/><stop offset=".568" style="stop-color:#fff;stop-opacity:.3965"/><stop offset=".716" style="stop-color:#fff;stop-opacity:.3152"/><stop offset=".86" style="stop-color:#fff;stop-opacity:.2664"/><stop offset="1" style="stop-color:#fff;stop-opacity:.25"/></linearGradient><path fill="url(#c)" d="m362 63.2-25.6 57.1c-2 4.1-6.1 6.7-10.7 6.7l-23.4.8c-2.5.2-4.8 1.9-5.7 4.3v-.1l22.1-52.1c7.7-18.4 19.8-20.3 28.8-20.1 5 .2 9.9 1.4 14.5 3.4m-67.2 68.3L251.5 61q-7.35-1.95-15-2.1c-15.8 0-24.5 5.8-33.6 15.7l-43.2 47.2 3.4 5.4c2.2 3.4 6.1 5.4 10.2 5.2 2.1-.1 22.9-.8 24.6-.9 4.2-.4 8.4 1.5 10.9 4.9l-7.8-11.7 29.7-31.5 19.9 31.2c2.4 3.1 6.3 4.9 10.2 4.8 1-.1 27.1-.9 28.4-1 2.3.2 4.4 1.4 5.6 3.3M149.5 14.4c-22.7 0-26.6 12.1-26.6 23.7v104.5c0-4.8 3.8-8.7 8.7-8.9l17.6-.6c4.9 0 8.9-4 8.9-8.9v-109c-2.9-.5-5.7-.8-8.6-.8m-75.9 97.2-25.9-4.8c-8.2-1.4-13.5-3.3-13.5-8.1 0-4.4 5.5-8.1 18.6-8.1 13 0 24.3 1.3 31.6 1.3 9.5 0 19.4-4.1 19.4-22.8 0-2.4-.2-4.8-.8-7.2-14.1-1.8-39.9-4.3-61-2-27.8 3.2-42 20-42 40.1.1 10.7 5.1 20.8 13.7 27.2 6.3 3.9 13.4 6.5 20.8 7.4 9.6 1.3 19.2 1.8 28.9 1.5 3.1-.1 25.9-.9 30.9-1.1 11.6-.4 17.8 9.4 17.2 19.4 0-.1 0-.2.1-.4v-.1c.1-1.3.2-2.6.2-3.9-.2-18.5-11.7-33.5-38.2-38.4" opacity=".25"/><path fill="#FFF" fill-rule="evenodd" d="M626.7 105c-6.6-13.8-20.7-22.7-36.1-22.6-21.8 0-38.8 15.7-38.8 42.2s16.9 42.2 38.8 42.2c15.4.1 29.4-8.7 36.1-22.5zm20.1-37.5v107c0 30.9-22.9 50.6-58.3 50.6-16.3-.3-32.4-4-47.1-11.1-1.2-11.5 2.5-16.1 7.6-16.1 2.9 0 5.9 1.4 10.8 3.4 9 3.9 18.6 6.1 28.5 6.4 23.3 0 38.5-11.1 38.5-33.7v-8c-6.9 9.3-21.1 18.2-40.5 18.2-28.5 0-54.7-23-54.7-59.4 0-36.5 26.5-59.4 55-59.4 18.9 0 33.1 8.8 40.5 18.8v-9.6c0-4.6 2.7-7.9 10.3-7.9 3.1-.1 6.3.2 9.4.8M523.3 179.7c-10.6 5.1-22.1 7.9-33.9 8.1-23.3 0-37.3-13.7-37.3-36.5V49.8c0-5.1 3-8.5 10.8-8.5 3.1.1 6.3.5 9.3 1.2V68H518c.4 2.8.7 5.4.7 8.2 0 7.1-2.9 9.5-7.4 9.5h-39.2v64.1c0 13.8 6.4 20.3 19.4 20.3 11.8 0 18.4-5.1 24-5.1 5.9 0 9.1 4.9 7.8 14.7M809.4 132.6h55.9v-68zm65 52.9c-3-.1-6-.5-9-1.3V151h-78.5c-.6-2.8-.9-5.8-1-8.6 0-5.4.6-9.8 7.7-18.5l59.8-72.5c4.2-4.7 7.1-7.6 16-7.6 5.4.1 10.8.9 16 2.5v86.2h25.8c.4 2.8.7 5.7.7 8.6 0 6.3-2.8 9.8-7.8 9.8h-18.8v26.7c.2 3.7-1.2 7.9-10.9 7.9M671.5 184c-1.1-3.4-1.7-7.1-1.8-10.7 0-5.6.8-11.2 10.4-18l41.8-30.1c20.8-15 30.2-24.2 30.2-38.3 0-15.2-11.8-25.4-29.3-25.4-12.1.3-24.1 3-35.1 8l-1 .4c-2.8 1.4-5.8 2.2-8.9 2.5-2.2 0-4.4-.9-5.9-2.6-2.4-2.8-3.3-7.4-2.6-13.2 10.4-5.4 30.9-14.3 54.7-14.3 30.4 0 49.3 16.3 49.3 42.5 0 19.4-8.7 32.3-34.6 51l-39.9 29H775c.7 2.8 1 5.6 1 8.4 0 9-3.4 10.7-9.3 10.7z" clip-rule="evenodd"/></svg>