<svg xmlns="http://www.w3.org/2000/svg" width="1055" height="390" fill="none"><path fill="#CDDA00" d="M79.263 76.509a34.3 34.3 0 0 0-11.434-7.006 42 42 0 0 0-14.278-2.64c-4.909-.055-9.8.578-14.533 1.878a42.9 42.9 0 0 0-13.11 5.991 34.4 34.4 0 0 0-9.655 10.052 29.4 29.4 0 0 0-4.37 13.962c-.305 4.823.406 9.037 2.185 12.59a30 30 0 0 0 7.266 9.342 44.8 44.8 0 0 0 10.417 6.752 110 110 0 0 0 11.79 4.722c2.743.914 5.538 1.878 8.333 2.944a34.6 34.6 0 0 1 7.571 4.011 17 17 0 0 1 5.183 5.94c1.22 2.336 1.677 5.28 1.22 8.732a18.4 18.4 0 0 1-3.202 8.733 21.95 21.95 0 0 1-6.351 5.889 26 26 0 0 1-8.436 3.249 40.7 40.7 0 0 1-9.197.914 33.4 33.4 0 0 1-9.807-1.523 21.5 21.5 0 0 1-7.724-4.265 18.4 18.4 0 0 1-4.878-6.955c-1.118-2.742-1.575-5.991-1.321-9.748l-14.889-.101c-.254 5.534.61 10.458 2.592 14.723a31.5 31.5 0 0 0 8.282 10.915 37.6 37.6 0 0 0 12.348 6.854 46.1 46.1 0 0 0 14.787 2.488 56.3 56.3 0 0 0 14.787-1.676 42.9 42.9 0 0 0 13.314-5.686 33.9 33.9 0 0 0 9.908-9.849q3.964-5.94 4.574-14.165c.355-5.077-.305-9.443-1.982-13.2a29.1 29.1 0 0 0-7.063-9.697 44.9 44.9 0 0 0-10.519-6.904 115 115 0 0 0-12.399-4.975 253 253 0 0 1-7.723-2.742 31.8 31.8 0 0 1-7.368-3.909 18.9 18.9 0 0 1-5.336-5.686c-1.372-2.234-1.83-4.925-1.474-8.073a19 19 0 0 1 2.999-8.681 21.2 21.2 0 0 1 6.046-5.99 26.6 26.6 0 0 1 8.03-3.504A36.2 36.2 0 0 1 52.94 79.2c7.063.101 12.45 2.132 16.108 5.99 3.71 3.91 5.335 9.342 4.929 16.348h14.94a35.1 35.1 0 0 0-2.237-14.317 31.5 31.5 0 0 0-7.418-10.712M168.95 68.487l-13.263 77.982a36 36 0 0 1-3.506 11.017 28.1 28.1 0 0 1-6.504 8.376 27.7 27.7 0 0 1-9.147 5.28 31.3 31.3 0 0 1-11.484 1.574c-3.963-.101-7.317-.812-10.112-2.183a17.55 17.55 0 0 1-6.758-5.483 19.3 19.3 0 0 1-3.455-8.224 34.7 34.7 0 0 1-.305-10.357l13.211-77.982h-14.634l-13.263 77.88c-.711 5.737-.355 10.966 1.017 15.688a30.9 30.9 0 0 0 6.656 12.184 30.6 30.6 0 0 0 11.484 7.92 42.2 42.2 0 0 0 15.397 2.996 50 50 0 0 0 16.972-2.539 44.2 44.2 0 0 0 13.974-7.767 42 42 0 0 0 10.112-12.337 47.4 47.4 0 0 0 5.335-16.246l13.263-77.83zM262.397 118.85c2.541-4.467 4.065-9.747 4.573-15.789.458-5.432-.05-10.255-1.575-14.52a27.6 27.6 0 0 0-6.86-10.763 30.7 30.7 0 0 0-11.128-6.752 44.6 44.6 0 0 0-14.33-2.539l-40.245-.101-20.02 115.043H187.7l7.826-45.033 27.338.102a62.5 62.5 0 0 0 16.209-2.082 39.9 39.9 0 0 0 13.568-6.447 34.5 34.5 0 0 0 9.756-11.119m-10.213-15.687a26 26 0 0 1-3.253 10.153 24.6 24.6 0 0 1-6.351 7.159 27.8 27.8 0 0 1-8.791 4.265 37.4 37.4 0 0 1-10.519 1.421l-25.61-.051 7.825-45.133 27.287.101c3.047.055 6.06.656 8.893 1.777a16.6 16.6 0 0 1 10.112 11.322c.685 2.945.822 5.991.407 8.986M333.029 183.479l2.236-12.387h-56.302l7.114-40.768h48.375l2.134-12.388h-48.375l6.402-37.01h55.439l2.185-12.49h-70.276L261.94 183.48zM757.226 114.332l-15.041 86.815-32.775-86.815h-31.606l-23.832 137.533h32.369l15.142-86.815 32.877 86.815h31.251l23.933-137.533zM877.809 114.332l-15.041 86.815-32.776-86.815h-31.555l-23.832 137.533h32.318l15.142-86.815 32.877 86.815h31.302l23.883-137.533zM919.019 114.332l-23.933 137.533h32.317l23.832-137.533zM1033.81 185.713a57.2 57.2 0 0 0-12.86-9.189 133 133 0 0 0-15.09-6.803c-1.83-.711-4.01-1.523-6.453-2.437a35.8 35.8 0 0 1-6.961-3.503 17.6 17.6 0 0 1-5.285-4.925c-1.372-1.878-1.829-4.163-1.372-6.803a13.5 13.5 0 0 1 2.693-6.549 18.2 18.2 0 0 1 5.132-4.518 23.9 23.9 0 0 1 6.556-2.59c2.28-.551 4.62-.807 6.96-.761 5.59.152 9.66 1.777 12.15 4.975 2.49 3.199 3.65 7.362 3.55 12.591l32.17.101c.05-6.752-1.07-12.743-3.36-18.023a36.85 36.85 0 0 0-9.6-13.301 44.2 44.2 0 0 0-14.53-8.377 58 58 0 0 0-18.09-3.097 80.5 80.5 0 0 0-12.503.812 69.5 69.5 0 0 0-12.449 2.945 61.8 61.8 0 0 0-11.484 5.229 41.4 41.4 0 0 0-9.553 7.666 37.3 37.3 0 0 0-6.708 10.103 33.9 33.9 0 0 0-2.947 12.642c-.305 6.041.661 11.372 2.947 15.891a39.2 39.2 0 0 0 9.198 11.981 60.4 60.4 0 0 0 13.16 8.885 150 150 0 0 0 14.686 6.549c2.337.863 4.726 1.828 7.213 2.894 2.35.985 4.56 2.246 6.61 3.757 1.89 1.395 3.43 3.2 4.52 5.28 1.07 2.081 1.37 4.62.86 7.666a15.6 15.6 0 0 1-2.54 6.346 16.4 16.4 0 0 1-4.62 4.366 20.5 20.5 0 0 1-6.047 2.488 30 30 0 0 1-6.809.812c-7.318 0-12.551-1.777-15.702-5.381s-4.573-8.936-4.268-16.044l-32.42-.101c-.152 7.565 1.118 14.215 3.71 20.003a40.7 40.7 0 0 0 10.823 14.52 48.8 48.8 0 0 0 16.312 8.935 67.5 67.5 0 0 0 20.02 3.249 78 78 0 0 0 18.751-2.081 54.7 54.7 0 0 0 16.87-6.955c5-3.152 9.26-7.343 12.5-12.287 3.3-5.026 5.13-11.016 5.59-18.073.41-6.245-.51-11.677-2.54-16.399a39.7 39.7 0 0 0-8.79-12.489"/><path fill="#CDDA00" d="m645.943 193.582 4.269-24.623H599.55l5.132-28.989h59.91l4.421-25.587H474.902l.051-.051c.204-.457.458-.914.661-1.371.406-.863.864-1.675 1.219-2.538l1.677-3.91c.407-.913.762-1.827 1.169-2.741.711-1.675 1.423-3.3 2.083-5.026l2.795-7.666c.153-.457.356-.863.508-1.32.305-.813.61-1.625.864-2.488l3.456-11.17c.355-1.472.711-2.944 1.117-4.416.864-3.402 1.677-6.6 2.338-9.799l1.372-7.006c.406-2.132.813-4.163 1.067-6.193.203-1.473.406-2.945.61-4.367.355-2.64.711-5.178.914-7.615l.864-10.61.305-12.845-.508-13.099L495.076 0l-1.169 12.997-1.626 12.49-1.779 10.254c-1.473 7.666-3.455 15.79-5.742 24.116-.863 2.995-1.829 5.99-2.896 9.189l-1.372 4.264-3.913 10.611c-.305.762-.609 1.523-.965 2.285q-.287.621-.508 1.269l-3.1 7.26a128 128 0 0 1-2.185 4.62c-.406.863-.864 1.777-1.27 2.64-1.525 3.351-3.252 6.549-5.082 9.951-.864 1.574-1.677 3.147-2.54 4.721a298 298 0 0 1-19.056 28.939 279 279 0 0 1-22.968 26.399l-13.974-38.076a47.3 47.3 0 0 0 9.909-4.874 38.2 38.2 0 0 0 8.13-6.905 35.2 35.2 0 0 0 5.742-8.834 31.9 31.9 0 0 0 2.693-10.813c.559-5.585.051-10.459-1.473-14.673a26.05 26.05 0 0 0-6.911-10.509 30.5 30.5 0 0 0-11.23-6.397 50.4 50.4 0 0 0-14.533-2.335l-36.078-.05-20.021 115.042h14.94l8.079-46.555h26.576l16.057 46.25c-4.929 4.316-10.01 8.58-15.346 12.642a298 298 0 0 1-28.913 19.038l-4.573 2.437c-3.456 1.878-6.758 3.655-10.214 5.229-.864.406-1.778.863-2.642 1.269-1.575.762-3.1 1.523-4.624 2.183l-7.267 3.097c-.457.203-.864.356-1.321.559-.762.304-1.474.66-2.236.914l-10.569 3.909c-1.474.457-2.897.965-4.319 1.421-3.151 1.067-6.149 2.031-9.147 2.844-8.232 2.335-16.362 4.264-24.086 5.736l-10.213 1.777-8.791 1.168-16.769 1.675.051 2.285 9.756.406 3.405.102 12.906-.305 10.519-.863c2.49-.203 4.98-.558 7.622-.914 1.423-.203 2.897-.406 4.37-.609 1.982-.203 3.913-.609 5.996-1.015l7.267-1.422c3.201-.66 6.402-1.472 9.807-2.335 1.423-.356 2.896-.762 4.421-1.117l11.128-3.453a47 47 0 0 0 2.49-.863q.673-.22 1.321-.507l7.673-2.793c1.677-.66 3.354-1.37 5.031-2.081.914-.406 1.829-.762 2.744-1.168l3.912-1.675 2.592-1.219c.457-.254.864-.457 1.321-.66l7.876-3.909a264.5 264.5 0 0 0 30.895-19.191 271 271 0 0 0 28.558-24.419 286 286 0 0 0 24.442-28.533l5.284-7.514c1.22-1.675 2.287-3.452 3.354-5.127.051-.102.152-.254.203-.356h39.127L480.39 251.814h32.42l18.09-104.33-14.533-7.615h55.946l-19.461 111.996h92.177l4.42-25.486H589.59l5.793-32.797zm-257.831-68.944-21.85-.102 7.571-43.61 23.019.101c3.046.046 6.065.577 8.943 1.574a16.6 16.6 0 0 1 6.504 4.112 15.03 15.03 0 0 1 3.659 6.6c.78 2.965.936 6.06.457 9.088a23.16 23.16 0 0 1-3.303 9.595 25.4 25.4 0 0 1-6.402 6.956 27.9 27.9 0 0 1-8.639 4.214 32.4 32.4 0 0 1-9.959 1.472M505.025 347.673l-29.201-.077 2.921-16.59 26.971.076q6.071 0 11.066-2.073 5.072-2.151 8.376-6.299 3.305-4.224 4.149-10.523.769-5.3-.768-9.447-1.46-4.224-5.072-6.682-3.534-2.535-9.067-2.766l-22.208-.076-16.521 95.166H455l19.364-111.834 40.651.077q10.527.23 18.749 4.532 8.3 4.224 12.756 12.059 4.457 7.757 3.535 18.818-1 12.135-7.454 20.124-6.455 7.91-16.367 11.752-9.913 3.763-21.209 3.763M615.381 371.791l-2.92 16.591h-54.712l2.92-16.591zm-31.813-95.243-19.441 111.834h-20.671l19.364-111.834zM693.463 276.548h20.594l-12.679 74.198q-1.768 12.29-8.146 21.199-6.301 8.834-16.214 13.518-9.912 4.686-22.284 4.532-11.604-.23-20.133-5.069-8.453-4.839-12.679-13.519-4.15-8.756-2.767-20.585l12.68-74.274h20.594l-12.603 74.351q-.768 6.145.538 11.138 1.307 4.992 5.072 8.065 3.765 2.995 10.527 3.226 7.147.23 12.295-2.535 5.15-2.843 8.299-7.988 3.228-5.146 4.227-11.983zM766.473 358.811q.692-4.302-.768-7.22-1.384-2.996-4.15-4.993-2.766-2.075-6.224-3.456a146 146 0 0 0-6.839-2.689 110 110 0 0 1-11.604-4.992q-5.686-2.919-10.297-6.913-4.61-3.994-7.223-9.371-2.535-5.376-2.075-12.597.538-8.14 4.534-14.133 4.072-6.067 10.374-9.985 6.301-3.917 13.678-5.76 7.454-1.844 14.754-1.69 10.297.153 18.365 4.378 8.146 4.148 12.68 11.829 4.61 7.603 4.303 18.127h-20.517q.307-5.454-1.46-9.371-1.69-3.994-5.379-6.145-3.689-2.228-9.298-2.381a27.4 27.4 0 0 0-9.529 1.536q-4.61 1.613-7.915 4.993t-4.072 8.602q-.615 3.841 1.075 6.606t4.611 4.685a39.6 39.6 0 0 0 6.378 3.303 284 284 0 0 0 6.301 2.304 96 96 0 0 1 11.988 5.223q5.763 2.996 10.22 7.144a28.3 28.3 0 0 1 6.839 9.754q2.382 5.607 1.844 13.058-.615 8.295-4.534 14.286-3.919 5.992-10.143 9.832-6.147 3.764-13.524 5.53a59.9 59.9 0 0 1-14.754 1.69q-8.146-.153-15.292-2.535-7.146-2.458-12.602-7.066-5.38-4.608-8.299-11.214-2.92-6.683-2.613-15.285l20.594.077q-.307 4.84.845 8.525 1.153 3.61 3.689 6.068 2.535 2.382 6.224 3.687 3.688 1.229 8.453 1.306 4.918.077 9.451-1.459 4.611-1.537 7.838-4.763 3.228-3.302 4.073-8.525"/></svg>