<?xml version="1.0" encoding="UTF-8"?>
<svg id="Layer_2" xmlns="http://www.w3.org/2000/svg" viewBox="0 0 387.04 228.35">
  <defs>
    <style>
      .cls-1 {
        fill: #a8de00;
      }

      .cls-2 {
        fill: #202e60;
      }

      .cls-3 {
        fill: #f7e10f;
      }

      .cls-4 {
        fill: #ff27ad;
      }
    </style>
  </defs>
  <g id="Layer_1-2" data-name="Layer_1">
    <path class="cls-2" d="M352.31,104.23l2.4-1.1c1-.5,1.7-1.3,2.1-2.4L386.91,3.93c.7-2.3-1.5-4.5-3.8-3.8l-45.8,14.7c-.3,0-.5.2-.8.4s-.1.1-.2.2l-43,48.7c-.9,1-2.1,1.6-3.4,1.8-6.9,1-28.4,3.6-28.8,3.7l-7.4.8-41.7,5c-.6,0-1.2.3-1.6.7l-2,1.7c-1,.9-2.4,1.2-3.6.8-4.3-1.2-9.3-1.4-15.2-.8l-23.8,2.3h0l-31.5,3.5h0l-33,4.4c-2.2.3-2.9.4-3.8,1.6h0c-1,1.7-3.1,2.2-4.8,1.5-4.8-2-13.2-3-19.9-2.4-3.9.3-12.4,2.9-12.4,2.9-12.1,2.5-20.1,11.3-26.3,26.4L3.21,192.73c-8.3,17.7-1,39.6,27.9,35,.3,0,314.6-57,319.7-58.1h.1c2.3-.8,4.3-2.2,4.3-5.6v-18.3c0-.9.4-1.7,1.1-2.3l21-17.8c2.5-2.2,1.4-6.3-1.9-6.9l-21.4-3.7c-1.5-.3-2.8-1.4-3.1-3l-.8-3.4c-.4-1.8.5-3.7,2.1-4.5l.1.1Z"/>
    <path class="cls-4" d="M305.41,129.13l7.8,9.5c.6.7.7,1.6.3,2.4l-6.9,14.9c-.9,2,1.2,4,3.1,3l16.4-8.2c.7-.4,1.6-.3,2.3.2l12.1,8.3c1.5,1,3.6,0,3.6-1.9l.3-16.7c0-.7.3-1.3.8-1.7l12.3-10.5c1.5-1.3.8-3.7-1.1-4l-12.8-2.2c-.9-.2-1.6-.8-1.9-1.7l-3.1-13.3c-.5-1.9-3-2.4-4.1-.8l-11.2,15.6c-.4.5-.9.8-1.5.9l-15.1,2.4c-1.8.3-2.6,2.4-1.4,3.7l.1.1Z"/>
    <path class="cls-1" d="M344.91,23.83l-13.4,72.7c-.3,1.4,1.1,2.7,2.5,2.2l12.7-4.1c.6-.2,1.1-.7,1.3-1.3l23.7-76c.5-1.5-1-2.9-2.5-2.4l-23,7.3c-.7.2-1.2.8-1.3,1.5v.1Z"/>
    <g>
      <path class="cls-3" d="M33.01,193.93c-2.9-2.9-3.5-7.8-2-14.8l2.5-11.1c.1-.5.5-.9,1-.9l16.9-2c.8,0,1.5.6,1.3,1.4l-2.2,10.1c-.5,2.2-.4,3.8.1,4.9.6,1.1,1.6,1.6,3.1,1.4,3-.3,5.1-2.7,6-7.1l1.9-8.4c.7-3.2.8-5.6.2-7s-2.5-3.1-5.7-4.9l-8.9-4.6c-3.8-2-6-4.6-6.6-7.5s-.3-7.5,1.1-13.7l2-8.9c1.4-6.3,4.5-11.5,9.2-15.6,4.7-4.1,11.3-6.6,19.6-7.5,8.6-1,14.3,0,17.1,3.1,2.8,3,3.5,7.7,2,14l-2.4,10.6c-.1.5-.5.9-1,.9l-16.9,1.9c-.8,0-1.5-.6-1.3-1.4l2.1-9.5c.9-4.2,0-6.1-3-5.7-3,.3-5,2.6-6,6.9l-1.6,7.2c-.6,2.9-.7,5.1-.2,6.5.5,1.4,2,2.8,4.4,4l7.3,3.6c4.6,2.4,7.6,5,9,8s1.5,7.2.3,12.7l-2.6,11.9c-1.6,7.2-4.6,12.8-8.9,16.8s-10.9,6.6-19.7,7.5c-9.2,1-15.2,0-18.1-2.8h0Z"/>
      <path class="cls-3" d="M89.11,187.73c-3.1-2.9-3.8-8.2-2-16l16.8-75.5c.1-.5.5-.9,1-.9l17.2-1.9c.8,0,1.5.6,1.3,1.4l-16.6,74.7c-.6,2.5-.6,4.1,0,5,.5.8,1.7,1.1,3.5.9,1.9-.2,3.3-.8,4.2-1.8s1.7-2.7,2.2-5.2l16.8-75.5c.1-.5.5-.9,1-.9l17.1-1.9c.8,0,1.5.6,1.3,1.4l-16.6,74.7c-1.7,7.6-4.9,13.3-9.5,17.1s-11.2,6.2-19.8,7.1c-8.8,1-14.7,0-17.8-2.8l-.1.1Z"/>
      <path class="cls-3" d="M188.31,86.03c7.3-.8,12.2.3,14.8,3.2,2.6,2.9,3.1,8,1.5,15.3l-5.1,22.9c-3,13.5-11.5,21.1-25.5,22.7l-6.5.7c-.5,0-.9.4-1,.9l-6.9,31.1c-.1.5-.5.9-1,.9l-17.2,1.9c-.8,0-1.5-.6-1.3-1.4l20.9-94.3c.1-.5.5-.9,1-.9l26.3-2.9v-.1ZM185.21,106.23c.5-2.1.4-3.5-.2-4.3s-2-1.1-4.1-.9l-2.3.3c-.5,0-.9.4-1,.9l-7.3,32.8c-.2.8.5,1.5,1.3,1.4l1.5-.2c2.1-.2,3.6-.8,4.7-1.8,1-1,1.8-2.5,2.2-4.5l5.2-23.6v-.1Z"/>
      <path class="cls-3" d="M250.81,95.13l-17.2,1.9c-.5,0-.9.4-1,.9l-4.5,20.1c-.2.8.5,1.5,1.3,1.4l13.6-1.5c.8,0,1.5.6,1.3,1.4l-3.1,13.8c-.1.5-.5.9-1,.9l-15.2,1.7c-.5,0-.9.4-1,.9l-5,22.7c-.2.8.5,1.5,1.3,1.4l15.6-1.7c.8,0,1.5.6,1.3,1.4l-3.1,14c-.1.5-.5.9-1,.9l-36.1,4c-.8,0-1.5-.6-1.3-1.4l20.9-94.3c.1-.5.5-.9,1-.9l36.1-4c.8,0,1.5.6,1.3,1.4l-3.1,14c-.1.5-.5.9-1,.9l-.1.1Z"/>
      <path class="cls-3" d="M291.11,156.53c-1,4.4-1.1,8.1-.4,11.1v.7h0c-.2.4-.5.7-1,.8l-17.3,1.9c-.7,0-1.3-.4-1.3-1.1-.1-2.9.4-7.2,1.6-12.7l4-18.2c1-4.5-.5-6.5-4.6-6l-2.4.3c-.5,0-.9.4-1,.9l-8.3,37.4c-.1.5-.5.9-1,.9l-17.2,1.9c-.8,0-1.5-.6-1.3-1.4l20.9-94.3c.1-.5.5-.9,1-.9l25.5-2.8c7.5-.8,12.8,0,15.7,2.4,2.9,2.4,3.7,6.6,2.4,12.5l-3.4,15.5c-2,8.8-6.8,14.8-14.4,17.9v.3c3.2.7,5.4,2.3,6.4,4.7,1,2.4,1.2,5.4.4,8.7l-4.3,19.5h0ZM286.61,93.73c.5-2.1.3-3.5-.4-4.2-.7-.8-2.1-1.1-4.1-.8l-2.4.3c-.5,0-.9.4-1,.9l-6.2,28c-.2.8.5,1.5,1.3,1.4l1.6-.2c2-.2,3.6-.9,4.7-2.1,1.2-1.2,2.1-3.1,2.6-5.7l3.9-17.5v-.1Z"/>
    </g>
  </g>
</svg>