<svg xmlns="http://www.w3.org/2000/svg" width="939" height="842" fill="none"><path fill="#005095" d="M523.96 695.58c81.03 0 158.31-65.69 172.6-146.73 14.29-81.03 1.56-9.29 1.56-9.29l18.8-106.61H491.76l10.56-59.9h285.06l-30.67 173.98-2.09 12.55c-19.08 108.19-122.25 195.9-230.44 195.9H430.9c-108.19 0-180.43-87.71-161.35-195.9l72.75-412.51H15.26l10.56-59.9H924.3l-10.56 59.9H402.19l-69.26 392.77-1.67 9.01c-14.29 81.03 39.82 146.73 120.85 146.73h71.85"/><path fill="#005095" d="m777.99 577.25 40.7-230.81H507.01l10.56-59.9h371.58L832.84 605.9C809.85 736.29 685.5 842 555.11 842H369.43c-130.39 0-217.46-105.71-194.47-236.1l1.3-7.82 64.27-364.49H0l10.56-59.9h300.41l-68.18 386.72c-27.47 155.81 47.51 221.7 182.61 221.7h120.54c108.19 0 211.36-87.71 230.44-195.9l1.62-8.95z"/><path fill="#009EE2" d="m614.8 521.37.29-1.62H476.45l10.56-59.9h198.54l-10.5 59.53-.06.37-.44 2.49c-14.29 81.03-91.56 146.73-172.6 146.73h-18.23c-81.03 0-135.14-65.69-120.85-146.73l61.46-348.54h484.72l-10.56 59.9H473.67l-44.79 254.03s4.28-24.28-4.85 27.55c-9.14 51.83 25.47 93.84 77.29 93.84l4.08.05h.94c47.48 0 92.94-35.26 107.26-81.02l1.21-6.67z"/><path fill="#005095" d="M612.81 39.08c-19.35 8.22-28.27 15.06-43.28 18.25 16.99 1.22 37.88-10.58 71.94-8.91 23.03 1.13 54.07 11.35 65.2 11.76-17.15-4.88-24.28-13.88-42.9-22.12-12-5.31-33.58-6.35-50.95 1.03z"/><path fill="#009EE2" d="M516.24 50.24c.14-.01.28-.04.41-.05-.2.01-.34.03-.41.05M608.24 17.98c-21.03 5.61-28.5 12.8-45.96 22.38-9.15 5.02-27.58 14.83-44.59 16.57 3.14-.22 19.74-.1 39.53-4.53 19.99-4.48 29.37-10.39 45.79-16.43 19.19-7.06 16.97-7.45 32.42-11.1 20.67-4.88 39.57-2.42 49.55-.24 0 0-40.68-16.27-76.75-6.65z"/><path fill="#005095" d="M529.69 26.43c-14.55 4.23-20.47 3.37-34.86 3.63 13.03 3.45 21.13 6.21 38.35 4.88 13.56-1.04 25.76-6.38 41.68-12.15C593.58 16 613.17 7.95 644.31 8.35c0 0-38.46-6.51-77.07 3.66-11.59 3.05-30.86 12.47-37.55 14.41zM511.3 12.92c-14.18-.06-23.73-4.6-36.69-7.28-17.76-3.66-27.57-.36-41.1 1.63 13.59.96 39.34 16.59 69.28 14.88 27.33-1.56 57.96-18.11 78.32-18.11-18.64-3.05-45.48 8.99-69.82 8.88z"/><path fill="#009EE2" d="M509.95 41.87c-15.71-.79-29.78-7.02-48.96-8.35-18.39-1.27-24.98-.91-42.82 4.28 25.29-1.84 35.68 4.52 45.5 10.17 12.71 7.32 26.11 8.28 37.45 6.5 13.28-2.08 17.78-3.97 28.42-7.6 10.58-3.62 22.57-7.84 32.7-13.02 0 0-22.68 9.52-52.28 8.02z"/><path fill="#005095" d="M457.07 21.13c-7.6-2.58-14.93-5.69-22.61-8.12-7.38-2.34-25.58-10.14-46.86-3.3-21.07 4.9-38.74 4.07-47.96 2.96-11.03-1.33-22.67-5.75-43.06-12.67-.12 0 30.44 17.45 58.27 24.57 4.97 1.27 19.89 3.71 29.86 1.62 8.58-1.74 17.18-3.44 25.74-4.34 8.21-.86 16.3-.96 24.23-.19 7.27.71 14.29 2.2 21.39 3.46 6.85 1.23 20.34 3.83 32.09 3.52-9-.25-24.02-5.1-31.11-7.51zM379.93 52.95c12.63-.43 21.69-5.54 28.83-7.6 14.73-4.26 26.42-2.07 37.21 1.82 9.54 3.44 18.67 11.75 35.09 12.6-25.45 3.66-28.12-2.63-60.25-1.42-15.09.57-24.34 4.5-42.07 1.34-26.52-5.48-30.87-11.77-42.09-17.87 5.69 3.09 24.82 11.74 43.23 11.13z"/><path fill="#009EE2" d="M443.38 27.42c-8.59-1.53-17.84-2.62-36.69.91-7.2 1.35-18.46 3.48-23.17 4.58-21.68 4.27-27.32 1.36-44.3-.81-9.04-1.16-9.76-2.49-27.94-4.24 16.17 5.25 20.11 7.41 32.77 12.04 13.43 4.91 19.55 8.49 36.89 7.76 29.72-5.6 32.83-19.08 62.44-20.23z"/><path fill="#005095" d="M264.73 39.08c-19.36 8.22-28.27 15.06-43.28 18.25 16.99 1.22 37.88-10.58 71.94-8.91 23.03 1.13 54.07 11.35 65.2 11.76-17.14-4.88-24.28-13.88-42.9-22.12-12-5.31-33.58-6.35-50.95 1.03z"/><path fill="#009EE2" d="M168.16 50.24c.14-.01.28-.04.41-.05-.2.01-.34.03-.41.05M260.16 17.98c-21.03 5.61-28.5 12.8-45.96 22.38-9.15 5.02-27.58 14.83-44.58 16.57 3.14-.22 19.74-.1 39.53-4.53 19.99-4.48 29.37-10.39 45.79-16.43 19.19-7.06 16.97-7.45 32.42-11.1 20.66-4.88 39.56-2.42 49.55-.24 0 0-40.68-16.27-76.75-6.65"/><path fill="#005095" d="M181.61 26.43c-14.55 4.23-20.47 3.37-34.87 3.63 13.04 3.45 21.13 6.21 38.35 4.88 13.57-1.04 25.77-6.38 41.68-12.15C245.49 16 265.08 7.95 296.22 8.35c0 0-38.46-6.51-77.07 3.66-11.59 3.05-30.86 12.47-37.55 14.41zM163.22 12.92c-14.18-.06-23.73-4.6-36.69-7.28-17.76-3.66-27.57-.36-41.1 1.63 13.59.96 39.33 16.59 69.28 14.88 27.33-1.56 57.96-18.11 78.32-18.11-18.64-3.05-45.47 8.99-69.82 8.88z"/><path fill="#009EE2" d="M161.87 41.87c-15.71-.79-29.78-7.02-48.96-8.35-18.39-1.27-24.98-.91-42.82 4.28 25.29-1.84 35.68 4.52 45.5 10.17 12.71 7.32 26.11 8.28 37.45 6.5 13.28-2.08 17.78-3.97 28.42-7.6 10.58-3.62 22.57-7.84 32.7-13.02 0 0-22.68 9.52-52.28 8.02zM86.61 21.66c7.27.71 14.29 2.2 21.39 3.46 6.85 1.23 20.34 3.83 32.09 3.52-9-.25-24.02-5.1-31.11-7.51-7.6-2.58-14.93-5.69-22.61-8.12-7.38-2.34-25.59-10.14-46.86-3.3L36.6 26.19c8.58-1.74 17.19-3.43 25.76-4.34 8.21-.86 16.3-.96 24.23-.19z"/><path fill="#005095" d="M58.61 28.33c-7.2 1.35-18.46 3.48-23.17 4.58l-2.6 14.74c29.74-5.59 32.84-19.08 62.46-20.23-8.59-1.53-17.84-2.62-36.69.91M72.73 58.35c32.13-1.22 34.8 5.08 60.25 1.42-16.42-.85-25.55-9.16-35.09-12.6-10.79-3.89-22.48-6.08-37.21-1.82-7.15 2.06-16.21 7.17-28.83 7.6l-1.19 6.74c17.73 3.16 26.98-.77 42.07-1.34"/><path fill="#009EE2" d="M864.39 50.24c.14-.01.28-.04.41-.05-.2.01-.34.03-.41.05M938.31 7.73c-7.43.89-15.17 2.25-22.92 4.29-11.59 3.05-30.86 12.47-37.55 14.41-14.55 4.23-20.47 3.37-34.87 3.63 13.04 3.45 21.13 6.21 38.35 4.88 13.57-1.04 25.77-6.38 41.68-12.15 4.41-1.6 8.87-3.27 13.51-4.88l1.8-10.19z"/><path fill="#005095" d="M859.45 12.92c-14.18-.06-23.73-4.6-36.69-7.28-17.76-3.66-27.57-.36-41.1 1.63 13.59.96 39.33 16.59 69.28 14.88 27.33-1.56 57.96-18.11 78.32-18.11-18.64-3.05-45.47 8.99-69.82 8.88z"/><path fill="#009EE2" d="M858.1 41.87c-15.71-.79-29.78-7.02-48.96-8.35-18.39-1.27-24.98-.91-42.82 4.28 25.29-1.84 35.68 4.52 45.5 10.17 12.71 7.32 26.11 8.28 37.45 6.5 13.28-2.08 17.78-3.97 28.42-7.6 10.58-3.62 22.57-7.84 32.7-13.02 0 0-22.68 9.52-52.28 8.02z"/><path fill="#005095" d="M805.22 21.13c-7.6-2.58-14.93-5.69-22.61-8.12-7.38-2.34-25.59-10.14-46.86-3.3v.02c-21.04 4.87-38.67 4.05-47.88 2.94C676.84 11.34 665.2 6.92 644.81 0c-.12 0 30.44 17.45 58.27 24.57 4.97 1.27 19.9 3.71 29.86 1.62v-.02c8.55-1.73 17.13-3.42 25.66-4.32 8.21-.86 16.3-.96 24.23-.19 7.27.71 14.29 2.2 21.39 3.46 6.85 1.23 20.34 3.83 32.09 3.52-9-.25-24.02-5.1-31.11-7.51z"/><path fill="#009EE2" d="M729.01 47.65c29.8-5.67 32.98-19.08 62.51-20.23-8.59-1.53-17.84-2.62-36.69.91-7.2 1.35-18.44 3.47-23.46 4.62-21.49 4.2-27.15 1.31-44.08-.86-9.04-1.16-9.76-2.49-27.93-4.24 16.17 5.25 20.11 7.41 32.77 12.04 13.36 4.89 19.49 8.45 36.63 7.77v.04c.08-.02.15-.03.24-.05z"/><path fill="#005095" d="M794.12 47.17c-10.79-3.89-22.47-6.08-37.21-1.82-7.13 2.06-16.61 7.15-29.19 7.6-18.34.53-37.32-8.05-42.99-11.13 11.23 6.11 15.57 12.4 42.16 17.87 17.73 3.16 26.98-.77 42.07-1.34 32.13-1.22 34.8 5.08 60.25 1.42-16.42-.85-25.55-9.16-35.09-12.6M935.08 26.07c-7.89 4.08-14.62 8.79-24.65 14.29-9.15 5.02-27.58 14.83-44.58 16.57 3.14-.22 19.74-.1 39.53-4.53 11.13-2.49 18.97-5.43 26.57-8.59zM930.26 53.42c-3.94 1.6-7.97 2.93-12.58 3.91 3.78.27 7.77-.1 12.04-.83l.54-3.07z"/></svg>