<svg xmlns="http://www.w3.org/2000/svg" style="background-image:radial-gradient(ellipse 33.59% 74.61%at 38.61%0,#89b9e0 10%,#002c52 100%)" viewBox="0 0 330 77"><defs><linearGradient id="b" x1="69" x2="329" y1="85.143" y2="85.143" gradientUnits="userSpaceOnUse"><stop offset="0" stop-color="#e2001a"/><stop offset=".667" stop-color="#9a161d"/></linearGradient><linearGradient id="c" x2="0" y1="31" y2="62" gradientUnits="userSpaceOnUse"><stop offset="0" stop-color="#fff"/><stop offset=".667" stop-color="#c6c7c8"/></linearGradient><linearGradient id="d" x2="0" y1="31" y2="51.5" gradientUnits="userSpaceOnUse"><stop offset="0" stop-color="#fff"/><stop offset="1" stop-color="#c6c7c8"/></linearGradient><linearGradient id="e" x2="0" y1="31" y2="54" gradientUnits="userSpaceOnUse"><stop offset="0" stop-color="#fff"/><stop offset="1" stop-color="#c6c7c8"/></linearGradient></defs><path fill="url(#b)" d="m69 77 9-77h252c0 44.165-35.787 77-80 77z"/><path fill="url(#c)" d="M37.739 10.147H23.368l-5.179 43.26H8.803l5.18-43.26H0l1.036-8.68h37.739z" transform="translate(0 11)"/><path fill="url(#c)" d="M73.496 12.281c-4.337-1.371-7.705-1.904-11.717-1.904-12.945 0-22.072 7.996-22.072 19.876 0 9.598 6.149 14.243 14.047 14.243 2.396 0 4.013-.23 6.602-.989l1.1-9.217h-8.09l.971-8.227h17.479l-3.173 26.504c-2.524.839-8.998 1.523-13.723 1.523-18.385 0-24.924-12.11-24.924-23.457C29.996 17.533 38.607.78 61.78.78c4.856 0 9.32.686 12.817 1.903z" transform="translate(0 11)"/><path fill="url(#d)" d="M110.803 12.281c-3.365-1.221-6.797-1.904-10.68-1.904-14.176 0-18.837 12.109-18.837 20.182 0 8.53 4.854 13.938 12.622 13.938 5.049 0 9.71-1.828 16.054-6.094l-1.359 11.575c-5.438 2.817-10.293 4.113-15.536 4.113-12.815 0-21.489-9.595-21.489-23.761 0-17.441 11.78-29.549 28.806-29.549 3.884 0 7.572.608 11.975 1.903z" transform="translate(0 11)"/><path fill="url(#d)" d="M146.717 25.227c0 10.739-6.926 19.269-15.665 19.269-7.443 0-12.624-6.169-12.624-15.08 0-10.434 7.057-19.039 15.601-19.039 7.381 0 12.688 6.243 12.688 14.85m9.707-.761c0-13.937-8.867-23.685-21.747-23.685-14.953 0-25.957 12.336-25.957 29.168 0 14.242 9.45 24.142 22.268 24.142 14.628 0 25.436-11.728 25.436-29.625" transform="translate(0 11)"/><path fill="url(#d)" d="M208.609 53.406h-9.064l-1.36-35.107h-.129L181.68 53.406h-4.465l-7.77-36.1h-.128l-9.97 36.1h-9.451l14.372-51.939h10.292l7.119 32.671 14.889-32.671h9.968z" transform="translate(0 11)"/><path fill="url(#e)" d="m31.154 35.944 2.868-4.187c3.691-5.393 5.561-10.435 5.561-14.992 0-4.809-1.707-8.823-5.076-11.924C31.178 1.781 26.868.229 21.688.229c-5.53 0-10.25 1.775-14.029 5.276-3.821 3.541-5.742 8.551-5.716 14.889l.008 1.82h14.21l.105-1.713c.226-3.641.916-5.431 1.458-6.293.385-.613 1.123-1.429 3.057-1.429 1.35 0 2.43.421 3.304 1.286.866.857 1.288 1.938 1.288 3.305 0 1.406-.444 2.976-1.323 4.668-.961 1.851-2.619 4.294-4.928 7.258L.39 53.113h39.194V40.485H27.835c1.296-1.664 2.411-3.187 3.319-4.541M75.189.946H62.054l-22.47 28.035v11.37h21.395v12.641h14.21v-12.64h12.065V27.875H75.189zm-13.48 27.855h-8.43l8.43-10.684z" transform="translate(217 11)"/></svg>