<svg xmlns="http://www.w3.org/2000/svg" xml:space="preserve" fill="#fff" viewBox="0 0 1367 845.2"><linearGradient id="a" x1="187.723" x2="253.438" y1="645.654" y2="645.654" gradientTransform="matrix(0 12.8618 12.8618 0 -7887.159 -2414.46)" gradientUnits="userSpaceOnUse"><stop offset="0" style="stop-color:#84001a"/><stop offset=".472" style="stop-color:#de000b"/><stop offset="1" style="stop-color:#e3000a"/></linearGradient><path d="M619.5 845.2V0H214.8z" style="fill:url(#a)"/><path d="M132.4 262.4v168.3H62V262.4H0v-53.9h194.4v53.9zM302.9 434.4c-51.1 0-99.4-20.6-99.4-86v-57c0-60.1 47.1-86.6 98.5-86.6 50.8 0 100.3 21.5 100.3 86.6v56.7c0 63.6-50.2 86.3-99.4 86.3m28.9-145.2c0-19.9-13.7-29.9-29.3-29.9-18.7 0-28.7 9.7-28.7 29.9v59.2c0 20.2 10 31.5 29.3 31.5 17.7 0 28.7-11.6 28.7-30.2zM530.6 360.3h-40.8v70.4H420V208.5h110.6c55.5 0 79.8 36.1 79.8 73.3 0 38.6-22.1 78.5-79.8 78.5m-12.7-99.5h-28.1v48.6h27.7c16.2 0 25-11.8 25-24.3 0-12.1-7.8-24.3-24.6-24.3M684.2 434.4c-43.4 0-66.2-25.1-66.2-68.5v-40.4c0-42.1 25.4-68.9 66.2-68.9 43.4 0 62.1 24.1 62.1 51.9v5.1h-19.7v-5.7c0-10.9-7.8-33.6-41.7-33.6-33.6 0-45.1 21.8-45.1 52.6v38.7c0 28.8 10.9 51.2 44.8 51.2 34 0 42.1-22.7 42.1-33.6v-5.8h19.7v5.1c-.1 27.8-18.7 51.9-62.2 51.9M854.9 277.6c-5.1 0-12.9 1-18 2.7-18.3 6.1-34.6 23.8-34.6 51.9v98.1h-21V260.6H802v31.9h.7c15.9-23.7 32.6-33.6 57-33.6 6.4 0 10.9 1 16 1.7V280c-7.2-1.7-16.7-2.4-20.8-2.4M903.5 260.6h21v169.7h-21zM1178 430.3v-114c0-28.8-14.3-41.7-34.3-41.7-24.4 0-49.2 24.7-49.2 55.3v100.5h-21.1v-114c0-28.8-14.3-41.7-34.2-41.7-24.4 0-49.2 24.7-49.2 55.3v100.5h-21V260.7h20.3v29.5h1.1c12.2-20.4 28.2-33.6 54.7-33.6 26.8 0 41.7 15.9 47.1 33.9h1.4c12.2-20.4 29.2-33.9 56-33.9 35.6 0 49.5 27.5 49.5 51.6v122.2H1178zM1309.3 434.4c-42.1 0-74-21.4-74-69.3v-38c0-46.9 28.8-70.6 68.9-70.6 39 0 62.8 24.4 62.8 68.2v27.1h-110.3v12.6c0 29.2 18 51.6 54 51.6 17.3 0 32.9-11.2 42.1-23.1l14.3 9.5c-14.6 21.8-35.7 32-57.8 32m37.4-111c0-23.8-8.2-49.2-43.1-49.2-32.6 0-46.9 22.7-46.9 46.2V335h90z"/></svg>