<svg xmlns="http://www.w3.org/2000/svg" xml:space="preserve" width="500" height="500"><linearGradient id="a" x1="250" x2="250" y1="385.74" y2="-114.26" gradientTransform="matrix(1 0 0 -1 0 385.74)" gradientUnits="userSpaceOnUse"><stop offset="0" style="stop-color:#00cbe1"/><stop offset=".79" style="stop-color:#0a1e26"/></linearGradient><circle cx="250" cy="250" r="250" fill="url(#a)"/><path fill="#FFF" d="M175.832 345.377h-7.784c-1.517 5.404-5.017 8.716-11.284 8.716-8.051 0-11.849-5.116-11.899-14.03h31.283c.274-1.726.433-3.468.476-5.216 0-10.996-6.822-21.051-21.338-21.051-14.12 0-23.986 9.013-23.986 24.65s10.243 23.708 23.044 23.708c11.999 0 19.683-6.355 21.488-16.777m-21.239-24.848c5.116 0 8.815 3.699 8.815 12.702h-18.393c.565-7.863 3.886-12.702 9.578-12.702M185.688 353.905h-5.305v6.832h27.397v-6.832h-4.829a2.093 2.093 0 0 1-2.281-2.271v-12.989c0-11.095 3.51-15.557 9.856-15.557 5.602 0 8.25 3.322 8.25 11.095v17.451a2.093 2.093 0 0 1-2.271 2.271h-4.74v6.832h27.119v-6.832h-5.126a2.093 2.093 0 0 1-2.271-2.271v-19.345c0-12.137-5.503-18.393-15.27-18.393-8.924 0-13.465 5.592-15.736 10.709v-9.291h-20.099v6.832h5.305a2.093 2.093 0 0 1 2.281 2.271v27.218a2.09 2.09 0 0 1-2.28 2.27M174.85 377.91c-18.522 0-31.66 12.613-31.66 34.03 0 21.15 13.138 32.572 30.609 32.572 15.766 0 26.018-9.321 28.378-23.252h-9.459c-1.983 8.279-7.357 13.138-16.291 13.138-12.474 0-17.6-8.141-17.729-20.892h43.48c.403-2.252.622-4.534.654-6.822 0-14.714-8.666-28.774-27.982-28.774m-15.865 27.06c.922-12.474 6.703-18.651 14.873-18.651 7.883 0 13.931 5.781 13.931 18.651zM273.906 379.883h-30.351v8.666h9.063c1.577 0 2.241.793 2.241 1.844a4 4 0 0 1-.268 1.309L239.48 429.54l-15.101-37.877a4 4 0 0 1-.268-1.309c0-1.051.664-1.844 2.241-1.844h8.924v-8.666h-34.982v8.666h4.204c2.628 0 3.55.793 4.601 3.421l22.369 52.285h11.304l22.201-52.285c1.18-2.628 1.983-3.421 4.601-3.421h4.333v-8.627z"/><path fill="#FFF" d="M401.331 430.72v-27.327c0-16.856-7.754-25.483-20.892-25.483h-.992c14.754-6.257 23.797-21.011 23.797-40.545 0-103.29 2.657-116.795 71.283-197.388a250.3 250.3 0 0 0-28.19-44.788c-10.401.714-21.17 1.13-30.599 1.13-35.974.03-84.758-2.122-124.698-5.374 0-.992.06-2.082.06-3.133 0-37.897-26.841-77.609-85.849-83.846A249.14 249.14 0 0 0 85.62 61.654a80.8 80.8 0 0 0-6.792 32.166c0 33.524 18.046 47.704 39.097 47.704 25.354 0 39.533-18.483 39.533-36.102 0-20.148-13.317-33.039-29.211-33.039a25 25 0 0 0-5.156.426c2.975-13.326 19.335-30.51 45.968-30.51 27.079 0 46.841 18.473 46.841 49.845 0 35.696-23.629 67.029-134.068 146.532v53.712l207.552-.436 7.734-91.52h-35.696l-2.975 14.179c-2.578 12.89-7.298 17.62-22.806 18.473L129.1 241.215c57.698-36.102 107.564-61.754 136.2-92.591l-3.827 47.842 36.092-.863 4.303-23.202c2.578-13.743 8.587-18.473 23.629-18.473h42.538c27.506 0 49.845-2.975 67.039-8.597-65.037 60.485-101.794 117.767-109.964 169.983h-19.662v6.832h5.949c1.14 0 1.616.565 1.616 1.329a5 5 0 0 1-.188 1.13l-10.342 24.184-10.144-24.184a5.3 5.3 0 0 1-.278-1.13c0-.763.466-1.329 1.606-1.329h5.88v-6.832h-42.27v-12.989h-8.061l-1.795 6.733c-.992 3.599-3.133 6.544-7.585 6.544h-3.133v6.544h7.873v26.167c0 8.924 5.592 13.753 14.219 13.753 8.924 0 13.941-4.958 13.941-12.801v-12.523h-7.109v12.137c0 3.966-1.14 5.315-4.085 5.315s-4.264-1.329-4.264-5.315v-26.772h18.492c1.894 0 2.459.565 3.322 2.459l17.065 37.738c-5.691 11.284-9.202 13.089-12.613 13.089a4.16 4.16 0 0 1-2.846-.992c4.075-.754 5.116-3.788 5.116-5.691 0-3.599-3.123-5.87-6.822-5.87a6.94 6.94 0 0 0-6.941 7.199c0 5.503 4.264 11.195 12.424 11.195 1.103.003 2.203-.11 3.282-.337-10.51 4.958-17.164 15.726-17.164 30.966 0 21.15 13.138 32.572 30.609 32.572 15.766 0 26.018-9.321 28.378-23.252h-9.459c-1.983 8.279-7.357 13.138-16.291 13.138-12.474 0-17.6-8.141-17.729-20.892h43.48c.403-2.253.622-4.534.654-6.822 0-14.715-8.666-28.755-27.982-28.755a35.5 35.5 0 0 0-10.6 1.557c5.424-3.133 9.459-10.352 14.873-22.34l14.784-32.523c.694-1.715 1.319-2.34 2.836-2.439a142 142 0 0 0-.863 15.24c0 21.963 10.907 37.887 28.289 42.478h-18.036v8.666h8.151a2.905 2.905 0 0 1 3.153 3.153v39.018a2.905 2.905 0 0 1-3.153 3.153h-8.151v8.676h36.687v-8.676h-7.754a2.895 2.895 0 0 1-3.153-3.153v-18.463c0-16.946 5.949-23.123 15.111-23.123 8.408 0 12.474 5.126 12.474 16.291v25.354a2.895 2.895 0 0 1-3.153 3.153h-7.615v8.676h33.376c.992-.843 1.983-1.705 3.024-2.558v-6.118h-8.012a2.894 2.894 0 0 1-3.19-3.154m-100.147-44.401c7.883 0 13.882 5.781 13.882 18.651h-28.755c.992-12.474 6.772-18.651 14.913-18.651zm57.807 6.177v-11.393c1.12.079 2.261.139 3.421.139a47.5 47.5 0 0 0 6.594-.456 23.87 23.87 0 0 0-9.975 11.71z"/><path fill="#FFF" d="M111.916 322.145h3.887c1.14 0 1.616.565 1.616 1.329a4.4 4.4 0 0 1-.188.992l-8.726 24.938-9.202-24.938a2.14 2.14 0 0 1-.278-.992c0-.853.466-1.418 1.606-1.418h4.075v-6.743H80.623v6.832h4.085c1.13 0 1.606.565 1.606 1.329-.02.337-.083.671-.188.992L77.5 349.403l-9.291-24.938a2.2 2.2 0 0 1-.288-.992c0-.763.476-1.329 1.616-1.329h3.966v-6.832H33.217v-12.989h-8.061l-1.795 6.733c-.992 3.599-3.133 6.544-7.585 6.544h-3.133v6.544h7.873v27.248A249 249 0 0 0 24.918 359a15.1 15.1 0 0 0 9.787 3.064c8.924 0 13.941-4.958 13.941-12.801V336.74h-7.08v12.137c0 3.966-1.14 5.315-4.085 5.315s-4.264-1.329-4.264-5.315v-26.772H51.61c1.904 0 2.558.565 3.322 2.459l15.359 37.074h9.916l10.332-28.824 10.996 28.824h9.916l14.407-37.074c.763-1.894 1.428-2.459 3.322-2.459h3.133v-6.792h-20.396zM118.986 406.16l-14.189-3.421c-6.435-1.577-8.537-4.204-8.537-8.279s3.411-7.218 11.423-7.218c7.754 0 15.369 2.975 18.661 14.189h8.27v-21.665h-8.795l-.526 6.693c-2.895-4.204-9.598-8.537-19.712-8.537-14.318 0-22.806 8.141-22.806 18.651s8.141 16.033 17.997 18.393l14.189 3.55c6.435 1.577 9.192 4.958 9.192 8.924 0 4.859-4.065 8.012-12.216 8.012-7.883 0-16.678-2.757-20.882-15.865h-8.418v16.152a257 257 0 0 0 8.21 7.1h.724l.526-8.141c4.462 6.564 12.603 9.985 21.279 9.985 15.24 0 24.303-8.279 24.303-19.712-.002-11.851-9.59-16.58-18.693-18.811"/></svg>