<svg xmlns="http://www.w3.org/2000/svg" xml:space="preserve" width="289.066" height="290.417"><linearGradient id="a" x1="28.047" x2="241.145" y1="195.433" y2="72.401" gradientUnits="userSpaceOnUse"><stop offset="0" style="stop-color:#fca404"/><stop offset="1" style="stop-color:#f9c902"/></linearGradient><path fill="url(#a)" d="M236.726 130.568c28.908 0 52.34 23.432 52.34 52.322 0 28.908-23.432 52.34-52.34 52.34-17.973 0-33.823-9.086-43.235-22.887-19.315 30.559-45.049 56.765-75.282 76.859-.907.617-1.813 1.215-2.43 1.215-.598 0-1.505-.598-2.412-1.215C45.466 244.044 0 168.255 0 80.967c0-10.011.907-20.004 2.72-29.398.308-1.215.599-1.669 1.215-1.832l21.817-5.749 3.029-12.441c.163-.598.308-1.052.925-1.197l22.416-6.075 2.739-11.825c.145-.907.599-1.36 1.215-1.505L114.346.136a7.7 7.7 0 0 1 2.884 0l58.27 10.809c.599.145 1.052.598 1.215 1.505l2.721 11.825 22.434 6.075c.617.145.762.599.907 1.197l3.029 12.441 21.835 5.749c.599.163.907.617 1.215 1.832 1.814 9.394 2.72 19.387 2.72 29.398 0 17.41-1.886 34.313-5.314 50.653a52.5 52.5 0 0 1 10.464-1.052"/><path d="M107.309 36.009c0-.598-.308-.907-.925-.907-5.441.599-9.993 1.505-15.143 2.721-1.215.308-1.523.907-1.523 2.122l.617 108.796c0 13.638 0 24.846.599 37.577 0 .907-.907 1.215-1.215.308-11.209-34.857-16.36-78.492-15.453-141.531 0-1.215-.308-1.505-1.813-.907-5.15 2.122-11.208 5.459-14.545 7.581-.907.599-1.215 1.215-1.215 2.72-.907 43.345 2.72 80.922 9.086 109.105l-3.337 2.122c-1.197.907-2.122.907-3.029-.907-10.609-23.649-17.265-59.703-17.265-98.495 0-1.523-.907-2.122-1.813-1.215-4.552 4.243-9.394 9.086-13.348 13.946-1.215 1.505-1.505 2.43-1.505 3.936.907 31.52 10.9 76.37 26.369 103.646 1.814 3.337 4.226 4.244 7.272 2.122l11.516-7.272c7.563 25.462 18.789 48.785 35.455 67.882.599.598 1.215.308 1.215-.308zM181.249 106.92c6.656-7.272 10.61-17.265 10.61-27.567 0-24.555-26.061-41.531-66.685-44.251-.599 0-.907.309-.907.907V249.05c0 .617.617.907 1.215.308 29.035-26.859 47.715-50.164 59.086-69.714a52.03 52.03 0 0 1 13.402-31.792c1.197-5.114 1.759-9.793 1.759-13.964 0-13.331-5.15-23.323-18.48-26.968m-39.703-51.825c18.48 1.215 32.427 11.226 32.427 23.341 0 12.732-9.086 26.37-32.427 40.008zm.005 152.44v-68.48c17.882-12.732 23.631-15.162 29.997-15.162 5.749 0 9.702 4.843 9.702 13.33.001 12.133-8.795 35.763-39.699 70.312M271.891 161.182h-15.034l-7.2 22.815-7.2-22.815h-40.896v11.77h7.998v31.665h14.164v-31.665h7.871l11.552 31.665h13.022z"/></svg>